<?xml version="1.0" encoding="UTF-8"?>
<svg xmlns="http://www.w3.org/2000/svg" xmlns:xlink="http://www.w3.org/1999/xlink" width="312.85439" height="244.474996" viewBox="0 0 312.85439 244.474996" version="1.1">
<defs>
<filter id="alpha" filterUnits="objectBoundingBox" x="0%" y="0%" width="100%" height="100%">
  <feColorMatrix type="matrix" in="SourceGraphic" values="0 0 0 0 1 0 0 0 0 1 0 0 0 0 1 0 0 0 1 0"/>
</filter>
<mask id="mask0">
  <g filter="url(#alpha)">
<rect x="0" y="0" width="312.85439" height="244.474996" style="fill:rgb(0%,0%,0%);fill-opacity:0.8;stroke:none;"/>
  </g>
</mask>
<clipPath id="clip1">
  <rect x="0" y="0" width="313" height="245"/>
</clipPath>
<g id="surface5" clip-path="url(#clip1)">
<path style="fill-rule:nonzero;fill:rgb(100%,100%,100%);fill-opacity:1;stroke-width:1;stroke-linecap:butt;stroke-linejoin:miter;stroke:rgb(80.000001%,80.000001%,80.000001%);stroke-opacity:1;stroke-miterlimit:4;" d="M 126.852539 73.913086 L 218.402344 73.913086 C 219.735352 73.913086 220.40332 73.245117 220.40332 71.912109 L 220.40332 14.200195 C 220.40332 12.867187 219.735352 12.199219 218.402344 12.199219 L 126.852539 12.199219 C 125.519531 12.199219 124.851562 12.867187 124.851562 14.200195 L 124.851562 71.912109 C 124.851562 73.245117 125.519531 73.913086 126.852539 73.913086 Z M 126.852539 73.913086 " transform="matrix(1.333333,0,0,1.333333,0,0.000000000000014211)"/>
</g>
</defs>
<g id="surface1">
<path style=" stroke:none;fill-rule:nonzero;fill:rgb(100%,100%,100%);fill-opacity:1;" d="M 0 244.476562 L 312.855469 244.476562 L 312.855469 0 L 0 0 Z M 0 244.476562 "/>
<path style=" stroke:none;fill-rule:nonzero;fill:rgb(100%,100%,100%);fill-opacity:1;" d="M 40.136719 194.398438 L 300.539062 194.398438 L 300.539062 9.601562 L 40.136719 9.601562 Z M 40.136719 194.398438 "/>
<path style="fill:none;stroke-width:0.8;stroke-linecap:butt;stroke-linejoin:round;stroke:rgb(0%,0%,0%);stroke-opacity:1;stroke-miterlimit:4;" d="M -0.000904083 -0.00117493 L -0.000904083 3.499802 " transform="matrix(1.333333,0,0,1.333333,51.973862,194.400004)"/>
<path style=" stroke:none;fill-rule:nonzero;fill:rgb(0%,0%,0%);fill-opacity:1;" d="M 51.96875 205.011719 C 51.292969 205.011719 50.785156 205.34375 50.441406 206.011719 C 50.101562 206.675781 49.933594 207.675781 49.933594 209.015625 C 49.933594 210.347656 50.101562 211.347656 50.441406 212.011719 C 50.785156 212.679688 51.292969 213.011719 51.96875 213.011719 C 52.652344 213.011719 53.164062 212.679688 53.503906 212.011719 C 53.84375 211.347656 54.015625 210.347656 54.015625 209.015625 C 54.015625 207.675781 53.84375 206.675781 53.503906 206.011719 C 53.164062 205.34375 52.652344 205.011719 51.96875 205.011719 Z M 51.96875 203.96875 C 53.058594 203.96875 53.894531 204.398438 54.46875 205.261719 C 55.042969 206.125 55.332031 207.375 55.332031 209.015625 C 55.332031 210.652344 55.042969 211.898438 54.46875 212.761719 C 53.894531 213.625 53.058594 214.054688 51.96875 214.054688 C 50.878906 214.054688 50.050781 213.625 49.472656 212.761719 C 48.898438 211.898438 48.613281 210.652344 48.613281 209.015625 C 48.613281 207.375 48.898438 206.125 49.472656 205.261719 C 50.050781 204.398438 50.878906 203.96875 51.96875 203.96875 Z M 51.96875 203.96875 "/>
<path style="fill:none;stroke-width:0.8;stroke-linecap:butt;stroke-linejoin:round;stroke:rgb(0%,0%,0%);stroke-opacity:1;stroke-miterlimit:4;" d="M -0.000968933 -0.00117493 L -0.000968933 3.499802 " transform="matrix(1.333333,0,0,1.333333,112.673167,194.400004)"/>
<path style=" stroke:none;fill-rule:nonzero;fill:rgb(0%,0%,0%);fill-opacity:1;" d="M 105.84375 212.757812 L 107.992188 212.757812 L 107.992188 205.339844 L 105.65625 205.808594 L 105.65625 204.613281 L 107.980469 204.144531 L 109.292969 204.144531 L 109.292969 212.757812 L 111.441406 212.757812 L 111.441406 213.863281 L 105.84375 213.863281 Z M 105.84375 212.757812 "/>
<path style=" stroke:none;fill-rule:nonzero;fill:rgb(0%,0%,0%);fill-opacity:1;" d="M 116.910156 205.011719 C 116.234375 205.011719 115.726562 205.34375 115.382812 206.011719 C 115.042969 206.675781 114.871094 207.675781 114.871094 209.015625 C 114.871094 210.347656 115.042969 211.347656 115.382812 212.011719 C 115.726562 212.679688 116.234375 213.011719 116.910156 213.011719 C 117.59375 213.011719 118.101562 212.679688 118.445312 212.011719 C 118.785156 211.347656 118.957031 210.347656 118.957031 209.015625 C 118.957031 207.675781 118.785156 206.675781 118.445312 206.011719 C 118.101562 205.34375 117.59375 205.011719 116.910156 205.011719 Z M 116.910156 203.96875 C 118 203.96875 118.832031 204.398438 119.410156 205.261719 C 119.984375 206.125 120.269531 207.375 120.269531 209.015625 C 120.269531 210.652344 119.984375 211.898438 119.410156 212.761719 C 118.832031 213.625 118 214.054688 116.910156 214.054688 C 115.820312 214.054688 114.988281 213.625 114.414062 212.761719 C 113.839844 211.898438 113.550781 210.652344 113.550781 209.015625 C 113.550781 207.375 113.839844 206.125 114.414062 205.261719 C 114.988281 204.398438 115.820312 203.96875 116.910156 203.96875 Z M 116.910156 203.96875 "/>
<path style="fill:none;stroke-width:0.8;stroke-linecap:butt;stroke-linejoin:round;stroke:rgb(0%,0%,0%);stroke-opacity:1;stroke-miterlimit:4;" d="M -0.00102234 -0.00117493 L -0.00102234 3.499802 " transform="matrix(1.333333,0,0,1.333333,173.372457,194.400004)"/>
<path style=" stroke:none;fill-rule:nonzero;fill:rgb(0%,0%,0%);fill-opacity:1;" d="M 167.449219 212.757812 L 172.035156 212.757812 L 172.035156 213.863281 L 165.867188 213.863281 L 165.867188 212.757812 C 166.363281 212.242188 167.042969 211.546875 167.90625 210.679688 C 168.769531 209.808594 169.308594 209.246094 169.53125 208.992188 C 169.953125 208.523438 170.246094 208.121094 170.410156 207.792969 C 170.582031 207.464844 170.664062 207.144531 170.664062 206.828125 C 170.664062 206.308594 170.484375 205.890625 170.121094 205.566406 C 169.757812 205.238281 169.285156 205.074219 168.703125 205.074219 C 168.292969 205.074219 167.855469 205.148438 167.398438 205.289062 C 166.941406 205.433594 166.453125 205.648438 165.929688 205.941406 L 165.929688 204.613281 C 166.460938 204.398438 166.953125 204.238281 167.414062 204.132812 C 167.875 204.023438 168.296875 203.96875 168.679688 203.96875 C 169.6875 203.96875 170.488281 204.222656 171.085938 204.726562 C 171.6875 205.226562 171.984375 205.898438 171.984375 206.742188 C 171.984375 207.140625 171.910156 207.519531 171.761719 207.878906 C 171.613281 208.234375 171.339844 208.65625 170.941406 209.144531 C 170.835938 209.269531 170.488281 209.632812 169.90625 210.234375 C 169.328125 210.835938 168.507812 211.679688 167.449219 212.757812 Z M 167.449219 212.757812 "/>
<path style=" stroke:none;fill-rule:nonzero;fill:rgb(0%,0%,0%);fill-opacity:1;" d="M 177.609375 205.011719 C 176.933594 205.011719 176.425781 205.34375 176.082031 206.011719 C 175.742188 206.675781 175.570312 207.675781 175.570312 209.015625 C 175.570312 210.347656 175.742188 211.347656 176.082031 212.011719 C 176.425781 212.679688 176.933594 213.011719 177.609375 213.011719 C 178.292969 213.011719 178.804688 212.679688 179.144531 212.011719 C 179.484375 211.347656 179.65625 210.347656 179.65625 209.015625 C 179.65625 207.675781 179.484375 206.675781 179.144531 206.011719 C 178.804688 205.34375 178.292969 205.011719 177.609375 205.011719 Z M 177.609375 203.96875 C 178.699219 203.96875 179.53125 204.398438 180.109375 205.261719 C 180.683594 206.125 180.96875 207.375 180.96875 209.015625 C 180.96875 210.652344 180.683594 211.898438 180.109375 212.761719 C 179.53125 213.625 178.699219 214.054688 177.609375 214.054688 C 176.519531 214.054688 175.6875 213.625 175.113281 212.761719 C 174.539062 211.898438 174.25 210.652344 174.25 209.015625 C 174.25 207.375 174.539062 206.125 175.113281 205.261719 C 175.6875 204.398438 176.519531 203.96875 177.609375 203.96875 Z M 177.609375 203.96875 "/>
<path style="fill:none;stroke-width:0.8;stroke-linecap:butt;stroke-linejoin:round;stroke:rgb(0%,0%,0%);stroke-opacity:1;stroke-miterlimit:4;" d="M -0.00108337 -0.00117493 L -0.00108337 3.499802 " transform="matrix(1.333333,0,0,1.333333,234.071757,194.400004)"/>
<path style=" stroke:none;fill-rule:nonzero;fill:rgb(0%,0%,0%);fill-opacity:1;" d="M 231 208.621094 C 231.628906 208.757812 232.117188 209.039062 232.472656 209.464844 C 232.824219 209.890625 233.003906 210.414062 233.003906 211.039062 C 233.003906 211.996094 232.671875 212.742188 232.011719 213.265625 C 231.355469 213.792969 230.417969 214.054688 229.199219 214.054688 C 228.792969 214.054688 228.375 214.015625 227.941406 213.933594 C 227.511719 213.851562 227.066406 213.730469 226.605469 213.570312 L 226.605469 212.300781 C 226.96875 212.515625 227.367188 212.675781 227.800781 212.785156 C 228.234375 212.890625 228.691406 212.945312 229.164062 212.945312 C 229.988281 212.945312 230.613281 212.785156 231.046875 212.457031 C 231.480469 212.132812 231.695312 211.660156 231.695312 211.039062 C 231.695312 210.464844 231.492188 210.019531 231.09375 209.695312 C 230.691406 209.371094 230.132812 209.210938 229.417969 209.210938 L 228.285156 209.210938 L 228.285156 208.128906 L 229.46875 208.128906 C 230.117188 208.128906 230.609375 208 230.953125 207.742188 C 231.296875 207.484375 231.46875 207.109375 231.46875 206.625 C 231.46875 206.125 231.289062 205.742188 230.9375 205.476562 C 230.582031 205.210938 230.078125 205.074219 229.417969 205.074219 C 229.054688 205.074219 228.667969 205.113281 228.257812 205.195312 C 227.84375 205.273438 227.390625 205.390625 226.898438 205.554688 L 226.898438 204.386719 C 227.398438 204.246094 227.863281 204.140625 228.300781 204.074219 C 228.738281 204.003906 229.148438 203.96875 229.535156 203.96875 C 230.53125 203.96875 231.324219 204.195312 231.902344 204.648438 C 232.484375 205.101562 232.777344 205.714844 232.777344 206.488281 C 232.777344 207.027344 232.621094 207.480469 232.3125 207.851562 C 232.003906 208.222656 231.566406 208.480469 231 208.621094 Z M 231 208.621094 "/>
<path style=" stroke:none;fill-rule:nonzero;fill:rgb(0%,0%,0%);fill-opacity:1;" d="M 238.308594 205.011719 C 237.632812 205.011719 237.125 205.34375 236.78125 206.011719 C 236.441406 206.675781 236.273438 207.675781 236.273438 209.015625 C 236.273438 210.347656 236.441406 211.347656 236.78125 212.011719 C 237.125 212.679688 237.632812 213.011719 238.308594 213.011719 C 238.992188 213.011719 239.503906 212.679688 239.84375 212.011719 C 240.183594 211.347656 240.355469 210.347656 240.355469 209.015625 C 240.355469 207.675781 240.183594 206.675781 239.84375 206.011719 C 239.503906 205.34375 238.992188 205.011719 238.308594 205.011719 Z M 238.308594 203.96875 C 239.398438 203.96875 240.230469 204.398438 240.808594 205.261719 C 241.382812 206.125 241.667969 207.375 241.667969 209.015625 C 241.667969 210.652344 241.382812 211.898438 240.808594 212.761719 C 240.230469 213.625 239.398438 214.054688 238.308594 214.054688 C 237.21875 214.054688 236.386719 213.625 235.8125 212.761719 C 235.238281 211.898438 234.949219 210.652344 234.949219 209.015625 C 234.949219 207.375 235.238281 206.125 235.8125 205.261719 C 236.386719 204.398438 237.21875 203.96875 238.308594 203.96875 Z M 238.308594 203.96875 "/>
<path style="fill:none;stroke-width:0.8;stroke-linecap:butt;stroke-linejoin:round;stroke:rgb(0%,0%,0%);stroke-opacity:1;stroke-miterlimit:4;" d="M -0.00114441 -0.00117493 L -0.00114441 3.499802 " transform="matrix(1.333333,0,0,1.333333,294.771057,194.400004)"/>
<path style=" stroke:none;fill-rule:nonzero;fill:rgb(0%,0%,0%);fill-opacity:1;" d="M 291.328125 205.289062 L 288.007812 210.480469 L 291.328125 210.480469 Z M 290.980469 204.144531 L 292.636719 204.144531 L 292.636719 210.480469 L 294.023438 210.480469 L 294.023438 211.574219 L 292.636719 211.574219 L 292.636719 213.863281 L 291.328125 213.863281 L 291.328125 211.574219 L 286.941406 211.574219 L 286.941406 210.304688 Z M 290.980469 204.144531 "/>
<path style=" stroke:none;fill-rule:nonzero;fill:rgb(0%,0%,0%);fill-opacity:1;" d="M 299.007812 205.011719 C 298.332031 205.011719 297.824219 205.34375 297.480469 206.011719 C 297.140625 206.675781 296.972656 207.675781 296.972656 209.015625 C 296.972656 210.347656 297.140625 211.347656 297.480469 212.011719 C 297.824219 212.679688 298.332031 213.011719 299.007812 213.011719 C 299.691406 213.011719 300.203125 212.679688 300.542969 212.011719 C 300.882812 211.347656 301.054688 210.347656 301.054688 209.015625 C 301.054688 207.675781 300.882812 206.675781 300.542969 206.011719 C 300.203125 205.34375 299.691406 205.011719 299.007812 205.011719 Z M 299.007812 203.96875 C 300.097656 203.96875 300.929688 204.398438 301.507812 205.261719 C 302.082031 206.125 302.367188 207.375 302.367188 209.015625 C 302.367188 210.652344 302.082031 211.898438 301.507812 212.761719 C 300.929688 213.625 300.097656 214.054688 299.007812 214.054688 C 297.917969 214.054688 297.085938 213.625 296.511719 212.761719 C 295.9375 211.898438 295.648438 210.652344 295.648438 209.015625 C 295.648438 207.375 295.9375 206.125 296.511719 205.261719 C 297.085938 204.398438 297.917969 203.96875 299.007812 203.96875 Z M 299.007812 203.96875 "/>
<path style=" stroke:none;fill-rule:nonzero;fill:rgb(0%,0%,0%);fill-opacity:1;" d="M 157.71875 222.738281 L 157.71875 224.808594 L 160.183594 224.808594 L 160.183594 225.742188 L 157.71875 225.742188 L 157.71875 229.699219 C 157.71875 230.292969 157.800781 230.675781 157.960938 230.847656 C 158.125 231.015625 158.457031 231.101562 158.957031 231.101562 L 160.183594 231.101562 L 160.183594 232.101562 L 158.957031 232.101562 C 158.03125 232.101562 157.390625 231.929688 157.039062 231.585938 C 156.6875 231.238281 156.511719 230.609375 156.511719 229.699219 L 156.511719 225.742188 L 155.632812 225.742188 L 155.632812 224.808594 L 156.511719 224.808594 L 156.511719 222.738281 Z M 157.71875 222.738281 "/>
<path style=" stroke:none;fill-rule:nonzero;fill:rgb(0%,0%,0%);fill-opacity:1;" d="M 161.761719 224.808594 L 162.957031 224.808594 L 162.957031 232.101562 L 161.761719 232.101562 Z M 161.761719 221.972656 L 162.957031 221.972656 L 162.957031 223.488281 L 161.761719 223.488281 Z M 161.761719 221.972656 "/>
<path style=" stroke:none;fill-rule:nonzero;fill:rgb(0%,0%,0%);fill-opacity:1;" d="M 171.140625 226.210938 C 171.441406 225.671875 171.800781 225.273438 172.214844 225.019531 C 172.632812 224.761719 173.125 224.636719 173.6875 224.636719 C 174.445312 224.636719 175.035156 224.902344 175.445312 225.433594 C 175.859375 225.964844 176.066406 226.71875 176.066406 227.699219 L 176.066406 232.101562 L 174.859375 232.101562 L 174.859375 227.738281 C 174.859375 227.039062 174.734375 226.523438 174.488281 226.183594 C 174.242188 225.847656 173.863281 225.675781 173.355469 225.675781 C 172.734375 225.675781 172.246094 225.882812 171.882812 226.296875 C 171.523438 226.707031 171.34375 227.269531 171.34375 227.980469 L 171.34375 232.101562 L 170.140625 232.101562 L 170.140625 227.738281 C 170.140625 227.035156 170.015625 226.515625 169.769531 226.179688 C 169.523438 225.84375 169.140625 225.675781 168.621094 225.675781 C 168.011719 225.675781 167.523438 225.882812 167.164062 226.296875 C 166.804688 226.710938 166.621094 227.273438 166.621094 227.980469 L 166.621094 232.101562 L 165.417969 232.101562 L 165.417969 224.808594 L 166.621094 224.808594 L 166.621094 225.945312 C 166.898438 225.496094 167.222656 225.167969 167.605469 224.953125 C 167.988281 224.742188 168.441406 224.636719 168.964844 224.636719 C 169.496094 224.636719 169.949219 224.769531 170.320312 225.039062 C 170.691406 225.308594 170.964844 225.699219 171.140625 226.210938 Z M 171.140625 226.210938 "/>
<path style=" stroke:none;fill-rule:nonzero;fill:rgb(0%,0%,0%);fill-opacity:1;" d="M 184.691406 228.15625 L 184.691406 228.742188 L 179.183594 228.742188 C 179.234375 229.566406 179.484375 230.195312 179.929688 230.628906 C 180.371094 231.058594 180.992188 231.273438 181.785156 231.273438 C 182.246094 231.273438 182.691406 231.21875 183.125 231.105469 C 183.554688 230.992188 183.984375 230.824219 184.410156 230.597656 L 184.410156 231.730469 C 183.980469 231.914062 183.539062 232.050781 183.089844 232.148438 C 182.636719 232.242188 182.179688 232.292969 181.714844 232.292969 C 180.550781 232.292969 179.628906 231.953125 178.949219 231.277344 C 178.273438 230.597656 177.933594 229.683594 177.933594 228.527344 C 177.933594 227.335938 178.253906 226.386719 178.898438 225.6875 C 179.542969 224.984375 180.414062 224.636719 181.507812 224.636719 C 182.488281 224.636719 183.261719 224.953125 183.835938 225.582031 C 184.40625 226.214844 184.691406 227.070312 184.691406 228.15625 Z M 183.492188 227.804688 C 183.484375 227.148438 183.300781 226.628906 182.941406 226.238281 C 182.585938 225.847656 182.109375 225.648438 181.519531 225.648438 C 180.851562 225.648438 180.316406 225.839844 179.914062 226.214844 C 179.515625 226.59375 179.28125 227.125 179.222656 227.8125 Z M 183.492188 227.804688 "/>
<path style="fill:none;stroke-width:0.8;stroke-linecap:butt;stroke-linejoin:round;stroke:rgb(0%,0%,0%);stroke-opacity:1;stroke-miterlimit:4;" d="M -0.000585556 0 L -3.498632 0 " transform="matrix(1.333333,0,0,1.333333,40.137499,186)"/>
<path style=" stroke:none;fill-rule:nonzero;fill:rgb(0%,0%,0%);fill-opacity:1;" d="M 13.835938 182.210938 C 13.160156 182.210938 12.652344 182.542969 12.308594 183.210938 C 11.96875 183.875 11.800781 184.878906 11.800781 186.214844 C 11.800781 187.546875 11.96875 188.546875 12.308594 189.214844 C 12.652344 189.878906 13.160156 190.214844 13.835938 190.214844 C 14.519531 190.214844 15.03125 189.878906 15.371094 189.214844 C 15.710938 188.546875 15.882812 187.546875 15.882812 186.214844 C 15.882812 184.878906 15.710938 183.875 15.371094 183.210938 C 15.03125 182.542969 14.519531 182.210938 13.835938 182.210938 Z M 13.835938 181.167969 C 14.929688 181.167969 15.761719 181.601562 16.335938 182.464844 C 16.910156 183.324219 17.199219 184.574219 17.199219 186.214844 C 17.199219 187.851562 16.910156 189.101562 16.335938 189.964844 C 15.761719 190.824219 14.929688 191.253906 13.835938 191.253906 C 12.75 191.253906 11.917969 190.824219 11.339844 189.964844 C 10.765625 189.101562 10.480469 187.851562 10.480469 186.214844 C 10.480469 184.574219 10.765625 183.324219 11.339844 182.464844 C 11.917969 181.601562 12.75 181.167969 13.835938 181.167969 Z M 13.835938 181.167969 "/>
<path style=" stroke:none;fill-rule:nonzero;fill:rgb(0%,0%,0%);fill-opacity:1;" d="M 19.507812 189.410156 L 20.882812 189.410156 L 20.882812 191.066406 L 19.507812 191.066406 Z M 19.507812 189.410156 "/>
<path style=" stroke:none;fill-rule:nonzero;fill:rgb(0%,0%,0%);fill-opacity:1;" d="M 26.558594 182.210938 C 25.882812 182.210938 25.375 182.542969 25.03125 183.210938 C 24.691406 183.875 24.519531 184.878906 24.519531 186.214844 C 24.519531 187.546875 24.691406 188.546875 25.03125 189.214844 C 25.375 189.878906 25.882812 190.214844 26.558594 190.214844 C 27.242188 190.214844 27.75 189.878906 28.09375 189.214844 C 28.433594 188.546875 28.605469 187.546875 28.605469 186.214844 C 28.605469 184.878906 28.433594 183.875 28.09375 183.210938 C 27.75 182.542969 27.242188 182.210938 26.558594 182.210938 Z M 26.558594 181.167969 C 27.648438 181.167969 28.480469 181.601562 29.058594 182.464844 C 29.632812 183.324219 29.917969 184.574219 29.917969 186.214844 C 29.917969 187.851562 29.632812 189.101562 29.058594 189.964844 C 28.480469 190.824219 27.648438 191.253906 26.558594 191.253906 C 25.46875 191.253906 24.636719 190.824219 24.0625 189.964844 C 23.488281 189.101562 23.199219 187.851562 23.199219 186.214844 C 23.199219 184.574219 23.488281 183.324219 24.0625 182.464844 C 24.636719 181.601562 25.46875 181.167969 26.558594 181.167969 Z M 26.558594 181.167969 "/>
<path style="fill:none;stroke-width:0.8;stroke-linecap:butt;stroke-linejoin:round;stroke:rgb(0%,0%,0%);stroke-opacity:1;stroke-miterlimit:4;" d="M -0.000585556 -0.00117493 L -3.498632 -0.00117493 " transform="matrix(1.333333,0,0,1.333333,40.137499,152.400004)"/>
<path style=" stroke:none;fill-rule:nonzero;fill:rgb(0%,0%,0%);fill-opacity:1;" d="M 13.835938 148.613281 C 13.160156 148.613281 12.652344 148.945312 12.308594 149.613281 C 11.96875 150.277344 11.800781 151.277344 11.800781 152.617188 C 11.800781 153.949219 11.96875 154.945312 12.308594 155.613281 C 12.652344 156.28125 13.160156 156.613281 13.835938 156.613281 C 14.519531 156.613281 15.03125 156.28125 15.371094 155.613281 C 15.710938 154.945312 15.882812 153.949219 15.882812 152.617188 C 15.882812 151.277344 15.710938 150.277344 15.371094 149.613281 C 15.03125 148.945312 14.519531 148.613281 13.835938 148.613281 Z M 13.835938 147.570312 C 14.929688 147.570312 15.761719 148 16.335938 148.863281 C 16.910156 149.726562 17.199219 150.976562 17.199219 152.617188 C 17.199219 154.25 16.910156 155.5 16.335938 156.363281 C 15.761719 157.226562 14.929688 157.65625 13.835938 157.65625 C 12.75 157.65625 11.917969 157.226562 11.339844 156.363281 C 10.765625 155.5 10.480469 154.25 10.480469 152.617188 C 10.480469 150.976562 10.765625 149.726562 11.339844 148.863281 C 11.917969 148 12.75 147.570312 13.835938 147.570312 Z M 13.835938 147.570312 "/>
<path style=" stroke:none;fill-rule:nonzero;fill:rgb(0%,0%,0%);fill-opacity:1;" d="M 19.507812 155.8125 L 20.882812 155.8125 L 20.882812 157.464844 L 19.507812 157.464844 Z M 19.507812 155.8125 "/>
<path style=" stroke:none;fill-rule:nonzero;fill:rgb(0%,0%,0%);fill-opacity:1;" d="M 24.878906 156.359375 L 29.46875 156.359375 L 29.46875 157.464844 L 23.296875 157.464844 L 23.296875 156.359375 C 23.796875 155.84375 24.476562 155.148438 25.339844 154.28125 C 26.199219 153.410156 26.742188 152.847656 26.964844 152.59375 C 27.382812 152.121094 27.675781 151.722656 27.84375 151.394531 C 28.011719 151.066406 28.097656 150.746094 28.097656 150.429688 C 28.097656 149.910156 27.914062 149.492188 27.550781 149.164062 C 27.191406 148.839844 26.71875 148.675781 26.136719 148.675781 C 25.722656 148.675781 25.289062 148.746094 24.828125 148.890625 C 24.371094 149.035156 23.882812 149.25 23.363281 149.542969 L 23.363281 148.214844 C 23.890625 148 24.386719 147.839844 24.847656 147.730469 C 25.308594 147.625 25.730469 147.570312 26.109375 147.570312 C 27.117188 147.570312 27.921875 147.820312 28.519531 148.324219 C 29.117188 148.828125 29.417969 149.5 29.417969 150.34375 C 29.417969 150.742188 29.34375 151.121094 29.191406 151.480469 C 29.042969 151.835938 28.769531 152.257812 28.375 152.746094 C 28.265625 152.871094 27.921875 153.234375 27.339844 153.835938 C 26.757812 154.4375 25.9375 155.277344 24.878906 156.359375 Z M 24.878906 156.359375 "/>
<path style="fill:none;stroke-width:0.8;stroke-linecap:butt;stroke-linejoin:round;stroke:rgb(0%,0%,0%);stroke-opacity:1;stroke-miterlimit:4;" d="M -0.000585556 0.000587463 L -3.498632 0.000587463 " transform="matrix(1.333333,0,0,1.333333,40.137499,118.799998)"/>
<path style=" stroke:none;fill-rule:nonzero;fill:rgb(0%,0%,0%);fill-opacity:1;" d="M 13.835938 115.011719 C 13.160156 115.011719 12.652344 115.34375 12.308594 116.011719 C 11.96875 116.675781 11.800781 117.679688 11.800781 119.015625 C 11.800781 120.347656 11.96875 121.347656 12.308594 122.011719 C 12.652344 122.679688 13.160156 123.011719 13.835938 123.011719 C 14.519531 123.011719 15.03125 122.679688 15.371094 122.011719 C 15.710938 121.347656 15.882812 120.347656 15.882812 119.015625 C 15.882812 117.679688 15.710938 116.675781 15.371094 116.011719 C 15.03125 115.34375 14.519531 115.011719 13.835938 115.011719 Z M 13.835938 113.96875 C 14.929688 113.96875 15.761719 114.402344 16.335938 115.261719 C 16.910156 116.125 17.199219 117.375 17.199219 119.015625 C 17.199219 120.652344 16.910156 121.902344 16.335938 122.761719 C 15.761719 123.625 14.929688 124.054688 13.835938 124.054688 C 12.75 124.054688 11.917969 123.625 11.339844 122.761719 C 10.765625 121.902344 10.480469 120.652344 10.480469 119.015625 C 10.480469 117.375 10.765625 116.125 11.339844 115.261719 C 11.917969 114.402344 12.75 113.96875 13.835938 113.96875 Z M 13.835938 113.96875 "/>
<path style=" stroke:none;fill-rule:nonzero;fill:rgb(0%,0%,0%);fill-opacity:1;" d="M 19.507812 122.210938 L 20.882812 122.210938 L 20.882812 123.867188 L 19.507812 123.867188 Z M 19.507812 122.210938 "/>
<path style=" stroke:none;fill-rule:nonzero;fill:rgb(0%,0%,0%);fill-opacity:1;" d="M 27.359375 115.289062 L 24.039062 120.480469 L 27.359375 120.480469 Z M 27.015625 114.144531 L 28.667969 114.144531 L 28.667969 120.480469 L 30.058594 120.480469 L 30.058594 121.574219 L 28.667969 121.574219 L 28.667969 123.867188 L 27.359375 123.867188 L 27.359375 121.574219 L 22.972656 121.574219 L 22.972656 120.304688 Z M 27.015625 114.144531 "/>
<path style="fill:none;stroke-width:0.8;stroke-linecap:butt;stroke-linejoin:round;stroke:rgb(0%,0%,0%);stroke-opacity:1;stroke-miterlimit:4;" d="M -0.000585556 -0.000587463 L -3.498632 -0.000587463 " transform="matrix(1.333333,0,0,1.333333,40.137499,85.200002)"/>
<path style=" stroke:none;fill-rule:nonzero;fill:rgb(0%,0%,0%);fill-opacity:1;" d="M 13.835938 81.410156 C 13.160156 81.410156 12.652344 81.746094 12.308594 82.410156 C 11.96875 83.078125 11.800781 84.078125 11.800781 85.414062 C 11.800781 86.746094 11.96875 87.746094 12.308594 88.414062 C 12.652344 89.082031 13.160156 89.414062 13.835938 89.414062 C 14.519531 89.414062 15.03125 89.082031 15.371094 88.414062 C 15.710938 87.746094 15.882812 86.746094 15.882812 85.414062 C 15.882812 84.078125 15.710938 83.078125 15.371094 82.410156 C 15.03125 81.746094 14.519531 81.410156 13.835938 81.410156 Z M 13.835938 80.371094 C 14.929688 80.371094 15.761719 80.800781 16.335938 81.664062 C 16.910156 82.523438 17.199219 83.773438 17.199219 85.414062 C 17.199219 87.050781 16.910156 88.300781 16.335938 89.164062 C 15.761719 90.023438 14.929688 90.457031 13.835938 90.457031 C 12.75 90.457031 11.917969 90.023438 11.339844 89.164062 C 10.765625 88.300781 10.480469 87.050781 10.480469 85.414062 C 10.480469 83.773438 10.765625 82.523438 11.339844 81.664062 C 11.917969 80.800781 12.75 80.371094 13.835938 80.371094 Z M 13.835938 80.371094 "/>
<path style=" stroke:none;fill-rule:nonzero;fill:rgb(0%,0%,0%);fill-opacity:1;" d="M 19.507812 88.613281 L 20.882812 88.613281 L 20.882812 90.265625 L 19.507812 90.265625 Z M 19.507812 88.613281 "/>
<path style=" stroke:none;fill-rule:nonzero;fill:rgb(0%,0%,0%);fill-opacity:1;" d="M 26.722656 84.882812 C 26.132812 84.882812 25.664062 85.085938 25.320312 85.488281 C 24.976562 85.890625 24.800781 86.445312 24.800781 87.148438 C 24.800781 87.84375 24.976562 88.398438 25.320312 88.804688 C 25.664062 89.210938 26.132812 89.414062 26.722656 89.414062 C 27.3125 89.414062 27.78125 89.210938 28.125 88.804688 C 28.46875 88.398438 28.640625 87.84375 28.640625 87.148438 C 28.640625 86.445312 28.46875 85.890625 28.125 85.488281 C 27.78125 85.085938 27.3125 84.882812 26.722656 84.882812 Z M 29.332031 80.757812 L 29.332031 81.957031 C 29.003906 81.800781 28.671875 81.683594 28.332031 81.601562 C 27.996094 81.519531 27.664062 81.476562 27.332031 81.476562 C 26.464844 81.476562 25.800781 81.769531 25.34375 82.355469 C 24.886719 82.941406 24.625 83.828125 24.5625 85.011719 C 24.816406 84.632812 25.136719 84.34375 25.523438 84.144531 C 25.910156 83.941406 26.335938 83.839844 26.800781 83.839844 C 27.777344 83.839844 28.546875 84.136719 29.113281 84.730469 C 29.683594 85.320312 29.964844 86.128906 29.964844 87.148438 C 29.964844 88.144531 29.671875 88.945312 29.078125 89.550781 C 28.488281 90.152344 27.703125 90.457031 26.722656 90.457031 C 25.597656 90.457031 24.738281 90.023438 24.144531 89.164062 C 23.550781 88.300781 23.253906 87.050781 23.253906 85.414062 C 23.253906 83.878906 23.617188 82.65625 24.347656 81.742188 C 25.074219 80.828125 26.054688 80.371094 27.28125 80.371094 C 27.613281 80.371094 27.945312 80.402344 28.28125 80.46875 C 28.617188 80.53125 28.96875 80.628906 29.332031 80.757812 Z M 29.332031 80.757812 "/>
<path style="fill:none;stroke-width:0.8;stroke-linecap:butt;stroke-linejoin:round;stroke:rgb(0%,0%,0%);stroke-opacity:1;stroke-miterlimit:4;" d="M -0.000585556 0.00117111 L -3.498632 0.00117111 " transform="matrix(1.333333,0,0,1.333333,40.137499,51.600001)"/>
<path style=" stroke:none;fill-rule:nonzero;fill:rgb(0%,0%,0%);fill-opacity:1;" d="M 13.835938 47.8125 C 13.160156 47.8125 12.652344 48.144531 12.308594 48.8125 C 11.96875 49.476562 11.800781 50.476562 11.800781 51.816406 C 11.800781 53.148438 11.96875 54.148438 12.308594 54.8125 C 12.652344 55.480469 13.160156 55.8125 13.835938 55.8125 C 14.519531 55.8125 15.03125 55.480469 15.371094 54.8125 C 15.710938 54.148438 15.882812 53.148438 15.882812 51.816406 C 15.882812 50.476562 15.710938 49.476562 15.371094 48.8125 C 15.03125 48.144531 14.519531 47.8125 13.835938 47.8125 Z M 13.835938 46.769531 C 14.929688 46.769531 15.761719 47.199219 16.335938 48.0625 C 16.910156 48.925781 17.199219 50.175781 17.199219 51.816406 C 17.199219 53.453125 16.910156 54.699219 16.335938 55.5625 C 15.761719 56.425781 14.929688 56.855469 13.835938 56.855469 C 12.75 56.855469 11.917969 56.425781 11.339844 55.5625 C 10.765625 54.699219 10.480469 53.453125 10.480469 51.816406 C 10.480469 50.175781 10.765625 48.925781 11.339844 48.0625 C 11.917969 47.199219 12.75 46.769531 13.835938 46.769531 Z M 13.835938 46.769531 "/>
<path style=" stroke:none;fill-rule:nonzero;fill:rgb(0%,0%,0%);fill-opacity:1;" d="M 19.507812 55.011719 L 20.882812 55.011719 L 20.882812 56.664062 L 19.507812 56.664062 Z M 19.507812 55.011719 "/>
<path style=" stroke:none;fill-rule:nonzero;fill:rgb(0%,0%,0%);fill-opacity:1;" d="M 26.558594 52.050781 C 25.933594 52.050781 25.441406 52.214844 25.082031 52.550781 C 24.726562 52.886719 24.546875 53.34375 24.546875 53.929688 C 24.546875 54.515625 24.726562 54.976562 25.082031 55.3125 C 25.441406 55.644531 25.933594 55.8125 26.558594 55.8125 C 27.183594 55.8125 27.675781 55.644531 28.035156 55.308594 C 28.398438 54.972656 28.578125 54.511719 28.578125 53.929688 C 28.578125 53.34375 28.398438 52.886719 28.039062 52.550781 C 27.683594 52.214844 27.1875 52.050781 26.558594 52.050781 Z M 25.246094 51.492188 C 24.679688 51.351562 24.242188 51.089844 23.925781 50.703125 C 23.613281 50.316406 23.453125 49.84375 23.453125 49.289062 C 23.453125 48.511719 23.730469 47.898438 24.285156 47.445312 C 24.839844 46.996094 25.597656 46.769531 26.558594 46.769531 C 27.527344 46.769531 28.285156 46.996094 28.839844 47.445312 C 29.390625 47.898438 29.664062 48.511719 29.664062 49.289062 C 29.664062 49.84375 29.507812 50.316406 29.191406 50.703125 C 28.878906 51.089844 28.441406 51.351562 27.882812 51.492188 C 28.515625 51.636719 29.007812 51.925781 29.359375 52.355469 C 29.714844 52.785156 29.890625 53.3125 29.890625 53.929688 C 29.890625 54.875 29.605469 55.597656 29.03125 56.101562 C 28.453125 56.605469 27.632812 56.855469 26.558594 56.855469 C 25.488281 56.855469 24.664062 56.605469 24.089844 56.101562 C 23.511719 55.597656 23.226562 54.875 23.226562 53.929688 C 23.226562 53.3125 23.402344 52.785156 23.757812 52.355469 C 24.117188 51.925781 24.609375 51.636719 25.246094 51.492188 Z M 24.761719 49.414062 C 24.761719 49.917969 24.921875 50.308594 25.234375 50.589844 C 25.550781 50.871094 25.992188 51.011719 26.558594 51.011719 C 27.125 51.011719 27.566406 50.871094 27.882812 50.589844 C 28.203125 50.308594 28.363281 49.917969 28.363281 49.414062 C 28.363281 48.910156 28.203125 48.515625 27.882812 48.234375 C 27.566406 47.953125 27.125 47.8125 26.558594 47.8125 C 25.992188 47.8125 25.550781 47.953125 25.234375 48.234375 C 24.921875 48.515625 24.761719 48.910156 24.761719 49.414062 Z M 24.761719 49.414062 "/>
<path style="fill:none;stroke-width:0.8;stroke-linecap:butt;stroke-linejoin:round;stroke:rgb(0%,0%,0%);stroke-opacity:1;stroke-miterlimit:4;" d="M -0.000585556 -0.000000000000010658 L -3.498632 -0.000000000000010658 " transform="matrix(1.333333,0,0,1.333333,40.137499,18)"/>
<path style=" stroke:none;fill-rule:nonzero;fill:rgb(0%,0%,0%);fill-opacity:1;" d="M 11.253906 21.960938 L 13.402344 21.960938 L 13.402344 14.542969 L 11.066406 15.011719 L 11.066406 13.8125 L 13.390625 13.34375 L 14.703125 13.34375 L 14.703125 21.960938 L 16.851562 21.960938 L 16.851562 23.066406 L 11.253906 23.066406 Z M 11.253906 21.960938 "/>
<path style=" stroke:none;fill-rule:nonzero;fill:rgb(0%,0%,0%);fill-opacity:1;" d="M 19.507812 21.410156 L 20.882812 21.410156 L 20.882812 23.066406 L 19.507812 23.066406 Z M 19.507812 21.410156 "/>
<path style=" stroke:none;fill-rule:nonzero;fill:rgb(0%,0%,0%);fill-opacity:1;" d="M 26.558594 14.210938 C 25.882812 14.210938 25.375 14.542969 25.03125 15.210938 C 24.691406 15.875 24.519531 16.878906 24.519531 18.214844 C 24.519531 19.546875 24.691406 20.546875 25.03125 21.214844 C 25.375 21.878906 25.882812 22.214844 26.558594 22.214844 C 27.242188 22.214844 27.75 21.878906 28.09375 21.214844 C 28.433594 20.546875 28.605469 19.546875 28.605469 18.214844 C 28.605469 16.878906 28.433594 15.875 28.09375 15.210938 C 27.75 14.542969 27.242188 14.210938 26.558594 14.210938 Z M 26.558594 13.167969 C 27.648438 13.167969 28.480469 13.601562 29.058594 14.464844 C 29.632812 15.324219 29.917969 16.574219 29.917969 18.214844 C 29.917969 19.851562 29.632812 21.101562 29.058594 21.964844 C 28.480469 22.824219 27.648438 23.253906 26.558594 23.253906 C 25.46875 23.253906 24.636719 22.824219 24.0625 21.964844 C 23.488281 21.101562 23.199219 19.851562 23.199219 18.214844 C 23.199219 16.574219 23.488281 15.324219 24.0625 14.464844 C 24.636719 13.601562 25.46875 13.167969 26.558594 13.167969 Z M 26.558594 13.167969 "/>
<path style="fill:none;stroke-width:1.5;stroke-linecap:square;stroke-linejoin:round;stroke:rgb(12.156863%,46.666667%,70.588237%);stroke-opacity:1;stroke-miterlimit:4;" d="M 38.979492 13.5 L 43.532227 19.798828 L 48.084961 25.78418 L 52.637695 31.470703 L 57.19043 36.873047 L 61.743164 42.00293 L 66.295898 46.87793 L 70.848633 51.509766 L 75.401367 55.910156 L 79.951172 60.087891 L 84.503906 64.060547 L 89.056641 67.831055 L 93.609375 71.414062 L 98.162109 74.818359 L 102.714844 78.052734 L 107.267578 81.125977 L 111.820312 84.043945 L 116.373047 86.81543 L 120.925781 89.452148 L 125.475586 91.954102 L 130.02832 94.330078 L 134.581055 96.588867 L 139.133789 98.733398 L 143.686523 100.772461 L 148.239258 102.708984 L 152.791992 104.548828 L 157.344727 106.297852 L 161.897461 107.956055 L 166.450195 109.535156 L 171 111.032227 L 175.552734 112.456055 L 180.105469 113.806641 L 184.658203 115.092773 L 189.210938 116.311523 L 193.763672 117.47168 L 198.316406 118.573242 L 202.869141 119.619141 L 207.421875 120.615234 L 211.974609 121.558594 L 216.524414 122.455078 " transform="matrix(1.333333,0,0,1.333333,0,0.000000000000014211)"/>
<path style="fill:none;stroke-width:1.5;stroke-linecap:square;stroke-linejoin:round;stroke:rgb(100%,49.803922%,5.490196%);stroke-opacity:1;stroke-miterlimit:4;" d="M 38.979492 13.5 L 43.532227 26.100586 L 48.084961 37.441406 L 52.637695 47.645508 L 57.19043 56.830078 L 61.743164 65.097656 L 66.295898 72.539062 L 70.848633 79.233398 L 75.401367 85.259766 L 79.951172 90.685547 L 84.503906 95.566406 L 89.056641 99.960937 L 93.609375 103.913086 L 98.162109 107.472656 L 102.714844 110.674805 L 107.267578 113.557617 L 111.820312 116.15332 L 116.373047 118.485352 L 120.925781 120.588867 L 125.475586 122.478516 L 130.02832 124.180664 L 134.581055 125.712891 L 139.133789 127.092773 L 143.686523 128.332031 L 148.239258 129.448242 L 152.791992 130.453125 L 157.344727 131.358398 L 161.897461 132.172852 L 166.450195 132.905273 L 171 133.564453 L 175.552734 134.15918 L 180.105469 134.692383 L 184.658203 135.172852 L 189.210938 135.606445 L 193.763672 135.996094 L 198.316406 136.344727 L 202.869141 136.661133 L 207.421875 136.945312 L 211.974609 137.200195 L 216.524414 137.431641 " transform="matrix(1.333333,0,0,1.333333,0,0.000000000000014211)"/>
<path style="fill:none;stroke-width:1.5;stroke-linecap:square;stroke-linejoin:round;stroke:rgb(17.254902%,62.7451%,17.254902%);stroke-opacity:1;stroke-miterlimit:4;" d="M 38.979492 13.5 L 43.532227 63.899414 L 48.084961 94.139648 L 52.637695 112.283203 L 57.19043 123.169922 L 61.743164 129.703125 L 66.295898 133.620117 L 70.848633 135.972656 L 75.401367 137.384766 L 79.951172 138.231445 L 84.503906 138.738281 L 89.056641 139.042969 L 93.609375 139.224609 L 98.162109 139.335938 L 102.714844 139.400391 L 107.267578 139.441406 L 111.820312 139.464844 L 116.373047 139.479492 L 120.925781 139.488281 L 125.475586 139.491211 L 134.581055 139.49707 L 139.133789 139.49707 L 143.686523 139.5 L 216.524414 139.5 " transform="matrix(1.333333,0,0,1.333333,0,0.000000000000014211)"/>
<path style="fill:none;stroke-width:1.5;stroke-linecap:square;stroke-linejoin:round;stroke:rgb(83.92157%,15.294118%,15.686275%);stroke-opacity:1;stroke-miterlimit:4;" d="M 38.979492 13.5 L 43.532227 139.5 L 216.524414 139.5 " transform="matrix(1.333333,0,0,1.333333,0,0.000000000000014211)"/>
<path style="fill:none;stroke-width:0.8;stroke-linecap:square;stroke-linejoin:miter;stroke:rgb(0%,0%,0%);stroke-opacity:1;stroke-miterlimit:4;" d="M 30.102539 145.798828 L 30.102539 7.201172 " transform="matrix(1.333333,0,0,1.333333,0,0.000000000000014211)"/>
<path style="fill:none;stroke-width:0.8;stroke-linecap:square;stroke-linejoin:miter;stroke:rgb(0%,0%,0%);stroke-opacity:1;stroke-miterlimit:4;" d="M 225.404297 145.798828 L 225.404297 7.201172 " transform="matrix(1.333333,0,0,1.333333,0,0.000000000000014211)"/>
<path style="fill:none;stroke-width:0.8;stroke-linecap:square;stroke-linejoin:miter;stroke:rgb(0%,0%,0%);stroke-opacity:1;stroke-miterlimit:4;" d="M 30.102539 145.798828 L 225.404297 145.798828 " transform="matrix(1.333333,0,0,1.333333,0,0.000000000000014211)"/>
<path style="fill:none;stroke-width:0.8;stroke-linecap:square;stroke-linejoin:miter;stroke:rgb(0%,0%,0%);stroke-opacity:1;stroke-miterlimit:4;" d="M 30.102539 7.201172 L 225.404297 7.201172 " transform="matrix(1.333333,0,0,1.333333,0,0.000000000000014211)"/>
<use xlink:href="#surface5" mask="url(#mask0)"/>
<path style="fill:none;stroke-width:1.5;stroke-linecap:square;stroke-linejoin:round;stroke:rgb(12.156863%,46.666667%,70.588237%);stroke-opacity:1;stroke-miterlimit:4;" d="M 128.850586 20.299805 L 148.851562 20.299805 " transform="matrix(1.333333,0,0,1.333333,0,0.000000000000014211)"/>
<path style=" stroke:none;fill-rule:nonzero;fill:rgb(0%,0%,0%);fill-opacity:1;" d="M 215.628906 28.089844 C 215.628906 27.210938 215.445312 26.519531 215.082031 26.019531 C 214.722656 25.515625 214.222656 25.265625 213.589844 25.265625 C 212.953125 25.265625 212.457031 25.515625 212.09375 26.019531 C 211.730469 26.519531 211.550781 27.210938 211.550781 28.089844 C 211.550781 28.972656 211.730469 29.664062 212.09375 30.164062 C 212.457031 30.664062 212.953125 30.917969 213.589844 30.917969 C 214.222656 30.917969 214.722656 30.664062 215.082031 30.164062 C 215.445312 29.664062 215.628906 28.972656 215.628906 28.089844 Z M 211.550781 25.546875 C 211.804688 25.113281 212.121094 24.789062 212.503906 24.582031 C 212.890625 24.371094 213.347656 24.265625 213.882812 24.265625 C 214.765625 24.265625 215.488281 24.617188 216.039062 25.320312 C 216.59375 26.023438 216.871094 26.945312 216.871094 28.089844 C 216.871094 29.238281 216.59375 30.164062 216.039062 30.867188 C 215.488281 31.570312 214.765625 31.921875 213.882812 31.921875 C 213.347656 31.921875 212.890625 31.816406 212.503906 31.605469 C 212.121094 31.394531 211.804688 31.070312 211.550781 30.636719 L 211.550781 31.730469 L 210.347656 31.730469 L 210.347656 21.601562 L 211.550781 21.601562 Z M 211.550781 25.546875 "/>
<path style=" stroke:none;fill-rule:nonzero;fill:rgb(0%,0%,0%);fill-opacity:1;" d="M 225.09375 27.785156 L 225.09375 28.371094 L 219.585938 28.371094 C 219.636719 29.195312 219.886719 29.824219 220.332031 30.257812 C 220.773438 30.6875 221.394531 30.902344 222.1875 30.902344 C 222.648438 30.902344 223.09375 30.847656 223.527344 30.734375 C 223.957031 30.621094 224.386719 30.453125 224.8125 30.226562 L 224.8125 31.359375 C 224.382812 31.542969 223.941406 31.679688 223.492188 31.777344 C 223.039062 31.871094 222.582031 31.921875 222.117188 31.921875 C 220.953125 31.921875 220.03125 31.582031 219.351562 30.90625 C 218.675781 30.226562 218.335938 29.3125 218.335938 28.15625 C 218.335938 26.964844 218.65625 26.015625 219.300781 25.316406 C 219.945312 24.617188 220.816406 24.265625 221.910156 24.265625 C 222.890625 24.265625 223.664062 24.582031 224.238281 25.210938 C 224.808594 25.84375 225.09375 26.699219 225.09375 27.785156 Z M 223.894531 27.433594 C 223.886719 26.777344 223.703125 26.257812 223.34375 25.867188 C 222.988281 25.476562 222.511719 25.277344 221.921875 25.277344 C 221.253906 25.277344 220.71875 25.46875 220.316406 25.847656 C 219.917969 26.222656 219.683594 26.753906 219.625 27.441406 Z M 223.894531 27.433594 "/>
<path style=" stroke:none;fill-rule:nonzero;fill:rgb(0%,0%,0%);fill-opacity:1;" d="M 228.242188 22.367188 L 228.242188 24.441406 L 230.710938 24.441406 L 230.710938 25.371094 L 228.242188 25.371094 L 228.242188 29.328125 C 228.242188 29.921875 228.324219 30.304688 228.488281 30.476562 C 228.648438 30.644531 228.980469 30.730469 229.480469 30.730469 L 230.710938 30.730469 L 230.710938 31.730469 L 229.480469 31.730469 C 228.554688 31.730469 227.917969 31.558594 227.566406 31.214844 C 227.214844 30.867188 227.039062 30.242188 227.039062 29.328125 L 227.039062 25.371094 L 226.160156 25.371094 L 226.160156 24.441406 L 227.039062 24.441406 L 227.039062 22.367188 Z M 228.242188 22.367188 "/>
<path style=" stroke:none;fill-rule:nonzero;fill:rgb(0%,0%,0%);fill-opacity:1;" d="M 235.601562 28.066406 C 234.632812 28.066406 233.960938 28.175781 233.589844 28.398438 C 233.214844 28.617188 233.027344 28.996094 233.027344 29.53125 C 233.027344 29.957031 233.167969 30.292969 233.449219 30.542969 C 233.730469 30.792969 234.109375 30.917969 234.589844 30.917969 C 235.253906 30.917969 235.789062 30.679688 236.191406 30.210938 C 236.589844 29.738281 236.792969 29.113281 236.792969 28.332031 L 236.792969 28.066406 Z M 237.992188 27.570312 L 237.992188 31.730469 L 236.792969 31.730469 L 236.792969 30.625 C 236.519531 31.066406 236.179688 31.394531 235.769531 31.605469 C 235.359375 31.816406 234.863281 31.921875 234.273438 31.921875 C 233.527344 31.921875 232.933594 31.710938 232.492188 31.292969 C 232.050781 30.871094 231.828125 30.3125 231.828125 29.609375 C 231.828125 28.789062 232.105469 28.171875 232.652344 27.753906 C 233.203125 27.335938 234.023438 27.128906 235.109375 27.128906 L 236.792969 27.128906 L 236.792969 27.011719 C 236.792969 26.460938 236.609375 26.03125 236.25 25.730469 C 235.886719 25.429688 235.378906 25.277344 234.722656 25.277344 C 234.304688 25.277344 233.898438 25.328125 233.503906 25.429688 C 233.109375 25.527344 232.730469 25.679688 232.367188 25.878906 L 232.367188 24.769531 C 232.804688 24.601562 233.226562 24.476562 233.640625 24.390625 C 234.054688 24.308594 234.453125 24.265625 234.84375 24.265625 C 235.898438 24.265625 236.6875 24.539062 237.210938 25.085938 C 237.730469 25.632812 237.992188 26.460938 237.992188 27.570312 Z M 237.992188 27.570312 "/>
<path style=" stroke:none;fill-rule:nonzero;fill:rgb(0%,0%,0%);fill-opacity:1;" d="M 244.851562 25.675781 L 253.195312 25.675781 L 253.195312 26.769531 L 244.851562 26.769531 Z M 244.851562 28.332031 L 253.195312 28.332031 L 253.195312 29.441406 L 244.851562 29.441406 Z M 244.851562 28.332031 "/>
<path style=" stroke:none;fill-rule:nonzero;fill:rgb(0%,0%,0%);fill-opacity:1;" d="M 263.085938 22.878906 C 262.410156 22.878906 261.902344 23.210938 261.558594 23.878906 C 261.21875 24.542969 261.050781 25.542969 261.050781 26.882812 C 261.050781 28.214844 261.21875 29.210938 261.558594 29.878906 C 261.902344 30.546875 262.410156 30.878906 263.085938 30.878906 C 263.769531 30.878906 264.28125 30.546875 264.621094 29.878906 C 264.960938 29.210938 265.132812 28.214844 265.132812 26.882812 C 265.132812 25.542969 264.960938 24.542969 264.621094 23.878906 C 264.28125 23.210938 263.769531 22.878906 263.085938 22.878906 Z M 263.085938 21.835938 C 264.175781 21.835938 265.007812 22.265625 265.585938 23.128906 C 266.160156 23.992188 266.445312 25.242188 266.445312 26.882812 C 266.445312 28.515625 266.160156 29.765625 265.585938 30.628906 C 265.007812 31.492188 264.175781 31.921875 263.085938 31.921875 C 261.996094 31.921875 261.164062 31.492188 260.589844 30.628906 C 260.015625 29.765625 259.726562 28.515625 259.726562 26.882812 C 259.726562 25.242188 260.015625 23.992188 260.589844 23.128906 C 261.164062 22.265625 261.996094 21.835938 263.085938 21.835938 Z M 263.085938 21.835938 "/>
<path style=" stroke:none;fill-rule:nonzero;fill:rgb(0%,0%,0%);fill-opacity:1;" d="M 268.757812 30.078125 L 270.132812 30.078125 L 270.132812 31.730469 L 268.757812 31.730469 Z M 268.757812 30.078125 "/>
<path style=" stroke:none;fill-rule:nonzero;fill:rgb(0%,0%,0%);fill-opacity:1;" d="M 273.035156 31.527344 L 273.035156 30.332031 C 273.367188 30.488281 273.699219 30.609375 274.035156 30.691406 C 274.375 30.773438 274.707031 30.8125 275.035156 30.8125 C 275.902344 30.8125 276.566406 30.519531 277.023438 29.9375 C 277.480469 29.355469 277.742188 28.46875 277.808594 27.277344 C 277.554688 27.652344 277.238281 27.9375 276.847656 28.136719 C 276.464844 28.335938 276.035156 28.4375 275.566406 28.4375 C 274.597656 28.4375 273.828125 28.144531 273.261719 27.554688 C 272.691406 26.96875 272.410156 26.164062 272.410156 25.140625 C 272.410156 24.144531 272.703125 23.34375 273.296875 22.742188 C 273.886719 22.136719 274.671875 21.835938 275.652344 21.835938 C 276.777344 21.835938 277.636719 22.265625 278.226562 23.128906 C 278.820312 23.992188 279.117188 25.242188 279.117188 26.882812 C 279.117188 28.414062 278.753906 29.636719 278.023438 30.550781 C 277.296875 31.464844 276.320312 31.921875 275.09375 31.921875 C 274.761719 31.921875 274.429688 31.886719 274.089844 31.824219 C 273.75 31.757812 273.398438 31.660156 273.035156 31.527344 Z M 275.652344 27.410156 C 276.242188 27.410156 276.710938 27.207031 277.054688 26.804688 C 277.398438 26.398438 277.574219 25.847656 277.574219 25.140625 C 277.574219 24.441406 277.398438 23.890625 277.054688 23.484375 C 276.710938 23.078125 276.242188 22.878906 275.652344 22.878906 C 275.0625 22.878906 274.59375 23.078125 274.25 23.484375 C 273.90625 23.890625 273.734375 24.441406 273.734375 25.140625 C 273.734375 25.847656 273.90625 26.398438 274.25 26.804688 C 274.59375 27.207031 275.0625 27.410156 275.652344 27.410156 Z M 275.652344 27.410156 "/>
<path style=" stroke:none;fill-rule:nonzero;fill:rgb(0%,0%,0%);fill-opacity:1;" d="M 281.492188 22.011719 L 286.65625 22.011719 L 286.65625 23.117188 L 282.695312 23.117188 L 282.695312 25.5 C 282.886719 25.433594 283.078125 25.386719 283.269531 25.355469 C 283.460938 25.320312 283.652344 25.304688 283.84375 25.304688 C 284.925781 25.304688 285.785156 25.601562 286.421875 26.199219 C 287.054688 26.792969 287.371094 27.597656 287.371094 28.613281 C 287.371094 29.660156 287.046875 30.472656 286.394531 31.050781 C 285.742188 31.632812 284.824219 31.921875 283.640625 31.921875 C 283.234375 31.921875 282.816406 31.886719 282.394531 31.816406 C 281.972656 31.746094 281.535156 31.644531 281.082031 31.503906 L 281.082031 30.179688 C 281.472656 30.394531 281.875 30.550781 282.292969 30.65625 C 282.710938 30.761719 283.148438 30.8125 283.613281 30.8125 C 284.363281 30.8125 284.960938 30.617188 285.398438 30.222656 C 285.835938 29.828125 286.054688 29.289062 286.054688 28.613281 C 286.054688 27.9375 285.835938 27.402344 285.398438 27.007812 C 284.960938 26.609375 284.363281 26.414062 283.613281 26.414062 C 283.261719 26.414062 282.910156 26.453125 282.5625 26.527344 C 282.214844 26.605469 281.855469 26.726562 281.492188 26.894531 Z M 281.492188 22.011719 "/>
<path style="fill:none;stroke-width:1.5;stroke-linecap:square;stroke-linejoin:round;stroke:rgb(100%,49.803922%,5.490196%);stroke-opacity:1;stroke-miterlimit:4;" d="M 128.850586 34.977539 L 148.851562 34.977539 " transform="matrix(1.333333,0,0,1.333333,0,0.000000000000014211)"/>
<path style=" stroke:none;fill-rule:nonzero;fill:rgb(0%,0%,0%);fill-opacity:1;" d="M 215.628906 47.664062 C 215.628906 46.78125 215.445312 46.089844 215.082031 45.589844 C 214.722656 45.089844 214.222656 44.835938 213.589844 44.835938 C 212.953125 44.835938 212.457031 45.089844 212.09375 45.589844 C 211.730469 46.089844 211.550781 46.78125 211.550781 47.664062 C 211.550781 48.542969 211.730469 49.234375 212.09375 49.734375 C 212.457031 50.238281 212.953125 50.488281 213.589844 50.488281 C 214.222656 50.488281 214.722656 50.238281 215.082031 49.734375 C 215.445312 49.234375 215.628906 48.542969 215.628906 47.664062 Z M 211.550781 45.117188 C 211.804688 44.683594 212.121094 44.363281 212.503906 44.152344 C 212.890625 43.941406 213.347656 43.835938 213.882812 43.835938 C 214.765625 43.835938 215.488281 44.1875 216.039062 44.890625 C 216.59375 45.59375 216.871094 46.515625 216.871094 47.664062 C 216.871094 48.808594 216.59375 49.734375 216.039062 50.4375 C 215.488281 51.140625 214.765625 51.492188 213.882812 51.492188 C 213.347656 51.492188 212.890625 51.386719 212.503906 51.175781 C 212.121094 50.964844 211.804688 50.640625 211.550781 50.207031 L 211.550781 51.300781 L 210.347656 51.300781 L 210.347656 41.171875 L 211.550781 41.171875 Z M 211.550781 45.117188 "/>
<path style=" stroke:none;fill-rule:nonzero;fill:rgb(0%,0%,0%);fill-opacity:1;" d="M 225.09375 47.355469 L 225.09375 47.941406 L 219.585938 47.941406 C 219.636719 48.765625 219.886719 49.394531 220.332031 49.828125 C 220.773438 50.257812 221.394531 50.476562 222.1875 50.476562 C 222.648438 50.476562 223.09375 50.417969 223.527344 50.304688 C 223.957031 50.195312 224.386719 50.023438 224.8125 49.796875 L 224.8125 50.929688 C 224.382812 51.113281 223.941406 51.253906 223.492188 51.347656 C 223.039062 51.445312 222.582031 51.492188 222.117188 51.492188 C 220.953125 51.492188 220.03125 51.152344 219.351562 50.476562 C 218.675781 49.800781 218.335938 48.882812 218.335938 47.726562 C 218.335938 46.535156 218.65625 45.585938 219.300781 44.886719 C 219.945312 44.1875 220.816406 43.835938 221.910156 43.835938 C 222.890625 43.835938 223.664062 44.152344 224.238281 44.785156 C 224.808594 45.414062 225.09375 46.273438 225.09375 47.355469 Z M 223.894531 47.003906 C 223.886719 46.351562 223.703125 45.828125 223.34375 45.4375 C 222.988281 45.046875 222.511719 44.851562 221.921875 44.851562 C 221.253906 44.851562 220.71875 45.039062 220.316406 45.417969 C 219.917969 45.792969 219.683594 46.328125 219.625 47.011719 Z M 223.894531 47.003906 "/>
<path style=" stroke:none;fill-rule:nonzero;fill:rgb(0%,0%,0%);fill-opacity:1;" d="M 228.242188 41.941406 L 228.242188 44.011719 L 230.710938 44.011719 L 230.710938 44.941406 L 228.242188 44.941406 L 228.242188 48.898438 C 228.242188 49.496094 228.324219 49.875 228.488281 50.046875 C 228.648438 50.214844 228.980469 50.300781 229.480469 50.300781 L 230.710938 50.300781 L 230.710938 51.300781 L 229.480469 51.300781 C 228.554688 51.300781 227.917969 51.128906 227.566406 50.785156 C 227.214844 50.441406 227.039062 49.8125 227.039062 48.898438 L 227.039062 44.941406 L 226.160156 44.941406 L 226.160156 44.011719 L 227.039062 44.011719 L 227.039062 41.941406 Z M 228.242188 41.941406 "/>
<path style=" stroke:none;fill-rule:nonzero;fill:rgb(0%,0%,0%);fill-opacity:1;" d="M 235.601562 47.636719 C 234.632812 47.636719 233.960938 47.746094 233.589844 47.96875 C 233.214844 48.191406 233.027344 48.566406 233.027344 49.101562 C 233.027344 49.527344 233.167969 49.863281 233.449219 50.113281 C 233.730469 50.363281 234.109375 50.488281 234.589844 50.488281 C 235.253906 50.488281 235.789062 50.253906 236.191406 49.78125 C 236.589844 49.308594 236.792969 48.683594 236.792969 47.902344 L 236.792969 47.636719 Z M 237.992188 47.140625 L 237.992188 51.300781 L 236.792969 51.300781 L 236.792969 50.195312 C 236.519531 50.636719 236.179688 50.964844 235.769531 51.175781 C 235.359375 51.386719 234.863281 51.492188 234.273438 51.492188 C 233.527344 51.492188 232.933594 51.28125 232.492188 50.863281 C 232.050781 50.441406 231.828125 49.882812 231.828125 49.179688 C 231.828125 48.359375 232.105469 47.742188 232.652344 47.324219 C 233.203125 46.910156 234.023438 46.699219 235.109375 46.699219 L 236.792969 46.699219 L 236.792969 46.582031 C 236.792969 46.03125 236.609375 45.601562 236.25 45.300781 C 235.886719 45 235.378906 44.851562 234.722656 44.851562 C 234.304688 44.851562 233.898438 44.898438 233.503906 45 C 233.109375 45.101562 232.730469 45.25 232.367188 45.449219 L 232.367188 44.339844 C 232.804688 44.171875 233.226562 44.046875 233.640625 43.960938 C 234.054688 43.878906 234.453125 43.835938 234.84375 43.835938 C 235.898438 43.835938 236.6875 44.109375 237.210938 44.65625 C 237.730469 45.203125 237.992188 46.03125 237.992188 47.140625 Z M 237.992188 47.140625 "/>
<path style=" stroke:none;fill-rule:nonzero;fill:rgb(0%,0%,0%);fill-opacity:1;" d="M 244.851562 45.246094 L 253.195312 45.246094 L 253.195312 46.339844 L 244.851562 46.339844 Z M 244.851562 47.902344 L 253.195312 47.902344 L 253.195312 49.011719 L 244.851562 49.011719 Z M 244.851562 47.902344 "/>
<path style=" stroke:none;fill-rule:nonzero;fill:rgb(0%,0%,0%);fill-opacity:1;" d="M 263.085938 42.449219 C 262.410156 42.449219 261.902344 42.78125 261.558594 43.449219 C 261.21875 44.113281 261.050781 45.113281 261.050781 46.453125 C 261.050781 47.785156 261.21875 48.785156 261.558594 49.449219 C 261.902344 50.117188 262.410156 50.449219 263.085938 50.449219 C 263.769531 50.449219 264.28125 50.117188 264.621094 49.449219 C 264.960938 48.785156 265.132812 47.785156 265.132812 46.453125 C 265.132812 45.113281 264.960938 44.113281 264.621094 43.449219 C 264.28125 42.78125 263.769531 42.449219 263.085938 42.449219 Z M 263.085938 41.40625 C 264.175781 41.40625 265.007812 41.835938 265.585938 42.699219 C 266.160156 43.5625 266.445312 44.8125 266.445312 46.453125 C 266.445312 48.089844 266.160156 49.335938 265.585938 50.199219 C 265.007812 51.0625 264.175781 51.492188 263.085938 51.492188 C 261.996094 51.492188 261.164062 51.0625 260.589844 50.199219 C 260.015625 49.335938 259.726562 48.089844 259.726562 46.453125 C 259.726562 44.8125 260.015625 43.5625 260.589844 42.699219 C 261.164062 41.835938 261.996094 41.40625 263.085938 41.40625 Z M 263.085938 41.40625 "/>
<path style=" stroke:none;fill-rule:nonzero;fill:rgb(0%,0%,0%);fill-opacity:1;" d="M 268.757812 49.648438 L 270.132812 49.648438 L 270.132812 51.300781 L 268.757812 51.300781 Z M 268.757812 49.648438 "/>
<path style=" stroke:none;fill-rule:nonzero;fill:rgb(0%,0%,0%);fill-opacity:1;" d="M 273.035156 51.101562 L 273.035156 49.902344 C 273.367188 50.058594 273.699219 50.179688 274.035156 50.261719 C 274.375 50.34375 274.707031 50.382812 275.035156 50.382812 C 275.902344 50.382812 276.566406 50.089844 277.023438 49.507812 C 277.480469 48.925781 277.742188 48.039062 277.808594 46.847656 C 277.554688 47.222656 277.238281 47.507812 276.847656 47.707031 C 276.464844 47.910156 276.035156 48.007812 275.566406 48.007812 C 274.597656 48.007812 273.828125 47.714844 273.261719 47.128906 C 272.691406 46.539062 272.410156 45.734375 272.410156 44.710938 C 272.410156 43.714844 272.703125 42.914062 273.296875 42.3125 C 273.886719 41.707031 274.671875 41.40625 275.652344 41.40625 C 276.777344 41.40625 277.636719 41.835938 278.226562 42.699219 C 278.820312 43.5625 279.117188 44.8125 279.117188 46.453125 C 279.117188 47.984375 278.753906 49.207031 278.023438 50.121094 C 277.296875 51.035156 276.320312 51.492188 275.09375 51.492188 C 274.761719 51.492188 274.429688 51.460938 274.089844 51.394531 C 273.75 51.328125 273.398438 51.230469 273.035156 51.101562 Z M 275.652344 46.980469 C 276.242188 46.980469 276.710938 46.777344 277.054688 46.375 C 277.398438 45.972656 277.574219 45.417969 277.574219 44.710938 C 277.574219 44.015625 277.398438 43.460938 277.054688 43.054688 C 276.710938 42.652344 276.242188 42.449219 275.652344 42.449219 C 275.0625 42.449219 274.59375 42.652344 274.25 43.054688 C 273.90625 43.460938 273.734375 44.015625 273.734375 44.710938 C 273.734375 45.417969 273.90625 45.972656 274.25 46.375 C 274.59375 46.777344 275.0625 46.980469 275.652344 46.980469 Z M 275.652344 46.980469 "/>
<path style=" stroke:none;fill-rule:nonzero;fill:rgb(0%,0%,0%);fill-opacity:1;" d="M 284.289062 42.449219 C 283.613281 42.449219 283.105469 42.78125 282.765625 43.449219 C 282.421875 44.113281 282.253906 45.113281 282.253906 46.453125 C 282.253906 47.785156 282.421875 48.785156 282.765625 49.449219 C 283.105469 50.117188 283.613281 50.449219 284.289062 50.449219 C 284.972656 50.449219 285.484375 50.117188 285.824219 49.449219 C 286.164062 48.785156 286.335938 47.785156 286.335938 46.453125 C 286.335938 45.113281 286.164062 44.113281 285.824219 43.449219 C 285.484375 42.78125 284.972656 42.449219 284.289062 42.449219 Z M 284.289062 41.40625 C 285.382812 41.40625 286.214844 41.835938 286.789062 42.699219 C 287.363281 43.5625 287.652344 44.8125 287.652344 46.453125 C 287.652344 48.089844 287.363281 49.335938 286.789062 50.199219 C 286.214844 51.0625 285.382812 51.492188 284.289062 51.492188 C 283.203125 51.492188 282.371094 51.0625 281.796875 50.199219 C 281.21875 49.335938 280.933594 48.089844 280.933594 46.453125 C 280.933594 44.8125 281.21875 43.5625 281.796875 42.699219 C 282.371094 41.835938 283.203125 41.40625 284.289062 41.40625 Z M 284.289062 41.40625 "/>
<path style="fill:none;stroke-width:1.5;stroke-linecap:square;stroke-linejoin:round;stroke:rgb(17.254902%,62.7451%,17.254902%);stroke-opacity:1;stroke-miterlimit:4;" d="M 128.850586 49.655273 L 148.851562 49.655273 " transform="matrix(1.333333,0,0,1.333333,0,0.000000000000014211)"/>
<path style=" stroke:none;fill-rule:nonzero;fill:rgb(0%,0%,0%);fill-opacity:1;" d="M 215.628906 67.234375 C 215.628906 66.351562 215.445312 65.660156 215.082031 65.160156 C 214.722656 64.660156 214.222656 64.410156 213.589844 64.410156 C 212.953125 64.410156 212.457031 64.660156 212.09375 65.160156 C 211.730469 65.660156 211.550781 66.351562 211.550781 67.234375 C 211.550781 68.113281 211.730469 68.804688 212.09375 69.304688 C 212.457031 69.808594 212.953125 70.058594 213.589844 70.058594 C 214.222656 70.058594 214.722656 69.808594 215.082031 69.304688 C 215.445312 68.804688 215.628906 68.113281 215.628906 67.234375 Z M 211.550781 64.6875 C 211.804688 64.253906 212.121094 63.933594 212.503906 63.722656 C 212.890625 63.511719 213.347656 63.40625 213.882812 63.40625 C 214.765625 63.40625 215.488281 63.757812 216.039062 64.460938 C 216.59375 65.164062 216.871094 66.085938 216.871094 67.234375 C 216.871094 68.378906 216.59375 69.304688 216.039062 70.007812 C 215.488281 70.710938 214.765625 71.0625 213.882812 71.0625 C 213.347656 71.0625 212.890625 70.957031 212.503906 70.746094 C 212.121094 70.535156 211.804688 70.210938 211.550781 69.777344 L 211.550781 70.871094 L 210.347656 70.871094 L 210.347656 60.742188 L 211.550781 60.742188 Z M 211.550781 64.6875 "/>
<path style=" stroke:none;fill-rule:nonzero;fill:rgb(0%,0%,0%);fill-opacity:1;" d="M 225.09375 66.925781 L 225.09375 67.511719 L 219.585938 67.511719 C 219.636719 68.335938 219.886719 68.964844 220.332031 69.398438 C 220.773438 69.828125 221.394531 70.046875 222.1875 70.046875 C 222.648438 70.046875 223.09375 69.988281 223.527344 69.878906 C 223.957031 69.765625 224.386719 69.59375 224.8125 69.367188 L 224.8125 70.503906 C 224.382812 70.683594 223.941406 70.824219 223.492188 70.917969 C 223.039062 71.015625 222.582031 71.0625 222.117188 71.0625 C 220.953125 71.0625 220.03125 70.722656 219.351562 70.046875 C 218.675781 69.371094 218.335938 68.453125 218.335938 67.296875 C 218.335938 66.105469 218.65625 65.160156 219.300781 64.457031 C 219.945312 63.757812 220.816406 63.40625 221.910156 63.40625 C 222.890625 63.40625 223.664062 63.722656 224.238281 64.355469 C 224.808594 64.984375 225.09375 65.84375 225.09375 66.925781 Z M 223.894531 66.574219 C 223.886719 65.921875 223.703125 65.398438 223.34375 65.007812 C 222.988281 64.617188 222.511719 64.421875 221.921875 64.421875 C 221.253906 64.421875 220.71875 64.609375 220.316406 64.988281 C 219.917969 65.367188 219.683594 65.898438 219.625 66.582031 Z M 223.894531 66.574219 "/>
<path style=" stroke:none;fill-rule:nonzero;fill:rgb(0%,0%,0%);fill-opacity:1;" d="M 228.242188 61.511719 L 228.242188 63.582031 L 230.710938 63.582031 L 230.710938 64.511719 L 228.242188 64.511719 L 228.242188 68.472656 C 228.242188 69.066406 228.324219 69.445312 228.488281 69.617188 C 228.648438 69.785156 228.980469 69.871094 229.480469 69.871094 L 230.710938 69.871094 L 230.710938 70.871094 L 229.480469 70.871094 C 228.554688 70.871094 227.917969 70.699219 227.566406 70.355469 C 227.214844 70.011719 227.039062 69.382812 227.039062 68.472656 L 227.039062 64.511719 L 226.160156 64.511719 L 226.160156 63.582031 L 227.039062 63.582031 L 227.039062 61.511719 Z M 228.242188 61.511719 "/>
<path style=" stroke:none;fill-rule:nonzero;fill:rgb(0%,0%,0%);fill-opacity:1;" d="M 235.601562 67.207031 C 234.632812 67.207031 233.960938 67.320312 233.589844 67.539062 C 233.214844 67.761719 233.027344 68.136719 233.027344 68.671875 C 233.027344 69.097656 233.167969 69.433594 233.449219 69.683594 C 233.730469 69.933594 234.109375 70.058594 234.589844 70.058594 C 235.253906 70.058594 235.789062 69.824219 236.191406 69.351562 C 236.589844 68.882812 236.792969 68.253906 236.792969 67.476562 L 236.792969 67.207031 Z M 237.992188 66.710938 L 237.992188 70.871094 L 236.792969 70.871094 L 236.792969 69.765625 C 236.519531 70.207031 236.179688 70.535156 235.769531 70.746094 C 235.359375 70.957031 234.863281 71.0625 234.273438 71.0625 C 233.527344 71.0625 232.933594 70.851562 232.492188 70.433594 C 232.050781 70.015625 231.828125 69.453125 231.828125 68.75 C 231.828125 67.929688 232.105469 67.3125 232.652344 66.894531 C 233.203125 66.480469 234.023438 66.269531 235.109375 66.269531 L 236.792969 66.269531 L 236.792969 66.152344 C 236.792969 65.601562 236.609375 65.175781 236.25 64.871094 C 235.886719 64.570312 235.378906 64.421875 234.722656 64.421875 C 234.304688 64.421875 233.898438 64.472656 233.503906 64.570312 C 233.109375 64.671875 232.730469 64.820312 232.367188 65.019531 L 232.367188 63.914062 C 232.804688 63.742188 233.226562 63.617188 233.640625 63.535156 C 234.054688 63.449219 234.453125 63.40625 234.84375 63.40625 C 235.898438 63.40625 236.6875 63.679688 237.210938 64.226562 C 237.730469 64.773438 237.992188 65.601562 237.992188 66.710938 Z M 237.992188 66.710938 "/>
<path style=" stroke:none;fill-rule:nonzero;fill:rgb(0%,0%,0%);fill-opacity:1;" d="M 244.851562 64.820312 L 253.195312 64.820312 L 253.195312 65.914062 L 244.851562 65.914062 Z M 244.851562 67.476562 L 253.195312 67.476562 L 253.195312 68.582031 L 244.851562 68.582031 Z M 244.851562 67.476562 "/>
<path style=" stroke:none;fill-rule:nonzero;fill:rgb(0%,0%,0%);fill-opacity:1;" d="M 263.085938 62.019531 C 262.410156 62.019531 261.902344 62.351562 261.558594 63.019531 C 261.21875 63.683594 261.050781 64.683594 261.050781 66.023438 C 261.050781 67.355469 261.21875 68.355469 261.558594 69.019531 C 261.902344 69.6875 262.410156 70.019531 263.085938 70.019531 C 263.769531 70.019531 264.28125 69.6875 264.621094 69.019531 C 264.960938 68.355469 265.132812 67.355469 265.132812 66.023438 C 265.132812 64.683594 264.960938 63.683594 264.621094 63.019531 C 264.28125 62.351562 263.769531 62.019531 263.085938 62.019531 Z M 263.085938 60.976562 C 264.175781 60.976562 265.007812 61.410156 265.585938 62.269531 C 266.160156 63.132812 266.445312 64.382812 266.445312 66.023438 C 266.445312 67.660156 266.160156 68.910156 265.585938 69.769531 C 265.007812 70.632812 264.175781 71.0625 263.085938 71.0625 C 261.996094 71.0625 261.164062 70.632812 260.589844 69.769531 C 260.015625 68.910156 259.726562 67.660156 259.726562 66.023438 C 259.726562 64.382812 260.015625 63.132812 260.589844 62.269531 C 261.164062 61.410156 261.996094 60.976562 263.085938 60.976562 Z M 263.085938 60.976562 "/>
<path style=" stroke:none;fill-rule:nonzero;fill:rgb(0%,0%,0%);fill-opacity:1;" d="M 268.757812 69.21875 L 270.132812 69.21875 L 270.132812 70.871094 L 268.757812 70.871094 Z M 268.757812 69.21875 "/>
<path style=" stroke:none;fill-rule:nonzero;fill:rgb(0%,0%,0%);fill-opacity:1;" d="M 275.972656 65.488281 C 275.382812 65.488281 274.914062 65.691406 274.566406 66.097656 C 274.222656 66.5 274.050781 67.050781 274.050781 67.753906 C 274.050781 68.453125 274.222656 69.003906 274.566406 69.414062 C 274.914062 69.816406 275.382812 70.019531 275.972656 70.019531 C 276.5625 70.019531 277.03125 69.816406 277.375 69.414062 C 277.71875 69.003906 277.890625 68.453125 277.890625 67.753906 C 277.890625 67.050781 277.71875 66.5 277.375 66.097656 C 277.03125 65.691406 276.5625 65.488281 275.972656 65.488281 Z M 278.582031 61.367188 L 278.582031 62.566406 C 278.253906 62.410156 277.917969 62.289062 277.582031 62.207031 C 277.246094 62.125 276.914062 62.082031 276.582031 62.082031 C 275.714844 62.082031 275.050781 62.375 274.59375 62.960938 C 274.136719 63.546875 273.875 64.433594 273.808594 65.617188 C 274.066406 65.242188 274.386719 64.953125 274.773438 64.75 C 275.160156 64.546875 275.585938 64.449219 276.050781 64.449219 C 277.027344 64.449219 277.796875 64.746094 278.363281 65.335938 C 278.929688 65.929688 279.214844 66.734375 279.214844 67.753906 C 279.214844 68.753906 278.917969 69.554688 278.328125 70.160156 C 277.738281 70.761719 276.953125 71.0625 275.972656 71.0625 C 274.847656 71.0625 273.988281 70.632812 273.394531 69.769531 C 272.796875 68.910156 272.5 67.660156 272.5 66.023438 C 272.5 64.488281 272.867188 63.261719 273.59375 62.347656 C 274.324219 61.433594 275.304688 60.976562 276.53125 60.976562 C 276.859375 60.976562 277.195312 61.007812 277.53125 61.074219 C 277.867188 61.140625 278.21875 61.238281 278.582031 61.367188 Z M 278.582031 61.367188 "/>
<path style=" stroke:none;fill-rule:nonzero;fill:rgb(0%,0%,0%);fill-opacity:1;" d="M 284.289062 62.019531 C 283.613281 62.019531 283.105469 62.351562 282.765625 63.019531 C 282.421875 63.683594 282.253906 64.683594 282.253906 66.023438 C 282.253906 67.355469 282.421875 68.355469 282.765625 69.019531 C 283.105469 69.6875 283.613281 70.019531 284.289062 70.019531 C 284.972656 70.019531 285.484375 69.6875 285.824219 69.019531 C 286.164062 68.355469 286.335938 67.355469 286.335938 66.023438 C 286.335938 64.683594 286.164062 63.683594 285.824219 63.019531 C 285.484375 62.351562 284.972656 62.019531 284.289062 62.019531 Z M 284.289062 60.976562 C 285.382812 60.976562 286.214844 61.410156 286.789062 62.269531 C 287.363281 63.132812 287.652344 64.382812 287.652344 66.023438 C 287.652344 67.660156 287.363281 68.910156 286.789062 69.769531 C 286.214844 70.632812 285.382812 71.0625 284.289062 71.0625 C 283.203125 71.0625 282.371094 70.632812 281.796875 69.769531 C 281.21875 68.910156 280.933594 67.660156 280.933594 66.023438 C 280.933594 64.382812 281.21875 63.132812 281.796875 62.269531 C 282.371094 61.410156 283.203125 60.976562 284.289062 60.976562 Z M 284.289062 60.976562 "/>
<path style="fill:none;stroke-width:1.5;stroke-linecap:square;stroke-linejoin:round;stroke:rgb(83.92157%,15.294118%,15.686275%);stroke-opacity:1;stroke-miterlimit:4;" d="M 128.850586 64.333008 L 148.851562 64.333008 " transform="matrix(1.333333,0,0,1.333333,0,0.000000000000014211)"/>
<path style=" stroke:none;fill-rule:nonzero;fill:rgb(0%,0%,0%);fill-opacity:1;" d="M 215.628906 86.804688 C 215.628906 85.921875 215.445312 85.234375 215.082031 84.730469 C 214.722656 84.230469 214.222656 83.980469 213.589844 83.980469 C 212.953125 83.980469 212.457031 84.230469 212.09375 84.730469 C 211.730469 85.234375 211.550781 85.921875 211.550781 86.804688 C 211.550781 87.683594 211.730469 88.375 212.09375 88.878906 C 212.457031 89.378906 212.953125 89.628906 213.589844 89.628906 C 214.222656 89.628906 214.722656 89.378906 215.082031 88.878906 C 215.445312 88.375 215.628906 87.683594 215.628906 86.804688 Z M 211.550781 84.257812 C 211.804688 83.824219 212.121094 83.503906 212.503906 83.292969 C 212.890625 83.082031 213.347656 82.976562 213.882812 82.976562 C 214.765625 82.976562 215.488281 83.328125 216.039062 84.03125 C 216.59375 84.734375 216.871094 85.660156 216.871094 86.804688 C 216.871094 87.949219 216.59375 88.875 216.039062 89.578125 C 215.488281 90.28125 214.765625 90.632812 213.882812 90.632812 C 213.347656 90.632812 212.890625 90.527344 212.503906 90.316406 C 212.121094 90.105469 211.804688 89.785156 211.550781 89.351562 L 211.550781 90.445312 L 210.347656 90.445312 L 210.347656 80.3125 L 211.550781 80.3125 Z M 211.550781 84.257812 "/>
<path style=" stroke:none;fill-rule:nonzero;fill:rgb(0%,0%,0%);fill-opacity:1;" d="M 225.09375 86.496094 L 225.09375 87.082031 L 219.585938 87.082031 C 219.636719 87.910156 219.886719 88.535156 220.332031 88.96875 C 220.773438 89.402344 221.394531 89.617188 222.1875 89.617188 C 222.648438 89.617188 223.09375 89.558594 223.527344 89.449219 C 223.957031 89.335938 224.386719 89.164062 224.8125 88.941406 L 224.8125 90.074219 C 224.382812 90.253906 223.941406 90.394531 223.492188 90.488281 C 223.039062 90.585938 222.582031 90.632812 222.117188 90.632812 C 220.953125 90.632812 220.03125 90.296875 219.351562 89.617188 C 218.675781 88.941406 218.335938 88.023438 218.335938 86.867188 C 218.335938 85.675781 218.65625 84.730469 219.300781 84.027344 C 219.945312 83.328125 220.816406 82.976562 221.910156 82.976562 C 222.890625 82.976562 223.664062 83.292969 224.238281 83.925781 C 224.808594 84.554688 225.09375 85.414062 225.09375 86.496094 Z M 223.894531 86.144531 C 223.886719 85.492188 223.703125 84.96875 223.34375 84.578125 C 222.988281 84.1875 222.511719 83.992188 221.921875 83.992188 C 221.253906 83.992188 220.71875 84.179688 220.316406 84.558594 C 219.917969 84.9375 219.683594 85.46875 219.625 86.152344 Z M 223.894531 86.144531 "/>
<path style=" stroke:none;fill-rule:nonzero;fill:rgb(0%,0%,0%);fill-opacity:1;" d="M 228.242188 81.082031 L 228.242188 83.152344 L 230.710938 83.152344 L 230.710938 84.082031 L 228.242188 84.082031 L 228.242188 88.042969 C 228.242188 88.636719 228.324219 89.019531 228.488281 89.1875 C 228.648438 89.355469 228.980469 89.441406 229.480469 89.441406 L 230.710938 89.441406 L 230.710938 90.445312 L 229.480469 90.445312 C 228.554688 90.445312 227.917969 90.273438 227.566406 89.925781 C 227.214844 89.582031 227.039062 88.953125 227.039062 88.042969 L 227.039062 84.082031 L 226.160156 84.082031 L 226.160156 83.152344 L 227.039062 83.152344 L 227.039062 81.082031 Z M 228.242188 81.082031 "/>
<path style=" stroke:none;fill-rule:nonzero;fill:rgb(0%,0%,0%);fill-opacity:1;" d="M 235.601562 86.777344 C 234.632812 86.777344 233.960938 86.890625 233.589844 87.109375 C 233.214844 87.332031 233.027344 87.710938 233.027344 88.242188 C 233.027344 88.667969 233.167969 89.007812 233.449219 89.257812 C 233.730469 89.503906 234.109375 89.628906 234.589844 89.628906 C 235.253906 89.628906 235.789062 89.394531 236.191406 88.921875 C 236.589844 88.453125 236.792969 87.828125 236.792969 87.046875 L 236.792969 86.777344 Z M 237.992188 86.285156 L 237.992188 90.445312 L 236.792969 90.445312 L 236.792969 89.335938 C 236.519531 89.777344 236.179688 90.105469 235.769531 90.316406 C 235.359375 90.527344 234.863281 90.632812 234.273438 90.632812 C 233.527344 90.632812 232.933594 90.421875 232.492188 90.003906 C 232.050781 89.585938 231.828125 89.023438 231.828125 88.320312 C 231.828125 87.5 232.105469 86.882812 232.652344 86.464844 C 233.203125 86.050781 234.023438 85.839844 235.109375 85.839844 L 236.792969 85.839844 L 236.792969 85.722656 C 236.792969 85.171875 236.609375 84.746094 236.25 84.445312 C 235.886719 84.140625 235.378906 83.992188 234.722656 83.992188 C 234.304688 83.992188 233.898438 84.042969 233.503906 84.140625 C 233.109375 84.242188 232.730469 84.390625 232.367188 84.589844 L 232.367188 83.484375 C 232.804688 83.3125 233.226562 83.1875 233.640625 83.105469 C 234.054688 83.019531 234.453125 82.976562 234.84375 82.976562 C 235.898438 82.976562 236.6875 83.25 237.210938 83.796875 C 237.730469 84.34375 237.992188 85.171875 237.992188 86.285156 Z M 237.992188 86.285156 "/>
<path style=" stroke:none;fill-rule:nonzero;fill:rgb(0%,0%,0%);fill-opacity:1;" d="M 244.851562 84.390625 L 253.195312 84.390625 L 253.195312 85.484375 L 244.851562 85.484375 Z M 244.851562 87.046875 L 253.195312 87.046875 L 253.195312 88.152344 L 244.851562 88.152344 Z M 244.851562 87.046875 "/>
<path style=" stroke:none;fill-rule:nonzero;fill:rgb(0%,0%,0%);fill-opacity:1;" d="M 263.085938 81.589844 C 262.410156 81.589844 261.902344 81.921875 261.558594 82.589844 C 261.21875 83.253906 261.050781 84.257812 261.050781 85.59375 C 261.050781 86.925781 261.21875 87.925781 261.558594 88.589844 C 261.902344 89.257812 262.410156 89.589844 263.085938 89.589844 C 263.769531 89.589844 264.28125 89.257812 264.621094 88.589844 C 264.960938 87.925781 265.132812 86.925781 265.132812 85.59375 C 265.132812 84.257812 264.960938 83.253906 264.621094 82.589844 C 264.28125 81.921875 263.769531 81.589844 263.085938 81.589844 Z M 263.085938 80.546875 C 264.175781 80.546875 265.007812 80.980469 265.585938 81.839844 C 266.160156 82.703125 266.445312 83.953125 266.445312 85.59375 C 266.445312 87.230469 266.160156 88.480469 265.585938 89.339844 C 265.007812 90.203125 264.175781 90.632812 263.085938 90.632812 C 261.996094 90.632812 261.164062 90.203125 260.589844 89.339844 C 260.015625 88.480469 259.726562 87.230469 259.726562 85.59375 C 259.726562 83.953125 260.015625 82.703125 260.589844 81.839844 C 261.164062 80.980469 261.996094 80.546875 263.085938 80.546875 Z M 263.085938 80.546875 "/>
<path style=" stroke:none;fill-rule:nonzero;fill:rgb(0%,0%,0%);fill-opacity:1;" d="M 268.757812 88.789062 L 270.132812 88.789062 L 270.132812 90.445312 L 268.757812 90.445312 Z M 268.757812 88.789062 "/>
<path style=" stroke:none;fill-rule:nonzero;fill:rgb(0%,0%,0%);fill-opacity:1;" d="M 275.808594 81.589844 C 275.132812 81.589844 274.621094 81.921875 274.28125 82.589844 C 273.941406 83.253906 273.769531 84.257812 273.769531 85.59375 C 273.769531 86.925781 273.941406 87.925781 274.28125 88.589844 C 274.621094 89.257812 275.132812 89.589844 275.808594 89.589844 C 276.488281 89.589844 277 89.257812 277.339844 88.589844 C 277.683594 87.925781 277.855469 86.925781 277.855469 85.59375 C 277.855469 84.257812 277.683594 83.253906 277.339844 82.589844 C 277 81.921875 276.488281 81.589844 275.808594 81.589844 Z M 275.808594 80.546875 C 276.898438 80.546875 277.730469 80.980469 278.304688 81.839844 C 278.878906 82.703125 279.167969 83.953125 279.167969 85.59375 C 279.167969 87.230469 278.878906 88.480469 278.304688 89.339844 C 277.730469 90.203125 276.898438 90.632812 275.808594 90.632812 C 274.71875 90.632812 273.886719 90.203125 273.3125 89.339844 C 272.738281 88.480469 272.449219 87.230469 272.449219 85.59375 C 272.449219 83.953125 272.738281 82.703125 273.3125 81.839844 C 273.886719 80.980469 274.71875 80.546875 275.808594 80.546875 Z M 275.808594 80.546875 "/>
<path style=" stroke:none;fill-rule:nonzero;fill:rgb(0%,0%,0%);fill-opacity:1;" d="M 284.289062 81.589844 C 283.613281 81.589844 283.105469 81.921875 282.765625 82.589844 C 282.421875 83.253906 282.253906 84.257812 282.253906 85.59375 C 282.253906 86.925781 282.421875 87.925781 282.765625 88.589844 C 283.105469 89.257812 283.613281 89.589844 284.289062 89.589844 C 284.972656 89.589844 285.484375 89.257812 285.824219 88.589844 C 286.164062 87.925781 286.335938 86.925781 286.335938 85.59375 C 286.335938 84.257812 286.164062 83.253906 285.824219 82.589844 C 285.484375 81.921875 284.972656 81.589844 284.289062 81.589844 Z M 284.289062 80.546875 C 285.382812 80.546875 286.214844 80.980469 286.789062 81.839844 C 287.363281 82.703125 287.652344 83.953125 287.652344 85.59375 C 287.652344 87.230469 287.363281 88.480469 286.789062 89.339844 C 286.214844 90.203125 285.382812 90.632812 284.289062 90.632812 C 283.203125 90.632812 282.371094 90.203125 281.796875 89.339844 C 281.21875 88.480469 280.933594 87.230469 280.933594 85.59375 C 280.933594 83.953125 281.21875 82.703125 281.796875 81.839844 C 282.371094 80.980469 283.203125 80.546875 284.289062 80.546875 Z M 284.289062 80.546875 "/>
</g>
</svg>
