<?xml version="1.0" encoding="UTF-8"?>
<svg xmlns="http://www.w3.org/2000/svg" xmlns:xlink="http://www.w3.org/1999/xlink" width="328.75" height="244.474996" viewBox="0 0 328.75 244.474996" version="1.1">
<defs>
<clipPath id="clip1">
  <path d="M 75 19 L 310.667969 19 L 310.667969 59 L 75 59 Z M 75 19 "/>
</clipPath>
<filter id="alpha" filterUnits="objectBoundingBox" x="0%" y="0%" width="100%" height="100%">
  <feColorMatrix type="matrix" in="SourceGraphic" values="0 0 0 0 1 0 0 0 0 1 0 0 0 0 1 0 0 0 1 0"/>
</filter>
<mask id="mask0">
  <g filter="url(#alpha)">
<rect x="0" y="0" width="328.75" height="244.474996" style="fill:rgb(0%,0%,0%);fill-opacity:0.8;stroke:none;"/>
  </g>
</mask>
<clipPath id="clip2">
  <rect x="0" y="0" width="329" height="245"/>
</clipPath>
<g id="surface5" clip-path="url(#clip2)">
<path style="fill-rule:nonzero;fill:rgb(100%,100%,100%);fill-opacity:1;stroke-width:1;stroke-linecap:butt;stroke-linejoin:miter;stroke:rgb(80.000001%,80.000001%,80.000001%);stroke-opacity:1;stroke-miterlimit:4;" d="M 146.408203 92.956055 L 225.999023 92.956055 C 227.332031 92.956055 228 92.291016 228 90.955078 L 228 62.044922 C 228 60.708984 227.332031 60.043945 225.999023 60.043945 L 146.408203 60.043945 C 145.075195 60.043945 144.410156 60.708984 144.410156 62.044922 L 144.410156 90.955078 C 144.410156 92.291016 145.075195 92.956055 146.408203 92.956055 Z M 146.408203 92.956055 " transform="matrix(1.333333,0,0,1.333333,0,0.000000000000014211)"/>
</g>
</defs>
<g id="surface1">
<path style=" stroke:none;fill-rule:nonzero;fill:rgb(100%,100%,100%);fill-opacity:1;" d="M 0 244.476562 L 328.75 244.476562 L 328.75 0 L 0 0 Z M 0 244.476562 "/>
<path style=" stroke:none;fill-rule:nonzero;fill:rgb(100%,100%,100%);fill-opacity:1;" d="M 50.265625 194.398438 L 310.667969 194.398438 L 310.667969 9.601562 L 50.265625 9.601562 Z M 50.265625 194.398438 "/>
<path style="fill:none;stroke-width:0.8;stroke-linecap:butt;stroke-linejoin:round;stroke:rgb(0%,0%,0%);stroke-opacity:1;stroke-miterlimit:4;" d="M -0.000782013 -0.00117493 L -0.000782013 3.499802 " transform="matrix(1.333333,0,0,1.333333,50.266668,194.400004)"/>
<path style=" stroke:none;fill-rule:nonzero;fill:rgb(0%,0%,0%);fill-opacity:1;" d="M 50.261719 205.011719 C 49.585938 205.011719 49.078125 205.34375 48.734375 206.011719 C 48.394531 206.675781 48.226562 207.675781 48.226562 209.015625 C 48.226562 210.347656 48.394531 211.347656 48.734375 212.011719 C 49.078125 212.679688 49.585938 213.011719 50.261719 213.011719 C 50.945312 213.011719 51.457031 212.679688 51.796875 212.011719 C 52.136719 211.347656 52.308594 210.347656 52.308594 209.015625 C 52.308594 207.675781 52.136719 206.675781 51.796875 206.011719 C 51.457031 205.34375 50.945312 205.011719 50.261719 205.011719 Z M 50.261719 203.96875 C 51.351562 203.96875 52.183594 204.398438 52.761719 205.261719 C 53.335938 206.125 53.621094 207.375 53.621094 209.015625 C 53.621094 210.652344 53.335938 211.898438 52.761719 212.761719 C 52.183594 213.625 51.351562 214.054688 50.261719 214.054688 C 49.171875 214.054688 48.339844 213.625 47.765625 212.761719 C 47.191406 211.898438 46.902344 210.652344 46.902344 209.015625 C 46.902344 207.375 47.191406 206.125 47.765625 205.261719 C 48.339844 204.398438 49.171875 203.96875 50.261719 203.96875 Z M 50.261719 203.96875 "/>
<path style="fill:none;stroke-width:0.8;stroke-linecap:butt;stroke-linejoin:round;stroke:rgb(0%,0%,0%);stroke-opacity:1;stroke-miterlimit:4;" d="M 0.000740051 -0.00117493 L 0.000740051 3.499802 " transform="matrix(1.333333,0,0,1.333333,102.34667,194.400004)"/>
<path style=" stroke:none;fill-rule:nonzero;fill:rgb(0%,0%,0%);fill-opacity:1;" d="M 100.664062 212.757812 L 105.253906 212.757812 L 105.253906 213.863281 L 99.082031 213.863281 L 99.082031 212.757812 C 99.582031 212.242188 100.261719 211.546875 101.121094 210.679688 C 101.984375 209.808594 102.527344 209.246094 102.746094 208.992188 C 103.167969 208.523438 103.460938 208.121094 103.628906 207.792969 C 103.796875 207.464844 103.878906 207.144531 103.878906 206.828125 C 103.878906 206.308594 103.699219 205.890625 103.335938 205.566406 C 102.972656 205.238281 102.5 205.074219 101.917969 205.074219 C 101.507812 205.074219 101.070312 205.148438 100.613281 205.289062 C 100.15625 205.433594 99.667969 205.648438 99.148438 205.941406 L 99.148438 204.613281 C 99.675781 204.398438 100.171875 204.238281 100.628906 204.132812 C 101.089844 204.023438 101.511719 203.96875 101.894531 203.96875 C 102.902344 203.96875 103.703125 204.222656 104.304688 204.726562 C 104.902344 205.226562 105.199219 205.898438 105.199219 206.742188 C 105.199219 207.140625 105.125 207.519531 104.976562 207.878906 C 104.828125 208.234375 104.554688 208.65625 104.160156 209.144531 C 104.050781 209.269531 103.707031 209.632812 103.125 210.234375 C 102.542969 210.835938 101.722656 211.679688 100.664062 212.757812 Z M 100.664062 212.757812 "/>
<path style="fill:none;stroke-width:0.8;stroke-linecap:butt;stroke-linejoin:round;stroke:rgb(0%,0%,0%);stroke-opacity:1;stroke-miterlimit:4;" d="M -0.000663757 -0.00117493 L -0.000663757 3.499802 " transform="matrix(1.333333,0,0,1.333333,154.426666,194.400004)"/>
<path style=" stroke:none;fill-rule:nonzero;fill:rgb(0%,0%,0%);fill-opacity:1;" d="M 155.222656 205.289062 L 151.902344 210.480469 L 155.222656 210.480469 Z M 154.878906 204.144531 L 156.53125 204.144531 L 156.53125 210.480469 L 157.921875 210.480469 L 157.921875 211.574219 L 156.53125 211.574219 L 156.53125 213.863281 L 155.222656 213.863281 L 155.222656 211.574219 L 150.835938 211.574219 L 150.835938 210.304688 Z M 154.878906 204.144531 "/>
<path style="fill:none;stroke-width:0.8;stroke-linecap:butt;stroke-linejoin:round;stroke:rgb(0%,0%,0%);stroke-opacity:1;stroke-miterlimit:4;" d="M 0.000854492 -0.00117493 L 0.000854492 3.499802 " transform="matrix(1.333333,0,0,1.333333,206.506673,194.400004)"/>
<path style=" stroke:none;fill-rule:nonzero;fill:rgb(0%,0%,0%);fill-opacity:1;" d="M 206.667969 208.480469 C 206.078125 208.480469 205.609375 208.683594 205.261719 209.085938 C 204.917969 209.492188 204.746094 210.042969 204.746094 210.746094 C 204.746094 211.445312 204.917969 211.996094 205.261719 212.402344 C 205.609375 212.808594 206.078125 213.011719 206.667969 213.011719 C 207.257812 213.011719 207.726562 212.808594 208.070312 212.402344 C 208.414062 211.996094 208.585938 211.445312 208.585938 210.746094 C 208.585938 210.042969 208.414062 209.492188 208.070312 209.085938 C 207.726562 208.683594 207.257812 208.480469 206.667969 208.480469 Z M 209.277344 204.359375 L 209.277344 205.554688 C 208.945312 205.402344 208.613281 205.28125 208.277344 205.199219 C 207.941406 205.117188 207.609375 205.074219 207.277344 205.074219 C 206.410156 205.074219 205.746094 205.367188 205.289062 205.953125 C 204.832031 206.539062 204.570312 207.425781 204.503906 208.609375 C 204.761719 208.234375 205.082031 207.941406 205.46875 207.742188 C 205.855469 207.539062 206.28125 207.441406 206.746094 207.441406 C 207.71875 207.441406 208.492188 207.734375 209.058594 208.328125 C 209.625 208.921875 209.910156 209.726562 209.910156 210.746094 C 209.910156 211.746094 209.613281 212.546875 209.023438 213.148438 C 208.433594 213.753906 207.648438 214.054688 206.667969 214.054688 C 205.542969 214.054688 204.683594 213.625 204.089844 212.761719 C 203.492188 211.898438 203.195312 210.652344 203.195312 209.015625 C 203.195312 207.476562 203.5625 206.253906 204.289062 205.339844 C 205.019531 204.425781 205.996094 203.96875 207.226562 203.96875 C 207.554688 203.96875 207.890625 204 208.226562 204.066406 C 208.5625 204.132812 208.914062 204.230469 209.277344 204.359375 Z M 209.277344 204.359375 "/>
<path style="fill:none;stroke-width:0.8;stroke-linecap:butt;stroke-linejoin:round;stroke:rgb(0%,0%,0%);stroke-opacity:1;stroke-miterlimit:4;" d="M -0.000549316 -0.00117493 L -0.000549316 3.499802 " transform="matrix(1.333333,0,0,1.333333,258.58667,194.400004)"/>
<path style=" stroke:none;fill-rule:nonzero;fill:rgb(0%,0%,0%);fill-opacity:1;" d="M 258.582031 209.246094 C 257.957031 209.246094 257.464844 209.414062 257.109375 209.75 C 256.75 210.085938 256.570312 210.542969 256.570312 211.128906 C 256.570312 211.714844 256.75 212.175781 257.109375 212.511719 C 257.464844 212.84375 257.957031 213.011719 258.582031 213.011719 C 259.207031 213.011719 259.699219 212.84375 260.058594 212.507812 C 260.421875 212.171875 260.601562 211.710938 260.601562 211.128906 C 260.601562 210.542969 260.421875 210.085938 260.0625 209.75 C 259.707031 209.414062 259.214844 209.246094 258.582031 209.246094 Z M 257.269531 208.691406 C 256.703125 208.550781 256.265625 208.289062 255.949219 207.902344 C 255.636719 207.515625 255.476562 207.042969 255.476562 206.488281 C 255.476562 205.710938 255.753906 205.097656 256.308594 204.644531 C 256.863281 204.195312 257.621094 203.96875 258.582031 203.96875 C 259.550781 203.96875 260.308594 204.195312 260.863281 204.644531 C 261.414062 205.097656 261.6875 205.710938 261.6875 206.488281 C 261.6875 207.042969 261.53125 207.515625 261.214844 207.902344 C 260.902344 208.289062 260.464844 208.550781 259.90625 208.691406 C 260.539062 208.835938 261.03125 209.125 261.382812 209.554688 C 261.738281 209.984375 261.914062 210.507812 261.914062 211.128906 C 261.914062 212.070312 261.628906 212.796875 261.054688 213.300781 C 260.476562 213.804688 259.65625 214.054688 258.582031 214.054688 C 257.511719 214.054688 256.6875 213.804688 256.113281 213.300781 C 255.535156 212.796875 255.25 212.070312 255.25 211.128906 C 255.25 210.507812 255.425781 209.984375 255.78125 209.554688 C 256.140625 209.125 256.632812 208.835938 257.269531 208.691406 Z M 256.785156 206.613281 C 256.785156 207.117188 256.945312 207.507812 257.257812 207.789062 C 257.574219 208.070312 258.015625 208.210938 258.582031 208.210938 C 259.148438 208.210938 259.589844 208.070312 259.90625 207.789062 C 260.226562 207.507812 260.386719 207.117188 260.386719 206.613281 C 260.386719 206.109375 260.226562 205.714844 259.90625 205.433594 C 259.589844 205.152344 259.148438 205.011719 258.582031 205.011719 C 258.015625 205.011719 257.574219 205.152344 257.257812 205.433594 C 256.945312 205.714844 256.785156 206.109375 256.785156 206.613281 Z M 256.785156 206.613281 "/>
<path style="fill:none;stroke-width:0.8;stroke-linecap:butt;stroke-linejoin:round;stroke:rgb(0%,0%,0%);stroke-opacity:1;stroke-miterlimit:4;" d="M 0.000976562 -0.00117493 L 0.000976562 3.499802 " transform="matrix(1.333333,0,0,1.333333,310.666667,194.400004)"/>
<path style=" stroke:none;fill-rule:nonzero;fill:rgb(0%,0%,0%);fill-opacity:1;" d="M 303.835938 212.757812 L 305.984375 212.757812 L 305.984375 205.339844 L 303.648438 205.808594 L 303.648438 204.613281 L 305.972656 204.144531 L 307.289062 204.144531 L 307.289062 212.757812 L 309.433594 212.757812 L 309.433594 213.863281 L 303.835938 213.863281 Z M 303.835938 212.757812 "/>
<path style=" stroke:none;fill-rule:nonzero;fill:rgb(0%,0%,0%);fill-opacity:1;" d="M 314.902344 205.011719 C 314.226562 205.011719 313.71875 205.34375 313.375 206.011719 C 313.035156 206.675781 312.867188 207.675781 312.867188 209.015625 C 312.867188 210.347656 313.035156 211.347656 313.375 212.011719 C 313.71875 212.679688 314.226562 213.011719 314.902344 213.011719 C 315.585938 213.011719 316.097656 212.679688 316.4375 212.011719 C 316.777344 211.347656 316.949219 210.347656 316.949219 209.015625 C 316.949219 207.675781 316.777344 206.675781 316.4375 206.011719 C 316.097656 205.34375 315.585938 205.011719 314.902344 205.011719 Z M 314.902344 203.96875 C 315.996094 203.96875 316.828125 204.398438 317.402344 205.261719 C 317.976562 206.125 318.265625 207.375 318.265625 209.015625 C 318.265625 210.652344 317.976562 211.898438 317.402344 212.761719 C 316.828125 213.625 315.996094 214.054688 314.902344 214.054688 C 313.816406 214.054688 312.984375 213.625 312.40625 212.761719 C 311.832031 211.898438 311.546875 210.652344 311.546875 209.015625 C 311.546875 207.375 311.832031 206.125 312.40625 205.261719 C 312.984375 204.398438 313.816406 203.96875 314.902344 203.96875 Z M 314.902344 203.96875 "/>
<path style=" stroke:none;fill-rule:nonzero;fill:rgb(0%,0%,0%);fill-opacity:1;" d="M 167.65625 228.15625 L 167.65625 228.742188 L 162.148438 228.742188 C 162.199219 229.566406 162.449219 230.195312 162.894531 230.628906 C 163.339844 231.058594 163.957031 231.273438 164.753906 231.273438 C 165.210938 231.273438 165.65625 231.21875 166.089844 231.105469 C 166.523438 230.992188 166.949219 230.824219 167.378906 230.597656 L 167.378906 231.730469 C 166.945312 231.914062 166.503906 232.050781 166.054688 232.148438 C 165.601562 232.242188 165.144531 232.292969 164.679688 232.292969 C 163.515625 232.292969 162.597656 231.953125 161.917969 231.277344 C 161.238281 230.597656 160.898438 229.683594 160.898438 228.527344 C 160.898438 227.335938 161.21875 226.386719 161.863281 225.6875 C 162.507812 224.984375 163.378906 224.636719 164.472656 224.636719 C 165.453125 224.636719 166.230469 224.953125 166.800781 225.582031 C 167.371094 226.214844 167.65625 227.070312 167.65625 228.15625 Z M 166.457031 227.804688 C 166.449219 227.148438 166.265625 226.628906 165.910156 226.238281 C 165.550781 225.847656 165.074219 225.648438 164.484375 225.648438 C 163.816406 225.648438 163.28125 225.839844 162.882812 226.214844 C 162.480469 226.59375 162.25 227.125 162.1875 227.8125 Z M 166.457031 227.804688 "/>
<path style=" stroke:none;fill-rule:nonzero;fill:rgb(0%,0%,0%);fill-opacity:1;" d="M 170.78125 231.007812 L 170.78125 234.875 L 169.574219 234.875 L 169.574219 224.808594 L 170.78125 224.808594 L 170.78125 225.917969 C 171.03125 225.484375 171.351562 225.160156 171.734375 224.953125 C 172.117188 224.742188 172.578125 224.636719 173.113281 224.636719 C 173.996094 224.636719 174.71875 224.988281 175.269531 225.691406 C 175.824219 226.390625 176.101562 227.316406 176.101562 228.460938 C 176.101562 229.609375 175.824219 230.535156 175.269531 231.238281 C 174.71875 231.941406 173.996094 232.292969 173.113281 232.292969 C 172.578125 232.292969 172.117188 232.1875 171.734375 231.976562 C 171.351562 231.765625 171.03125 231.441406 170.78125 231.007812 Z M 174.855469 228.460938 C 174.855469 227.582031 174.675781 226.890625 174.3125 226.390625 C 173.949219 225.886719 173.453125 225.636719 172.820312 225.636719 C 172.183594 225.636719 171.6875 225.886719 171.324219 226.390625 C 170.960938 226.890625 170.78125 227.582031 170.78125 228.460938 C 170.78125 229.34375 170.960938 230.035156 171.324219 230.535156 C 171.6875 231.035156 172.183594 231.289062 172.820312 231.289062 C 173.453125 231.289062 173.949219 231.035156 174.3125 230.535156 C 174.675781 230.035156 174.855469 229.34375 174.855469 228.460938 Z M 174.855469 228.460938 "/>
<path style=" stroke:none;fill-rule:nonzero;fill:rgb(0%,0%,0%);fill-opacity:1;" d="M 180.910156 225.648438 C 180.269531 225.648438 179.761719 225.902344 179.386719 226.402344 C 179.015625 226.902344 178.828125 227.589844 178.828125 228.460938 C 178.828125 229.335938 179.011719 230.023438 179.382812 230.523438 C 179.753906 231.023438 180.265625 231.273438 180.910156 231.273438 C 181.550781 231.273438 182.054688 231.023438 182.425781 230.519531 C 182.800781 230.015625 182.988281 229.332031 182.988281 228.460938 C 182.988281 227.597656 182.800781 226.914062 182.425781 226.410156 C 182.054688 225.902344 181.550781 225.648438 180.910156 225.648438 Z M 180.910156 224.636719 C 181.953125 224.636719 182.769531 224.972656 183.363281 225.652344 C 183.960938 226.328125 184.257812 227.265625 184.257812 228.460938 C 184.257812 229.65625 183.960938 230.59375 183.363281 231.273438 C 182.769531 231.953125 181.953125 232.292969 180.910156 232.292969 C 179.863281 232.292969 179.046875 231.953125 178.453125 231.273438 C 177.859375 230.59375 177.566406 229.65625 177.566406 228.460938 C 177.566406 227.265625 177.859375 226.328125 178.453125 225.652344 C 179.046875 224.972656 179.863281 224.636719 180.910156 224.636719 Z M 180.910156 224.636719 "/>
<path style=" stroke:none;fill-rule:nonzero;fill:rgb(0%,0%,0%);fill-opacity:1;" d="M 191.492188 225.089844 L 191.492188 226.210938 C 191.152344 226.023438 190.8125 225.882812 190.472656 225.789062 C 190.132812 225.695312 189.789062 225.648438 189.441406 225.648438 C 188.664062 225.648438 188.058594 225.898438 187.628906 226.390625 C 187.199219 226.882812 186.984375 227.570312 186.984375 228.460938 C 186.984375 229.351562 187.199219 230.042969 187.628906 230.539062 C 188.058594 231.027344 188.664062 231.273438 189.441406 231.273438 C 189.789062 231.273438 190.132812 231.226562 190.472656 231.136719 C 190.8125 231.042969 191.152344 230.902344 191.492188 230.714844 L 191.492188 231.824219 C 191.15625 231.976562 190.808594 232.09375 190.453125 232.171875 C 190.09375 232.253906 189.714844 232.292969 189.308594 232.292969 C 188.210938 232.292969 187.339844 231.945312 186.691406 231.257812 C 186.046875 230.566406 185.722656 229.632812 185.722656 228.460938 C 185.722656 227.273438 186.046875 226.339844 186.703125 225.660156 C 187.355469 224.976562 188.25 224.636719 189.390625 224.636719 C 189.757812 224.636719 190.117188 224.671875 190.46875 224.75 C 190.820312 224.824219 191.160156 224.9375 191.492188 225.089844 Z M 191.492188 225.089844 "/>
<path style=" stroke:none;fill-rule:nonzero;fill:rgb(0%,0%,0%);fill-opacity:1;" d="M 199.636719 227.699219 L 199.636719 232.101562 L 198.4375 232.101562 L 198.4375 227.738281 C 198.4375 227.050781 198.304688 226.535156 198.035156 226.191406 C 197.765625 225.847656 197.359375 225.675781 196.824219 225.675781 C 196.175781 225.675781 195.667969 225.882812 195.292969 226.296875 C 194.917969 226.707031 194.730469 227.269531 194.730469 227.980469 L 194.730469 232.101562 L 193.527344 232.101562 L 193.527344 221.972656 L 194.730469 221.972656 L 194.730469 225.945312 C 195.019531 225.503906 195.355469 225.175781 195.746094 224.960938 C 196.132812 224.742188 196.582031 224.636719 197.089844 224.636719 C 197.929688 224.636719 198.5625 224.894531 198.992188 225.414062 C 199.421875 225.929688 199.636719 226.691406 199.636719 227.699219 Z M 199.636719 227.699219 "/>
<path style="fill:none;stroke-width:0.8;stroke-linecap:butt;stroke-linejoin:round;stroke:rgb(0%,0%,0%);stroke-opacity:1;stroke-miterlimit:4;" d="M -0.000782013 0.000335693 L -3.498829 0.000335693 " transform="matrix(1.333333,0,0,1.333333,50.266668,148.624552)"/>
<path style=" stroke:none;fill-rule:nonzero;fill:rgb(0%,0%,0%);fill-opacity:1;" d="M 11.253906 152.480469 L 13.402344 152.480469 L 13.402344 145.066406 L 11.066406 145.535156 L 11.066406 144.335938 L 13.390625 143.867188 L 14.703125 143.867188 L 14.703125 152.480469 L 16.851562 152.480469 L 16.851562 153.589844 L 11.253906 153.589844 Z M 11.253906 152.480469 "/>
<path style=" stroke:none;fill-rule:nonzero;fill:rgb(0%,0%,0%);fill-opacity:1;" d="M 22.320312 144.734375 C 21.644531 144.734375 21.136719 145.066406 20.792969 145.734375 C 20.453125 146.398438 20.28125 147.402344 20.28125 148.738281 C 20.28125 150.070312 20.453125 151.070312 20.792969 151.734375 C 21.136719 152.402344 21.644531 152.734375 22.320312 152.734375 C 23.003906 152.734375 23.511719 152.402344 23.855469 151.734375 C 24.195312 151.070312 24.367188 150.070312 24.367188 148.738281 C 24.367188 147.402344 24.195312 146.398438 23.855469 145.734375 C 23.511719 145.066406 23.003906 144.734375 22.320312 144.734375 Z M 22.320312 143.691406 C 23.410156 143.691406 24.242188 144.125 24.820312 144.984375 C 25.394531 145.847656 25.679688 147.097656 25.679688 148.738281 C 25.679688 150.375 25.394531 151.625 24.820312 152.484375 C 24.242188 153.347656 23.410156 153.777344 22.320312 153.777344 C 21.230469 153.777344 20.398438 153.347656 19.824219 152.484375 C 19.25 151.625 18.960938 150.375 18.960938 148.738281 C 18.960938 147.097656 19.25 145.847656 19.824219 144.984375 C 20.398438 144.125 21.230469 143.691406 22.320312 143.691406 Z M 22.320312 143.691406 "/>
<path style=" stroke:none;fill-rule:nonzero;fill:rgb(0%,0%,0%);fill-opacity:1;" d="M 27.683594 145.171875 L 33.523438 145.171875 L 33.523438 145.945312 L 27.683594 145.945312 Z M 27.683594 145.171875 "/>
<path style=" stroke:none;fill-rule:nonzero;fill:rgb(0%,0%,0%);fill-opacity:1;" d="M 38.300781 144.816406 C 38.742188 144.910156 39.085938 145.105469 39.332031 145.402344 C 39.582031 145.703125 39.703125 146.070312 39.703125 146.507812 C 39.703125 147.175781 39.472656 147.695312 39.011719 148.066406 C 38.550781 148.433594 37.894531 148.617188 37.042969 148.617188 C 36.757812 148.617188 36.464844 148.589844 36.160156 148.53125 C 35.859375 148.476562 35.546875 148.390625 35.226562 148.277344 L 35.226562 147.390625 C 35.480469 147.539062 35.757812 147.652344 36.0625 147.726562 C 36.367188 147.804688 36.683594 147.839844 37.015625 147.839844 C 37.59375 147.839844 38.03125 147.726562 38.335938 147.5 C 38.636719 147.273438 38.789062 146.941406 38.789062 146.507812 C 38.789062 146.105469 38.648438 145.792969 38.367188 145.566406 C 38.085938 145.339844 37.695312 145.226562 37.195312 145.226562 L 36.402344 145.226562 L 36.402344 144.46875 L 37.230469 144.46875 C 37.683594 144.46875 38.027344 144.378906 38.269531 144.199219 C 38.507812 144.015625 38.628906 143.757812 38.628906 143.417969 C 38.628906 143.066406 38.503906 142.800781 38.257812 142.613281 C 38.011719 142.425781 37.65625 142.332031 37.195312 142.332031 C 36.941406 142.332031 36.671875 142.359375 36.382812 142.414062 C 36.09375 142.46875 35.777344 142.554688 35.429688 142.667969 L 35.429688 141.847656 C 35.78125 141.75 36.109375 141.679688 36.414062 141.628906 C 36.71875 141.582031 37.007812 141.558594 37.277344 141.558594 C 37.976562 141.558594 38.527344 141.714844 38.933594 142.035156 C 39.339844 142.351562 39.546875 142.78125 39.546875 143.320312 C 39.546875 143.695312 39.4375 144.015625 39.222656 144.273438 C 39.003906 144.535156 38.699219 144.714844 38.300781 144.816406 Z M 38.300781 144.816406 "/>
<path style="fill:none;stroke-width:0.8;stroke-linecap:butt;stroke-linejoin:round;stroke:rgb(0%,0%,0%);stroke-opacity:1;stroke-miterlimit:4;" d="M -0.000782013 0.000930786 L -3.498829 0.000930786 " transform="matrix(1.333333,0,0,1.333333,50.266668,94.131571)"/>
<path style=" stroke:none;fill-rule:nonzero;fill:rgb(0%,0%,0%);fill-opacity:1;" d="M 11.253906 97.988281 L 13.402344 97.988281 L 13.402344 90.570312 L 11.066406 91.039062 L 11.066406 89.84375 L 13.390625 89.375 L 14.703125 89.375 L 14.703125 97.988281 L 16.851562 97.988281 L 16.851562 99.09375 L 11.253906 99.09375 Z M 11.253906 97.988281 "/>
<path style=" stroke:none;fill-rule:nonzero;fill:rgb(0%,0%,0%);fill-opacity:1;" d="M 22.320312 90.242188 C 21.644531 90.242188 21.136719 90.574219 20.792969 91.242188 C 20.453125 91.90625 20.28125 92.90625 20.28125 94.246094 C 20.28125 95.578125 20.453125 96.578125 20.792969 97.242188 C 21.136719 97.910156 21.644531 98.242188 22.320312 98.242188 C 23.003906 98.242188 23.511719 97.910156 23.855469 97.242188 C 24.195312 96.578125 24.367188 95.578125 24.367188 94.246094 C 24.367188 92.90625 24.195312 91.90625 23.855469 91.242188 C 23.511719 90.574219 23.003906 90.242188 22.320312 90.242188 Z M 22.320312 89.199219 C 23.410156 89.199219 24.242188 89.628906 24.820312 90.492188 C 25.394531 91.355469 25.679688 92.605469 25.679688 94.246094 C 25.679688 95.882812 25.394531 97.128906 24.820312 97.992188 C 24.242188 98.855469 23.410156 99.285156 22.320312 99.285156 C 21.230469 99.285156 20.398438 98.855469 19.824219 97.992188 C 19.25 97.128906 18.960938 95.882812 18.960938 94.246094 C 18.960938 92.605469 19.25 91.355469 19.824219 90.492188 C 20.398438 89.628906 21.230469 89.199219 22.320312 89.199219 Z M 22.320312 89.199219 "/>
<path style=" stroke:none;fill-rule:nonzero;fill:rgb(0%,0%,0%);fill-opacity:1;" d="M 27.683594 90.675781 L 33.523438 90.675781 L 33.523438 91.453125 L 27.683594 91.453125 Z M 27.683594 90.675781 "/>
<path style=" stroke:none;fill-rule:nonzero;fill:rgb(0%,0%,0%);fill-opacity:1;" d="M 36.304688 93.214844 L 39.519531 93.214844 L 39.519531 93.992188 L 35.199219 93.992188 L 35.199219 93.214844 C 35.546875 92.855469 36.023438 92.371094 36.625 91.761719 C 37.230469 91.152344 37.609375 90.757812 37.761719 90.582031 C 38.058594 90.25 38.261719 89.972656 38.378906 89.742188 C 38.496094 89.511719 38.554688 89.285156 38.554688 89.066406 C 38.554688 88.703125 38.429688 88.410156 38.175781 88.179688 C 37.921875 87.953125 37.589844 87.839844 37.183594 87.839844 C 36.894531 87.839844 36.589844 87.886719 36.269531 87.988281 C 35.949219 88.089844 35.609375 88.242188 35.242188 88.445312 L 35.242188 87.515625 C 35.613281 87.367188 35.960938 87.253906 36.28125 87.175781 C 36.605469 87.101562 36.898438 87.0625 37.167969 87.0625 C 37.871094 87.0625 38.433594 87.242188 38.851562 87.59375 C 39.273438 87.945312 39.480469 88.414062 39.480469 89.003906 C 39.480469 89.285156 39.429688 89.550781 39.324219 89.800781 C 39.21875 90.050781 39.027344 90.347656 38.753906 90.6875 C 38.675781 90.773438 38.433594 91.03125 38.027344 91.449219 C 37.621094 91.871094 37.046875 92.460938 36.304688 93.214844 Z M 36.304688 93.214844 "/>
<path style="fill:none;stroke-width:0.8;stroke-linecap:butt;stroke-linejoin:round;stroke:rgb(0%,0%,0%);stroke-opacity:1;stroke-miterlimit:4;" d="M -0.000782013 -0.00139809 L -3.498829 -0.00139809 " transform="matrix(1.333333,0,0,1.333333,50.266668,39.638583)"/>
<path style=" stroke:none;fill-rule:nonzero;fill:rgb(0%,0%,0%);fill-opacity:1;" d="M 11.253906 43.507812 L 13.402344 43.507812 L 13.402344 36.089844 L 11.066406 36.558594 L 11.066406 35.359375 L 13.390625 34.890625 L 14.703125 34.890625 L 14.703125 43.507812 L 16.851562 43.507812 L 16.851562 44.613281 L 11.253906 44.613281 Z M 11.253906 43.507812 "/>
<path style=" stroke:none;fill-rule:nonzero;fill:rgb(0%,0%,0%);fill-opacity:1;" d="M 22.320312 35.757812 C 21.644531 35.757812 21.136719 36.09375 20.792969 36.757812 C 20.453125 37.425781 20.28125 38.425781 20.28125 39.761719 C 20.28125 41.09375 20.453125 42.09375 20.792969 42.761719 C 21.136719 43.425781 21.644531 43.761719 22.320312 43.761719 C 23.003906 43.761719 23.511719 43.425781 23.855469 42.761719 C 24.195312 42.09375 24.367188 41.09375 24.367188 39.761719 C 24.367188 38.425781 24.195312 37.425781 23.855469 36.757812 C 23.511719 36.09375 23.003906 35.757812 22.320312 35.757812 Z M 22.320312 34.71875 C 23.410156 34.71875 24.242188 35.148438 24.820312 36.011719 C 25.394531 36.871094 25.679688 38.121094 25.679688 39.761719 C 25.679688 41.398438 25.394531 42.648438 24.820312 43.511719 C 24.242188 44.371094 23.410156 44.800781 22.320312 44.800781 C 21.230469 44.800781 20.398438 44.371094 19.824219 43.511719 C 19.25 42.648438 18.960938 41.398438 18.960938 39.761719 C 18.960938 38.121094 19.25 36.871094 19.824219 36.011719 C 20.398438 35.148438 21.230469 34.71875 22.320312 34.71875 Z M 22.320312 34.71875 "/>
<path style=" stroke:none;fill-rule:nonzero;fill:rgb(0%,0%,0%);fill-opacity:1;" d="M 27.683594 36.195312 L 33.523438 36.195312 L 33.523438 36.96875 L 27.683594 36.96875 Z M 27.683594 36.195312 "/>
<path style=" stroke:none;fill-rule:nonzero;fill:rgb(0%,0%,0%);fill-opacity:1;" d="M 35.671875 38.734375 L 37.175781 38.734375 L 37.175781 33.542969 L 35.539062 33.871094 L 35.539062 33.03125 L 37.167969 32.703125 L 38.085938 32.703125 L 38.085938 38.734375 L 39.589844 38.734375 L 39.589844 39.507812 L 35.671875 39.507812 Z M 35.671875 38.734375 "/>
<path style="fill:none;stroke-width:0.6;stroke-linecap:butt;stroke-linejoin:round;stroke:rgb(0%,0%,0%);stroke-opacity:1;stroke-miterlimit:4;" d="M -0.000782013 0.000991821 L -1.998829 0.000991821 " transform="matrix(1.333333,0,0,1.333333,50.266668,186.713521)"/>
<path style="fill:none;stroke-width:0.6;stroke-linecap:butt;stroke-linejoin:round;stroke:rgb(0%,0%,0%);stroke-opacity:1;stroke-miterlimit:4;" d="M -0.000782013 -0.000442505 L -1.998829 -0.000442505 " transform="matrix(1.333333,0,0,1.333333,50.266668,177.117778)"/>
<path style="fill:none;stroke-width:0.6;stroke-linecap:butt;stroke-linejoin:round;stroke:rgb(0%,0%,0%);stroke-opacity:1;stroke-miterlimit:4;" d="M -0.000782013 -0.000671387 L -1.998829 -0.000671387 " transform="matrix(1.333333,0,0,1.333333,50.266668,170.309489)"/>
<path style="fill:none;stroke-width:0.6;stroke-linecap:butt;stroke-linejoin:round;stroke:rgb(0%,0%,0%);stroke-opacity:1;stroke-miterlimit:4;" d="M -0.000782013 -0.000923157 L -1.998829 -0.000923157 " transform="matrix(1.333333,0,0,1.333333,50.266668,165.028575)"/>
<path style="fill:none;stroke-width:0.6;stroke-linecap:butt;stroke-linejoin:round;stroke:rgb(0%,0%,0%);stroke-opacity:1;stroke-miterlimit:4;" d="M -0.000782013 0.000816345 L -1.998829 0.000816345 " transform="matrix(1.333333,0,0,1.333333,50.266668,160.713755)"/>
<path style="fill:none;stroke-width:0.6;stroke-linecap:butt;stroke-linejoin:round;stroke:rgb(0%,0%,0%);stroke-opacity:1;stroke-miterlimit:4;" d="M -0.000782013 0.000587463 L -1.998829 0.000587463 " transform="matrix(1.333333,0,0,1.333333,50.266668,157.065623)"/>
<path style="fill:none;stroke-width:0.6;stroke-linecap:butt;stroke-linejoin:round;stroke:rgb(0%,0%,0%);stroke-opacity:1;stroke-miterlimit:4;" d="M -0.000782013 0.000587463 L -1.998829 0.000587463 " transform="matrix(1.333333,0,0,1.333333,50.266668,153.905467)"/>
<path style="fill:none;stroke-width:0.6;stroke-linecap:butt;stroke-linejoin:round;stroke:rgb(0%,0%,0%);stroke-opacity:1;stroke-miterlimit:4;" d="M -0.000782013 -0.000617981 L -1.998829 -0.000617981 " transform="matrix(1.333333,0,0,1.333333,50.266668,151.118011)"/>
<path style="fill:none;stroke-width:0.6;stroke-linecap:butt;stroke-linejoin:round;stroke:rgb(0%,0%,0%);stroke-opacity:1;stroke-miterlimit:4;" d="M -0.000782013 -0.00133514 L -1.998829 -0.00133514 " transform="matrix(1.333333,0,0,1.333333,50.266668,132.22053)"/>
<path style="fill:none;stroke-width:0.6;stroke-linecap:butt;stroke-linejoin:round;stroke:rgb(0%,0%,0%);stroke-opacity:1;stroke-miterlimit:4;" d="M -0.000782013 0.000160217 L -1.998829 0.000160217 " transform="matrix(1.333333,0,0,1.333333,50.266668,122.624786)"/>
<path style="fill:none;stroke-width:0.6;stroke-linecap:butt;stroke-linejoin:round;stroke:rgb(0%,0%,0%);stroke-opacity:1;stroke-miterlimit:4;" d="M -0.000782013 -0.0000762939 L -1.998829 -0.0000762939 " transform="matrix(1.333333,0,0,1.333333,50.266668,115.816508)"/>
<path style="fill:none;stroke-width:0.6;stroke-linecap:butt;stroke-linejoin:round;stroke:rgb(0%,0%,0%);stroke-opacity:1;stroke-miterlimit:4;" d="M -0.000782013 -0.000328064 L -1.998829 -0.000328064 " transform="matrix(1.333333,0,0,1.333333,50.266668,110.535594)"/>
<path style="fill:none;stroke-width:0.6;stroke-linecap:butt;stroke-linejoin:round;stroke:rgb(0%,0%,0%);stroke-opacity:1;stroke-miterlimit:4;" d="M -0.000782013 0.00141907 L -1.998829 0.00141907 " transform="matrix(1.333333,0,0,1.333333,50.266668,106.220764)"/>
<path style="fill:none;stroke-width:0.6;stroke-linecap:butt;stroke-linejoin:round;stroke:rgb(0%,0%,0%);stroke-opacity:1;stroke-miterlimit:4;" d="M -0.000782013 0.00118256 L -1.998829 0.00118256 " transform="matrix(1.333333,0,0,1.333333,50.266668,102.572642)"/>
<path style="fill:none;stroke-width:0.6;stroke-linecap:butt;stroke-linejoin:round;stroke:rgb(0%,0%,0%);stroke-opacity:1;stroke-miterlimit:4;" d="M -0.000782013 0.00118256 L -1.998829 0.00118256 " transform="matrix(1.333333,0,0,1.333333,50.266668,99.412486)"/>
<path style="fill:none;stroke-width:0.6;stroke-linecap:butt;stroke-linejoin:round;stroke:rgb(0%,0%,0%);stroke-opacity:1;stroke-miterlimit:4;" d="M -0.000782013 -0.0000228882 L -1.998829 -0.0000228882 " transform="matrix(1.333333,0,0,1.333333,50.266668,96.625031)"/>
<path style="fill:none;stroke-width:0.6;stroke-linecap:butt;stroke-linejoin:round;stroke:rgb(0%,0%,0%);stroke-opacity:1;stroke-miterlimit:4;" d="M -0.000782013 -0.000736237 L -1.998829 -0.000736237 " transform="matrix(1.333333,0,0,1.333333,50.266668,77.727544)"/>
<path style="fill:none;stroke-width:0.6;stroke-linecap:butt;stroke-linejoin:round;stroke:rgb(0%,0%,0%);stroke-opacity:1;stroke-miterlimit:4;" d="M -0.000782013 0.00075531 L -1.998829 0.00075531 " transform="matrix(1.333333,0,0,1.333333,50.266668,68.131805)"/>
<path style="fill:none;stroke-width:0.6;stroke-linecap:butt;stroke-linejoin:round;stroke:rgb(0%,0%,0%);stroke-opacity:1;stroke-miterlimit:4;" d="M -0.000782013 0.000522614 L -1.998829 0.000522614 " transform="matrix(1.333333,0,0,1.333333,50.266668,61.323522)"/>
<path style="fill:none;stroke-width:0.6;stroke-linecap:butt;stroke-linejoin:round;stroke:rgb(0%,0%,0%);stroke-opacity:1;stroke-miterlimit:4;" d="M -0.000782013 0.000270844 L -1.998829 0.000270844 " transform="matrix(1.333333,0,0,1.333333,50.266668,56.042608)"/>
<path style="fill:none;stroke-width:0.6;stroke-linecap:butt;stroke-linejoin:round;stroke:rgb(0%,0%,0%);stroke-opacity:1;stroke-miterlimit:4;" d="M -0.000782013 -0.000915527 L -1.998829 -0.000915527 " transform="matrix(1.333333,0,0,1.333333,50.266668,51.727783)"/>
<path style="fill:none;stroke-width:0.6;stroke-linecap:butt;stroke-linejoin:round;stroke:rgb(0%,0%,0%);stroke-opacity:1;stroke-miterlimit:4;" d="M -0.000782013 -0.00114441 L -1.998829 -0.00114441 " transform="matrix(1.333333,0,0,1.333333,50.266668,48.079651)"/>
<path style="fill:none;stroke-width:0.6;stroke-linecap:butt;stroke-linejoin:round;stroke:rgb(0%,0%,0%);stroke-opacity:1;stroke-miterlimit:4;" d="M -0.000782013 -0.00114822 L -1.998829 -0.00114822 " transform="matrix(1.333333,0,0,1.333333,50.266668,44.9195)"/>
<path style="fill:none;stroke-width:0.6;stroke-linecap:butt;stroke-linejoin:round;stroke:rgb(0%,0%,0%);stroke-opacity:1;stroke-miterlimit:4;" d="M -0.000782013 0.000576019 L -1.998829 0.000576019 " transform="matrix(1.333333,0,0,1.333333,50.266668,42.132044)"/>
<path style="fill:none;stroke-width:0.6;stroke-linecap:butt;stroke-linejoin:round;stroke:rgb(0%,0%,0%);stroke-opacity:1;stroke-miterlimit:4;" d="M -0.000782013 -0.000139236 L -1.998829 -0.000139236 " transform="matrix(1.333333,0,0,1.333333,50.266668,23.234561)"/>
<path style="fill:none;stroke-width:0.6;stroke-linecap:butt;stroke-linejoin:round;stroke:rgb(0%,0%,0%);stroke-opacity:1;stroke-miterlimit:4;" d="M -0.000782013 0.00135136 L -1.998829 0.00135136 " transform="matrix(1.333333,0,0,1.333333,50.266668,13.638823)"/>
<path style="fill:none;stroke-width:1.5;stroke-linecap:square;stroke-linejoin:round;stroke:rgb(12.156863%,46.666667%,70.588237%);stroke-opacity:1;stroke-miterlimit:4;" d="M 40.139648 20.378906 L 40.142578 20.378906 M 40.142578 20.378906 " transform="matrix(1.333333,0,0,1.333333,0,0.000000000000014211)"/>
<path style="fill:none;stroke-width:1.5;stroke-linecap:square;stroke-linejoin:round;stroke:rgb(12.156863%,46.666667%,70.588237%);stroke-opacity:1;stroke-miterlimit:4;" d="M 40.142578 20.378906 L 49.907227 13.5 " transform="matrix(1.333333,0,0,1.333333,0,0.000000000000014211)"/>
<path style="fill:none;stroke-width:1.5;stroke-linecap:square;stroke-linejoin:round;stroke:rgb(12.156863%,46.666667%,70.588237%);stroke-opacity:1;stroke-miterlimit:4;" d="M 40.142578 20.378906 L 49.907227 13.5 " transform="matrix(1.333333,0,0,1.333333,0,0.000000000000014211)"/>
<path style="fill:none;stroke-width:1.5;stroke-linecap:square;stroke-linejoin:round;stroke:rgb(12.156863%,46.666667%,70.588237%);stroke-opacity:1;stroke-miterlimit:4;" d="M 40.142578 20.378906 L 49.907227 13.5 L 59.671875 69.826172 " transform="matrix(1.333333,0,0,1.333333,0,0.000000000000014211)"/>
<path style="fill:none;stroke-width:1.5;stroke-linecap:square;stroke-linejoin:round;stroke:rgb(12.156863%,46.666667%,70.588237%);stroke-opacity:1;stroke-miterlimit:4;" d="M 40.142578 20.378906 L 49.907227 13.5 L 59.671875 69.826172 L 69.436523 67.327148 " transform="matrix(1.333333,0,0,1.333333,0,0.000000000000014211)"/>
<path style="fill:none;stroke-width:1.5;stroke-linecap:square;stroke-linejoin:round;stroke:rgb(12.156863%,46.666667%,70.588237%);stroke-opacity:1;stroke-miterlimit:4;" d="M 40.142578 20.378906 L 49.907227 13.5 L 59.671875 69.826172 L 69.436523 67.327148 " transform="matrix(1.333333,0,0,1.333333,0,0.000000000000014211)"/>
<path style="fill:none;stroke-width:1.5;stroke-linecap:butt;stroke-linejoin:round;stroke:rgb(100%,49.803922%,5.490196%);stroke-opacity:1;stroke-dasharray:5.55,2.4;stroke-miterlimit:4;" d="M 57.231445 15.304687 L 76.760742 19.136719 " transform="matrix(1.333333,0,0,1.333333,0,0.000000000000014211)"/>
<path style="fill:none;stroke-width:1.5;stroke-linecap:square;stroke-linejoin:round;stroke:rgb(12.156863%,46.666667%,70.588237%);stroke-opacity:1;stroke-miterlimit:4;" d="M 40.142578 20.378906 L 49.907227 13.5 L 59.671875 69.826172 L 69.436523 67.327148 L 79.201172 106.757812 " transform="matrix(1.333333,0,0,1.333333,0,0.000000000000014211)"/>
<path style="fill:none;stroke-width:1.5;stroke-linecap:butt;stroke-linejoin:round;stroke:rgb(100%,49.803922%,5.490196%);stroke-opacity:1;stroke-dasharray:5.55,2.4;stroke-miterlimit:4;" d="M 57.231445 15.304687 L 76.760742 19.136719 " transform="matrix(1.333333,0,0,1.333333,0,0.000000000000014211)"/>
<path style="fill:none;stroke-width:1.5;stroke-linecap:square;stroke-linejoin:round;stroke:rgb(12.156863%,46.666667%,70.588237%);stroke-opacity:1;stroke-miterlimit:4;" d="M 40.142578 20.378906 L 49.907227 13.5 L 59.671875 69.826172 L 69.436523 67.327148 L 79.201172 106.757812 L 88.96582 103.250977 " transform="matrix(1.333333,0,0,1.333333,0,0.000000000000014211)"/>
<path style="fill:none;stroke-width:1.5;stroke-linecap:butt;stroke-linejoin:round;stroke:rgb(100%,49.803922%,5.490196%);stroke-opacity:1;stroke-dasharray:5.55,2.4;stroke-miterlimit:4;" d="M 57.231445 15.304687 L 76.760742 19.136719 " transform="matrix(1.333333,0,0,1.333333,0,0.000000000000014211)"/>
<path style="fill:none;stroke-width:1.5;stroke-linecap:square;stroke-linejoin:round;stroke:rgb(12.156863%,46.666667%,70.588237%);stroke-opacity:1;stroke-miterlimit:4;" d="M 40.142578 20.378906 L 49.907227 13.5 L 59.671875 69.826172 L 69.436523 67.327148 L 79.201172 106.757812 L 88.96582 103.250977 " transform="matrix(1.333333,0,0,1.333333,0,0.000000000000014211)"/>
<path style="fill:none;stroke-width:1.5;stroke-linecap:butt;stroke-linejoin:round;stroke:rgb(100%,49.803922%,5.490196%);stroke-opacity:1;stroke-dasharray:5.55,2.4;stroke-miterlimit:4;" d="M 57.231445 15.304687 L 76.760742 19.136719 L 96.290039 22.828125 " transform="matrix(1.333333,0,0,1.333333,0,0.000000000000014211)"/>
<path style="fill:none;stroke-width:1.5;stroke-linecap:square;stroke-linejoin:round;stroke:rgb(12.156863%,46.666667%,70.588237%);stroke-opacity:1;stroke-miterlimit:4;" d="M 40.142578 20.378906 L 49.907227 13.5 L 59.671875 69.826172 L 69.436523 67.327148 L 79.201172 106.757812 L 88.96582 103.250977 L 98.730469 109.142578 " transform="matrix(1.333333,0,0,1.333333,0,0.000000000000014211)"/>
<path style="fill:none;stroke-width:1.5;stroke-linecap:butt;stroke-linejoin:round;stroke:rgb(100%,49.803922%,5.490196%);stroke-opacity:1;stroke-dasharray:5.55,2.4;stroke-miterlimit:4;" d="M 57.231445 15.304687 L 76.760742 19.136719 L 96.290039 22.828125 " transform="matrix(1.333333,0,0,1.333333,0,0.000000000000014211)"/>
<path style="fill:none;stroke-width:1.5;stroke-linecap:square;stroke-linejoin:round;stroke:rgb(12.156863%,46.666667%,70.588237%);stroke-opacity:1;stroke-miterlimit:4;" d="M 40.142578 20.378906 L 49.907227 13.5 L 59.671875 69.826172 L 69.436523 67.327148 L 79.201172 106.757812 L 88.96582 103.250977 L 98.730469 109.142578 L 108.495117 128.90625 " transform="matrix(1.333333,0,0,1.333333,0,0.000000000000014211)"/>
<path style="fill:none;stroke-width:1.5;stroke-linecap:butt;stroke-linejoin:round;stroke:rgb(100%,49.803922%,5.490196%);stroke-opacity:1;stroke-dasharray:5.55,2.4;stroke-miterlimit:4;" d="M 57.231445 15.304687 L 76.760742 19.136719 L 96.290039 22.828125 " transform="matrix(1.333333,0,0,1.333333,0,0.000000000000014211)"/>
<path style="fill:none;stroke-width:1.5;stroke-linecap:square;stroke-linejoin:round;stroke:rgb(12.156863%,46.666667%,70.588237%);stroke-opacity:1;stroke-miterlimit:4;" d="M 40.142578 20.378906 L 49.907227 13.5 L 59.671875 69.826172 L 69.436523 67.327148 L 79.201172 106.757812 L 88.96582 103.250977 L 98.730469 109.142578 L 108.495117 128.90625 " transform="matrix(1.333333,0,0,1.333333,0,0.000000000000014211)"/>
<path style="fill:none;stroke-width:1.5;stroke-linecap:butt;stroke-linejoin:round;stroke:rgb(100%,49.803922%,5.490196%);stroke-opacity:1;stroke-dasharray:5.55,2.4;stroke-miterlimit:4;" d="M 57.231445 15.304687 L 76.760742 19.136719 L 96.290039 22.828125 L 115.819336 26.34082 " transform="matrix(1.333333,0,0,1.333333,0,0.000000000000014211)"/>
<path style="fill:none;stroke-width:1.5;stroke-linecap:square;stroke-linejoin:round;stroke:rgb(12.156863%,46.666667%,70.588237%);stroke-opacity:1;stroke-miterlimit:4;" d="M 40.142578 20.378906 L 49.907227 13.5 L 59.671875 69.826172 L 69.436523 67.327148 L 79.201172 106.757812 L 88.96582 103.250977 L 98.730469 109.142578 L 108.495117 128.90625 L 118.262695 117.357422 " transform="matrix(1.333333,0,0,1.333333,0,0.000000000000014211)"/>
<path style="fill:none;stroke-width:1.5;stroke-linecap:butt;stroke-linejoin:round;stroke:rgb(100%,49.803922%,5.490196%);stroke-opacity:1;stroke-dasharray:5.55,2.4;stroke-miterlimit:4;" d="M 57.231445 15.304687 L 76.760742 19.136719 L 96.290039 22.828125 L 115.819336 26.34082 " transform="matrix(1.333333,0,0,1.333333,0,0.000000000000014211)"/>
<path style="fill:none;stroke-width:1.5;stroke-linecap:square;stroke-linejoin:round;stroke:rgb(12.156863%,46.666667%,70.588237%);stroke-opacity:1;stroke-miterlimit:4;" d="M 40.142578 20.378906 L 49.907227 13.5 L 59.671875 69.826172 L 69.436523 67.327148 L 79.201172 106.757812 L 88.96582 103.250977 L 98.730469 109.142578 L 108.495117 128.90625 L 118.262695 117.357422 L 128.027344 110.121094 " transform="matrix(1.333333,0,0,1.333333,0,0.000000000000014211)"/>
<path style="fill:none;stroke-width:1.5;stroke-linecap:butt;stroke-linejoin:round;stroke:rgb(100%,49.803922%,5.490196%);stroke-opacity:1;stroke-dasharray:5.55,2.4;stroke-miterlimit:4;" d="M 57.231445 15.304687 L 76.760742 19.136719 L 96.290039 22.828125 L 115.819336 26.34082 " transform="matrix(1.333333,0,0,1.333333,0,0.000000000000014211)"/>
<path style="fill:none;stroke-width:1.5;stroke-linecap:square;stroke-linejoin:round;stroke:rgb(12.156863%,46.666667%,70.588237%);stroke-opacity:1;stroke-miterlimit:4;" d="M 40.142578 20.378906 L 49.907227 13.5 L 59.671875 69.826172 L 69.436523 67.327148 L 79.201172 106.757812 L 88.96582 103.250977 L 98.730469 109.142578 L 108.495117 128.90625 L 118.262695 117.357422 L 128.027344 110.121094 " transform="matrix(1.333333,0,0,1.333333,0,0.000000000000014211)"/>
<path style="fill:none;stroke-width:1.5;stroke-linecap:butt;stroke-linejoin:round;stroke:rgb(100%,49.803922%,5.490196%);stroke-opacity:1;stroke-dasharray:5.55,2.4;stroke-miterlimit:4;" d="M 57.231445 15.304687 L 76.760742 19.136719 L 96.290039 22.828125 L 115.819336 26.34082 L 135.348633 29.657227 " transform="matrix(1.333333,0,0,1.333333,0,0.000000000000014211)"/>
<path style="fill:none;stroke-width:1.5;stroke-linecap:square;stroke-linejoin:round;stroke:rgb(12.156863%,46.666667%,70.588237%);stroke-opacity:1;stroke-miterlimit:4;" d="M 40.142578 20.378906 L 49.907227 13.5 L 59.671875 69.826172 L 69.436523 67.327148 L 79.201172 106.757812 L 88.96582 103.250977 L 98.730469 109.142578 L 108.495117 128.90625 L 118.262695 117.357422 L 128.027344 110.121094 L 137.791992 139.5 " transform="matrix(1.333333,0,0,1.333333,0,0.000000000000014211)"/>
<path style="fill:none;stroke-width:1.5;stroke-linecap:butt;stroke-linejoin:round;stroke:rgb(100%,49.803922%,5.490196%);stroke-opacity:1;stroke-dasharray:5.55,2.4;stroke-miterlimit:4;" d="M 57.231445 15.304687 L 76.760742 19.136719 L 96.290039 22.828125 L 115.819336 26.34082 L 135.348633 29.657227 " transform="matrix(1.333333,0,0,1.333333,0,0.000000000000014211)"/>
<path style="fill:none;stroke-width:1.5;stroke-linecap:square;stroke-linejoin:round;stroke:rgb(12.156863%,46.666667%,70.588237%);stroke-opacity:1;stroke-miterlimit:4;" d="M 40.142578 20.378906 L 49.907227 13.5 L 59.671875 69.826172 L 69.436523 67.327148 L 79.201172 106.757812 L 88.96582 103.250977 L 98.730469 109.142578 L 108.495117 128.90625 L 118.262695 117.357422 L 128.027344 110.121094 L 137.791992 139.5 L 147.556641 103.233398 " transform="matrix(1.333333,0,0,1.333333,0,0.000000000000014211)"/>
<path style="fill:none;stroke-width:1.5;stroke-linecap:butt;stroke-linejoin:round;stroke:rgb(100%,49.803922%,5.490196%);stroke-opacity:1;stroke-dasharray:5.55,2.4;stroke-miterlimit:4;" d="M 57.231445 15.304687 L 76.760742 19.136719 L 96.290039 22.828125 L 115.819336 26.34082 L 135.348633 29.657227 " transform="matrix(1.333333,0,0,1.333333,0,0.000000000000014211)"/>
<path style="fill:none;stroke-width:1.5;stroke-linecap:square;stroke-linejoin:round;stroke:rgb(12.156863%,46.666667%,70.588237%);stroke-opacity:1;stroke-miterlimit:4;" d="M 40.142578 20.378906 L 49.907227 13.5 L 59.671875 69.826172 L 69.436523 67.327148 L 79.201172 106.757812 L 88.96582 103.250977 L 98.730469 109.142578 L 108.495117 128.90625 L 118.262695 117.357422 L 128.027344 110.121094 L 137.791992 139.5 L 147.556641 103.233398 " transform="matrix(1.333333,0,0,1.333333,0,0.000000000000014211)"/>
<path style="fill:none;stroke-width:1.5;stroke-linecap:butt;stroke-linejoin:round;stroke:rgb(100%,49.803922%,5.490196%);stroke-opacity:1;stroke-dasharray:5.55,2.4;stroke-miterlimit:4;" d="M 57.231445 15.304687 L 76.760742 19.136719 L 96.290039 22.828125 L 115.819336 26.34082 L 135.348633 29.657227 L 154.880859 32.824219 " transform="matrix(1.333333,0,0,1.333333,0,0.000000000000014211)"/>
<path style="fill:none;stroke-width:1.5;stroke-linecap:square;stroke-linejoin:round;stroke:rgb(12.156863%,46.666667%,70.588237%);stroke-opacity:1;stroke-miterlimit:4;" d="M 40.142578 20.378906 L 49.907227 13.5 L 59.671875 69.826172 L 69.436523 67.327148 L 79.201172 106.757812 L 88.96582 103.250977 L 98.730469 109.142578 L 108.495117 128.90625 L 118.262695 117.357422 L 128.027344 110.121094 L 137.791992 139.5 L 147.556641 103.233398 L 157.321289 120.462891 " transform="matrix(1.333333,0,0,1.333333,0,0.000000000000014211)"/>
<path style="fill:none;stroke-width:1.5;stroke-linecap:butt;stroke-linejoin:round;stroke:rgb(100%,49.803922%,5.490196%);stroke-opacity:1;stroke-dasharray:5.55,2.4;stroke-miterlimit:4;" d="M 57.231445 15.304687 L 76.760742 19.136719 L 96.290039 22.828125 L 115.819336 26.34082 L 135.348633 29.657227 L 154.880859 32.824219 " transform="matrix(1.333333,0,0,1.333333,0,0.000000000000014211)"/>
<path style="fill:none;stroke-width:1.5;stroke-linecap:square;stroke-linejoin:round;stroke:rgb(12.156863%,46.666667%,70.588237%);stroke-opacity:1;stroke-miterlimit:4;" d="M 40.142578 20.378906 L 49.907227 13.5 L 59.671875 69.826172 L 69.436523 67.327148 L 79.201172 106.757812 L 88.96582 103.250977 L 98.730469 109.142578 L 108.495117 128.90625 L 118.262695 117.357422 L 128.027344 110.121094 L 137.791992 139.5 L 147.556641 103.233398 L 157.321289 120.462891 L 167.085938 116.791992 " transform="matrix(1.333333,0,0,1.333333,0,0.000000000000014211)"/>
<path style="fill:none;stroke-width:1.5;stroke-linecap:butt;stroke-linejoin:round;stroke:rgb(100%,49.803922%,5.490196%);stroke-opacity:1;stroke-dasharray:5.55,2.4;stroke-miterlimit:4;" d="M 57.231445 15.304687 L 76.760742 19.136719 L 96.290039 22.828125 L 115.819336 26.34082 L 135.348633 29.657227 L 154.880859 32.824219 " transform="matrix(1.333333,0,0,1.333333,0,0.000000000000014211)"/>
<path style="fill:none;stroke-width:1.5;stroke-linecap:square;stroke-linejoin:round;stroke:rgb(12.156863%,46.666667%,70.588237%);stroke-opacity:1;stroke-miterlimit:4;" d="M 40.142578 20.378906 L 49.907227 13.5 L 59.671875 69.826172 L 69.436523 67.327148 L 79.201172 106.757812 L 88.96582 103.250977 L 98.730469 109.142578 L 108.495117 128.90625 L 118.262695 117.357422 L 128.027344 110.121094 L 137.791992 139.5 L 147.556641 103.233398 L 157.321289 120.462891 L 167.085938 116.791992 " transform="matrix(1.333333,0,0,1.333333,0,0.000000000000014211)"/>
<path style="fill:none;stroke-width:1.5;stroke-linecap:butt;stroke-linejoin:round;stroke:rgb(100%,49.803922%,5.490196%);stroke-opacity:1;stroke-dasharray:5.55,2.4;stroke-miterlimit:4;" d="M 57.231445 15.304687 L 76.760742 19.136719 L 96.290039 22.828125 L 115.819336 26.34082 L 135.348633 29.657227 L 154.880859 32.824219 L 174.410156 35.803711 " transform="matrix(1.333333,0,0,1.333333,0,0.000000000000014211)"/>
<path style="fill:none;stroke-width:1.5;stroke-linecap:square;stroke-linejoin:round;stroke:rgb(12.156863%,46.666667%,70.588237%);stroke-opacity:1;stroke-miterlimit:4;" d="M 40.142578 20.378906 L 49.907227 13.5 L 59.671875 69.826172 L 69.436523 67.327148 L 79.201172 106.757812 L 88.96582 103.250977 L 98.730469 109.142578 L 108.495117 128.90625 L 118.262695 117.357422 L 128.027344 110.121094 L 137.791992 139.5 L 147.556641 103.233398 L 157.321289 120.462891 L 167.085938 116.791992 L 176.850586 125.009766 " transform="matrix(1.333333,0,0,1.333333,0,0.000000000000014211)"/>
<path style="fill:none;stroke-width:1.5;stroke-linecap:butt;stroke-linejoin:round;stroke:rgb(100%,49.803922%,5.490196%);stroke-opacity:1;stroke-dasharray:5.55,2.4;stroke-miterlimit:4;" d="M 57.231445 15.304687 L 76.760742 19.136719 L 96.290039 22.828125 L 115.819336 26.34082 L 135.348633 29.657227 L 154.880859 32.824219 L 174.410156 35.803711 " transform="matrix(1.333333,0,0,1.333333,0,0.000000000000014211)"/>
<path style="fill:none;stroke-width:1.5;stroke-linecap:square;stroke-linejoin:round;stroke:rgb(12.156863%,46.666667%,70.588237%);stroke-opacity:1;stroke-miterlimit:4;" d="M 40.142578 20.378906 L 49.907227 13.5 L 59.671875 69.826172 L 69.436523 67.327148 L 79.201172 106.757812 L 88.96582 103.250977 L 98.730469 109.142578 L 108.495117 128.90625 L 118.262695 117.357422 L 128.027344 110.121094 L 137.791992 139.5 L 147.556641 103.233398 L 157.321289 120.462891 L 167.085938 116.791992 L 176.850586 125.009766 L 186.615234 110.329102 " transform="matrix(1.333333,0,0,1.333333,0,0.000000000000014211)"/>
<path style="fill:none;stroke-width:1.5;stroke-linecap:butt;stroke-linejoin:round;stroke:rgb(100%,49.803922%,5.490196%);stroke-opacity:1;stroke-dasharray:5.55,2.4;stroke-miterlimit:4;" d="M 57.231445 15.304687 L 76.760742 19.136719 L 96.290039 22.828125 L 115.819336 26.34082 L 135.348633 29.657227 L 154.880859 32.824219 L 174.410156 35.803711 " transform="matrix(1.333333,0,0,1.333333,0,0.000000000000014211)"/>
<path style="fill:none;stroke-width:1.5;stroke-linecap:square;stroke-linejoin:round;stroke:rgb(12.156863%,46.666667%,70.588237%);stroke-opacity:1;stroke-miterlimit:4;" d="M 40.142578 20.378906 L 49.907227 13.5 L 59.671875 69.826172 L 69.436523 67.327148 L 79.201172 106.757812 L 88.96582 103.250977 L 98.730469 109.142578 L 108.495117 128.90625 L 118.262695 117.357422 L 128.027344 110.121094 L 137.791992 139.5 L 147.556641 103.233398 L 157.321289 120.462891 L 167.085938 116.791992 L 176.850586 125.009766 L 186.615234 110.329102 " transform="matrix(1.333333,0,0,1.333333,0,0.000000000000014211)"/>
<path style="fill:none;stroke-width:1.5;stroke-linecap:butt;stroke-linejoin:round;stroke:rgb(100%,49.803922%,5.490196%);stroke-opacity:1;stroke-dasharray:5.55,2.4;stroke-miterlimit:4;" d="M 57.231445 15.304687 L 76.760742 19.136719 L 96.290039 22.828125 L 115.819336 26.34082 L 135.348633 29.657227 L 154.880859 32.824219 L 174.410156 35.803711 L 193.939453 38.572266 " transform="matrix(1.333333,0,0,1.333333,0,0.000000000000014211)"/>
<path style="fill:none;stroke-width:1.5;stroke-linecap:square;stroke-linejoin:round;stroke:rgb(12.156863%,46.666667%,70.588237%);stroke-opacity:1;stroke-miterlimit:4;" d="M 40.142578 20.378906 L 49.907227 13.5 L 59.671875 69.826172 L 69.436523 67.327148 L 79.201172 106.757812 L 88.96582 103.250977 L 98.730469 109.142578 L 108.495117 128.90625 L 118.262695 117.357422 L 128.027344 110.121094 L 137.791992 139.5 L 147.556641 103.233398 L 157.321289 120.462891 L 167.085938 116.791992 L 176.850586 125.009766 L 186.615234 110.329102 L 196.379883 121.239258 " transform="matrix(1.333333,0,0,1.333333,0,0.000000000000014211)"/>
<path style="fill:none;stroke-width:1.5;stroke-linecap:butt;stroke-linejoin:round;stroke:rgb(100%,49.803922%,5.490196%);stroke-opacity:1;stroke-dasharray:5.55,2.4;stroke-miterlimit:4;" d="M 57.231445 15.304687 L 76.760742 19.136719 L 96.290039 22.828125 L 115.819336 26.34082 L 135.348633 29.657227 L 154.880859 32.824219 L 174.410156 35.803711 L 193.939453 38.572266 " transform="matrix(1.333333,0,0,1.333333,0,0.000000000000014211)"/>
<path style="fill:none;stroke-width:1.5;stroke-linecap:square;stroke-linejoin:round;stroke:rgb(12.156863%,46.666667%,70.588237%);stroke-opacity:1;stroke-miterlimit:4;" d="M 40.142578 20.378906 L 49.907227 13.5 L 59.671875 69.826172 L 69.436523 67.327148 L 79.201172 106.757812 L 88.96582 103.250977 L 98.730469 109.142578 L 108.495117 128.90625 L 118.262695 117.357422 L 128.027344 110.121094 L 137.791992 139.5 L 147.556641 103.233398 L 157.321289 120.462891 L 167.085938 116.791992 L 176.850586 125.009766 L 186.615234 110.329102 L 196.379883 121.239258 L 206.147461 118.731445 " transform="matrix(1.333333,0,0,1.333333,0,0.000000000000014211)"/>
<path style="fill:none;stroke-width:1.5;stroke-linecap:butt;stroke-linejoin:round;stroke:rgb(100%,49.803922%,5.490196%);stroke-opacity:1;stroke-dasharray:5.55,2.4;stroke-miterlimit:4;" d="M 57.231445 15.304687 L 76.760742 19.136719 L 96.290039 22.828125 L 115.819336 26.34082 L 135.348633 29.657227 L 154.880859 32.824219 L 174.410156 35.803711 L 193.939453 38.572266 " transform="matrix(1.333333,0,0,1.333333,0,0.000000000000014211)"/>
<path style="fill:none;stroke-width:1.5;stroke-linecap:square;stroke-linejoin:round;stroke:rgb(12.156863%,46.666667%,70.588237%);stroke-opacity:1;stroke-miterlimit:4;" d="M 40.142578 20.378906 L 49.907227 13.5 L 59.671875 69.826172 L 69.436523 67.327148 L 79.201172 106.757812 L 88.96582 103.250977 L 98.730469 109.142578 L 108.495117 128.90625 L 118.262695 117.357422 L 128.027344 110.121094 L 137.791992 139.5 L 147.556641 103.233398 L 157.321289 120.462891 L 167.085938 116.791992 L 176.850586 125.009766 L 186.615234 110.329102 L 196.379883 121.239258 L 206.147461 118.731445 " transform="matrix(1.333333,0,0,1.333333,0,0.000000000000014211)"/>
<path style="fill:none;stroke-width:1.5;stroke-linecap:butt;stroke-linejoin:round;stroke:rgb(100%,49.803922%,5.490196%);stroke-opacity:1;stroke-dasharray:5.55,2.4;stroke-miterlimit:4;" d="M 57.231445 15.304687 L 76.760742 19.136719 L 96.290039 22.828125 L 115.819336 26.34082 L 135.348633 29.657227 L 154.880859 32.824219 L 174.410156 35.803711 L 193.939453 38.572266 L 213.46875 41.036133 " transform="matrix(1.333333,0,0,1.333333,0,0.000000000000014211)"/>
<path style="fill:none;stroke-width:1.5;stroke-linecap:square;stroke-linejoin:round;stroke:rgb(12.156863%,46.666667%,70.588237%);stroke-opacity:1;stroke-miterlimit:4;" d="M 40.142578 20.378906 L 49.907227 13.5 L 59.671875 69.826172 L 69.436523 67.327148 L 79.201172 106.757812 L 88.96582 103.250977 L 98.730469 109.142578 L 108.495117 128.90625 L 118.262695 117.357422 L 128.027344 110.121094 L 137.791992 139.5 L 147.556641 103.233398 L 157.321289 120.462891 L 167.085938 116.791992 L 176.850586 125.009766 L 186.615234 110.329102 L 196.379883 121.239258 L 206.147461 118.731445 L 215.912109 117.231445 " transform="matrix(1.333333,0,0,1.333333,0,0.000000000000014211)"/>
<path style="fill:none;stroke-width:1.5;stroke-linecap:butt;stroke-linejoin:round;stroke:rgb(100%,49.803922%,5.490196%);stroke-opacity:1;stroke-dasharray:5.55,2.4;stroke-miterlimit:4;" d="M 57.231445 15.304687 L 76.760742 19.136719 L 96.290039 22.828125 L 115.819336 26.34082 L 135.348633 29.657227 L 154.880859 32.824219 L 174.410156 35.803711 L 193.939453 38.572266 L 213.46875 41.036133 " transform="matrix(1.333333,0,0,1.333333,0,0.000000000000014211)"/>
<path style="fill:none;stroke-width:1.5;stroke-linecap:square;stroke-linejoin:round;stroke:rgb(12.156863%,46.666667%,70.588237%);stroke-opacity:1;stroke-miterlimit:4;" d="M 40.142578 20.378906 L 49.907227 13.5 L 59.671875 69.826172 L 69.436523 67.327148 L 79.201172 106.757812 L 88.96582 103.250977 L 98.730469 109.142578 L 108.495117 128.90625 L 118.262695 117.357422 L 128.027344 110.121094 L 137.791992 139.5 L 147.556641 103.233398 L 157.321289 120.462891 L 167.085938 116.791992 L 176.850586 125.009766 L 186.615234 110.329102 L 196.379883 121.239258 L 206.147461 118.731445 L 215.912109 117.231445 L 225.676758 119.332031 " transform="matrix(1.333333,0,0,1.333333,0,0.000000000000014211)"/>
<path style="fill:none;stroke-width:1.5;stroke-linecap:butt;stroke-linejoin:round;stroke:rgb(100%,49.803922%,5.490196%);stroke-opacity:1;stroke-dasharray:5.55,2.4;stroke-miterlimit:4;" d="M 57.231445 15.304687 L 76.760742 19.136719 L 96.290039 22.828125 L 115.819336 26.34082 L 135.348633 29.657227 L 154.880859 32.824219 L 174.410156 35.803711 L 193.939453 38.572266 L 213.46875 41.036133 " transform="matrix(1.333333,0,0,1.333333,0,0.000000000000014211)"/>
<path style="fill:none;stroke-width:1.5;stroke-linecap:square;stroke-linejoin:round;stroke:rgb(12.156863%,46.666667%,70.588237%);stroke-opacity:1;stroke-miterlimit:4;" d="M 40.142578 20.378906 L 49.907227 13.5 L 59.671875 69.826172 L 69.436523 67.327148 L 79.201172 106.757812 L 88.96582 103.250977 L 98.730469 109.142578 L 108.495117 128.90625 L 118.262695 117.357422 L 128.027344 110.121094 L 137.791992 139.5 L 147.556641 103.233398 L 157.321289 120.462891 L 167.085938 116.791992 L 176.850586 125.009766 L 186.615234 110.329102 L 196.379883 121.239258 L 206.147461 118.731445 L 215.912109 117.231445 L 225.676758 119.332031 " transform="matrix(1.333333,0,0,1.333333,0,0.000000000000014211)"/>
<g clip-path="url(#clip1)" clip-rule="nonzero">
<path style="fill:none;stroke-width:1.5;stroke-linecap:butt;stroke-linejoin:round;stroke:rgb(100%,49.803922%,5.490196%);stroke-opacity:1;stroke-dasharray:5.55,2.4;stroke-miterlimit:4;" d="M 57.231445 15.304687 L 76.760742 19.136719 L 96.290039 22.828125 L 115.819336 26.34082 L 135.348633 29.657227 L 154.880859 32.824219 L 174.410156 35.803711 L 193.939453 38.572266 L 213.46875 41.036133 L 233.000977 43.31543 " transform="matrix(1.333333,0,0,1.333333,0,0.000000000000014211)"/>
</g>
<path style="fill:none;stroke-width:0.8;stroke-linecap:square;stroke-linejoin:miter;stroke:rgb(0%,0%,0%);stroke-opacity:1;stroke-miterlimit:4;" d="M 37.699219 145.798828 L 37.699219 7.201172 " transform="matrix(1.333333,0,0,1.333333,0,0.000000000000014211)"/>
<path style="fill:none;stroke-width:0.8;stroke-linecap:square;stroke-linejoin:miter;stroke:rgb(0%,0%,0%);stroke-opacity:1;stroke-miterlimit:4;" d="M 233.000977 145.798828 L 233.000977 7.201172 " transform="matrix(1.333333,0,0,1.333333,0,0.000000000000014211)"/>
<path style="fill:none;stroke-width:0.8;stroke-linecap:square;stroke-linejoin:miter;stroke:rgb(0%,0%,0%);stroke-opacity:1;stroke-miterlimit:4;" d="M 37.699219 145.798828 L 233.000977 145.798828 " transform="matrix(1.333333,0,0,1.333333,0,0.000000000000014211)"/>
<path style="fill:none;stroke-width:0.8;stroke-linecap:square;stroke-linejoin:miter;stroke:rgb(0%,0%,0%);stroke-opacity:1;stroke-miterlimit:4;" d="M 37.699219 7.201172 L 233.000977 7.201172 " transform="matrix(1.333333,0,0,1.333333,0,0.000000000000014211)"/>
<use xlink:href="#surface5" mask="url(#mask0)"/>
<path style="fill:none;stroke-width:1.5;stroke-linecap:square;stroke-linejoin:round;stroke:rgb(12.156863%,46.666667%,70.588237%);stroke-opacity:1;stroke-miterlimit:4;" d="M 148.40918 68.141602 L 168.410156 68.141602 " transform="matrix(1.333333,0,0,1.333333,0,0.000000000000014211)"/>
<path style=" stroke:none;fill-rule:nonzero;fill:rgb(0%,0%,0%);fill-opacity:1;" d="M 237.652344 86.160156 L 237.652344 88.230469 L 240.121094 88.230469 L 240.121094 89.164062 L 237.652344 89.164062 L 237.652344 93.121094 C 237.652344 93.714844 237.734375 94.097656 237.898438 94.265625 C 238.058594 94.4375 238.390625 94.519531 238.890625 94.519531 L 240.121094 94.519531 L 240.121094 95.523438 L 238.890625 95.523438 C 237.964844 95.523438 237.328125 95.351562 236.976562 95.007812 C 236.625 94.660156 236.449219 94.03125 236.449219 93.121094 L 236.449219 89.164062 L 235.570312 89.164062 L 235.570312 88.230469 L 236.449219 88.230469 L 236.449219 86.160156 Z M 237.652344 86.160156 "/>
<path style=" stroke:none;fill-rule:nonzero;fill:rgb(0%,0%,0%);fill-opacity:1;" d="M 245.921875 89.351562 C 245.785156 89.273438 245.640625 89.214844 245.480469 89.179688 C 245.324219 89.140625 245.148438 89.121094 244.960938 89.121094 C 244.28125 89.121094 243.761719 89.34375 243.398438 89.785156 C 243.035156 90.222656 242.855469 90.855469 242.855469 91.679688 L 242.855469 95.523438 L 241.652344 95.523438 L 241.652344 88.230469 L 242.855469 88.230469 L 242.855469 89.363281 C 243.109375 88.921875 243.433594 88.59375 243.839844 88.378906 C 244.242188 88.164062 244.734375 88.054688 245.3125 88.054688 C 245.394531 88.054688 245.484375 88.0625 245.585938 88.074219 C 245.683594 88.082031 245.792969 88.097656 245.914062 88.121094 Z M 245.921875 89.351562 "/>
<path style=" stroke:none;fill-rule:nonzero;fill:rgb(0%,0%,0%);fill-opacity:1;" d="M 250.492188 91.859375 C 249.523438 91.859375 248.855469 91.96875 248.480469 92.191406 C 248.105469 92.410156 247.921875 92.789062 247.921875 93.324219 C 247.921875 93.746094 248.058594 94.085938 248.339844 94.335938 C 248.621094 94.585938 249.003906 94.707031 249.484375 94.707031 C 250.148438 94.707031 250.679688 94.472656 251.082031 94.003906 C 251.484375 93.53125 251.683594 92.90625 251.683594 92.125 L 251.683594 91.859375 Z M 252.882812 91.363281 L 252.882812 95.523438 L 251.683594 95.523438 L 251.683594 94.417969 C 251.410156 94.859375 251.070312 95.183594 250.660156 95.394531 C 250.253906 95.605469 249.753906 95.710938 249.164062 95.710938 C 248.417969 95.710938 247.824219 95.503906 247.382812 95.082031 C 246.941406 94.664062 246.722656 94.101562 246.722656 93.398438 C 246.722656 92.582031 246.996094 91.960938 247.546875 91.546875 C 248.09375 91.128906 248.914062 90.921875 250.003906 90.921875 L 251.683594 90.921875 L 251.683594 90.800781 C 251.683594 90.25 251.503906 89.824219 251.140625 89.523438 C 250.777344 89.222656 250.269531 89.070312 249.613281 89.070312 C 249.195312 89.070312 248.789062 89.121094 248.394531 89.222656 C 248 89.320312 247.621094 89.472656 247.257812 89.671875 L 247.257812 88.5625 C 247.695312 88.394531 248.121094 88.265625 248.53125 88.183594 C 248.945312 88.097656 249.347656 88.054688 249.738281 88.054688 C 250.792969 88.054688 251.582031 88.328125 252.101562 88.878906 C 252.621094 89.421875 252.882812 90.25 252.882812 91.363281 Z M 252.882812 91.363281 "/>
<path style=" stroke:none;fill-rule:nonzero;fill:rgb(0%,0%,0%);fill-opacity:1;" d="M 255.347656 88.230469 L 256.546875 88.230469 L 256.546875 95.523438 L 255.347656 95.523438 Z M 255.347656 85.390625 L 256.546875 85.390625 L 256.546875 86.910156 L 255.347656 86.910156 Z M 255.347656 85.390625 "/>
<path style=" stroke:none;fill-rule:nonzero;fill:rgb(0%,0%,0%);fill-opacity:1;" d="M 265.117188 91.121094 L 265.117188 95.523438 L 263.917969 95.523438 L 263.917969 91.160156 C 263.917969 90.46875 263.785156 89.953125 263.515625 89.613281 C 263.246094 89.269531 262.839844 89.097656 262.304688 89.097656 C 261.65625 89.097656 261.144531 89.304688 260.773438 89.714844 C 260.398438 90.128906 260.210938 90.691406 260.210938 91.402344 L 260.210938 95.523438 L 259.007812 95.523438 L 259.007812 88.230469 L 260.210938 88.230469 L 260.210938 89.363281 C 260.5 88.925781 260.835938 88.597656 261.222656 88.382812 C 261.613281 88.164062 262.0625 88.054688 262.570312 88.054688 C 263.40625 88.054688 264.039062 88.316406 264.46875 88.832031 C 264.902344 89.351562 265.117188 90.113281 265.117188 91.121094 Z M 265.117188 91.121094 "/>
<path style=" stroke:none;fill-rule:nonzero;fill:rgb(0%,0%,0%);fill-opacity:1;" d="M 273.046875 97.738281 L 273.046875 98.667969 L 266.117188 98.667969 L 266.117188 97.738281 Z M 273.046875 97.738281 "/>
<path style=" stroke:none;fill-rule:nonzero;fill:rgb(0%,0%,0%);fill-opacity:1;" d="M 274.171875 85.390625 L 275.367188 85.390625 L 275.367188 95.523438 L 274.171875 95.523438 Z M 274.171875 85.390625 "/>
<path style=" stroke:none;fill-rule:nonzero;fill:rgb(0%,0%,0%);fill-opacity:1;" d="M 280.699219 89.070312 C 280.058594 89.070312 279.550781 89.320312 279.175781 89.824219 C 278.804688 90.324219 278.617188 91.011719 278.617188 91.882812 C 278.617188 92.753906 278.800781 93.441406 279.171875 93.945312 C 279.546875 94.445312 280.054688 94.695312 280.699219 94.695312 C 281.339844 94.695312 281.84375 94.445312 282.214844 93.941406 C 282.589844 93.4375 282.777344 92.75 282.777344 91.882812 C 282.777344 91.019531 282.589844 90.335938 282.214844 89.828125 C 281.84375 89.324219 281.339844 89.070312 280.699219 89.070312 Z M 280.699219 88.054688 C 281.742188 88.054688 282.558594 88.394531 283.152344 89.074219 C 283.75 89.75 284.046875 90.6875 284.046875 91.882812 C 284.046875 93.078125 283.75 94.011719 283.152344 94.695312 C 282.558594 95.371094 281.742188 95.710938 280.699219 95.710938 C 279.652344 95.710938 278.835938 95.371094 278.242188 94.695312 C 277.648438 94.011719 277.355469 93.078125 277.355469 91.882812 C 277.355469 90.6875 277.648438 89.75 278.242188 89.074219 C 278.835938 88.394531 279.652344 88.054688 280.699219 88.054688 Z M 280.699219 88.054688 "/>
<path style=" stroke:none;fill-rule:nonzero;fill:rgb(0%,0%,0%);fill-opacity:1;" d="M 290.679688 88.445312 L 290.679688 89.578125 C 290.34375 89.40625 289.992188 89.277344 289.625 89.191406 C 289.261719 89.101562 288.882812 89.058594 288.492188 89.058594 C 287.898438 89.058594 287.453125 89.148438 287.15625 89.332031 C 286.859375 89.511719 286.710938 89.785156 286.710938 90.152344 C 286.710938 90.429688 286.816406 90.648438 287.027344 90.804688 C 287.242188 90.964844 287.667969 91.117188 288.3125 91.257812 L 288.722656 91.351562 C 289.570312 91.53125 290.175781 91.789062 290.535156 92.121094 C 290.894531 92.453125 291.070312 92.914062 291.070312 93.511719 C 291.070312 94.1875 290.804688 94.726562 290.269531 95.121094 C 289.730469 95.515625 288.996094 95.710938 288.058594 95.710938 C 287.667969 95.710938 287.261719 95.675781 286.835938 95.597656 C 286.414062 95.523438 285.96875 95.40625 285.5 95.257812 L 285.5 94.019531 C 285.941406 94.25 286.378906 94.421875 286.808594 94.539062 C 287.238281 94.652344 287.664062 94.707031 288.085938 94.707031 C 288.648438 94.707031 289.082031 94.613281 289.382812 94.417969 C 289.6875 94.226562 289.839844 93.953125 289.839844 93.601562 C 289.839844 93.277344 289.730469 93.027344 289.511719 92.855469 C 289.292969 92.679688 288.8125 92.511719 288.070312 92.351562 L 287.652344 92.253906 C 286.910156 92.097656 286.375 91.859375 286.046875 91.535156 C 285.714844 91.210938 285.550781 90.769531 285.550781 90.203125 C 285.550781 89.519531 285.792969 88.988281 286.28125 88.617188 C 286.765625 88.242188 287.457031 88.054688 288.351562 88.054688 C 288.792969 88.054688 289.207031 88.089844 289.597656 88.152344 C 289.992188 88.21875 290.351562 88.316406 290.679688 88.445312 Z M 290.679688 88.445312 "/>
<path style=" stroke:none;fill-rule:nonzero;fill:rgb(0%,0%,0%);fill-opacity:1;" d="M 297.628906 88.445312 L 297.628906 89.578125 C 297.289062 89.40625 296.9375 89.277344 296.574219 89.191406 C 296.210938 89.101562 295.832031 89.058594 295.441406 89.058594 C 294.84375 89.058594 294.398438 89.148438 294.101562 89.332031 C 293.804688 89.511719 293.65625 89.785156 293.65625 90.152344 C 293.65625 90.429688 293.761719 90.648438 293.976562 90.804688 C 294.1875 90.964844 294.617188 91.117188 295.257812 91.257812 L 295.667969 91.351562 C 296.519531 91.53125 297.121094 91.789062 297.480469 92.121094 C 297.839844 92.453125 298.019531 92.914062 298.019531 93.511719 C 298.019531 94.1875 297.75 94.726562 297.214844 95.121094 C 296.679688 95.515625 295.941406 95.710938 295.003906 95.710938 C 294.613281 95.710938 294.207031 95.675781 293.785156 95.597656 C 293.359375 95.523438 292.914062 95.40625 292.445312 95.257812 L 292.445312 94.019531 C 292.890625 94.25 293.324219 94.421875 293.753906 94.539062 C 294.183594 94.652344 294.609375 94.707031 295.03125 94.707031 C 295.59375 94.707031 296.027344 94.613281 296.332031 94.417969 C 296.636719 94.226562 296.789062 93.953125 296.789062 93.601562 C 296.789062 93.277344 296.679688 93.027344 296.457031 92.855469 C 296.242188 92.679688 295.757812 92.511719 295.015625 92.351562 L 294.601562 92.253906 C 293.859375 92.097656 293.320312 91.859375 292.992188 91.535156 C 292.664062 91.210938 292.496094 90.769531 292.496094 90.203125 C 292.496094 89.519531 292.742188 88.988281 293.226562 88.617188 C 293.714844 88.242188 294.402344 88.054688 295.296875 88.054688 C 295.738281 88.054688 296.15625 88.089844 296.546875 88.152344 C 296.9375 88.21875 297.296875 88.316406 297.628906 88.445312 Z M 297.628906 88.445312 "/>
<path style="fill:none;stroke-width:1.5;stroke-linecap:butt;stroke-linejoin:round;stroke:rgb(100%,49.803922%,5.490196%);stroke-opacity:1;stroke-dasharray:5.55,2.4;stroke-miterlimit:4;" d="M 148.40918 83.097656 L 168.410156 83.097656 " transform="matrix(1.333333,0,0,1.333333,0,0.000000000000014211)"/>
<path style=" stroke:none;fill-rule:nonzero;fill:rgb(0%,0%,0%);fill-opacity:1;" d="M 235.609375 108.171875 L 236.878906 108.171875 L 239.160156 114.292969 L 241.4375 108.171875 L 242.707031 108.171875 L 239.972656 115.464844 L 238.34375 115.464844 Z M 235.609375 108.171875 "/>
<path style=" stroke:none;fill-rule:nonzero;fill:rgb(0%,0%,0%);fill-opacity:1;" d="M 247.675781 111.800781 C 246.707031 111.800781 246.035156 111.910156 245.660156 112.132812 C 245.289062 112.351562 245.101562 112.730469 245.101562 113.265625 C 245.101562 113.691406 245.242188 114.027344 245.523438 114.277344 C 245.800781 114.527344 246.183594 114.648438 246.664062 114.648438 C 247.328125 114.648438 247.863281 114.414062 248.261719 113.945312 C 248.664062 113.472656 248.867188 112.847656 248.867188 112.066406 L 248.867188 111.800781 Z M 250.0625 111.304688 L 250.0625 115.464844 L 248.867188 115.464844 L 248.867188 114.359375 C 248.59375 114.800781 248.25 115.125 247.84375 115.335938 C 247.433594 115.546875 246.933594 115.652344 246.34375 115.652344 C 245.597656 115.652344 245.003906 115.445312 244.5625 115.023438 C 244.125 114.605469 243.902344 114.042969 243.902344 113.339844 C 243.902344 112.523438 244.175781 111.902344 244.726562 111.488281 C 245.277344 111.070312 246.09375 110.863281 247.183594 110.863281 L 248.867188 110.863281 L 248.867188 110.742188 C 248.867188 110.191406 248.683594 109.765625 248.320312 109.464844 C 247.960938 109.164062 247.449219 109.011719 246.792969 109.011719 C 246.378906 109.011719 245.972656 109.0625 245.574219 109.164062 C 245.179688 109.261719 244.800781 109.414062 244.4375 109.613281 L 244.4375 108.503906 C 244.875 108.335938 245.300781 108.207031 245.714844 108.125 C 246.125 108.039062 246.527344 107.996094 246.917969 107.996094 C 247.972656 107.996094 248.761719 108.273438 249.28125 108.820312 C 249.804688 109.363281 250.0625 110.191406 250.0625 111.304688 Z M 250.0625 111.304688 "/>
<path style=" stroke:none;fill-rule:nonzero;fill:rgb(0%,0%,0%);fill-opacity:1;" d="M 252.53125 105.332031 L 253.726562 105.332031 L 253.726562 115.464844 L 252.53125 115.464844 Z M 252.53125 105.332031 "/>
<path style=" stroke:none;fill-rule:nonzero;fill:rgb(0%,0%,0%);fill-opacity:1;" d="M 261.777344 117.679688 L 261.777344 118.609375 L 254.847656 118.609375 L 254.847656 117.679688 Z M 261.777344 117.679688 "/>
<path style=" stroke:none;fill-rule:nonzero;fill:rgb(0%,0%,0%);fill-opacity:1;" d="M 262.902344 105.332031 L 264.097656 105.332031 L 264.097656 115.464844 L 262.902344 115.464844 Z M 262.902344 105.332031 "/>
<path style=" stroke:none;fill-rule:nonzero;fill:rgb(0%,0%,0%);fill-opacity:1;" d="M 269.429688 109.011719 C 268.789062 109.011719 268.28125 109.261719 267.90625 109.765625 C 267.535156 110.265625 267.347656 110.953125 267.347656 111.824219 C 267.347656 112.695312 267.53125 113.382812 267.902344 113.886719 C 268.277344 114.386719 268.785156 114.636719 269.429688 114.636719 C 270.070312 114.636719 270.574219 114.386719 270.945312 113.882812 C 271.320312 113.378906 271.507812 112.691406 271.507812 111.824219 C 271.507812 110.960938 271.320312 110.277344 270.945312 109.769531 C 270.574219 109.265625 270.070312 109.011719 269.429688 109.011719 Z M 269.429688 107.996094 C 270.472656 107.996094 271.289062 108.335938 271.882812 109.015625 C 272.480469 109.691406 272.777344 110.628906 272.777344 111.824219 C 272.777344 113.019531 272.480469 113.953125 271.882812 114.636719 C 271.289062 115.316406 270.472656 115.652344 269.429688 115.652344 C 268.382812 115.652344 267.566406 115.316406 266.972656 114.636719 C 266.378906 113.953125 266.085938 113.019531 266.085938 111.824219 C 266.085938 110.628906 266.378906 109.691406 266.972656 109.015625 C 267.566406 108.335938 268.382812 107.996094 269.429688 107.996094 Z M 269.429688 107.996094 "/>
<path style=" stroke:none;fill-rule:nonzero;fill:rgb(0%,0%,0%);fill-opacity:1;" d="M 279.410156 108.386719 L 279.410156 109.519531 C 279.074219 109.347656 278.722656 109.21875 278.355469 109.132812 C 277.992188 109.042969 277.613281 109 277.222656 109 C 276.628906 109 276.183594 109.089844 275.886719 109.273438 C 275.589844 109.453125 275.441406 109.726562 275.441406 110.09375 C 275.441406 110.371094 275.546875 110.589844 275.757812 110.746094 C 275.972656 110.90625 276.398438 111.058594 277.042969 111.199219 L 277.453125 111.292969 C 278.300781 111.472656 278.90625 111.730469 279.265625 112.0625 C 279.625 112.394531 279.800781 112.859375 279.800781 113.453125 C 279.800781 114.128906 279.535156 114.667969 279 115.0625 C 278.460938 115.457031 277.726562 115.652344 276.789062 115.652344 C 276.398438 115.652344 275.992188 115.617188 275.566406 115.539062 C 275.144531 115.464844 274.699219 115.347656 274.230469 115.199219 L 274.230469 113.960938 C 274.671875 114.191406 275.109375 114.363281 275.539062 114.480469 C 275.96875 114.59375 276.394531 114.648438 276.816406 114.648438 C 277.378906 114.648438 277.8125 114.554688 278.113281 114.359375 C 278.417969 114.167969 278.570312 113.894531 278.570312 113.542969 C 278.570312 113.21875 278.460938 112.96875 278.242188 112.796875 C 278.023438 112.621094 277.542969 112.453125 276.800781 112.292969 L 276.382812 112.195312 C 275.640625 112.039062 275.105469 111.800781 274.777344 111.476562 C 274.445312 111.152344 274.28125 110.710938 274.28125 110.144531 C 274.28125 109.460938 274.523438 108.929688 275.011719 108.558594 C 275.496094 108.183594 276.1875 107.996094 277.082031 107.996094 C 277.523438 107.996094 277.9375 108.03125 278.328125 108.097656 C 278.722656 108.160156 279.082031 108.257812 279.410156 108.386719 Z M 279.410156 108.386719 "/>
<path style=" stroke:none;fill-rule:nonzero;fill:rgb(0%,0%,0%);fill-opacity:1;" d="M 286.359375 108.386719 L 286.359375 109.519531 C 286.019531 109.347656 285.667969 109.21875 285.304688 109.132812 C 284.941406 109.042969 284.5625 109 284.171875 109 C 283.574219 109 283.128906 109.089844 282.832031 109.273438 C 282.535156 109.453125 282.386719 109.726562 282.386719 110.09375 C 282.386719 110.371094 282.492188 110.589844 282.707031 110.746094 C 282.917969 110.90625 283.347656 111.058594 283.988281 111.199219 L 284.398438 111.292969 C 285.25 111.472656 285.851562 111.730469 286.210938 112.0625 C 286.570312 112.394531 286.75 112.859375 286.75 113.453125 C 286.75 114.128906 286.480469 114.667969 285.945312 115.0625 C 285.410156 115.457031 284.671875 115.652344 283.734375 115.652344 C 283.34375 115.652344 282.9375 115.617188 282.515625 115.539062 C 282.089844 115.464844 281.644531 115.347656 281.175781 115.199219 L 281.175781 113.960938 C 281.621094 114.191406 282.054688 114.363281 282.484375 114.480469 C 282.914062 114.59375 283.339844 114.648438 283.761719 114.648438 C 284.324219 114.648438 284.757812 114.554688 285.0625 114.359375 C 285.367188 114.167969 285.519531 113.894531 285.519531 113.542969 C 285.519531 113.21875 285.410156 112.96875 285.1875 112.796875 C 284.972656 112.621094 284.488281 112.453125 283.746094 112.292969 L 283.332031 112.195312 C 282.589844 112.039062 282.050781 111.800781 281.722656 111.476562 C 281.394531 111.152344 281.226562 110.710938 281.226562 110.144531 C 281.226562 109.460938 281.472656 108.929688 281.957031 108.558594 C 282.445312 108.183594 283.132812 107.996094 284.027344 107.996094 C 284.46875 107.996094 284.886719 108.03125 285.277344 108.097656 C 285.667969 108.160156 286.027344 108.257812 286.359375 108.386719 Z M 286.359375 108.386719 "/>
</g>
</svg>
