<?xml version="1.0" encoding="UTF-8"?>
<svg xmlns="http://www.w3.org/2000/svg" xmlns:xlink="http://www.w3.org/1999/xlink" width="326.827087" height="244.474996" viewBox="0 0 326.827087 244.474996" version="1.1">
<defs>
<clipPath id="clip1">
  <path d="M 164 9.601562 L 317.226562 9.601562 L 317.226562 149 L 164 149 Z M 164 9.601562 "/>
</clipPath>
<clipPath id="clip2">
  <path d="M 116 9.601562 L 317.226562 9.601562 L 317.226562 188 L 116 188 Z M 116 9.601562 "/>
</clipPath>
<clipPath id="clip3">
  <path d="M 80 9.601562 L 182 9.601562 L 182 194.398438 L 80 194.398438 Z M 80 9.601562 "/>
</clipPath>
<clipPath id="clip4">
  <path d="M 56.828125 95 L 130 95 L 130 194.398438 L 56.828125 194.398438 Z M 56.828125 95 "/>
</clipPath>
<clipPath id="clip5">
  <path d="M 56.828125 155 L 91 155 L 91 194.398438 L 56.828125 194.398438 Z M 56.828125 155 "/>
</clipPath>
<clipPath id="clip6">
  <path d="M 56.828125 192 L 59 192 L 59 194.398438 L 56.828125 194.398438 Z M 56.828125 192 "/>
</clipPath>
</defs>
<g id="surface1">
<path style=" stroke:none;fill-rule:nonzero;fill:rgb(100%,100%,100%);fill-opacity:1;" d="M 0 244.476562 L 326.828125 244.476562 L 326.828125 0 L 0 0 Z M 0 244.476562 "/>
<path style=" stroke:none;fill-rule:nonzero;fill:rgb(100%,100%,100%);fill-opacity:1;" d="M 56.828125 194.398438 L 317.226562 194.398438 L 317.226562 9.601562 L 56.828125 9.601562 Z M 56.828125 194.398438 "/>
<path style="fill:none;stroke-width:0.8;stroke-linecap:butt;stroke-linejoin:round;stroke:rgb(0%,0%,0%);stroke-opacity:1;stroke-miterlimit:4;" d="M 0.000778198 -0.00117493 L 0.000778198 3.499802 " transform="matrix(1.333333,0,0,1.333333,117.858337,194.400004)"/>
<path style=" stroke:none;fill-rule:nonzero;fill:rgb(0%,0%,0%);fill-opacity:1;" d="M 109.441406 209.132812 L 117.789062 209.132812 L 117.789062 210.238281 L 109.441406 210.238281 Z M 109.441406 209.132812 "/>
<path style=" stroke:none;fill-rule:nonzero;fill:rgb(0%,0%,0%);fill-opacity:1;" d="M 124.242188 205.289062 L 120.921875 210.480469 L 124.242188 210.480469 Z M 123.894531 204.144531 L 125.550781 204.144531 L 125.550781 210.480469 L 126.9375 210.480469 L 126.9375 211.574219 L 125.550781 211.574219 L 125.550781 213.863281 L 124.242188 213.863281 L 124.242188 211.574219 L 119.855469 211.574219 L 119.855469 210.304688 Z M 123.894531 204.144531 "/>
<path style="fill:none;stroke-width:0.8;stroke-linecap:butt;stroke-linejoin:round;stroke:rgb(0%,0%,0%);stroke-opacity:1;stroke-miterlimit:4;" d="M 0.000778198 -0.00117493 L 0.000778198 3.499802 " transform="matrix(1.333333,0,0,1.333333,199.233337,194.400004)"/>
<path style=" stroke:none;fill-rule:nonzero;fill:rgb(0%,0%,0%);fill-opacity:1;" d="M 190.816406 209.132812 L 199.164062 209.132812 L 199.164062 210.238281 L 190.816406 210.238281 Z M 190.816406 209.132812 "/>
<path style=" stroke:none;fill-rule:nonzero;fill:rgb(0%,0%,0%);fill-opacity:1;" d="M 203.136719 212.757812 L 207.726562 212.757812 L 207.726562 213.863281 L 201.554688 213.863281 L 201.554688 212.757812 C 202.054688 212.242188 202.734375 211.546875 203.59375 210.679688 C 204.457031 209.808594 204.996094 209.246094 205.21875 208.992188 C 205.640625 208.523438 205.933594 208.121094 206.101562 207.792969 C 206.269531 207.464844 206.351562 207.144531 206.351562 206.828125 C 206.351562 206.308594 206.171875 205.890625 205.808594 205.566406 C 205.445312 205.238281 204.972656 205.074219 204.390625 205.074219 C 203.980469 205.074219 203.542969 205.148438 203.085938 205.289062 C 202.628906 205.433594 202.140625 205.648438 201.617188 205.941406 L 201.617188 204.613281 C 202.148438 204.398438 202.640625 204.238281 203.101562 204.132812 C 203.5625 204.023438 203.984375 203.96875 204.367188 203.96875 C 205.375 203.96875 206.175781 204.222656 206.773438 204.726562 C 207.375 205.226562 207.671875 205.898438 207.671875 206.742188 C 207.671875 207.140625 207.597656 207.519531 207.449219 207.878906 C 207.300781 208.234375 207.027344 208.65625 206.632812 209.144531 C 206.523438 209.269531 206.179688 209.632812 205.597656 210.234375 C 205.015625 210.835938 204.195312 211.679688 203.136719 212.757812 Z M 203.136719 212.757812 "/>
<path style="fill:none;stroke-width:0.8;stroke-linecap:butt;stroke-linejoin:round;stroke:rgb(0%,0%,0%);stroke-opacity:1;stroke-miterlimit:4;" d="M 0.000778198 -0.00117493 L 0.000778198 3.499802 " transform="matrix(1.333333,0,0,1.333333,280.608337,194.400004)"/>
<path style=" stroke:none;fill-rule:nonzero;fill:rgb(0%,0%,0%);fill-opacity:1;" d="M 280.605469 205.011719 C 279.929688 205.011719 279.417969 205.34375 279.078125 206.011719 C 278.738281 206.675781 278.566406 207.675781 278.566406 209.015625 C 278.566406 210.347656 278.738281 211.347656 279.078125 212.011719 C 279.417969 212.679688 279.929688 213.011719 280.605469 213.011719 C 281.285156 213.011719 281.796875 212.679688 282.136719 212.011719 C 282.480469 211.347656 282.648438 210.347656 282.648438 209.015625 C 282.648438 207.675781 282.480469 206.675781 282.136719 206.011719 C 281.796875 205.34375 281.285156 205.011719 280.605469 205.011719 Z M 280.605469 203.96875 C 281.695312 203.96875 282.527344 204.398438 283.101562 205.261719 C 283.675781 206.125 283.964844 207.375 283.964844 209.015625 C 283.964844 210.652344 283.675781 211.898438 283.101562 212.761719 C 282.527344 213.625 281.695312 214.054688 280.605469 214.054688 C 279.515625 214.054688 278.683594 213.625 278.109375 212.761719 C 277.535156 211.898438 277.246094 210.652344 277.246094 209.015625 C 277.246094 207.375 277.535156 206.125 278.109375 205.261719 C 278.683594 204.398438 279.515625 203.96875 280.605469 203.96875 Z M 280.605469 203.96875 "/>
<path style=" stroke:none;fill-rule:nonzero;fill:rgb(0%,0%,0%);fill-opacity:1;" d="M 186.160156 224.808594 L 183.519531 228.359375 L 186.292969 232.101562 L 184.882812 232.101562 L 182.757812 229.238281 L 180.636719 232.101562 L 179.222656 232.101562 L 182.054688 228.289062 L 179.464844 224.808594 L 180.878906 224.808594 L 182.808594 227.410156 L 184.742188 224.808594 Z M 186.160156 224.808594 "/>
<path style=" stroke:none;fill-rule:nonzero;fill:rgb(0%,0%,0%);fill-opacity:1;" d="M 188.382812 230.996094 L 190.53125 230.996094 L 190.53125 223.578125 L 188.195312 224.046875 L 188.195312 222.851562 L 190.519531 222.382812 L 191.835938 222.382812 L 191.835938 230.996094 L 193.980469 230.996094 L 193.980469 232.101562 L 188.382812 232.101562 Z M 188.382812 230.996094 "/>
<path style="fill:none;stroke-width:0.8;stroke-linecap:butt;stroke-linejoin:round;stroke:rgb(0%,0%,0%);stroke-opacity:1;stroke-miterlimit:4;" d="M 0.000782013 -0.00117493 L -3.500195 -0.00117493 " transform="matrix(1.333333,0,0,1.333333,56.827082,194.400004)"/>
<path style=" stroke:none;fill-rule:nonzero;fill:rgb(0%,0%,0%);fill-opacity:1;" d="M 29.25 194.730469 L 37.597656 194.730469 L 37.597656 195.839844 L 29.25 195.839844 Z M 29.25 194.730469 "/>
<path style=" stroke:none;fill-rule:nonzero;fill:rgb(0%,0%,0%);fill-opacity:1;" d="M 44.417969 194.222656 C 45.050781 194.359375 45.539062 194.640625 45.894531 195.066406 C 46.246094 195.492188 46.425781 196.015625 46.425781 196.640625 C 46.425781 197.597656 46.09375 198.339844 45.433594 198.867188 C 44.773438 199.394531 43.835938 199.65625 42.621094 199.65625 C 42.214844 199.65625 41.796875 199.613281 41.363281 199.535156 C 40.929688 199.453125 40.484375 199.332031 40.027344 199.171875 L 40.027344 197.902344 C 40.390625 198.117188 40.789062 198.277344 41.222656 198.382812 C 41.65625 198.492188 42.109375 198.546875 42.585938 198.546875 C 43.40625 198.546875 44.035156 198.382812 44.46875 198.058594 C 44.898438 197.734375 45.117188 197.261719 45.117188 196.640625 C 45.117188 196.066406 44.914062 195.617188 44.511719 195.296875 C 44.113281 194.972656 43.554688 194.8125 42.839844 194.8125 L 41.707031 194.8125 L 41.707031 193.730469 L 42.890625 193.730469 C 43.535156 193.730469 44.03125 193.601562 44.375 193.34375 C 44.71875 193.085938 44.886719 192.710938 44.886719 192.226562 C 44.886719 191.726562 44.710938 191.34375 44.355469 191.078125 C 44.003906 190.808594 43.5 190.675781 42.839844 190.675781 C 42.476562 190.675781 42.089844 190.714844 41.679688 190.792969 C 41.265625 190.871094 40.8125 190.992188 40.316406 191.15625 L 40.316406 189.988281 C 40.816406 189.847656 41.285156 189.742188 41.722656 189.675781 C 42.15625 189.605469 42.570312 189.570312 42.957031 189.570312 C 43.953125 189.570312 44.742188 189.796875 45.324219 190.25 C 45.90625 190.703125 46.195312 191.316406 46.195312 192.089844 C 46.195312 192.628906 46.042969 193.082031 45.734375 193.453125 C 45.425781 193.824219 44.988281 194.082031 44.417969 194.222656 Z M 44.417969 194.222656 "/>
<path style="fill:none;stroke-width:0.8;stroke-linecap:butt;stroke-linejoin:round;stroke:rgb(0%,0%,0%);stroke-opacity:1;stroke-miterlimit:4;" d="M 0.000782013 0.000183105 L -3.500195 0.000183105 " transform="matrix(1.333333,0,0,1.333333,56.827082,147.015381)"/>
<path style=" stroke:none;fill-rule:nonzero;fill:rgb(0%,0%,0%);fill-opacity:1;" d="M 29.25 147.347656 L 37.597656 147.347656 L 37.597656 148.453125 L 29.25 148.453125 Z M 29.25 147.347656 "/>
<path style=" stroke:none;fill-rule:nonzero;fill:rgb(0%,0%,0%);fill-opacity:1;" d="M 41.566406 150.976562 L 46.15625 150.976562 L 46.15625 152.082031 L 39.988281 152.082031 L 39.988281 150.976562 C 40.484375 150.457031 41.164062 149.765625 42.027344 148.894531 C 42.886719 148.023438 43.429688 147.464844 43.652344 147.210938 C 44.070312 146.738281 44.367188 146.339844 44.53125 146.011719 C 44.699219 145.683594 44.785156 145.359375 44.785156 145.042969 C 44.785156 144.527344 44.601562 144.105469 44.242188 143.78125 C 43.878906 143.453125 43.40625 143.292969 42.824219 143.292969 C 42.410156 143.292969 41.976562 143.363281 41.519531 143.507812 C 41.0625 143.648438 40.570312 143.867188 40.050781 144.15625 L 40.050781 142.828125 C 40.582031 142.617188 41.074219 142.457031 41.535156 142.347656 C 41.996094 142.238281 42.417969 142.183594 42.800781 142.183594 C 43.804688 142.183594 44.609375 142.4375 45.207031 142.941406 C 45.804688 143.445312 46.105469 144.117188 46.105469 144.957031 C 46.105469 145.359375 46.03125 145.738281 45.878906 146.09375 C 45.730469 146.453125 45.460938 146.875 45.0625 147.359375 C 44.957031 147.488281 44.609375 147.851562 44.027344 148.453125 C 43.449219 149.054688 42.628906 149.894531 41.566406 150.976562 Z M 41.566406 150.976562 "/>
<path style="fill:none;stroke-width:0.8;stroke-linecap:butt;stroke-linejoin:round;stroke:rgb(0%,0%,0%);stroke-opacity:1;stroke-miterlimit:4;" d="M 0.000782013 -0.00139618 L -3.500195 -0.00139618 " transform="matrix(1.333333,0,0,1.333333,56.827082,99.630768)"/>
<path style=" stroke:none;fill-rule:nonzero;fill:rgb(0%,0%,0%);fill-opacity:1;" d="M 29.25 99.964844 L 37.597656 99.964844 L 37.597656 101.070312 L 29.25 101.070312 Z M 29.25 99.964844 "/>
<path style=" stroke:none;fill-rule:nonzero;fill:rgb(0%,0%,0%);fill-opacity:1;" d="M 40.664062 103.589844 L 42.8125 103.589844 L 42.8125 96.171875 L 40.472656 96.640625 L 40.472656 95.445312 L 42.800781 94.976562 L 44.113281 94.976562 L 44.113281 103.589844 L 46.261719 103.589844 L 46.261719 104.695312 L 40.664062 104.695312 Z M 40.664062 103.589844 "/>
<path style="fill:none;stroke-width:0.8;stroke-linecap:butt;stroke-linejoin:round;stroke:rgb(0%,0%,0%);stroke-opacity:1;stroke-miterlimit:4;" d="M 0.000782013 -0.0000457764 L -3.500195 -0.0000457764 " transform="matrix(1.333333,0,0,1.333333,56.827082,52.246155)"/>
<path style=" stroke:none;fill-rule:nonzero;fill:rgb(0%,0%,0%);fill-opacity:1;" d="M 43.246094 48.457031 C 42.570312 48.457031 42.0625 48.789062 41.722656 49.457031 C 41.378906 50.121094 41.210938 51.125 41.210938 52.460938 C 41.210938 53.792969 41.378906 54.792969 41.722656 55.460938 C 42.0625 56.125 42.570312 56.460938 43.246094 56.460938 C 43.929688 56.460938 44.441406 56.125 44.78125 55.460938 C 45.121094 54.792969 45.292969 53.792969 45.292969 52.460938 C 45.292969 51.125 45.121094 50.121094 44.78125 49.457031 C 44.441406 48.789062 43.929688 48.457031 43.246094 48.457031 Z M 43.246094 47.414062 C 44.339844 47.414062 45.171875 47.847656 45.746094 48.710938 C 46.320312 49.570312 46.609375 50.820312 46.609375 52.460938 C 46.609375 54.097656 46.320312 55.347656 45.746094 56.210938 C 45.171875 57.070312 44.339844 57.5 43.246094 57.5 C 42.160156 57.5 41.328125 57.070312 40.753906 56.210938 C 40.175781 55.347656 39.890625 54.097656 39.890625 52.460938 C 39.890625 50.820312 40.175781 49.570312 40.753906 48.710938 C 41.328125 47.847656 42.160156 47.414062 43.246094 47.414062 Z M 43.246094 47.414062 "/>
<path style=" stroke:none;fill-rule:nonzero;fill:rgb(0%,0%,0%);fill-opacity:1;" d="M 12.441406 102.867188 L 15.988281 105.507812 L 19.730469 102.734375 L 19.730469 104.144531 L 16.867188 106.269531 L 19.730469 108.390625 L 19.730469 109.804688 L 15.917969 106.972656 L 12.441406 109.5625 L 12.441406 108.148438 L 15.039062 106.214844 L 12.441406 104.285156 Z M 12.441406 102.867188 "/>
<path style=" stroke:none;fill-rule:nonzero;fill:rgb(0%,0%,0%);fill-opacity:1;" d="M 18.625 99.738281 L 18.625 95.148438 L 19.730469 95.148438 L 19.730469 101.320312 L 18.625 101.320312 C 18.109375 100.820312 17.414062 100.140625 16.546875 99.28125 C 15.675781 98.417969 15.113281 97.875 14.859375 97.65625 C 14.386719 97.234375 13.988281 96.941406 13.660156 96.773438 C 13.332031 96.605469 13.011719 96.523438 12.695312 96.523438 C 12.175781 96.523438 11.757812 96.703125 11.429688 97.066406 C 11.105469 97.429688 10.941406 97.898438 10.941406 98.480469 C 10.941406 98.894531 11.011719 99.332031 11.15625 99.789062 C 11.300781 100.246094 11.515625 100.734375 11.808594 101.253906 L 10.480469 101.253906 C 10.265625 100.726562 10.105469 100.230469 9.996094 99.773438 C 9.890625 99.3125 9.835938 98.890625 9.835938 98.507812 C 9.835938 97.5 10.085938 96.699219 10.589844 96.097656 C 11.09375 95.5 11.765625 95.199219 12.609375 95.199219 C 13.007812 95.199219 13.386719 95.277344 13.746094 95.425781 C 14.101562 95.574219 14.523438 95.847656 15.011719 96.242188 C 15.136719 96.351562 15.5 96.695312 16.101562 97.277344 C 16.703125 97.859375 17.542969 98.679688 18.625 99.738281 Z M 18.625 99.738281 "/>
<path style="fill:none;stroke-width:1.5;stroke-linecap:square;stroke-linejoin:round;stroke:rgb(100%,49.803922%,5.490196%);stroke-opacity:1;stroke-miterlimit:4;" d="M 57.878906 110.261719 L 85.485352 85.444336 L 106.901367 75.647461 L 125.06543 61.573242 L 138.905273 56.414062 L 146.818359 52.019531 L 156.802734 45.767578 L 164.009766 46.587891 L 172.374023 42.404297 L 176.941406 39.773437 L 180.805664 43.092773 L 183.688477 39.814453 L 190.259766 37.737305 L 192.849609 35.314453 L 193.640625 33.498047 L 195.363281 35.349609 L 197.53125 39.169922 L 193.910156 37.59375 L 195.503906 42.348633 L 196.740234 38.586914 L 197.868164 41.000977 L 200.727539 38.882812 L 203.264648 39.667969 L 202.661133 38.540039 L 203.15918 38.756836 L 206.188477 37.256836 L 210 36.814453 L 213.216797 40.31543 L 213.981445 40.749023 L 213.386719 39.322266 L 213.19043 38.874023 L 215.091797 38.34375 L 216.890625 39.720703 L 214.532227 39.457031 L 214.083984 38.827148 L 215.217773 38.329102 L 213.805664 39.826172 L 212.569336 37.792969 L 215.709961 37.599609 L 213.483398 38.803711 L 214.957031 39.27832 L 215.282227 38.616211 L 216.480469 38.229492 L 214.30957 37.69043 L 212.173828 38.683594 L 211.582031 38.314453 L 212.62793 37.40918 L 211.87207 37.013672 L 213.038086 40.669922 L 213.84668 41.493164 L 214.875 37.702148 " transform="matrix(1.333333,0,0,1.333333,0,0.000000000000014211)"/>
<path style="fill-rule:nonzero;fill:rgb(100%,49.803922%,5.490196%);fill-opacity:1;stroke-width:1;stroke-linecap:butt;stroke-linejoin:round;stroke:rgb(100%,49.803922%,5.490196%);stroke-opacity:1;stroke-miterlimit:4;" d="M 0.000782013 3.000183 C 0.794727 3.000183 1.559376 2.683777 2.121876 2.121277 C 2.684376 1.558777 3.000782 0.797058 3.000782 0.000183105 C 3.000782 -0.796692 2.684376 -1.558411 2.121876 -2.120911 C 1.559376 -2.683411 0.794727 -2.999817 0.000782013 -2.999817 C -0.796093 -2.999817 -1.557812 -2.683411 -2.120312 -2.120911 C -2.682812 -1.558411 -2.999218 -0.796692 -2.999218 0.000183105 C -2.999218 0.797058 -2.682812 1.558777 -2.120312 2.121277 C -1.557812 2.683777 -0.796093 3.000183 0.000782013 3.000183 Z M 0.000782013 3.000183 " transform="matrix(1.333333,0,0,1.333333,77.170832,147.015381)"/>
<path style="fill-rule:nonzero;fill:rgb(100%,49.803922%,5.490196%);fill-opacity:1;stroke-width:1;stroke-linecap:butt;stroke-linejoin:round;stroke:rgb(100%,49.803922%,5.490196%);stroke-opacity:1;stroke-miterlimit:4;" d="M -0.000793457 3.000107 C 0.796082 3.000107 1.5578 2.683701 2.1203 2.121201 C 2.6828 1.558701 2.999207 0.796982 2.999207 0.000106812 C 2.999207 -0.796768 2.6828 -1.558487 2.1203 -2.120987 C 1.5578 -2.683487 0.796082 -2.999893 -0.000793457 -2.999893 C -0.794739 -2.999893 -1.559387 -2.683487 -2.121887 -2.120987 C -2.684387 -1.558487 -3.000793 -0.796768 -3.000793 0.000106812 C -3.000793 0.796982 -2.684387 1.558701 -2.121887 2.121201 C -1.559387 2.683701 -0.794739 3.000107 -0.000793457 3.000107 Z M -0.000793457 3.000107 " transform="matrix(1.333333,0,0,1.333333,113.981527,113.925639)"/>
<path style="fill-rule:nonzero;fill:rgb(100%,49.803922%,5.490196%);fill-opacity:1;stroke-width:1;stroke-linecap:butt;stroke-linejoin:round;stroke:rgb(100%,49.803922%,5.490196%);stroke-opacity:1;stroke-miterlimit:4;" d="M -0.000312805 2.998924 C 0.796562 2.998924 1.558281 2.682518 2.120781 2.120018 C 2.683281 1.557518 2.999687 0.795799 2.999687 -0.00107574 C 2.999687 -0.795021 2.683281 -1.559669 2.120781 -2.122169 C 1.558281 -2.684669 0.796562 -3.001076 -0.000312805 -3.001076 C -0.794258 -3.001076 -1.558907 -2.684669 -2.121407 -2.122169 C -2.683907 -1.559669 -3.000313 -0.795021 -3.000313 -0.00107574 C -3.000313 0.795799 -2.683907 1.557518 -2.121407 2.120018 C -1.558907 2.682518 -0.794258 2.998924 -0.000312805 2.998924 Z M -0.000312805 2.998924 " transform="matrix(1.333333,0,0,1.333333,142.535573,100.864716)"/>
<path style="fill-rule:nonzero;fill:rgb(100%,49.803922%,5.490196%);fill-opacity:1;stroke-width:1;stroke-linecap:butt;stroke-linejoin:round;stroke:rgb(100%,49.803922%,5.490196%);stroke-opacity:1;stroke-miterlimit:4;" d="M -0.000686646 2.999519 C 0.796188 2.999519 1.557907 2.683113 2.120407 2.120613 C 2.682907 1.558113 2.999313 0.796394 2.999313 -0.000480652 C 2.999313 -0.794426 2.682907 -1.559074 2.120407 -2.121574 C 1.557907 -2.684074 0.796188 -3.000481 -0.000686646 -3.000481 C -0.794632 -3.000481 -1.55928 -2.684074 -2.12178 -2.121574 C -2.68428 -1.559074 -3.000687 -0.794426 -3.000687 -0.000480652 C -3.000687 0.796394 -2.68428 1.558113 -2.12178 2.120613 C -1.55928 2.683113 -0.794632 2.999519 -0.000686646 2.999519 Z M -0.000686646 2.999519 " transform="matrix(1.333333,0,0,1.333333,166.754822,82.098297)"/>
<path style="fill-rule:nonzero;fill:rgb(100%,49.803922%,5.490196%);fill-opacity:1;stroke-width:1;stroke-linecap:butt;stroke-linejoin:round;stroke:rgb(100%,49.803922%,5.490196%);stroke-opacity:1;stroke-miterlimit:4;" d="M 0.000900269 2.999973 C 0.794846 2.999973 1.559494 2.683567 2.121994 2.121067 C 2.684494 1.558567 3.0009 0.796848 3.0009 -0.0000267029 C 3.0009 -0.796902 2.684494 -1.55862 2.121994 -2.12112 C 1.559494 -2.68362 0.794846 -3.000027 0.000900269 -3.000027 C -0.795975 -3.000027 -1.557693 -2.68362 -2.120193 -2.12112 C -2.682693 -1.55862 -2.9991 -0.796902 -2.9991 -0.0000267029 C -2.9991 0.796848 -2.682693 1.558567 -2.120193 2.121067 C -1.557693 2.683567 -0.795975 2.999973 0.000900269 2.999973 Z M 0.000900269 2.999973 " transform="matrix(1.333333,0,0,1.333333,185.205831,75.218786)"/>
<path style="fill-rule:nonzero;fill:rgb(100%,49.803922%,5.490196%);fill-opacity:1;stroke-width:1;stroke-linecap:butt;stroke-linejoin:round;stroke:rgb(100%,49.803922%,5.490196%);stroke-opacity:1;stroke-miterlimit:4;" d="M 0.000778198 3.000431 C 0.794724 3.000431 1.559372 2.684025 2.121872 2.121525 C 2.684372 1.559025 3.000778 0.794376 3.000778 0.000431061 C 3.000778 -0.796444 2.684372 -1.558163 2.121872 -2.120663 C 1.559372 -2.683163 0.794724 -2.999569 0.000778198 -2.999569 C -0.796097 -2.999569 -1.557816 -2.683163 -2.120316 -2.120663 C -2.682816 -1.558163 -2.999222 -0.796444 -2.999222 0.000431061 C -2.999222 0.794376 -2.682816 1.559025 -2.120316 2.121525 C -1.557816 2.684025 -0.796097 3.000431 0.000778198 3.000431 Z M 0.000778198 3.000431 " transform="matrix(1.333333,0,0,1.333333,195.756775,69.3588)"/>
<path style="fill-rule:nonzero;fill:rgb(100%,49.803922%,5.490196%);fill-opacity:1;stroke-width:1;stroke-linecap:butt;stroke-linejoin:round;stroke:rgb(100%,49.803922%,5.490196%);stroke-opacity:1;stroke-miterlimit:4;" d="M 0.00132751 2.998566 C 0.795273 2.998566 1.559921 2.685089 2.122421 2.122589 C 2.684921 1.560089 3.001328 0.795441 3.001328 -0.00143433 C 3.001328 -0.79538 2.684921 -1.560028 2.122421 -2.122528 C 1.559921 -2.685028 0.795273 -3.001434 0.00132751 -3.001434 C -0.795547 -3.001434 -1.560196 -2.685028 -2.122696 -2.122528 C -2.685196 -1.560028 -2.998672 -0.79538 -2.998672 -0.00143433 C -2.998672 0.795441 -2.685196 1.560089 -2.122696 2.122589 C -1.560196 2.685089 -0.795547 2.998566 0.00132751 2.998566 Z M 0.00132751 2.998566 " transform="matrix(1.333333,0,0,1.333333,209.068542,61.02535)"/>
<path style="fill-rule:nonzero;fill:rgb(100%,49.803922%,5.490196%);fill-opacity:1;stroke-width:1;stroke-linecap:butt;stroke-linejoin:round;stroke:rgb(100%,49.803922%,5.490196%);stroke-opacity:1;stroke-miterlimit:4;" d="M -0.000320435 2.998688 C 0.796555 2.998688 1.558273 2.685211 2.120773 2.122711 C 2.683273 1.557281 2.99968 0.795563 2.99968 -0.00131226 C 2.99968 -0.795258 2.683273 -1.559906 2.120773 -2.122406 C 1.558273 -2.684906 0.796555 -3.001312 -0.000320435 -3.001312 C -0.794266 -3.001312 -1.558914 -2.684906 -2.121414 -2.122406 C -2.683914 -1.559906 -3.00032 -0.795258 -3.00032 -0.00131226 C -3.00032 0.795563 -2.683914 1.557281 -2.121414 2.122711 C -1.558914 2.685211 -0.794266 2.998688 -0.000320435 2.998688 Z M -0.000320435 2.998688 " transform="matrix(1.333333,0,0,1.333333,218.680115,62.118937)"/>
<path style="fill-rule:nonzero;fill:rgb(100%,49.803922%,5.490196%);fill-opacity:1;stroke-width:1;stroke-linecap:butt;stroke-linejoin:round;stroke:rgb(100%,49.803922%,5.490196%);stroke-opacity:1;stroke-miterlimit:4;" d="M -0.000900269 2.999027 C 0.795975 2.999027 1.557693 2.682621 2.120193 2.120121 C 2.682693 1.557621 2.9991 0.795902 2.9991 -0.000972748 C 2.9991 -0.794918 2.682693 -1.559566 2.120193 -2.122066 C 1.557693 -2.684566 0.795975 -3.000973 -0.000900269 -3.000973 C -0.794846 -3.000973 -1.559494 -2.684566 -2.121994 -2.122066 C -2.684494 -1.559566 -3.0009 -0.794918 -3.0009 -0.000972748 C -3.0009 0.795902 -2.684494 1.557621 -2.121994 2.120121 C -1.559494 2.682621 -0.794846 2.999027 -0.000900269 2.999027 Z M -0.000900269 2.999027 " transform="matrix(1.333333,0,0,1.333333,229.833232,56.540359)"/>
<path style="fill-rule:nonzero;fill:rgb(100%,49.803922%,5.490196%);fill-opacity:1;stroke-width:1;stroke-linecap:butt;stroke-linejoin:round;stroke:rgb(100%,49.803922%,5.490196%);stroke-opacity:1;stroke-miterlimit:4;" d="M 0.000427246 2.999401 C 0.794373 2.999401 1.559021 2.682995 2.121521 2.120495 C 2.684021 1.557995 3.000427 0.796276 3.000427 -0.000598907 C 3.000427 -0.794544 2.684021 -1.559193 2.121521 -2.121693 C 1.559021 -2.684193 0.794373 -3.000599 0.000427246 -3.000599 C -0.796448 -3.000599 -1.558167 -2.684193 -2.120667 -2.121693 C -2.683167 -1.559193 -2.999573 -0.794544 -2.999573 -0.000598907 C -2.999573 0.796276 -2.683167 1.557995 -2.120667 2.120495 C -1.558167 2.682995 -0.796448 2.999401 0.000427246 2.999401 Z M 0.000427246 2.999401 " transform="matrix(1.333333,0,0,1.333333,235.921305,53.032049)"/>
<path style="fill-rule:nonzero;fill:rgb(100%,49.803922%,5.490196%);fill-opacity:1;stroke-width:1;stroke-linecap:butt;stroke-linejoin:round;stroke:rgb(100%,49.803922%,5.490196%);stroke-opacity:1;stroke-miterlimit:4;" d="M 0.000930786 2.999104 C 0.794876 2.999104 1.559525 2.682697 2.122025 2.120197 C 2.684525 1.557697 3.000931 0.795979 3.000931 -0.000896454 C 3.000931 -0.794842 2.684525 -1.55949 2.122025 -2.12199 C 1.559525 -2.68449 0.794876 -3.000896 0.000930786 -3.000896 C -0.795944 -3.000896 -1.557663 -2.68449 -2.120163 -2.12199 C -2.682663 -1.55949 -2.999069 -0.794842 -2.999069 -0.000896454 C -2.999069 0.795979 -2.682663 1.557697 -2.120163 2.120197 C -1.557663 2.682697 -0.795944 2.999104 0.000930786 2.999104 Z M 0.000930786 2.999104 " transform="matrix(1.333333,0,0,1.333333,241.072978,57.458227)"/>
<path style="fill-rule:nonzero;fill:rgb(100%,49.803922%,5.490196%);fill-opacity:1;stroke-width:1;stroke-linecap:butt;stroke-linejoin:round;stroke:rgb(100%,49.803922%,5.490196%);stroke-opacity:1;stroke-miterlimit:4;" d="M -0.000106812 2.999851 C 0.796768 2.999851 1.558487 2.683445 2.120987 2.120945 C 2.683487 1.558445 2.999893 0.796726 2.999893 -0.000148773 C 2.999893 -0.797024 2.683487 -1.558743 2.120987 -2.121243 C 1.558487 -2.683743 0.796768 -3.000149 -0.000106812 -3.000149 C -0.796982 -3.000149 -1.558701 -2.683743 -2.121201 -2.121243 C -2.683701 -1.558743 -3.000107 -0.797024 -3.000107 -0.000148773 C -3.000107 0.796726 -2.683701 1.558445 -2.121201 2.120945 C -1.558701 2.683445 -0.796982 2.999851 -0.000106812 2.999851 Z M -0.000106812 2.999851 " transform="matrix(1.333333,0,0,1.333333,244.918111,53.086136)"/>
<path style="fill-rule:nonzero;fill:rgb(100%,49.803922%,5.490196%);fill-opacity:1;stroke-width:1;stroke-linecap:butt;stroke-linejoin:round;stroke:rgb(100%,49.803922%,5.490196%);stroke-opacity:1;stroke-miterlimit:4;" d="M 0.00115967 3.00016 C 0.795105 3.00016 1.559753 2.683754 2.122253 2.121254 C 2.684753 1.558754 3.00116 0.797035 3.00116 0.000160217 C 3.00116 -0.796715 2.684753 -1.558434 2.122253 -2.120934 C 1.559753 -2.683434 0.795105 -2.99984 0.00115967 -2.99984 C -0.795715 -2.99984 -1.557434 -2.683434 -2.119934 -2.120934 C -2.685364 -1.558434 -2.99884 -0.796715 -2.99884 0.000160217 C -2.99884 0.797035 -2.685364 1.558754 -2.119934 2.121254 C -1.557434 2.683754 -0.795715 3.00016 0.00115967 3.00016 Z M 0.00115967 3.00016 " transform="matrix(1.333333,0,0,1.333333,253.678141,50.316193)"/>
<path style="fill-rule:nonzero;fill:rgb(100%,49.803922%,5.490196%);fill-opacity:1;stroke-width:1;stroke-linecap:butt;stroke-linejoin:round;stroke:rgb(100%,49.803922%,5.490196%);stroke-opacity:1;stroke-miterlimit:4;" d="M 0.000198364 3.00016 C 0.797073 3.00016 1.558792 2.683754 2.121292 2.121254 C 2.683792 1.558754 3.000198 0.797035 3.000198 0.000160217 C 3.000198 -0.796715 2.683792 -1.558434 2.121292 -2.120934 C 1.558792 -2.683434 0.797073 -2.99984 0.000198364 -2.99984 C -0.796677 -2.99984 -1.558395 -2.683434 -2.120895 -2.120934 C -2.683395 -1.558434 -2.999802 -0.796715 -2.999802 0.000160217 C -2.999802 0.797035 -2.683395 1.558754 -2.120895 2.121254 C -1.558395 2.683754 -0.796677 3.00016 0.000198364 3.00016 Z M 0.000198364 3.00016 " transform="matrix(1.333333,0,0,1.333333,257.132548,47.085724)"/>
<path style="fill-rule:nonzero;fill:rgb(100%,49.803922%,5.490196%);fill-opacity:1;stroke-width:1;stroke-linecap:butt;stroke-linejoin:round;stroke:rgb(100%,49.803922%,5.490196%);stroke-opacity:1;stroke-miterlimit:4;" d="M -0.000778198 2.999813 C 0.796097 2.999813 1.557816 2.683407 2.120316 2.120907 C 2.682816 1.558407 2.999222 0.796688 2.999222 -0.00018692 C 2.999222 -0.797062 2.682816 -1.558781 2.120316 -2.121281 C 1.557816 -2.683781 0.796097 -3.000187 -0.000778198 -3.000187 C -0.794724 -3.000187 -1.559372 -2.683781 -2.121872 -2.121281 C -2.684372 -1.558781 -3.000778 -0.797062 -3.000778 -0.00018692 C -3.000778 0.796688 -2.684372 1.558407 -2.121872 2.120907 C -1.559372 2.683407 -0.794724 2.999813 -0.000778198 2.999813 Z M -0.000778198 2.999813 " transform="matrix(1.333333,0,0,1.333333,258.188538,44.664312)"/>
<path style="fill-rule:nonzero;fill:rgb(100%,49.803922%,5.490196%);fill-opacity:1;stroke-width:1;stroke-linecap:butt;stroke-linejoin:round;stroke:rgb(100%,49.803922%,5.490196%);stroke-opacity:1;stroke-miterlimit:4;" d="M 0.000564575 3.000771 C 0.79451 3.000771 1.559158 2.684364 2.121658 2.121864 C 2.684158 1.559364 3.000565 0.794716 3.000565 0.000770569 C 3.000565 -0.796104 2.684158 -1.557823 2.121658 -2.120323 C 1.559158 -2.682823 0.79451 -2.999229 0.000564575 -2.999229 C -0.79631 -2.999229 -1.558029 -2.682823 -2.120529 -2.120323 C -2.683029 -1.557823 -2.999435 -0.796104 -2.999435 0.000770569 C -2.999435 0.794716 -2.683029 1.559364 -2.120529 2.121864 C -1.558029 2.684364 -0.79631 3.000771 0.000564575 3.000771 Z M 0.000564575 3.000771 " transform="matrix(1.333333,0,0,1.333333,260.483622,47.131785)"/>
<path style="fill-rule:nonzero;fill:rgb(100%,49.803922%,5.490196%);fill-opacity:1;stroke-width:1;stroke-linecap:butt;stroke-linejoin:round;stroke:rgb(100%,49.803922%,5.490196%);stroke-opacity:1;stroke-miterlimit:4;" d="M -0.000991821 3.000568 C 0.795883 3.000568 1.557602 2.684162 2.120102 2.121662 C 2.682602 1.559162 2.999008 0.794514 2.999008 0.00056839 C 2.999008 -0.796307 2.682602 -1.558025 2.120102 -2.120525 C 1.557602 -2.683025 0.795883 -2.999432 -0.000991821 -2.999432 C -0.794937 -2.999432 -1.559586 -2.683025 -2.122086 -2.120525 C -2.684586 -1.558025 -3.000992 -0.796307 -3.000992 0.00056839 C -3.000992 0.794514 -2.684586 1.559162 -2.122086 2.121662 C -1.559586 2.684162 -0.794937 3.000568 -0.000991821 3.000568 Z M -0.000991821 3.000568 " transform="matrix(1.333333,0,0,1.333333,263.376322,52.225805)"/>
<path style="fill-rule:nonzero;fill:rgb(100%,49.803922%,5.490196%);fill-opacity:1;stroke-width:1;stroke-linecap:butt;stroke-linejoin:round;stroke:rgb(100%,49.803922%,5.490196%);stroke-opacity:1;stroke-miterlimit:4;" d="M -0.000534058 3.000401 C 0.796341 3.000401 1.55806 2.683994 2.12056 2.121494 C 2.68306 1.558994 2.999466 0.794346 2.999466 0.000400543 C 2.999466 -0.796474 2.68306 -1.558193 2.12056 -2.120693 C 1.55806 -2.683193 0.796341 -2.999599 -0.000534058 -2.999599 C -0.794479 -2.999599 -1.559128 -2.683193 -2.121628 -2.120693 C -2.684128 -1.558193 -3.000534 -0.796474 -3.000534 0.000400543 C -3.000534 0.794346 -2.684128 1.558994 -2.121628 2.121494 C -1.559128 2.683994 -0.794479 3.000401 -0.000534058 3.000401 Z M -0.000534058 3.000401 " transform="matrix(1.333333,0,0,1.333333,258.547587,50.124466)"/>
<path style="fill-rule:nonzero;fill:rgb(100%,49.803922%,5.490196%);fill-opacity:1;stroke-width:1;stroke-linecap:butt;stroke-linejoin:round;stroke:rgb(100%,49.803922%,5.490196%);stroke-opacity:1;stroke-miterlimit:4;" d="M -0.0000152588 2.998993 C 0.79686 2.998993 1.558578 2.682587 2.121078 2.120087 C 2.683578 1.557587 2.999985 0.795868 2.999985 -0.00100708 C 2.999985 -0.794952 2.683578 -1.559601 2.121078 -2.122101 C 1.558578 -2.684601 0.79686 -3.001007 -0.0000152588 -3.001007 C -0.79689 -3.001007 -1.558609 -2.684601 -2.121109 -2.122101 C -2.683609 -1.559601 -3.000015 -0.794952 -3.000015 -0.00100708 C -3.000015 0.795868 -2.683609 1.557587 -2.121109 2.120087 C -1.558609 2.682587 -0.79689 2.998993 -0.0000152588 2.998993 Z M -0.0000152588 2.998993 " transform="matrix(1.333333,0,0,1.333333,260.671895,56.466187)"/>
<path style="fill-rule:nonzero;fill:rgb(100%,49.803922%,5.490196%);fill-opacity:1;stroke-width:1;stroke-linecap:butt;stroke-linejoin:round;stroke:rgb(100%,49.803922%,5.490196%);stroke-opacity:1;stroke-miterlimit:4;" d="M 0.000320435 3.000225 C 0.794266 3.000225 1.558914 2.683819 2.121414 2.121319 C 2.683914 1.558819 3.00032 0.79417 3.00032 0.000225067 C 3.00032 -0.79665 2.683914 -1.558369 2.121414 -2.120869 C 1.558914 -2.683369 0.794266 -2.999775 0.000320435 -2.999775 C -0.796555 -2.999775 -1.558273 -2.683369 -2.120773 -2.120869 C -2.683273 -1.558369 -2.99968 -0.79665 -2.99968 0.000225067 C -2.99968 0.79417 -2.683273 1.558819 -2.120773 2.121319 C -1.558273 2.683819 -0.796555 3.000225 0.000320435 3.000225 Z M 0.000320435 3.000225 " transform="matrix(1.333333,0,0,1.333333,262.319885,51.448919)"/>
<path style="fill-rule:nonzero;fill:rgb(100%,49.803922%,5.490196%);fill-opacity:1;stroke-width:1;stroke-linecap:butt;stroke-linejoin:round;stroke:rgb(100%,49.803922%,5.490196%);stroke-opacity:1;stroke-miterlimit:4;" d="M 0.00146484 3.000992 C 0.79541 3.000992 1.560059 2.684586 2.122559 2.122086 C 2.685059 1.559586 3.001465 0.794937 3.001465 0.000991821 C 3.001465 -0.795883 2.685059 -1.557602 2.122559 -2.120102 C 1.560059 -2.682602 0.79541 -2.999008 0.00146484 -2.999008 C -0.79541 -2.999008 -1.560059 -2.682602 -2.122559 -2.120102 C -2.685059 -1.557602 -2.998535 -0.795883 -2.998535 0.000991821 C -2.998535 0.794937 -2.685059 1.559586 -2.122559 2.122086 C -1.560059 2.684586 -0.79541 3.000992 0.00146484 3.000992 Z M 0.00146484 3.000992 " transform="matrix(1.333333,0,0,1.333333,263.826172,54.666646)"/>
<path style="fill-rule:nonzero;fill:rgb(100%,49.803922%,5.490196%);fill-opacity:1;stroke-width:1;stroke-linecap:butt;stroke-linejoin:round;stroke:rgb(100%,49.803922%,5.490196%);stroke-opacity:1;stroke-miterlimit:4;" d="M -0.00132751 3.001099 C 0.795547 3.001099 1.560196 2.684692 2.122696 2.122192 C 2.685196 1.559692 2.998672 0.795044 2.998672 0.00109863 C 2.998672 -0.795776 2.685196 -1.557495 2.122696 -2.119995 C 1.560196 -2.682495 0.795547 -2.998901 -0.00132751 -2.998901 C -0.795273 -2.998901 -1.559921 -2.682495 -2.122421 -2.119995 C -2.684921 -1.557495 -3.001328 -0.795776 -3.001328 0.00109863 C -3.001328 0.795044 -2.684921 1.559692 -2.122421 2.122192 C -1.559921 2.684692 -0.795273 3.001099 -0.00132751 3.001099 Z M -0.00132751 3.001099 " transform="matrix(1.333333,0,0,1.333333,267.638489,51.842285)"/>
<path style="fill-rule:nonzero;fill:rgb(100%,49.803922%,5.490196%);fill-opacity:1;stroke-width:1;stroke-linecap:butt;stroke-linejoin:round;stroke:rgb(100%,49.803922%,5.490196%);stroke-opacity:1;stroke-miterlimit:4;" d="M 0.000137329 2.99963 C 0.797012 2.99963 1.558731 2.683224 2.121231 2.120724 C 2.683731 1.558224 3.000137 0.796505 3.000137 -0.000370026 C 3.000137 -0.794315 2.683731 -1.558964 2.121231 -2.121464 C 1.558731 -2.683964 0.797012 -3.00037 0.000137329 -3.00037 C -0.796738 -3.00037 -1.558456 -2.683964 -2.120956 -2.121464 C -2.683456 -1.558964 -2.999863 -0.794315 -2.999863 -0.000370026 C -2.999863 0.796505 -2.683456 1.558224 -2.120956 2.120724 C -1.558456 2.683224 -0.796738 2.99963 0.000137329 2.99963 Z M 0.000137329 2.99963 " transform="matrix(1.333333,0,0,1.333333,271.019348,52.891118)"/>
<path style="fill-rule:nonzero;fill:rgb(100%,49.803922%,5.490196%);fill-opacity:1;stroke-width:1;stroke-linecap:butt;stroke-linejoin:round;stroke:rgb(100%,49.803922%,5.490196%);stroke-opacity:1;stroke-miterlimit:4;" d="M -0.00117493 3.001171 C 0.7957 3.001171 1.557419 2.684765 2.119919 2.122265 C 2.685349 1.559765 2.998825 0.795116 2.998825 0.00117111 C 2.998825 -0.795704 2.685349 -1.557423 2.119919 -2.119923 C 1.557419 -2.685352 0.7957 -2.998829 -0.00117493 -2.998829 C -0.79512 -2.998829 -1.559769 -2.685352 -2.122269 -2.119923 C -2.684769 -1.557423 -3.001175 -0.795704 -3.001175 0.00117111 C -3.001175 0.795116 -2.684769 1.559765 -2.122269 2.122265 C -1.559769 2.684765 -0.79512 3.001171 -0.00117493 3.001171 Z M -0.00117493 3.001171 " transform="matrix(1.333333,0,0,1.333333,270.21641,51.385157)"/>
<path style="fill-rule:nonzero;fill:rgb(100%,49.803922%,5.490196%);fill-opacity:1;stroke-width:1;stroke-linecap:butt;stroke-linejoin:round;stroke:rgb(100%,49.803922%,5.490196%);stroke-opacity:1;stroke-miterlimit:4;" d="M -0.00144958 2.999096 C 0.795425 2.999096 1.560074 2.68269 2.122574 2.12019 C 2.685074 1.55769 2.99855 0.795971 2.99855 -0.000904083 C 2.99855 -0.794849 2.685074 -1.559498 2.122574 -2.121998 C 1.560074 -2.684498 0.795425 -3.000904 -0.00144958 -3.000904 C -0.795395 -3.000904 -1.560043 -2.684498 -2.122543 -2.121998 C -2.685043 -1.559498 -3.00145 -0.794849 -3.00145 -0.000904083 C -3.00145 0.795971 -2.685043 1.55769 -2.122543 2.12019 C -1.560043 2.68269 -0.795395 2.999096 -0.00144958 2.999096 Z M -0.00144958 2.999096 " transform="matrix(1.333333,0,0,1.333333,270.880839,51.676987)"/>
<path style="fill-rule:nonzero;fill:rgb(100%,49.803922%,5.490196%);fill-opacity:1;stroke-width:1;stroke-linecap:butt;stroke-linejoin:round;stroke:rgb(100%,49.803922%,5.490196%);stroke-opacity:1;stroke-miterlimit:4;" d="M 0.00140381 3.000977 C 0.795349 3.000977 1.559998 2.68457 2.122498 2.12207 C 2.684998 1.55957 3.001404 0.794922 3.001404 0.000976562 C 3.001404 -0.795898 2.684998 -1.557617 2.122498 -2.120117 C 1.559998 -2.682617 0.795349 -2.999023 0.00140381 -2.999023 C -0.795471 -2.999023 -1.56012 -2.682617 -2.12262 -2.120117 C -2.68512 -1.557617 -2.998596 -0.795898 -2.998596 0.000976562 C -2.998596 0.794922 -2.68512 1.55957 -2.12262 2.12207 C -1.56012 2.68457 -0.795471 3.000977 0.00140381 3.000977 Z M 0.00140381 3.000977 " transform="matrix(1.333333,0,0,1.333333,274.916097,49.674479)"/>
<path style="fill-rule:nonzero;fill:rgb(100%,49.803922%,5.490196%);fill-opacity:1;stroke-width:1;stroke-linecap:butt;stroke-linejoin:round;stroke:rgb(100%,49.803922%,5.490196%);stroke-opacity:1;stroke-miterlimit:4;" d="M -0.000640869 2.999969 C 0.796234 2.999969 1.557953 2.683563 2.120453 2.121063 C 2.682953 1.558563 2.999359 0.796844 2.999359 -0.0000305176 C 2.999359 -0.796906 2.682953 -1.558624 2.120453 -2.121124 C 1.557953 -2.683624 0.796234 -3.000031 -0.000640869 -3.000031 C -0.794586 -3.000031 -1.559235 -2.683624 -2.121735 -2.121124 C -2.684235 -1.558624 -3.000641 -0.796906 -3.000641 -0.0000305176 C -3.000641 0.796844 -2.684235 1.558563 -2.121735 2.121063 C -1.559235 2.683563 -0.794586 2.999969 -0.000640869 2.999969 Z M -0.000640869 2.999969 " transform="matrix(1.333333,0,0,1.333333,280.000854,49.085978)"/>
<path style="fill-rule:nonzero;fill:rgb(100%,49.803922%,5.490196%);fill-opacity:1;stroke-width:1;stroke-linecap:butt;stroke-linejoin:round;stroke:rgb(100%,49.803922%,5.490196%);stroke-opacity:1;stroke-miterlimit:4;" d="M 0.000762939 3.000202 C 0.794708 3.000202 1.559357 2.683796 2.121857 2.121296 C 2.684357 1.558796 3.000763 0.794147 3.000763 0.000202179 C 3.000763 -0.796673 2.684357 -1.558392 2.121857 -2.120892 C 1.559357 -2.683392 0.794708 -2.999798 0.000762939 -2.999798 C -0.796112 -2.999798 -1.557831 -2.683392 -2.120331 -2.120892 C -2.682831 -1.558392 -2.999237 -0.796673 -2.999237 0.000202179 C -2.999237 0.794147 -2.682831 1.558796 -2.120331 2.121296 C -1.557831 2.683796 -0.796112 3.000202 0.000762939 3.000202 Z M 0.000762939 3.000202 " transform="matrix(1.333333,0,0,1.333333,284.288045,53.753637)"/>
<path style="fill-rule:nonzero;fill:rgb(100%,49.803922%,5.490196%);fill-opacity:1;stroke-width:1;stroke-linecap:butt;stroke-linejoin:round;stroke:rgb(100%,49.803922%,5.490196%);stroke-opacity:1;stroke-miterlimit:4;" d="M -0.0000457764 3.000172 C 0.796829 3.000172 1.558548 2.683765 2.121048 2.121265 C 2.683548 1.558765 2.999954 0.797047 2.999954 0.000171661 C 2.999954 -0.796703 2.683548 -1.558422 2.121048 -2.120922 C 1.558548 -2.683422 0.796829 -2.999828 -0.0000457764 -2.999828 C -0.796921 -2.999828 -1.55864 -2.683422 -2.12114 -2.120922 C -2.68364 -1.558422 -3.000046 -0.796703 -3.000046 0.000171661 C -3.000046 0.797047 -2.68364 1.558765 -2.12114 2.121265 C -1.55864 2.683765 -0.796921 3.000172 -0.0000457764 3.000172 Z M -0.0000457764 3.000172 " transform="matrix(1.333333,0,0,1.333333,285.308655,54.331802)"/>
<path style="fill-rule:nonzero;fill:rgb(100%,49.803922%,5.490196%);fill-opacity:1;stroke-width:1;stroke-linecap:butt;stroke-linejoin:round;stroke:rgb(100%,49.803922%,5.490196%);stroke-opacity:1;stroke-miterlimit:4;" d="M 0.001297 3.001446 C 0.795242 3.001446 1.559891 2.68504 2.122391 2.12254 C 2.684891 1.56004 3.001297 0.795391 3.001297 0.00144577 C 3.001297 -0.795429 2.684891 -1.560078 2.122391 -2.122578 C 1.559891 -2.685078 0.795242 -2.998554 0.001297 -2.998554 C -0.795578 -2.998554 -1.557297 -2.685078 -2.122726 -2.122578 C -2.685226 -1.560078 -2.998703 -0.795429 -2.998703 0.00144577 C -2.998703 0.795391 -2.685226 1.56004 -2.122726 2.12254 C -1.557297 2.68504 -0.795578 3.001446 0.001297 3.001446 Z M 0.001297 3.001446 " transform="matrix(1.333333,0,0,1.333333,284.513896,52.42776)"/>
<path style="fill-rule:nonzero;fill:rgb(100%,49.803922%,5.490196%);fill-opacity:1;stroke-width:1;stroke-linecap:butt;stroke-linejoin:round;stroke:rgb(100%,49.803922%,5.490196%);stroke-opacity:1;stroke-miterlimit:4;" d="M 0.000717163 2.998787 C 0.794662 2.998787 1.559311 2.68531 2.121811 2.119881 C 2.684311 1.557381 3.000717 0.795662 3.000717 -0.00121307 C 3.000717 -0.795158 2.684311 -1.559807 2.121811 -2.122307 C 1.559311 -2.684807 0.794662 -3.001213 0.000717163 -3.001213 C -0.796158 -3.001213 -1.557877 -2.684807 -2.120377 -2.122307 C -2.682877 -1.559807 -2.999283 -0.795158 -2.999283 -0.00121307 C -2.999283 0.795662 -2.682877 1.557381 -2.120377 2.119881 C -1.557877 2.68531 -0.796158 2.998787 0.000717163 2.998787 Z M 0.000717163 2.998787 " transform="matrix(1.333333,0,0,1.333333,284.25295,51.833649)"/>
<path style="fill-rule:nonzero;fill:rgb(100%,49.803922%,5.490196%);fill-opacity:1;stroke-width:1;stroke-linecap:butt;stroke-linejoin:round;stroke:rgb(100%,49.803922%,5.490196%);stroke-opacity:1;stroke-miterlimit:4;" d="M 0.000106812 3.000053 C 0.796982 3.000053 1.558701 2.683647 2.121201 2.121147 C 2.683701 1.558647 3.000107 0.796928 3.000107 0.0000534058 C 3.000107 -0.796822 2.683701 -1.55854 2.121201 -2.12104 C 1.558701 -2.68354 0.796982 -2.999947 0.000106812 -2.999947 C -0.796768 -2.999947 -1.558487 -2.68354 -2.120987 -2.12104 C -2.683487 -1.55854 -2.999893 -0.796822 -2.999893 0.0000534058 C -2.999893 0.796928 -2.683487 1.558647 -2.120987 2.121147 C -1.558487 2.683647 -0.796768 3.000053 0.000106812 3.000053 Z M 0.000106812 3.000053 " transform="matrix(1.333333,0,0,1.333333,286.78892,51.124929)"/>
<path style="fill-rule:nonzero;fill:rgb(100%,49.803922%,5.490196%);fill-opacity:1;stroke-width:1;stroke-linecap:butt;stroke-linejoin:round;stroke:rgb(100%,49.803922%,5.490196%);stroke-opacity:1;stroke-miterlimit:4;" d="M -0.00144958 3.000656 C 0.795425 3.000656 1.560074 2.68425 2.122574 2.12175 C 2.685074 1.55925 2.99855 0.794601 2.99855 0.000656128 C 2.99855 -0.796219 2.685074 -1.557938 2.122574 -2.120438 C 1.560074 -2.682938 0.795425 -2.999344 -0.00144958 -2.999344 C -0.795395 -2.999344 -1.560043 -2.682938 -2.122543 -2.120438 C -2.685043 -1.557938 -3.00145 -0.796219 -3.00145 0.000656128 C -3.00145 0.794601 -2.685043 1.55925 -2.122543 2.12175 C -1.560043 2.68425 -0.795395 3.000656 -0.00144958 3.000656 Z M -0.00144958 3.000656 " transform="matrix(1.333333,0,0,1.333333,289.189433,52.960063)"/>
<path style="fill-rule:nonzero;fill:rgb(100%,49.803922%,5.490196%);fill-opacity:1;stroke-width:1;stroke-linecap:butt;stroke-linejoin:round;stroke:rgb(100%,49.803922%,5.490196%);stroke-opacity:1;stroke-miterlimit:4;" d="M 0.00012207 2.999313 C 0.796997 2.999313 1.558716 2.682907 2.121216 2.120407 C 2.683716 1.557907 3.000122 0.796188 3.000122 -0.000686646 C 3.000122 -0.794632 2.683716 -1.55928 2.121216 -2.12178 C 1.558716 -2.68428 0.796997 -3.000687 0.00012207 -3.000687 C -0.796753 -3.000687 -1.558472 -2.68428 -2.120972 -2.12178 C -2.683472 -1.55928 -2.999878 -0.794632 -2.999878 -0.000686646 C -2.999878 0.796188 -2.683472 1.557907 -2.120972 2.120407 C -1.558472 2.682907 -0.796753 2.999313 0.00012207 2.999313 Z M 0.00012207 2.999313 " transform="matrix(1.333333,0,0,1.333333,286.042806,52.610291)"/>
<path style="fill-rule:nonzero;fill:rgb(100%,49.803922%,5.490196%);fill-opacity:1;stroke-width:1;stroke-linecap:butt;stroke-linejoin:round;stroke:rgb(100%,49.803922%,5.490196%);stroke-opacity:1;stroke-miterlimit:4;" d="M -0.000900269 2.998665 C 0.795975 2.998665 1.557693 2.685188 2.120193 2.122688 C 2.682693 1.560188 2.9991 0.79554 2.9991 -0.00133514 C 2.9991 -0.79528 2.682693 -1.559929 2.120193 -2.122429 C 1.557693 -2.684929 0.795975 -3.001335 -0.000900269 -3.001335 C -0.794846 -3.001335 -1.559494 -2.684929 -2.121994 -2.122429 C -2.684494 -1.559929 -3.0009 -0.79528 -3.0009 -0.00133514 C -3.0009 0.79554 -2.684494 1.560188 -2.121994 2.122688 C -1.559494 2.685188 -0.794846 2.998665 -0.000900269 2.998665 Z M -0.000900269 2.998665 " transform="matrix(1.333333,0,0,1.333333,285.446513,51.771311)"/>
<path style="fill-rule:nonzero;fill:rgb(100%,49.803922%,5.490196%);fill-opacity:1;stroke-width:1;stroke-linecap:butt;stroke-linejoin:round;stroke:rgb(100%,49.803922%,5.490196%);stroke-opacity:1;stroke-miterlimit:4;" d="M 0.000976562 3.001091 C 0.794922 3.001091 1.55957 2.684685 2.12207 2.122185 C 2.68457 1.559685 3.000977 0.795036 3.000977 0.001091 C 3.000977 -0.795784 2.68457 -1.557503 2.12207 -2.120003 C 1.55957 -2.682503 0.794922 -2.998909 0.000976562 -2.998909 C -0.795898 -2.998909 -1.557617 -2.682503 -2.120117 -2.120003 C -2.682617 -1.557503 -2.999023 -0.795784 -2.999023 0.001091 C -2.999023 0.795036 -2.682617 1.559685 -2.120117 2.122185 C -1.557617 2.684685 -0.795898 3.001091 0.000976562 3.001091 Z M 0.000976562 3.001091 " transform="matrix(1.333333,0,0,1.333333,286.955729,51.104014)"/>
<path style="fill-rule:nonzero;fill:rgb(100%,49.803922%,5.490196%);fill-opacity:1;stroke-width:1;stroke-linecap:butt;stroke-linejoin:round;stroke:rgb(100%,49.803922%,5.490196%);stroke-opacity:1;stroke-miterlimit:4;" d="M 0.00135803 2.9991 C 0.795303 2.9991 1.559952 2.682693 2.122452 2.120193 C 2.684952 1.557693 3.001358 0.795975 3.001358 -0.000900269 C 3.001358 -0.794846 2.684952 -1.559494 2.122452 -2.121994 C 1.559952 -2.684494 0.795303 -3.0009 0.00135803 -3.0009 C -0.795517 -3.0009 -1.560165 -2.684494 -2.122665 -2.121994 C -2.685165 -1.559494 -2.998642 -0.794846 -2.998642 -0.000900269 C -2.998642 0.795975 -2.685165 1.557693 -2.122665 2.120193 C -1.560165 2.682693 -0.795517 2.9991 0.00135803 2.9991 Z M 0.00135803 2.9991 " transform="matrix(1.333333,0,0,1.333333,285.072408,53.102763)"/>
<path style="fill-rule:nonzero;fill:rgb(100%,49.803922%,5.490196%);fill-opacity:1;stroke-width:1;stroke-linecap:butt;stroke-linejoin:round;stroke:rgb(100%,49.803922%,5.490196%);stroke-opacity:1;stroke-miterlimit:4;" d="M 0.000335693 2.999741 C 0.794281 2.999741 1.558929 2.683334 2.121429 2.120834 C 2.683929 1.558334 3.000336 0.796616 3.000336 -0.000259399 C 3.000336 -0.794205 2.683929 -1.558853 2.121429 -2.121353 C 1.558929 -2.683853 0.794281 -3.000259 0.000335693 -3.000259 C -0.796539 -3.000259 -1.558258 -2.683853 -2.120758 -2.121353 C -2.683258 -1.558853 -2.999664 -0.794205 -2.999664 -0.000259399 C -2.999664 0.796616 -2.683258 1.558334 -2.120758 2.120834 C -1.558258 2.683334 -0.796539 2.999741 0.000335693 2.999741 Z M 0.000335693 2.999741 " transform="matrix(1.333333,0,0,1.333333,283.425334,50.390971)"/>
<path style="fill-rule:nonzero;fill:rgb(100%,49.803922%,5.490196%);fill-opacity:1;stroke-width:1;stroke-linecap:butt;stroke-linejoin:round;stroke:rgb(100%,49.803922%,5.490196%);stroke-opacity:1;stroke-miterlimit:4;" d="M -0.00125122 3.001183 C 0.795624 3.001183 1.557343 2.684776 2.122772 2.122276 C 2.685272 1.559776 2.998749 0.795128 2.998749 0.00118256 C 2.998749 -0.795692 2.685272 -1.557411 2.122772 -2.119911 C 1.557343 -2.685341 0.795624 -2.998817 -0.00125122 -2.998817 C -0.795197 -2.998817 -1.559845 -2.685341 -2.122345 -2.119911 C -2.684845 -1.557411 -3.001251 -0.795692 -3.001251 0.00118256 C -3.001251 0.795128 -2.684845 1.559776 -2.122345 2.122276 C -1.559845 2.684776 -0.795197 3.001183 -0.00125122 3.001183 Z M -0.00125122 3.001183 " transform="matrix(1.333333,0,0,1.333333,287.61495,50.131236)"/>
<path style="fill-rule:nonzero;fill:rgb(100%,49.803922%,5.490196%);fill-opacity:1;stroke-width:1;stroke-linecap:butt;stroke-linejoin:round;stroke:rgb(100%,49.803922%,5.490196%);stroke-opacity:1;stroke-miterlimit:4;" d="M 0.001297 3.000309 C 0.795242 3.000309 1.559891 2.683903 2.122391 2.121403 C 2.684891 1.558903 3.001297 0.794254 3.001297 0.00030899 C 3.001297 -0.796566 2.684891 -1.558285 2.122391 -2.120785 C 1.559891 -2.683285 0.795242 -2.999691 0.001297 -2.999691 C -0.795578 -2.999691 -1.557297 -2.683285 -2.122726 -2.120785 C -2.685226 -1.558285 -2.998703 -0.796566 -2.998703 0.00030899 C -2.998703 0.794254 -2.685226 1.558903 -2.122726 2.121403 C -1.557297 2.683903 -0.795578 3.000309 0.001297 3.000309 Z M 0.001297 3.000309 " transform="matrix(1.333333,0,0,1.333333,284.642802,51.737869)"/>
<path style="fill-rule:nonzero;fill:rgb(100%,49.803922%,5.490196%);fill-opacity:1;stroke-width:1;stroke-linecap:butt;stroke-linejoin:round;stroke:rgb(100%,49.803922%,5.490196%);stroke-opacity:1;stroke-miterlimit:4;" d="M -0.000518799 2.999413 C 0.796356 2.999413 1.558075 2.683006 2.120575 2.120506 C 2.683075 1.558006 2.999481 0.796288 2.999481 -0.000587463 C 2.999481 -0.794533 2.683075 -1.559181 2.120575 -2.121681 C 1.558075 -2.684181 0.796356 -3.000587 -0.000518799 -3.000587 C -0.794464 -3.000587 -1.559113 -2.684181 -2.121613 -2.121681 C -2.684113 -1.559181 -3.000519 -0.794533 -3.000519 -0.000587463 C -3.000519 0.796288 -2.684113 1.558006 -2.121613 2.120506 C -1.559113 2.683006 -0.794464 2.999413 -0.000518799 2.999413 Z M -0.000518799 2.999413 " transform="matrix(1.333333,0,0,1.333333,286.610067,52.371877)"/>
<path style="fill-rule:nonzero;fill:rgb(100%,49.803922%,5.490196%);fill-opacity:1;stroke-width:1;stroke-linecap:butt;stroke-linejoin:round;stroke:rgb(100%,49.803922%,5.490196%);stroke-opacity:1;stroke-miterlimit:4;" d="M -0.000793457 3.001125 C 0.796082 3.001125 1.5578 2.684719 2.1203 2.122219 C 2.6828 1.559719 2.999207 0.795071 2.999207 0.00112534 C 2.999207 -0.79575 2.6828 -1.557468 2.1203 -2.119968 C 1.5578 -2.682468 0.796082 -2.998875 -0.000793457 -2.998875 C -0.794739 -2.998875 -1.559387 -2.682468 -2.121887 -2.119968 C -2.684387 -1.557468 -3.000793 -0.79575 -3.000793 0.00112534 C -3.000793 0.795071 -2.684387 1.559719 -2.121887 2.122219 C -1.559387 2.684719 -0.794739 3.001125 -0.000793457 3.001125 Z M -0.000793457 3.001125 " transform="matrix(1.333333,0,0,1.333333,287.044027,51.486781)"/>
<path style="fill-rule:nonzero;fill:rgb(100%,49.803922%,5.490196%);fill-opacity:1;stroke-width:1;stroke-linecap:butt;stroke-linejoin:round;stroke:rgb(100%,49.803922%,5.490196%);stroke-opacity:1;stroke-miterlimit:4;" d="M 0.00141907 3.00095 C 0.795364 3.00095 1.560013 2.684544 2.122513 2.122044 C 2.685013 1.559544 3.001419 0.794895 3.001419 0.00094986 C 3.001419 -0.795925 2.685013 -1.557644 2.122513 -2.120144 C 1.560013 -2.682644 0.795364 -2.99905 0.00141907 -2.99905 C -0.795456 -2.99905 -1.560104 -2.682644 -2.122604 -2.120144 C -2.685104 -1.557644 -2.998581 -0.795925 -2.998581 0.00094986 C -2.998581 0.794895 -2.685104 1.559544 -2.122604 2.122044 C -1.560104 2.684544 -0.795456 3.00095 0.00141907 3.00095 Z M 0.00141907 3.00095 " transform="matrix(1.333333,0,0,1.333333,288.638733,50.97139)"/>
<path style="fill-rule:nonzero;fill:rgb(100%,49.803922%,5.490196%);fill-opacity:1;stroke-width:1;stroke-linecap:butt;stroke-linejoin:round;stroke:rgb(100%,49.803922%,5.490196%);stroke-opacity:1;stroke-miterlimit:4;" d="M -0.000595093 3.000786 C 0.79628 3.000786 1.557999 2.68438 2.120499 2.12188 C 2.682999 1.55938 2.999405 0.794731 2.999405 0.000785828 C 2.999405 -0.796089 2.682999 -1.557808 2.120499 -2.120308 C 1.557999 -2.682808 0.79628 -2.999214 -0.000595093 -2.999214 C -0.79454 -2.999214 -1.559189 -2.682808 -2.121689 -2.120308 C -2.684189 -1.557808 -3.000595 -0.796089 -3.000595 0.000785828 C -3.000595 0.794731 -2.684189 1.55938 -2.121689 2.12188 C -1.559189 2.68438 -0.79454 3.000786 -0.000595093 3.000786 Z M -0.000595093 3.000786 " transform="matrix(1.333333,0,0,1.333333,285.746887,50.252858)"/>
<path style="fill-rule:nonzero;fill:rgb(100%,49.803922%,5.490196%);fill-opacity:1;stroke-width:1;stroke-linecap:butt;stroke-linejoin:round;stroke:rgb(100%,49.803922%,5.490196%);stroke-opacity:1;stroke-miterlimit:4;" d="M 0.00100708 3.000408 C 0.794952 3.000408 1.559601 2.684002 2.122101 2.121502 C 2.684601 1.559002 3.001007 0.794353 3.001007 0.000408173 C 3.001007 -0.796467 2.684601 -1.558186 2.122101 -2.120686 C 1.559601 -2.683186 0.794952 -2.999592 0.00100708 -2.999592 C -0.795868 -2.999592 -1.557587 -2.683186 -2.120087 -2.120686 C -2.682587 -1.558186 -2.998993 -0.796467 -2.998993 0.000408173 C -2.998993 0.794353 -2.682587 1.559002 -2.120087 2.121502 C -1.557587 2.684002 -0.795868 3.000408 0.00100708 3.000408 Z M 0.00100708 3.000408 " transform="matrix(1.333333,0,0,1.333333,282.897095,51.577581)"/>
<path style="fill-rule:nonzero;fill:rgb(100%,49.803922%,5.490196%);fill-opacity:1;stroke-width:1;stroke-linecap:butt;stroke-linejoin:round;stroke:rgb(100%,49.803922%,5.490196%);stroke-opacity:1;stroke-miterlimit:4;" d="M -0.00109863 2.999271 C 0.795776 2.999271 1.557495 2.682865 2.119995 2.120365 C 2.682495 1.557865 2.998901 0.796146 2.998901 -0.000728607 C 2.998901 -0.794674 2.682495 -1.559322 2.119995 -2.121822 C 1.557495 -2.684322 0.795776 -3.000729 -0.00109863 -3.000729 C -0.795044 -3.000729 -1.559692 -2.684322 -2.122192 -2.121822 C -2.684692 -1.559322 -3.001099 -0.794674 -3.001099 -0.000728607 C -3.001099 0.796146 -2.684692 1.557865 -2.122192 2.120365 C -1.559692 2.682865 -0.795044 2.999271 -0.00109863 2.999271 Z M -0.00109863 2.999271 " transform="matrix(1.333333,0,0,1.333333,282.11084,51.086909)"/>
<path style="fill-rule:nonzero;fill:rgb(100%,49.803922%,5.490196%);fill-opacity:1;stroke-width:1;stroke-linecap:butt;stroke-linejoin:round;stroke:rgb(100%,49.803922%,5.490196%);stroke-opacity:1;stroke-miterlimit:4;" d="M -0.000183105 3.000072 C 0.796692 3.000072 1.558411 2.683666 2.120911 2.121166 C 2.683411 1.558666 2.999817 0.796947 2.999817 0.0000724792 C 2.999817 -0.796803 2.683411 -1.558521 2.120911 -2.121021 C 1.558411 -2.683521 0.796692 -2.999928 -0.000183105 -2.999928 C -0.797058 -2.999928 -1.558777 -2.683521 -2.121277 -2.121021 C -2.683777 -1.558521 -3.000183 -0.796803 -3.000183 0.0000724792 C -3.000183 0.796947 -2.683777 1.558666 -2.121277 2.121166 C -1.558777 2.683666 -0.797058 3.000072 -0.000183105 3.000072 Z M -0.000183105 3.000072 " transform="matrix(1.333333,0,0,1.333333,283.50415,49.87881)"/>
<path style="fill-rule:nonzero;fill:rgb(100%,49.803922%,5.490196%);fill-opacity:1;stroke-width:1;stroke-linecap:butt;stroke-linejoin:round;stroke:rgb(100%,49.803922%,5.490196%);stroke-opacity:1;stroke-miterlimit:4;" d="M 0.000991821 2.999691 C 0.794937 2.999691 1.559586 2.683285 2.122086 2.120785 C 2.684586 1.558285 3.000992 0.796566 3.000992 -0.00030899 C 3.000992 -0.794254 2.684586 -1.558903 2.122086 -2.121403 C 1.559586 -2.683903 0.794937 -3.000309 0.000991821 -3.000309 C -0.795883 -3.000309 -1.557602 -2.683903 -2.120102 -2.121403 C -2.682602 -1.558903 -2.999008 -0.794254 -2.999008 -0.00030899 C -2.999008 0.796566 -2.682602 1.558285 -2.120102 2.120785 C -1.557602 2.683285 -0.795883 2.999691 0.000991821 2.999691 Z M 0.000991821 2.999691 " transform="matrix(1.333333,0,0,1.333333,282.494771,49.351974)"/>
<path style="fill-rule:nonzero;fill:rgb(100%,49.803922%,5.490196%);fill-opacity:1;stroke-width:1;stroke-linecap:butt;stroke-linejoin:round;stroke:rgb(100%,49.803922%,5.490196%);stroke-opacity:1;stroke-miterlimit:4;" d="M -0.000213623 3.000607 C 0.796661 3.000607 1.55838 2.6842 2.12088 2.1217 C 2.68338 1.5592 2.999786 0.794552 2.999786 0.000606537 C 2.999786 -0.796268 2.68338 -1.557987 2.12088 -2.120487 C 1.55838 -2.682987 0.796661 -2.999393 -0.000213623 -2.999393 C -0.794159 -2.999393 -1.558807 -2.682987 -2.121307 -2.120487 C -2.683807 -1.557987 -3.000214 -0.796268 -3.000214 0.000606537 C -3.000214 0.794552 -2.683807 1.5592 -2.121307 2.1217 C -1.558807 2.6842 -0.794159 3.000607 -0.000213623 3.000607 Z M -0.000213623 3.000607 " transform="matrix(1.333333,0,0,1.333333,284.051066,54.225754)"/>
<path style="fill-rule:nonzero;fill:rgb(100%,49.803922%,5.490196%);fill-opacity:1;stroke-width:1;stroke-linecap:butt;stroke-linejoin:round;stroke:rgb(100%,49.803922%,5.490196%);stroke-opacity:1;stroke-miterlimit:4;" d="M 0.00050354 2.998936 C 0.794449 2.998936 1.559097 2.682529 2.121597 2.120029 C 2.684097 1.557529 3.000504 0.795811 3.000504 -0.0010643 C 3.000504 -0.79501 2.684097 -1.559658 2.121597 -2.122158 C 1.559097 -2.684658 0.794449 -3.001064 0.00050354 -3.001064 C -0.796371 -3.001064 -1.55809 -2.684658 -2.12059 -2.122158 C -2.68309 -1.559658 -2.999496 -0.79501 -2.999496 -0.0010643 C -2.999496 0.795811 -2.68309 1.557529 -2.12059 2.120029 C -1.55809 2.682529 -0.796371 2.998936 0.00050354 2.998936 Z M 0.00050354 2.998936 " transform="matrix(1.333333,0,0,1.333333,285.128235,55.325638)"/>
<path style="fill-rule:nonzero;fill:rgb(100%,49.803922%,5.490196%);fill-opacity:1;stroke-width:1;stroke-linecap:butt;stroke-linejoin:round;stroke:rgb(100%,49.803922%,5.490196%);stroke-opacity:1;stroke-miterlimit:4;" d="M -0.000946045 2.99905 C 0.795929 2.99905 1.557648 2.682644 2.120148 2.120144 C 2.682648 1.557644 2.999054 0.795925 2.999054 -0.00094986 C 2.999054 -0.794895 2.682648 -1.559544 2.120148 -2.122044 C 1.557648 -2.684544 0.795929 -3.00095 -0.000946045 -3.00095 C -0.794891 -3.00095 -1.55954 -2.684544 -2.12204 -2.122044 C -2.68454 -1.559544 -3.000946 -0.794895 -3.000946 -0.00094986 C -3.000946 0.795925 -2.68454 1.557644 -2.12204 2.120144 C -1.55954 2.682644 -0.794891 2.99905 -0.000946045 2.99905 Z M -0.000946045 2.99905 " transform="matrix(1.333333,0,0,1.333333,286.501261,50.270798)"/>
<g clip-path="url(#clip1)" clip-rule="nonzero">
<path style="fill:none;stroke-width:1.5;stroke-linecap:butt;stroke-linejoin:round;stroke:rgb(12.156863%,46.666667%,70.588237%);stroke-opacity:1;stroke-miterlimit:4;" d="M 133.388672 7.201172 L 131.355469 10.754883 L 131.115234 11.226562 L 129.618164 14.308594 L 128.121094 17.862305 L 128.06543 18.023437 L 126.899414 21.416016 L 125.900391 24.969727 L 125.124023 28.523437 L 125.012695 29.232422 L 124.584961 32.077148 L 124.262695 35.630859 L 124.157227 39.18457 L 124.262695 42.738281 L 124.584961 46.291992 L 125.012695 49.136719 L 125.124023 49.845703 L 125.900391 53.399414 L 126.899414 56.953125 L 128.06543 60.345703 L 128.121094 60.506836 L 129.618164 64.060547 L 131.115234 67.142578 L 131.355469 67.614258 L 133.388672 71.167969 L 134.167969 72.383789 L 135.723633 74.72168 L 137.217773 76.754883 L 138.386719 78.27832 L 140.270508 80.516602 L 141.421875 81.832031 L 143.323242 83.821289 L 144.881836 85.385742 L 146.373047 86.765625 L 148.828125 88.939453 L 149.425781 89.428711 L 152.475586 91.819336 L 153.383789 92.493164 L 155.52832 93.981445 L 158.581055 95.988281 L 158.671875 96.046875 L 161.630859 97.769531 L 164.683594 99.439453 L 164.99707 99.600586 L 167.733398 100.918945 L 170.786133 102.290039 L 172.860352 103.154297 L 173.838867 103.538086 L 176.888672 104.642578 L 179.941406 105.650391 L 182.991211 106.564453 L 183.530273 106.708008 L 186.043945 107.34668 L 189.09668 108.029297 L 192.146484 108.621094 L 195.199219 109.12207 L 198.249023 109.532227 L 201.301758 109.851562 L 204.354492 110.080078 L 207.404297 110.214844 L 210.457031 110.261719 L 213.506836 110.214844 L 216.55957 110.080078 L 219.612305 109.851562 L 222.662109 109.532227 L 225.714844 109.12207 L 228.764648 108.621094 L 231.817383 108.029297 L 234.870117 107.34668 L 237.380859 106.708008 L 237.919922 106.564453 " transform="matrix(1.333333,0,0,1.333333,0,0.000000000000014211)"/>
</g>
<g clip-path="url(#clip2)" clip-rule="nonzero">
<path style="fill:none;stroke-width:1.5;stroke-linecap:butt;stroke-linejoin:round;stroke:rgb(12.156863%,46.666667%,70.588237%);stroke-opacity:1;stroke-miterlimit:4;" d="M 94.740234 7.201172 L 94.49707 7.828125 L 93.386719 10.754883 L 92.197266 14.308594 L 91.444336 16.904297 L 91.174805 17.862305 L 90.325195 21.416016 L 89.630859 24.969727 L 89.088867 28.523437 L 88.702148 32.077148 L 88.470703 35.630859 L 88.394531 39.18457 L 88.470703 42.738281 L 88.702148 46.291992 L 89.088867 49.845703 L 89.630859 53.399414 L 90.325195 56.953125 L 91.174805 60.506836 L 91.444336 61.464844 L 92.197266 64.060547 L 93.386719 67.614258 L 94.49707 70.541016 L 94.740234 71.167969 L 96.287109 74.72168 L 97.549805 77.34668 L 98.006836 78.27832 L 99.931641 81.832031 L 100.599609 82.96875 L 102.061523 85.385742 L 103.652344 87.820312 L 104.402344 88.939453 L 106.702148 92.124023 L 106.977539 92.493164 L 109.754883 95.988281 L 109.801758 96.046875 L 112.807617 99.492187 L 112.904297 99.600586 L 115.857422 102.697266 L 116.308594 103.154297 L 118.910156 105.650391 L 120.046875 106.708008 L 121.959961 108.392578 L 124.157227 110.261719 L 125.012695 110.956055 L 128.06543 113.337891 L 128.698242 113.81543 L 131.115234 115.549805 L 133.749023 117.369141 L 134.167969 117.644531 L 137.217773 119.581055 L 139.426758 120.922852 L 140.270508 121.415039 L 143.323242 123.117187 L 145.87793 124.476562 L 146.373047 124.731445 L 149.425781 126.216797 L 152.475586 127.631836 L 153.383789 128.030273 L 155.52832 128.935547 L 158.581055 130.157227 L 161.630859 131.305664 L 162.418945 131.583984 L 164.683594 132.354492 L 167.733398 133.327148 L 170.786133 134.232422 L 173.838867 135.070312 L 174.102539 135.137695 L 176.888672 135.817383 L 179.941406 136.494141 L 182.991211 137.109375 L 186.043945 137.657227 L 189.09668 138.143555 L 192.146484 138.5625 L 193.256836 138.691406 L 195.199219 138.911133 L 198.249023 139.192383 L 201.301758 139.40918 L 204.354492 139.564453 L 207.404297 139.658203 L 210.457031 139.69043 L 213.506836 139.658203 L 216.55957 139.564453 L 219.612305 139.40918 L 222.662109 139.192383 L 225.714844 138.911133 L 227.657227 138.691406 L 228.764648 138.5625 L 231.817383 138.143555 L 234.870117 137.657227 L 237.919922 137.109375 " transform="matrix(1.333333,0,0,1.333333,0,0.000000000000014211)"/>
</g>
<g clip-path="url(#clip3)" clip-rule="nonzero">
<path style="fill:none;stroke-width:1.5;stroke-linecap:butt;stroke-linejoin:round;stroke:rgb(12.156863%,46.666667%,70.588237%);stroke-opacity:1;stroke-miterlimit:4;" d="M 66.102539 7.201172 L 65.009766 10.754883 L 64.045898 14.308594 L 63.981445 14.581055 L 63.225586 17.862305 L 62.53418 21.416016 L 61.96875 24.969727 L 61.526367 28.523437 L 61.212891 32.077148 L 61.025391 35.630859 L 60.960938 39.18457 L 61.025391 42.738281 L 61.212891 46.291992 L 61.526367 49.845703 L 61.96875 53.399414 L 62.53418 56.953125 L 63.225586 60.506836 L 63.981445 63.788086 L 64.045898 64.060547 L 65.009766 67.614258 L 66.102539 71.167969 L 67.03418 73.880859 L 67.327148 74.72168 L 68.707031 78.27832 L 70.083984 81.521484 L 70.21875 81.832031 L 71.894531 85.385742 L 73.136719 87.820312 L 73.719727 88.939453 L 75.706055 92.493164 L 76.186523 93.295898 L 77.871094 96.046875 L 79.239258 98.147461 L 80.208984 99.600586 L 82.291992 102.544922 L 82.731445 103.154297 L 85.341797 106.564453 L 85.456055 106.708008 L 88.394531 110.261719 L 91.444336 113.686523 L 91.564453 113.81543 L 94.49707 116.874023 L 94.986328 117.369141 L 97.549805 119.856445 L 98.677734 120.922852 L 100.599609 122.663086 L 102.662109 124.476562 L 103.652344 125.311523 L 106.702148 127.813477 L 106.977539 128.030273 L 109.754883 130.157227 L 111.679688 131.583984 L 112.807617 132.389648 L 115.857422 134.501953 L 116.80957 135.137695 L 118.910156 136.494141 L 121.959961 138.401367 L 122.443359 138.691406 L 125.012695 140.188477 L 128.06543 141.902344 L 128.698242 142.245117 L 131.115234 143.510742 L 134.167969 145.045898 L 135.723633 145.798828 " transform="matrix(1.333333,0,0,1.333333,0,0.000000000000014211)"/>
</g>
<g clip-path="url(#clip4)" clip-rule="nonzero">
<path style="fill:none;stroke-width:1.5;stroke-linecap:butt;stroke-linejoin:round;stroke:rgb(12.156863%,46.666667%,70.588237%);stroke-opacity:1;stroke-miterlimit:4;" d="M 42.621094 72.383789 L 43.321289 74.72168 L 44.496094 78.27832 L 45.670898 81.521484 L 45.785156 81.832031 L 47.211914 85.385742 L 48.723633 88.87207 L 48.75293 88.939453 L 50.4375 92.493164 L 51.776367 95.129883 L 52.248047 96.046875 L 54.205078 99.600586 L 54.826172 100.666992 L 56.305664 103.154297 L 57.878906 105.650391 L 58.555664 106.708008 L 60.928711 110.214844 L 60.960938 110.261719 L 63.541992 113.81543 L 63.981445 114.392578 L 66.292969 117.369141 L 67.03418 118.277344 L 69.231445 120.922852 L 70.083984 121.907227 L 72.363281 124.476562 L 73.136719 125.311523 L 75.706055 128.030273 L 76.186523 128.519531 L 79.239258 131.548828 L 79.274414 131.583984 L 82.291992 134.402344 L 83.100586 135.137695 L 85.341797 137.109375 L 87.1875 138.691406 L 88.394531 139.69043 L 91.444336 142.151367 L 91.564453 142.245117 L 94.49707 144.474609 L 96.287109 145.798828 " transform="matrix(1.333333,0,0,1.333333,0,0.000000000000014211)"/>
</g>
<g clip-path="url(#clip5)" clip-rule="nonzero">
<path style="fill:none;stroke-width:1.5;stroke-linecap:butt;stroke-linejoin:round;stroke:rgb(12.156863%,46.666667%,70.588237%);stroke-opacity:1;stroke-miterlimit:4;" d="M 42.621094 117.644531 L 44.944336 120.922852 L 45.670898 121.907227 L 47.610352 124.476562 L 48.723633 125.891602 L 50.4375 128.030273 L 51.776367 129.632812 L 53.43457 131.583984 L 54.826172 133.160156 L 56.610352 135.137695 L 57.878906 136.494141 L 59.973633 138.691406 L 60.928711 139.658203 L 63.541992 142.245117 L 63.981445 142.666992 L 67.03418 145.529297 L 67.327148 145.798828 " transform="matrix(1.333333,0,0,1.333333,0,0.000000000000014211)"/>
</g>
<g clip-path="url(#clip6)" clip-rule="nonzero">
<path style="fill:none;stroke-width:1.5;stroke-linecap:butt;stroke-linejoin:round;stroke:rgb(12.156863%,46.666667%,70.588237%);stroke-opacity:1;stroke-miterlimit:4;" d="M 42.621094 145.045898 L 43.321289 145.798828 " transform="matrix(1.333333,0,0,1.333333,0,0.000000000000014211)"/>
</g>
<path style="fill:none;stroke-width:0.8;stroke-linecap:square;stroke-linejoin:miter;stroke:rgb(0%,0%,0%);stroke-opacity:1;stroke-miterlimit:4;" d="M 42.621094 145.798828 L 42.621094 7.201172 " transform="matrix(1.333333,0,0,1.333333,0,0.000000000000014211)"/>
<path style="fill:none;stroke-width:0.8;stroke-linecap:square;stroke-linejoin:miter;stroke:rgb(0%,0%,0%);stroke-opacity:1;stroke-miterlimit:4;" d="M 237.919922 145.798828 L 237.919922 7.201172 " transform="matrix(1.333333,0,0,1.333333,0,0.000000000000014211)"/>
<path style="fill:none;stroke-width:0.8;stroke-linecap:square;stroke-linejoin:miter;stroke:rgb(0%,0%,0%);stroke-opacity:1;stroke-miterlimit:4;" d="M 42.621094 145.798828 L 237.919922 145.798828 " transform="matrix(1.333333,0,0,1.333333,0,0.000000000000014211)"/>
<path style="fill:none;stroke-width:0.8;stroke-linecap:square;stroke-linejoin:miter;stroke:rgb(0%,0%,0%);stroke-opacity:1;stroke-miterlimit:4;" d="M 42.621094 7.201172 L 237.919922 7.201172 " transform="matrix(1.333333,0,0,1.333333,0,0.000000000000014211)"/>
</g>
</svg>
