<?xml version="1.0" encoding="UTF-8"?>
<svg xmlns="http://www.w3.org/2000/svg" xmlns:xlink="http://www.w3.org/1999/xlink" width="328.75" height="244.474996" viewBox="0 0 328.75 244.474996" version="1.1">
<defs>
<clipPath id="clip1">
  <path d="M 75 22 L 310.667969 22 L 310.667969 26 L 75 26 Z M 75 22 "/>
</clipPath>
<filter id="alpha" filterUnits="objectBoundingBox" x="0%" y="0%" width="100%" height="100%">
  <feColorMatrix type="matrix" in="SourceGraphic" values="0 0 0 0 1 0 0 0 0 1 0 0 0 0 1 0 0 0 1 0"/>
</filter>
<mask id="mask0">
  <g filter="url(#alpha)">
<rect x="0" y="0" width="328.75" height="244.474996" style="fill:rgb(0%,0%,0%);fill-opacity:0.8;stroke:none;"/>
  </g>
</mask>
<clipPath id="clip2">
  <rect x="0" y="0" width="329" height="245"/>
</clipPath>
<g id="surface5" clip-path="url(#clip2)">
<path style="fill-rule:nonzero;fill:rgb(100%,100%,100%);fill-opacity:1;stroke-width:1;stroke-linecap:butt;stroke-linejoin:miter;stroke:rgb(80.000001%,80.000001%,80.000001%);stroke-opacity:1;stroke-miterlimit:4;" d="M 44.701172 140.800781 L 124.291992 140.800781 C 125.625 140.800781 126.290039 140.132812 126.290039 138.799805 L 126.290039 109.886719 C 126.290039 108.553711 125.625 107.888672 124.291992 107.888672 L 44.701172 107.888672 C 43.365234 107.888672 42.700195 108.553711 42.700195 109.886719 L 42.700195 138.799805 C 42.700195 140.132812 43.365234 140.800781 44.701172 140.800781 Z M 44.701172 140.800781 " transform="matrix(1.333333,0,0,1.333333,0,0.000000000000014211)"/>
</g>
</defs>
<g id="surface1">
<path style=" stroke:none;fill-rule:nonzero;fill:rgb(100%,100%,100%);fill-opacity:1;" d="M 0 244.476562 L 328.75 244.476562 L 328.75 0 L 0 0 Z M 0 244.476562 "/>
<path style=" stroke:none;fill-rule:nonzero;fill:rgb(100%,100%,100%);fill-opacity:1;" d="M 50.265625 194.398438 L 310.667969 194.398438 L 310.667969 9.601562 L 50.265625 9.601562 Z M 50.265625 194.398438 "/>
<path style="fill:none;stroke-width:0.8;stroke-linecap:butt;stroke-linejoin:round;stroke:rgb(0%,0%,0%);stroke-opacity:1;stroke-miterlimit:4;" d="M -0.000782013 -0.00117493 L -0.000782013 3.499802 " transform="matrix(1.333333,0,0,1.333333,50.266668,194.400004)"/>
<path style=" stroke:none;fill-rule:nonzero;fill:rgb(0%,0%,0%);fill-opacity:1;" d="M 50.261719 205.011719 C 49.585938 205.011719 49.078125 205.34375 48.734375 206.011719 C 48.394531 206.675781 48.226562 207.675781 48.226562 209.015625 C 48.226562 210.347656 48.394531 211.347656 48.734375 212.011719 C 49.078125 212.679688 49.585938 213.011719 50.261719 213.011719 C 50.945312 213.011719 51.457031 212.679688 51.796875 212.011719 C 52.136719 211.347656 52.308594 210.347656 52.308594 209.015625 C 52.308594 207.675781 52.136719 206.675781 51.796875 206.011719 C 51.457031 205.34375 50.945312 205.011719 50.261719 205.011719 Z M 50.261719 203.96875 C 51.351562 203.96875 52.183594 204.398438 52.761719 205.261719 C 53.335938 206.125 53.621094 207.375 53.621094 209.015625 C 53.621094 210.652344 53.335938 211.898438 52.761719 212.761719 C 52.183594 213.625 51.351562 214.054688 50.261719 214.054688 C 49.171875 214.054688 48.339844 213.625 47.765625 212.761719 C 47.191406 211.898438 46.902344 210.652344 46.902344 209.015625 C 46.902344 207.375 47.191406 206.125 47.765625 205.261719 C 48.339844 204.398438 49.171875 203.96875 50.261719 203.96875 Z M 50.261719 203.96875 "/>
<path style="fill:none;stroke-width:0.8;stroke-linecap:butt;stroke-linejoin:round;stroke:rgb(0%,0%,0%);stroke-opacity:1;stroke-miterlimit:4;" d="M 0.000740051 -0.00117493 L 0.000740051 3.499802 " transform="matrix(1.333333,0,0,1.333333,102.34667,194.400004)"/>
<path style=" stroke:none;fill-rule:nonzero;fill:rgb(0%,0%,0%);fill-opacity:1;" d="M 100.664062 212.757812 L 105.253906 212.757812 L 105.253906 213.863281 L 99.082031 213.863281 L 99.082031 212.757812 C 99.582031 212.242188 100.261719 211.546875 101.121094 210.679688 C 101.984375 209.808594 102.527344 209.246094 102.746094 208.992188 C 103.167969 208.523438 103.460938 208.121094 103.628906 207.792969 C 103.796875 207.464844 103.878906 207.144531 103.878906 206.828125 C 103.878906 206.308594 103.699219 205.890625 103.335938 205.566406 C 102.972656 205.238281 102.5 205.074219 101.917969 205.074219 C 101.507812 205.074219 101.070312 205.148438 100.613281 205.289062 C 100.15625 205.433594 99.667969 205.648438 99.148438 205.941406 L 99.148438 204.613281 C 99.675781 204.398438 100.171875 204.238281 100.628906 204.132812 C 101.089844 204.023438 101.511719 203.96875 101.894531 203.96875 C 102.902344 203.96875 103.703125 204.222656 104.304688 204.726562 C 104.902344 205.226562 105.199219 205.898438 105.199219 206.742188 C 105.199219 207.140625 105.125 207.519531 104.976562 207.878906 C 104.828125 208.234375 104.554688 208.65625 104.160156 209.144531 C 104.050781 209.269531 103.707031 209.632812 103.125 210.234375 C 102.542969 210.835938 101.722656 211.679688 100.664062 212.757812 Z M 100.664062 212.757812 "/>
<path style="fill:none;stroke-width:0.8;stroke-linecap:butt;stroke-linejoin:round;stroke:rgb(0%,0%,0%);stroke-opacity:1;stroke-miterlimit:4;" d="M -0.000663757 -0.00117493 L -0.000663757 3.499802 " transform="matrix(1.333333,0,0,1.333333,154.426666,194.400004)"/>
<path style=" stroke:none;fill-rule:nonzero;fill:rgb(0%,0%,0%);fill-opacity:1;" d="M 155.222656 205.289062 L 151.902344 210.480469 L 155.222656 210.480469 Z M 154.878906 204.144531 L 156.53125 204.144531 L 156.53125 210.480469 L 157.921875 210.480469 L 157.921875 211.574219 L 156.53125 211.574219 L 156.53125 213.863281 L 155.222656 213.863281 L 155.222656 211.574219 L 150.835938 211.574219 L 150.835938 210.304688 Z M 154.878906 204.144531 "/>
<path style="fill:none;stroke-width:0.8;stroke-linecap:butt;stroke-linejoin:round;stroke:rgb(0%,0%,0%);stroke-opacity:1;stroke-miterlimit:4;" d="M 0.000854492 -0.00117493 L 0.000854492 3.499802 " transform="matrix(1.333333,0,0,1.333333,206.506673,194.400004)"/>
<path style=" stroke:none;fill-rule:nonzero;fill:rgb(0%,0%,0%);fill-opacity:1;" d="M 206.667969 208.480469 C 206.078125 208.480469 205.609375 208.683594 205.261719 209.085938 C 204.917969 209.492188 204.746094 210.042969 204.746094 210.746094 C 204.746094 211.445312 204.917969 211.996094 205.261719 212.402344 C 205.609375 212.808594 206.078125 213.011719 206.667969 213.011719 C 207.257812 213.011719 207.726562 212.808594 208.070312 212.402344 C 208.414062 211.996094 208.585938 211.445312 208.585938 210.746094 C 208.585938 210.042969 208.414062 209.492188 208.070312 209.085938 C 207.726562 208.683594 207.257812 208.480469 206.667969 208.480469 Z M 209.277344 204.359375 L 209.277344 205.554688 C 208.945312 205.402344 208.613281 205.28125 208.277344 205.199219 C 207.941406 205.117188 207.609375 205.074219 207.277344 205.074219 C 206.410156 205.074219 205.746094 205.367188 205.289062 205.953125 C 204.832031 206.539062 204.570312 207.425781 204.503906 208.609375 C 204.761719 208.234375 205.082031 207.941406 205.46875 207.742188 C 205.855469 207.539062 206.28125 207.441406 206.746094 207.441406 C 207.71875 207.441406 208.492188 207.734375 209.058594 208.328125 C 209.625 208.921875 209.910156 209.726562 209.910156 210.746094 C 209.910156 211.746094 209.613281 212.546875 209.023438 213.148438 C 208.433594 213.753906 207.648438 214.054688 206.667969 214.054688 C 205.542969 214.054688 204.683594 213.625 204.089844 212.761719 C 203.492188 211.898438 203.195312 210.652344 203.195312 209.015625 C 203.195312 207.476562 203.5625 206.253906 204.289062 205.339844 C 205.019531 204.425781 205.996094 203.96875 207.226562 203.96875 C 207.554688 203.96875 207.890625 204 208.226562 204.066406 C 208.5625 204.132812 208.914062 204.230469 209.277344 204.359375 Z M 209.277344 204.359375 "/>
<path style="fill:none;stroke-width:0.8;stroke-linecap:butt;stroke-linejoin:round;stroke:rgb(0%,0%,0%);stroke-opacity:1;stroke-miterlimit:4;" d="M -0.000549316 -0.00117493 L -0.000549316 3.499802 " transform="matrix(1.333333,0,0,1.333333,258.58667,194.400004)"/>
<path style=" stroke:none;fill-rule:nonzero;fill:rgb(0%,0%,0%);fill-opacity:1;" d="M 258.582031 209.246094 C 257.957031 209.246094 257.464844 209.414062 257.109375 209.75 C 256.75 210.085938 256.570312 210.542969 256.570312 211.128906 C 256.570312 211.714844 256.75 212.175781 257.109375 212.511719 C 257.464844 212.84375 257.957031 213.011719 258.582031 213.011719 C 259.207031 213.011719 259.699219 212.84375 260.058594 212.507812 C 260.421875 212.171875 260.601562 211.710938 260.601562 211.128906 C 260.601562 210.542969 260.421875 210.085938 260.0625 209.75 C 259.707031 209.414062 259.214844 209.246094 258.582031 209.246094 Z M 257.269531 208.691406 C 256.703125 208.550781 256.265625 208.289062 255.949219 207.902344 C 255.636719 207.515625 255.476562 207.042969 255.476562 206.488281 C 255.476562 205.710938 255.753906 205.097656 256.308594 204.644531 C 256.863281 204.195312 257.621094 203.96875 258.582031 203.96875 C 259.550781 203.96875 260.308594 204.195312 260.863281 204.644531 C 261.414062 205.097656 261.6875 205.710938 261.6875 206.488281 C 261.6875 207.042969 261.53125 207.515625 261.214844 207.902344 C 260.902344 208.289062 260.464844 208.550781 259.90625 208.691406 C 260.539062 208.835938 261.03125 209.125 261.382812 209.554688 C 261.738281 209.984375 261.914062 210.507812 261.914062 211.128906 C 261.914062 212.070312 261.628906 212.796875 261.054688 213.300781 C 260.476562 213.804688 259.65625 214.054688 258.582031 214.054688 C 257.511719 214.054688 256.6875 213.804688 256.113281 213.300781 C 255.535156 212.796875 255.25 212.070312 255.25 211.128906 C 255.25 210.507812 255.425781 209.984375 255.78125 209.554688 C 256.140625 209.125 256.632812 208.835938 257.269531 208.691406 Z M 256.785156 206.613281 C 256.785156 207.117188 256.945312 207.507812 257.257812 207.789062 C 257.574219 208.070312 258.015625 208.210938 258.582031 208.210938 C 259.148438 208.210938 259.589844 208.070312 259.90625 207.789062 C 260.226562 207.507812 260.386719 207.117188 260.386719 206.613281 C 260.386719 206.109375 260.226562 205.714844 259.90625 205.433594 C 259.589844 205.152344 259.148438 205.011719 258.582031 205.011719 C 258.015625 205.011719 257.574219 205.152344 257.257812 205.433594 C 256.945312 205.714844 256.785156 206.109375 256.785156 206.613281 Z M 256.785156 206.613281 "/>
<path style="fill:none;stroke-width:0.8;stroke-linecap:butt;stroke-linejoin:round;stroke:rgb(0%,0%,0%);stroke-opacity:1;stroke-miterlimit:4;" d="M 0.000976562 -0.00117493 L 0.000976562 3.499802 " transform="matrix(1.333333,0,0,1.333333,310.666667,194.400004)"/>
<path style=" stroke:none;fill-rule:nonzero;fill:rgb(0%,0%,0%);fill-opacity:1;" d="M 303.835938 212.757812 L 305.984375 212.757812 L 305.984375 205.339844 L 303.648438 205.808594 L 303.648438 204.613281 L 305.972656 204.144531 L 307.289062 204.144531 L 307.289062 212.757812 L 309.433594 212.757812 L 309.433594 213.863281 L 303.835938 213.863281 Z M 303.835938 212.757812 "/>
<path style=" stroke:none;fill-rule:nonzero;fill:rgb(0%,0%,0%);fill-opacity:1;" d="M 314.902344 205.011719 C 314.226562 205.011719 313.71875 205.34375 313.375 206.011719 C 313.035156 206.675781 312.867188 207.675781 312.867188 209.015625 C 312.867188 210.347656 313.035156 211.347656 313.375 212.011719 C 313.71875 212.679688 314.226562 213.011719 314.902344 213.011719 C 315.585938 213.011719 316.097656 212.679688 316.4375 212.011719 C 316.777344 211.347656 316.949219 210.347656 316.949219 209.015625 C 316.949219 207.675781 316.777344 206.675781 316.4375 206.011719 C 316.097656 205.34375 315.585938 205.011719 314.902344 205.011719 Z M 314.902344 203.96875 C 315.996094 203.96875 316.828125 204.398438 317.402344 205.261719 C 317.976562 206.125 318.265625 207.375 318.265625 209.015625 C 318.265625 210.652344 317.976562 211.898438 317.402344 212.761719 C 316.828125 213.625 315.996094 214.054688 314.902344 214.054688 C 313.816406 214.054688 312.984375 213.625 312.40625 212.761719 C 311.832031 211.898438 311.546875 210.652344 311.546875 209.015625 C 311.546875 207.375 311.832031 206.125 312.40625 205.261719 C 312.984375 204.398438 313.816406 203.96875 314.902344 203.96875 Z M 314.902344 203.96875 "/>
<path style=" stroke:none;fill-rule:nonzero;fill:rgb(0%,0%,0%);fill-opacity:1;" d="M 167.65625 228.15625 L 167.65625 228.742188 L 162.148438 228.742188 C 162.199219 229.566406 162.449219 230.195312 162.894531 230.628906 C 163.339844 231.058594 163.957031 231.273438 164.753906 231.273438 C 165.210938 231.273438 165.65625 231.21875 166.089844 231.105469 C 166.523438 230.992188 166.949219 230.824219 167.378906 230.597656 L 167.378906 231.730469 C 166.945312 231.914062 166.503906 232.050781 166.054688 232.148438 C 165.601562 232.242188 165.144531 232.292969 164.679688 232.292969 C 163.515625 232.292969 162.597656 231.953125 161.917969 231.277344 C 161.238281 230.597656 160.898438 229.683594 160.898438 228.527344 C 160.898438 227.335938 161.21875 226.386719 161.863281 225.6875 C 162.507812 224.984375 163.378906 224.636719 164.472656 224.636719 C 165.453125 224.636719 166.230469 224.953125 166.800781 225.582031 C 167.371094 226.214844 167.65625 227.070312 167.65625 228.15625 Z M 166.457031 227.804688 C 166.449219 227.148438 166.265625 226.628906 165.910156 226.238281 C 165.550781 225.847656 165.074219 225.648438 164.484375 225.648438 C 163.816406 225.648438 163.28125 225.839844 162.882812 226.214844 C 162.480469 226.59375 162.25 227.125 162.1875 227.8125 Z M 166.457031 227.804688 "/>
<path style=" stroke:none;fill-rule:nonzero;fill:rgb(0%,0%,0%);fill-opacity:1;" d="M 170.78125 231.007812 L 170.78125 234.875 L 169.574219 234.875 L 169.574219 224.808594 L 170.78125 224.808594 L 170.78125 225.917969 C 171.03125 225.484375 171.351562 225.160156 171.734375 224.953125 C 172.117188 224.742188 172.578125 224.636719 173.113281 224.636719 C 173.996094 224.636719 174.71875 224.988281 175.269531 225.691406 C 175.824219 226.390625 176.101562 227.316406 176.101562 228.460938 C 176.101562 229.609375 175.824219 230.535156 175.269531 231.238281 C 174.71875 231.941406 173.996094 232.292969 173.113281 232.292969 C 172.578125 232.292969 172.117188 232.1875 171.734375 231.976562 C 171.351562 231.765625 171.03125 231.441406 170.78125 231.007812 Z M 174.855469 228.460938 C 174.855469 227.582031 174.675781 226.890625 174.3125 226.390625 C 173.949219 225.886719 173.453125 225.636719 172.820312 225.636719 C 172.183594 225.636719 171.6875 225.886719 171.324219 226.390625 C 170.960938 226.890625 170.78125 227.582031 170.78125 228.460938 C 170.78125 229.34375 170.960938 230.035156 171.324219 230.535156 C 171.6875 231.035156 172.183594 231.289062 172.820312 231.289062 C 173.453125 231.289062 173.949219 231.035156 174.3125 230.535156 C 174.675781 230.035156 174.855469 229.34375 174.855469 228.460938 Z M 174.855469 228.460938 "/>
<path style=" stroke:none;fill-rule:nonzero;fill:rgb(0%,0%,0%);fill-opacity:1;" d="M 180.910156 225.648438 C 180.269531 225.648438 179.761719 225.902344 179.386719 226.402344 C 179.015625 226.902344 178.828125 227.589844 178.828125 228.460938 C 178.828125 229.335938 179.011719 230.023438 179.382812 230.523438 C 179.753906 231.023438 180.265625 231.273438 180.910156 231.273438 C 181.550781 231.273438 182.054688 231.023438 182.425781 230.519531 C 182.800781 230.015625 182.988281 229.332031 182.988281 228.460938 C 182.988281 227.597656 182.800781 226.914062 182.425781 226.410156 C 182.054688 225.902344 181.550781 225.648438 180.910156 225.648438 Z M 180.910156 224.636719 C 181.953125 224.636719 182.769531 224.972656 183.363281 225.652344 C 183.960938 226.328125 184.257812 227.265625 184.257812 228.460938 C 184.257812 229.65625 183.960938 230.59375 183.363281 231.273438 C 182.769531 231.953125 181.953125 232.292969 180.910156 232.292969 C 179.863281 232.292969 179.046875 231.953125 178.453125 231.273438 C 177.859375 230.59375 177.566406 229.65625 177.566406 228.460938 C 177.566406 227.265625 177.859375 226.328125 178.453125 225.652344 C 179.046875 224.972656 179.863281 224.636719 180.910156 224.636719 Z M 180.910156 224.636719 "/>
<path style=" stroke:none;fill-rule:nonzero;fill:rgb(0%,0%,0%);fill-opacity:1;" d="M 191.492188 225.089844 L 191.492188 226.210938 C 191.152344 226.023438 190.8125 225.882812 190.472656 225.789062 C 190.132812 225.695312 189.789062 225.648438 189.441406 225.648438 C 188.664062 225.648438 188.058594 225.898438 187.628906 226.390625 C 187.199219 226.882812 186.984375 227.570312 186.984375 228.460938 C 186.984375 229.351562 187.199219 230.042969 187.628906 230.539062 C 188.058594 231.027344 188.664062 231.273438 189.441406 231.273438 C 189.789062 231.273438 190.132812 231.226562 190.472656 231.136719 C 190.8125 231.042969 191.152344 230.902344 191.492188 230.714844 L 191.492188 231.824219 C 191.15625 231.976562 190.808594 232.09375 190.453125 232.171875 C 190.09375 232.253906 189.714844 232.292969 189.308594 232.292969 C 188.210938 232.292969 187.339844 231.945312 186.691406 231.257812 C 186.046875 230.566406 185.722656 229.632812 185.722656 228.460938 C 185.722656 227.273438 186.046875 226.339844 186.703125 225.660156 C 187.355469 224.976562 188.25 224.636719 189.390625 224.636719 C 189.757812 224.636719 190.117188 224.671875 190.46875 224.75 C 190.820312 224.824219 191.160156 224.9375 191.492188 225.089844 Z M 191.492188 225.089844 "/>
<path style=" stroke:none;fill-rule:nonzero;fill:rgb(0%,0%,0%);fill-opacity:1;" d="M 199.636719 227.699219 L 199.636719 232.101562 L 198.4375 232.101562 L 198.4375 227.738281 C 198.4375 227.050781 198.304688 226.535156 198.035156 226.191406 C 197.765625 225.847656 197.359375 225.675781 196.824219 225.675781 C 196.175781 225.675781 195.667969 225.882812 195.292969 226.296875 C 194.917969 226.707031 194.730469 227.269531 194.730469 227.980469 L 194.730469 232.101562 L 193.527344 232.101562 L 193.527344 221.972656 L 194.730469 221.972656 L 194.730469 225.945312 C 195.019531 225.503906 195.355469 225.175781 195.746094 224.960938 C 196.132812 224.742188 196.582031 224.636719 197.089844 224.636719 C 197.929688 224.636719 198.5625 224.894531 198.992188 225.414062 C 199.421875 225.929688 199.636719 226.691406 199.636719 227.699219 Z M 199.636719 227.699219 "/>
<path style="fill:none;stroke-width:0.8;stroke-linecap:butt;stroke-linejoin:round;stroke:rgb(0%,0%,0%);stroke-opacity:1;stroke-miterlimit:4;" d="M -0.000782013 -0.000205994 L -3.498829 -0.000205994 " transform="matrix(1.333333,0,0,1.333333,50.266668,161.855743)"/>
<path style=" stroke:none;fill-rule:nonzero;fill:rgb(0%,0%,0%);fill-opacity:1;" d="M 11.253906 165.722656 L 13.402344 165.722656 L 13.402344 158.308594 L 11.066406 158.777344 L 11.066406 157.578125 L 13.390625 157.109375 L 14.703125 157.109375 L 14.703125 165.722656 L 16.851562 165.722656 L 16.851562 166.832031 L 11.253906 166.832031 Z M 11.253906 165.722656 "/>
<path style=" stroke:none;fill-rule:nonzero;fill:rgb(0%,0%,0%);fill-opacity:1;" d="M 22.320312 157.976562 C 21.644531 157.976562 21.136719 158.308594 20.792969 158.976562 C 20.453125 159.640625 20.28125 160.644531 20.28125 161.980469 C 20.28125 163.3125 20.453125 164.3125 20.792969 164.976562 C 21.136719 165.644531 21.644531 165.976562 22.320312 165.976562 C 23.003906 165.976562 23.511719 165.644531 23.855469 164.976562 C 24.195312 164.3125 24.367188 163.3125 24.367188 161.980469 C 24.367188 160.644531 24.195312 159.640625 23.855469 158.976562 C 23.511719 158.308594 23.003906 157.976562 22.320312 157.976562 Z M 22.320312 156.933594 C 23.410156 156.933594 24.242188 157.367188 24.820312 158.226562 C 25.394531 159.089844 25.679688 160.339844 25.679688 161.980469 C 25.679688 163.617188 25.394531 164.867188 24.820312 165.726562 C 24.242188 166.589844 23.410156 167.019531 22.320312 167.019531 C 21.230469 167.019531 20.398438 166.589844 19.824219 165.726562 C 19.25 164.867188 18.960938 163.617188 18.960938 161.980469 C 18.960938 160.339844 19.25 159.089844 19.824219 158.226562 C 20.398438 157.367188 21.230469 156.933594 22.320312 156.933594 Z M 22.320312 156.933594 "/>
<path style=" stroke:none;fill-rule:nonzero;fill:rgb(0%,0%,0%);fill-opacity:1;" d="M 27.683594 158.414062 L 33.523438 158.414062 L 33.523438 159.1875 L 27.683594 159.1875 Z M 27.683594 158.414062 "/>
<path style=" stroke:none;fill-rule:nonzero;fill:rgb(0%,0%,0%);fill-opacity:1;" d="M 38.042969 155.722656 L 35.71875 159.355469 L 38.042969 159.355469 Z M 37.800781 154.921875 L 38.957031 154.921875 L 38.957031 159.355469 L 39.929688 159.355469 L 39.929688 160.121094 L 38.957031 160.121094 L 38.957031 161.726562 L 38.042969 161.726562 L 38.042969 160.121094 L 34.96875 160.121094 L 34.96875 159.234375 Z M 37.800781 154.921875 "/>
<path style="fill:none;stroke-width:0.8;stroke-linecap:butt;stroke-linejoin:round;stroke:rgb(0%,0%,0%);stroke-opacity:1;stroke-miterlimit:4;" d="M -0.000782013 -0.000350952 L -3.498829 -0.000350952 " transform="matrix(1.333333,0,0,1.333333,50.266668,103.191874)"/>
<path style=" stroke:none;fill-rule:nonzero;fill:rgb(0%,0%,0%);fill-opacity:1;" d="M 11.253906 107.050781 L 13.402344 107.050781 L 13.402344 99.632812 L 11.066406 100.101562 L 11.066406 98.902344 L 13.390625 98.433594 L 14.703125 98.433594 L 14.703125 107.050781 L 16.851562 107.050781 L 16.851562 108.15625 L 11.253906 108.15625 Z M 11.253906 107.050781 "/>
<path style=" stroke:none;fill-rule:nonzero;fill:rgb(0%,0%,0%);fill-opacity:1;" d="M 22.320312 99.300781 C 21.644531 99.300781 21.136719 99.632812 20.792969 100.300781 C 20.453125 100.964844 20.28125 101.96875 20.28125 103.304688 C 20.28125 104.636719 20.453125 105.636719 20.792969 106.304688 C 21.136719 106.96875 21.644531 107.304688 22.320312 107.304688 C 23.003906 107.304688 23.511719 106.96875 23.855469 106.304688 C 24.195312 105.636719 24.367188 104.636719 24.367188 103.304688 C 24.367188 101.96875 24.195312 100.964844 23.855469 100.300781 C 23.511719 99.632812 23.003906 99.300781 22.320312 99.300781 Z M 22.320312 98.257812 C 23.410156 98.257812 24.242188 98.691406 24.820312 99.554688 C 25.394531 100.414062 25.679688 101.664062 25.679688 103.304688 C 25.679688 104.941406 25.394531 106.191406 24.820312 107.054688 C 24.242188 107.914062 23.410156 108.34375 22.320312 108.34375 C 21.230469 108.34375 20.398438 107.914062 19.824219 107.054688 C 19.25 106.191406 18.960938 104.941406 18.960938 103.304688 C 18.960938 101.664062 19.25 100.414062 19.824219 99.554688 C 20.398438 98.691406 21.230469 98.257812 22.320312 98.257812 Z M 22.320312 98.257812 "/>
<path style=" stroke:none;fill-rule:nonzero;fill:rgb(0%,0%,0%);fill-opacity:1;" d="M 27.683594 99.738281 L 33.523438 99.738281 L 33.523438 100.511719 L 27.683594 100.511719 Z M 27.683594 99.738281 "/>
<path style=" stroke:none;fill-rule:nonzero;fill:rgb(0%,0%,0%);fill-opacity:1;" d="M 38.300781 99.382812 C 38.742188 99.476562 39.085938 99.671875 39.332031 99.972656 C 39.582031 100.269531 39.703125 100.636719 39.703125 101.074219 C 39.703125 101.746094 39.472656 102.265625 39.011719 102.632812 C 38.550781 103 37.894531 103.183594 37.042969 103.183594 C 36.757812 103.183594 36.464844 103.15625 36.160156 103.097656 C 35.859375 103.042969 35.546875 102.957031 35.226562 102.84375 L 35.226562 101.957031 C 35.480469 102.105469 35.757812 102.21875 36.0625 102.292969 C 36.367188 102.371094 36.683594 102.40625 37.015625 102.40625 C 37.59375 102.40625 38.03125 102.292969 38.335938 102.066406 C 38.636719 101.839844 38.789062 101.507812 38.789062 101.074219 C 38.789062 100.671875 38.648438 100.359375 38.367188 100.132812 C 38.085938 99.90625 37.695312 99.792969 37.195312 99.792969 L 36.402344 99.792969 L 36.402344 99.035156 L 37.230469 99.035156 C 37.683594 99.035156 38.027344 98.945312 38.269531 98.765625 C 38.507812 98.585938 38.628906 98.324219 38.628906 97.984375 C 38.628906 97.632812 38.503906 97.367188 38.257812 97.179688 C 38.011719 96.992188 37.65625 96.898438 37.195312 96.898438 C 36.941406 96.898438 36.671875 96.925781 36.382812 96.980469 C 36.09375 97.035156 35.777344 97.121094 35.429688 97.234375 L 35.429688 96.414062 C 35.78125 96.320312 36.109375 96.246094 36.414062 96.195312 C 36.71875 96.148438 37.007812 96.125 37.277344 96.125 C 37.976562 96.125 38.527344 96.28125 38.933594 96.601562 C 39.339844 96.917969 39.546875 97.347656 39.546875 97.886719 C 39.546875 98.265625 39.4375 98.582031 39.222656 98.84375 C 39.003906 99.101562 38.699219 99.28125 38.300781 99.382812 Z M 38.300781 99.382812 "/>
<path style="fill:none;stroke-width:0.8;stroke-linecap:butt;stroke-linejoin:round;stroke:rgb(0%,0%,0%);stroke-opacity:1;stroke-miterlimit:4;" d="M -0.000782013 -0.000495911 L -3.498829 -0.000495911 " transform="matrix(1.333333,0,0,1.333333,50.266668,44.528005)"/>
<path style=" stroke:none;fill-rule:nonzero;fill:rgb(0%,0%,0%);fill-opacity:1;" d="M 11.253906 48.386719 L 13.402344 48.386719 L 13.402344 40.96875 L 11.066406 41.4375 L 11.066406 40.238281 L 13.390625 39.769531 L 14.703125 39.769531 L 14.703125 48.386719 L 16.851562 48.386719 L 16.851562 49.492188 L 11.253906 49.492188 Z M 11.253906 48.386719 "/>
<path style=" stroke:none;fill-rule:nonzero;fill:rgb(0%,0%,0%);fill-opacity:1;" d="M 22.320312 40.636719 C 21.644531 40.636719 21.136719 40.972656 20.792969 41.636719 C 20.453125 42.300781 20.28125 43.304688 20.28125 44.640625 C 20.28125 45.972656 20.453125 46.972656 20.792969 47.640625 C 21.136719 48.304688 21.644531 48.640625 22.320312 48.640625 C 23.003906 48.640625 23.511719 48.304688 23.855469 47.640625 C 24.195312 46.972656 24.367188 45.972656 24.367188 44.640625 C 24.367188 43.304688 24.195312 42.300781 23.855469 41.636719 C 23.511719 40.972656 23.003906 40.636719 22.320312 40.636719 Z M 22.320312 39.597656 C 23.410156 39.597656 24.242188 40.027344 24.820312 40.890625 C 25.394531 41.75 25.679688 43 25.679688 44.640625 C 25.679688 46.277344 25.394531 47.527344 24.820312 48.390625 C 24.242188 49.25 23.410156 49.679688 22.320312 49.679688 C 21.230469 49.679688 20.398438 49.25 19.824219 48.390625 C 19.25 47.527344 18.960938 46.277344 18.960938 44.640625 C 18.960938 43 19.25 41.75 19.824219 40.890625 C 20.398438 40.027344 21.230469 39.597656 22.320312 39.597656 Z M 22.320312 39.597656 "/>
<path style=" stroke:none;fill-rule:nonzero;fill:rgb(0%,0%,0%);fill-opacity:1;" d="M 27.683594 41.074219 L 33.523438 41.074219 L 33.523438 41.847656 L 27.683594 41.847656 Z M 27.683594 41.074219 "/>
<path style=" stroke:none;fill-rule:nonzero;fill:rgb(0%,0%,0%);fill-opacity:1;" d="M 36.304688 43.613281 L 39.519531 43.613281 L 39.519531 44.386719 L 35.199219 44.386719 L 35.199219 43.613281 C 35.546875 43.25 36.023438 42.765625 36.625 42.15625 C 37.230469 41.546875 37.609375 41.15625 37.761719 40.976562 C 38.058594 40.648438 38.261719 40.367188 38.378906 40.136719 C 38.496094 39.910156 38.554688 39.683594 38.554688 39.460938 C 38.554688 39.097656 38.429688 38.804688 38.175781 38.578125 C 37.921875 38.347656 37.589844 38.234375 37.183594 38.234375 C 36.894531 38.234375 36.589844 38.285156 36.269531 38.386719 C 35.949219 38.484375 35.609375 38.636719 35.242188 38.839844 L 35.242188 37.910156 C 35.613281 37.761719 35.960938 37.648438 36.28125 37.574219 C 36.605469 37.5 36.898438 37.460938 37.167969 37.460938 C 37.871094 37.460938 38.433594 37.636719 38.851562 37.988281 C 39.273438 38.339844 39.480469 38.8125 39.480469 39.402344 C 39.480469 39.679688 39.429688 39.945312 39.324219 40.199219 C 39.21875 40.449219 39.027344 40.742188 38.753906 41.082031 C 38.675781 41.171875 38.433594 41.425781 38.027344 41.847656 C 37.621094 42.269531 37.046875 42.855469 36.304688 43.613281 Z M 36.304688 43.613281 "/>
<path style="fill:none;stroke-width:0.6;stroke-linecap:butt;stroke-linejoin:round;stroke:rgb(0%,0%,0%);stroke-opacity:1;stroke-miterlimit:4;" d="M -0.000782013 0.00105286 L -1.998829 0.00105286 " transform="matrix(1.333333,0,0,1.333333,50.266668,192.529846)"/>
<path style="fill:none;stroke-width:0.6;stroke-linecap:butt;stroke-linejoin:round;stroke:rgb(0%,0%,0%);stroke-opacity:1;stroke-miterlimit:4;" d="M -0.000782013 -0.000915527 L -1.998829 -0.000915527 " transform="matrix(1.333333,0,0,1.333333,50.266668,185.200439)"/>
<path style="fill:none;stroke-width:0.6;stroke-linecap:butt;stroke-linejoin:round;stroke:rgb(0%,0%,0%);stroke-opacity:1;stroke-miterlimit:4;" d="M -0.000782013 0.000213623 L -1.998829 0.000213623 " transform="matrix(1.333333,0,0,1.333333,50.266668,179.51534)"/>
<path style="fill:none;stroke-width:0.6;stroke-linecap:butt;stroke-linejoin:round;stroke:rgb(0%,0%,0%);stroke-opacity:1;stroke-miterlimit:4;" d="M -0.000782013 0.00062561 L -1.998829 0.00062561 " transform="matrix(1.333333,0,0,1.333333,50.266668,174.87026)"/>
<path style="fill:none;stroke-width:0.6;stroke-linecap:butt;stroke-linejoin:round;stroke:rgb(0%,0%,0%);stroke-opacity:1;stroke-miterlimit:4;" d="M -0.000782013 -0.00111389 L -1.998829 -0.00111389 " transform="matrix(1.333333,0,0,1.333333,50.266668,170.942891)"/>
<path style="fill:none;stroke-width:0.6;stroke-linecap:butt;stroke-linejoin:round;stroke:rgb(0%,0%,0%);stroke-opacity:1;stroke-miterlimit:4;" d="M -0.000782013 -0.0013504 L -1.998829 -0.0013504 " transform="matrix(1.333333,0,0,1.333333,50.266668,167.540863)"/>
<path style="fill:none;stroke-width:0.6;stroke-linecap:butt;stroke-linejoin:round;stroke:rgb(0%,0%,0%);stroke-opacity:1;stroke-miterlimit:4;" d="M -0.000782013 -0.000747681 L -1.998829 -0.000747681 " transform="matrix(1.333333,0,0,1.333333,50.266668,164.540059)"/>
<path style="fill:none;stroke-width:0.6;stroke-linecap:butt;stroke-linejoin:round;stroke:rgb(0%,0%,0%);stroke-opacity:1;stroke-miterlimit:4;" d="M -0.000782013 -0.000640869 L -1.998829 -0.000640869 " transform="matrix(1.333333,0,0,1.333333,50.266668,144.196167)"/>
<path style="fill:none;stroke-width:0.6;stroke-linecap:butt;stroke-linejoin:round;stroke:rgb(0%,0%,0%);stroke-opacity:1;stroke-miterlimit:4;" d="M -0.000782013 0.000915527 L -1.998829 0.000915527 " transform="matrix(1.333333,0,0,1.333333,50.266668,133.865967)"/>
<path style="fill:none;stroke-width:0.6;stroke-linecap:butt;stroke-linejoin:round;stroke:rgb(0%,0%,0%);stroke-opacity:1;stroke-miterlimit:4;" d="M -0.000782013 -0.00106812 L -1.998829 -0.00106812 " transform="matrix(1.333333,0,0,1.333333,50.266668,126.53658)"/>
<path style="fill:none;stroke-width:0.6;stroke-linecap:butt;stroke-linejoin:round;stroke:rgb(0%,0%,0%);stroke-opacity:1;stroke-miterlimit:4;" d="M -0.000782013 0.0000762939 L -1.998829 0.0000762939 " transform="matrix(1.333333,0,0,1.333333,50.266668,120.851461)"/>
<path style="fill:none;stroke-width:0.6;stroke-linecap:butt;stroke-linejoin:round;stroke:rgb(0%,0%,0%);stroke-opacity:1;stroke-miterlimit:4;" d="M -0.000782013 0.000488281 L -1.998829 0.000488281 " transform="matrix(1.333333,0,0,1.333333,50.266668,116.20638)"/>
<path style="fill:none;stroke-width:0.6;stroke-linecap:butt;stroke-linejoin:round;stroke:rgb(0%,0%,0%);stroke-opacity:1;stroke-miterlimit:4;" d="M -0.000782013 -0.00125885 L -1.998829 -0.00125885 " transform="matrix(1.333333,0,0,1.333333,50.266668,112.279022)"/>
<path style="fill:none;stroke-width:0.6;stroke-linecap:butt;stroke-linejoin:round;stroke:rgb(0%,0%,0%);stroke-opacity:1;stroke-miterlimit:4;" d="M -0.000782013 0.00143433 L -1.998829 0.00143433 " transform="matrix(1.333333,0,0,1.333333,50.266668,108.876994)"/>
<path style="fill:none;stroke-width:0.6;stroke-linecap:butt;stroke-linejoin:round;stroke:rgb(0%,0%,0%);stroke-opacity:1;stroke-miterlimit:4;" d="M -0.000782013 -0.000892639 L -1.998829 -0.000892639 " transform="matrix(1.333333,0,0,1.333333,50.266668,105.87619)"/>
<path style="fill:none;stroke-width:0.6;stroke-linecap:butt;stroke-linejoin:round;stroke:rgb(0%,0%,0%);stroke-opacity:1;stroke-miterlimit:4;" d="M -0.000782013 -0.000778198 L -1.998829 -0.000778198 " transform="matrix(1.333333,0,0,1.333333,50.266668,85.532288)"/>
<path style="fill:none;stroke-width:0.6;stroke-linecap:butt;stroke-linejoin:round;stroke:rgb(0%,0%,0%);stroke-opacity:1;stroke-miterlimit:4;" d="M -0.000782013 0.000774384 L -1.998829 0.000774384 " transform="matrix(1.333333,0,0,1.333333,50.266668,75.202092)"/>
<path style="fill:none;stroke-width:0.6;stroke-linecap:butt;stroke-linejoin:round;stroke:rgb(0%,0%,0%);stroke-opacity:1;stroke-miterlimit:4;" d="M -0.000782013 -0.00120926 L -1.998829 -0.00120926 " transform="matrix(1.333333,0,0,1.333333,50.266668,67.872706)"/>
<path style="fill:none;stroke-width:0.6;stroke-linecap:butt;stroke-linejoin:round;stroke:rgb(0%,0%,0%);stroke-opacity:1;stroke-miterlimit:4;" d="M -0.000782013 -0.0000648499 L -1.998829 -0.0000648499 " transform="matrix(1.333333,0,0,1.333333,50.266668,62.187586)"/>
<path style="fill:none;stroke-width:0.6;stroke-linecap:butt;stroke-linejoin:round;stroke:rgb(0%,0%,0%);stroke-opacity:1;stroke-miterlimit:4;" d="M -0.000782013 0.000343323 L -1.998829 0.000343323 " transform="matrix(1.333333,0,0,1.333333,50.266668,57.542511)"/>
<path style="fill:none;stroke-width:0.6;stroke-linecap:butt;stroke-linejoin:round;stroke:rgb(0%,0%,0%);stroke-opacity:1;stroke-miterlimit:4;" d="M -0.000782013 -0.00140381 L -1.998829 -0.00140381 " transform="matrix(1.333333,0,0,1.333333,50.266668,53.615153)"/>
<path style="fill:none;stroke-width:0.6;stroke-linecap:butt;stroke-linejoin:round;stroke:rgb(0%,0%,0%);stroke-opacity:1;stroke-miterlimit:4;" d="M -0.000782013 0.00129318 L -1.998829 0.00129318 " transform="matrix(1.333333,0,0,1.333333,50.266668,50.21312)"/>
<path style="fill:none;stroke-width:0.6;stroke-linecap:butt;stroke-linejoin:round;stroke:rgb(0%,0%,0%);stroke-opacity:1;stroke-miterlimit:4;" d="M -0.000782013 -0.00103378 L -1.998829 -0.00103378 " transform="matrix(1.333333,0,0,1.333333,50.266668,47.212316)"/>
<path style="fill:none;stroke-width:0.6;stroke-linecap:butt;stroke-linejoin:round;stroke:rgb(0%,0%,0%);stroke-opacity:1;stroke-miterlimit:4;" d="M -0.000782013 -0.000923157 L -1.998829 -0.000923157 " transform="matrix(1.333333,0,0,1.333333,50.266668,26.868418)"/>
<path style="fill:none;stroke-width:0.6;stroke-linecap:butt;stroke-linejoin:round;stroke:rgb(0%,0%,0%);stroke-opacity:1;stroke-miterlimit:4;" d="M -0.000782013 0.000629425 L -1.998829 0.000629425 " transform="matrix(1.333333,0,0,1.333333,50.266668,16.538223)"/>
<path style="fill:none;stroke-width:1.5;stroke-linecap:square;stroke-linejoin:round;stroke:rgb(12.156863%,46.666667%,70.588237%);stroke-opacity:1;stroke-miterlimit:4;" d="M 40.139648 13.5 L 40.142578 13.5 M 40.142578 13.5 " transform="matrix(1.333333,0,0,1.333333,0,0.000000000000014211)"/>
<path style="fill:none;stroke-width:1.5;stroke-linecap:square;stroke-linejoin:round;stroke:rgb(12.156863%,46.666667%,70.588237%);stroke-opacity:1;stroke-miterlimit:4;" d="M 40.142578 13.5 L 49.907227 19.186523 " transform="matrix(1.333333,0,0,1.333333,0,0.000000000000014211)"/>
<path style="fill:none;stroke-width:1.5;stroke-linecap:square;stroke-linejoin:round;stroke:rgb(12.156863%,46.666667%,70.588237%);stroke-opacity:1;stroke-miterlimit:4;" d="M 40.142578 13.5 L 49.907227 19.186523 " transform="matrix(1.333333,0,0,1.333333,0,0.000000000000014211)"/>
<path style="fill:none;stroke-width:1.5;stroke-linecap:square;stroke-linejoin:round;stroke:rgb(12.156863%,46.666667%,70.588237%);stroke-opacity:1;stroke-miterlimit:4;" d="M 40.142578 13.5 L 49.907227 19.186523 L 59.671875 24.47168 " transform="matrix(1.333333,0,0,1.333333,0,0.000000000000014211)"/>
<path style="fill:none;stroke-width:1.5;stroke-linecap:square;stroke-linejoin:round;stroke:rgb(12.156863%,46.666667%,70.588237%);stroke-opacity:1;stroke-miterlimit:4;" d="M 40.142578 13.5 L 49.907227 19.186523 L 59.671875 24.47168 L 69.436523 48.079102 " transform="matrix(1.333333,0,0,1.333333,0,0.000000000000014211)"/>
<path style="fill:none;stroke-width:1.5;stroke-linecap:square;stroke-linejoin:round;stroke:rgb(12.156863%,46.666667%,70.588237%);stroke-opacity:1;stroke-miterlimit:4;" d="M 40.142578 13.5 L 49.907227 19.186523 L 59.671875 24.47168 L 69.436523 48.079102 " transform="matrix(1.333333,0,0,1.333333,0,0.000000000000014211)"/>
<path style="fill:none;stroke-width:1.5;stroke-linecap:butt;stroke-linejoin:round;stroke:rgb(100%,49.803922%,5.490196%);stroke-opacity:1;stroke-dasharray:5.55,2.4;stroke-miterlimit:4;" d="M 57.231445 17.818359 L 76.760742 18.301758 " transform="matrix(1.333333,0,0,1.333333,0,0.000000000000014211)"/>
<path style="fill:none;stroke-width:1.5;stroke-linecap:square;stroke-linejoin:round;stroke:rgb(12.156863%,46.666667%,70.588237%);stroke-opacity:1;stroke-miterlimit:4;" d="M 40.142578 13.5 L 49.907227 19.186523 L 59.671875 24.47168 L 69.436523 48.079102 L 79.201172 42.990234 " transform="matrix(1.333333,0,0,1.333333,0,0.000000000000014211)"/>
<path style="fill:none;stroke-width:1.5;stroke-linecap:butt;stroke-linejoin:round;stroke:rgb(100%,49.803922%,5.490196%);stroke-opacity:1;stroke-dasharray:5.55,2.4;stroke-miterlimit:4;" d="M 57.231445 17.818359 L 76.760742 18.301758 " transform="matrix(1.333333,0,0,1.333333,0,0.000000000000014211)"/>
<path style="fill:none;stroke-width:1.5;stroke-linecap:square;stroke-linejoin:round;stroke:rgb(12.156863%,46.666667%,70.588237%);stroke-opacity:1;stroke-miterlimit:4;" d="M 40.142578 13.5 L 49.907227 19.186523 L 59.671875 24.47168 L 69.436523 48.079102 L 79.201172 42.990234 L 88.96582 53.337891 " transform="matrix(1.333333,0,0,1.333333,0,0.000000000000014211)"/>
<path style="fill:none;stroke-width:1.5;stroke-linecap:butt;stroke-linejoin:round;stroke:rgb(100%,49.803922%,5.490196%);stroke-opacity:1;stroke-dasharray:5.55,2.4;stroke-miterlimit:4;" d="M 57.231445 17.818359 L 76.760742 18.301758 " transform="matrix(1.333333,0,0,1.333333,0,0.000000000000014211)"/>
<path style="fill:none;stroke-width:1.5;stroke-linecap:square;stroke-linejoin:round;stroke:rgb(12.156863%,46.666667%,70.588237%);stroke-opacity:1;stroke-miterlimit:4;" d="M 40.142578 13.5 L 49.907227 19.186523 L 59.671875 24.47168 L 69.436523 48.079102 L 79.201172 42.990234 L 88.96582 53.337891 " transform="matrix(1.333333,0,0,1.333333,0,0.000000000000014211)"/>
<path style="fill:none;stroke-width:1.5;stroke-linecap:butt;stroke-linejoin:round;stroke:rgb(100%,49.803922%,5.490196%);stroke-opacity:1;stroke-dasharray:5.55,2.4;stroke-miterlimit:4;" d="M 57.231445 17.818359 L 76.760742 18.301758 L 96.290039 18.477539 " transform="matrix(1.333333,0,0,1.333333,0,0.000000000000014211)"/>
<path style="fill:none;stroke-width:1.5;stroke-linecap:square;stroke-linejoin:round;stroke:rgb(12.156863%,46.666667%,70.588237%);stroke-opacity:1;stroke-miterlimit:4;" d="M 40.142578 13.5 L 49.907227 19.186523 L 59.671875 24.47168 L 69.436523 48.079102 L 79.201172 42.990234 L 88.96582 53.337891 L 98.730469 80.194336 " transform="matrix(1.333333,0,0,1.333333,0,0.000000000000014211)"/>
<path style="fill:none;stroke-width:1.5;stroke-linecap:butt;stroke-linejoin:round;stroke:rgb(100%,49.803922%,5.490196%);stroke-opacity:1;stroke-dasharray:5.55,2.4;stroke-miterlimit:4;" d="M 57.231445 17.818359 L 76.760742 18.301758 L 96.290039 18.477539 " transform="matrix(1.333333,0,0,1.333333,0,0.000000000000014211)"/>
<path style="fill:none;stroke-width:1.5;stroke-linecap:square;stroke-linejoin:round;stroke:rgb(12.156863%,46.666667%,70.588237%);stroke-opacity:1;stroke-miterlimit:4;" d="M 40.142578 13.5 L 49.907227 19.186523 L 59.671875 24.47168 L 69.436523 48.079102 L 79.201172 42.990234 L 88.96582 53.337891 L 98.730469 80.194336 L 108.495117 54.316406 " transform="matrix(1.333333,0,0,1.333333,0,0.000000000000014211)"/>
<path style="fill:none;stroke-width:1.5;stroke-linecap:butt;stroke-linejoin:round;stroke:rgb(100%,49.803922%,5.490196%);stroke-opacity:1;stroke-dasharray:5.55,2.4;stroke-miterlimit:4;" d="M 57.231445 17.818359 L 76.760742 18.301758 L 96.290039 18.477539 " transform="matrix(1.333333,0,0,1.333333,0,0.000000000000014211)"/>
<path style="fill:none;stroke-width:1.5;stroke-linecap:square;stroke-linejoin:round;stroke:rgb(12.156863%,46.666667%,70.588237%);stroke-opacity:1;stroke-miterlimit:4;" d="M 40.142578 13.5 L 49.907227 19.186523 L 59.671875 24.47168 L 69.436523 48.079102 L 79.201172 42.990234 L 88.96582 53.337891 L 98.730469 80.194336 L 108.495117 54.316406 " transform="matrix(1.333333,0,0,1.333333,0,0.000000000000014211)"/>
<path style="fill:none;stroke-width:1.5;stroke-linecap:butt;stroke-linejoin:round;stroke:rgb(100%,49.803922%,5.490196%);stroke-opacity:1;stroke-dasharray:5.55,2.4;stroke-miterlimit:4;" d="M 57.231445 17.818359 L 76.760742 18.301758 L 96.290039 18.477539 L 115.819336 18.512695 " transform="matrix(1.333333,0,0,1.333333,0,0.000000000000014211)"/>
<path style="fill:none;stroke-width:1.5;stroke-linecap:square;stroke-linejoin:round;stroke:rgb(12.156863%,46.666667%,70.588237%);stroke-opacity:1;stroke-miterlimit:4;" d="M 40.142578 13.5 L 49.907227 19.186523 L 59.671875 24.47168 L 69.436523 48.079102 L 79.201172 42.990234 L 88.96582 53.337891 L 98.730469 80.194336 L 108.495117 54.316406 L 118.262695 84.052734 " transform="matrix(1.333333,0,0,1.333333,0,0.000000000000014211)"/>
<path style="fill:none;stroke-width:1.5;stroke-linecap:butt;stroke-linejoin:round;stroke:rgb(100%,49.803922%,5.490196%);stroke-opacity:1;stroke-dasharray:5.55,2.4;stroke-miterlimit:4;" d="M 57.231445 17.818359 L 76.760742 18.301758 L 96.290039 18.477539 L 115.819336 18.512695 " transform="matrix(1.333333,0,0,1.333333,0,0.000000000000014211)"/>
<path style="fill:none;stroke-width:1.5;stroke-linecap:square;stroke-linejoin:round;stroke:rgb(12.156863%,46.666667%,70.588237%);stroke-opacity:1;stroke-miterlimit:4;" d="M 40.142578 13.5 L 49.907227 19.186523 L 59.671875 24.47168 L 69.436523 48.079102 L 79.201172 42.990234 L 88.96582 53.337891 L 98.730469 80.194336 L 108.495117 54.316406 L 118.262695 84.052734 L 128.027344 72.011719 " transform="matrix(1.333333,0,0,1.333333,0,0.000000000000014211)"/>
<path style="fill:none;stroke-width:1.5;stroke-linecap:butt;stroke-linejoin:round;stroke:rgb(100%,49.803922%,5.490196%);stroke-opacity:1;stroke-dasharray:5.55,2.4;stroke-miterlimit:4;" d="M 57.231445 17.818359 L 76.760742 18.301758 L 96.290039 18.477539 L 115.819336 18.512695 " transform="matrix(1.333333,0,0,1.333333,0,0.000000000000014211)"/>
<path style="fill:none;stroke-width:1.5;stroke-linecap:square;stroke-linejoin:round;stroke:rgb(12.156863%,46.666667%,70.588237%);stroke-opacity:1;stroke-miterlimit:4;" d="M 40.142578 13.5 L 49.907227 19.186523 L 59.671875 24.47168 L 69.436523 48.079102 L 79.201172 42.990234 L 88.96582 53.337891 L 98.730469 80.194336 L 108.495117 54.316406 L 118.262695 84.052734 L 128.027344 72.011719 " transform="matrix(1.333333,0,0,1.333333,0,0.000000000000014211)"/>
<path style="fill:none;stroke-width:1.5;stroke-linecap:butt;stroke-linejoin:round;stroke:rgb(100%,49.803922%,5.490196%);stroke-opacity:1;stroke-dasharray:5.55,2.4;stroke-miterlimit:4;" d="M 57.231445 17.818359 L 76.760742 18.301758 L 96.290039 18.477539 L 115.819336 18.512695 L 135.348633 18.518555 " transform="matrix(1.333333,0,0,1.333333,0,0.000000000000014211)"/>
<path style="fill:none;stroke-width:1.5;stroke-linecap:square;stroke-linejoin:round;stroke:rgb(12.156863%,46.666667%,70.588237%);stroke-opacity:1;stroke-miterlimit:4;" d="M 40.142578 13.5 L 49.907227 19.186523 L 59.671875 24.47168 L 69.436523 48.079102 L 79.201172 42.990234 L 88.96582 53.337891 L 98.730469 80.194336 L 108.495117 54.316406 L 118.262695 84.052734 L 128.027344 72.011719 L 137.791992 93.662109 " transform="matrix(1.333333,0,0,1.333333,0,0.000000000000014211)"/>
<path style="fill:none;stroke-width:1.5;stroke-linecap:butt;stroke-linejoin:round;stroke:rgb(100%,49.803922%,5.490196%);stroke-opacity:1;stroke-dasharray:5.55,2.4;stroke-miterlimit:4;" d="M 57.231445 17.818359 L 76.760742 18.301758 L 96.290039 18.477539 L 115.819336 18.512695 L 135.348633 18.518555 " transform="matrix(1.333333,0,0,1.333333,0,0.000000000000014211)"/>
<path style="fill:none;stroke-width:1.5;stroke-linecap:square;stroke-linejoin:round;stroke:rgb(12.156863%,46.666667%,70.588237%);stroke-opacity:1;stroke-miterlimit:4;" d="M 40.142578 13.5 L 49.907227 19.186523 L 59.671875 24.47168 L 69.436523 48.079102 L 79.201172 42.990234 L 88.96582 53.337891 L 98.730469 80.194336 L 108.495117 54.316406 L 118.262695 84.052734 L 128.027344 72.011719 L 137.791992 93.662109 L 147.556641 86.601562 " transform="matrix(1.333333,0,0,1.333333,0,0.000000000000014211)"/>
<path style="fill:none;stroke-width:1.5;stroke-linecap:butt;stroke-linejoin:round;stroke:rgb(100%,49.803922%,5.490196%);stroke-opacity:1;stroke-dasharray:5.55,2.4;stroke-miterlimit:4;" d="M 57.231445 17.818359 L 76.760742 18.301758 L 96.290039 18.477539 L 115.819336 18.512695 L 135.348633 18.518555 " transform="matrix(1.333333,0,0,1.333333,0,0.000000000000014211)"/>
<path style="fill:none;stroke-width:1.5;stroke-linecap:square;stroke-linejoin:round;stroke:rgb(12.156863%,46.666667%,70.588237%);stroke-opacity:1;stroke-miterlimit:4;" d="M 40.142578 13.5 L 49.907227 19.186523 L 59.671875 24.47168 L 69.436523 48.079102 L 79.201172 42.990234 L 88.96582 53.337891 L 98.730469 80.194336 L 108.495117 54.316406 L 118.262695 84.052734 L 128.027344 72.011719 L 137.791992 93.662109 L 147.556641 86.601562 " transform="matrix(1.333333,0,0,1.333333,0,0.000000000000014211)"/>
<path style="fill:none;stroke-width:1.5;stroke-linecap:butt;stroke-linejoin:round;stroke:rgb(100%,49.803922%,5.490196%);stroke-opacity:1;stroke-dasharray:5.55,2.4;stroke-miterlimit:4;" d="M 57.231445 17.818359 L 76.760742 18.301758 L 96.290039 18.477539 L 115.819336 18.512695 L 135.348633 18.518555 L 154.880859 18.509766 " transform="matrix(1.333333,0,0,1.333333,0,0.000000000000014211)"/>
<path style="fill:none;stroke-width:1.5;stroke-linecap:square;stroke-linejoin:round;stroke:rgb(12.156863%,46.666667%,70.588237%);stroke-opacity:1;stroke-miterlimit:4;" d="M 40.142578 13.5 L 49.907227 19.186523 L 59.671875 24.47168 L 69.436523 48.079102 L 79.201172 42.990234 L 88.96582 53.337891 L 98.730469 80.194336 L 108.495117 54.316406 L 118.262695 84.052734 L 128.027344 72.011719 L 137.791992 93.662109 L 147.556641 86.601562 L 157.321289 103.004883 " transform="matrix(1.333333,0,0,1.333333,0,0.000000000000014211)"/>
<path style="fill:none;stroke-width:1.5;stroke-linecap:butt;stroke-linejoin:round;stroke:rgb(100%,49.803922%,5.490196%);stroke-opacity:1;stroke-dasharray:5.55,2.4;stroke-miterlimit:4;" d="M 57.231445 17.818359 L 76.760742 18.301758 L 96.290039 18.477539 L 115.819336 18.512695 L 135.348633 18.518555 L 154.880859 18.509766 " transform="matrix(1.333333,0,0,1.333333,0,0.000000000000014211)"/>
<path style="fill:none;stroke-width:1.5;stroke-linecap:square;stroke-linejoin:round;stroke:rgb(12.156863%,46.666667%,70.588237%);stroke-opacity:1;stroke-miterlimit:4;" d="M 40.142578 13.5 L 49.907227 19.186523 L 59.671875 24.47168 L 69.436523 48.079102 L 79.201172 42.990234 L 88.96582 53.337891 L 98.730469 80.194336 L 108.495117 54.316406 L 118.262695 84.052734 L 128.027344 72.011719 L 137.791992 93.662109 L 147.556641 86.601562 L 157.321289 103.004883 L 167.085938 100.429687 " transform="matrix(1.333333,0,0,1.333333,0,0.000000000000014211)"/>
<path style="fill:none;stroke-width:1.5;stroke-linecap:butt;stroke-linejoin:round;stroke:rgb(100%,49.803922%,5.490196%);stroke-opacity:1;stroke-dasharray:5.55,2.4;stroke-miterlimit:4;" d="M 57.231445 17.818359 L 76.760742 18.301758 L 96.290039 18.477539 L 115.819336 18.512695 L 135.348633 18.518555 L 154.880859 18.509766 " transform="matrix(1.333333,0,0,1.333333,0,0.000000000000014211)"/>
<path style="fill:none;stroke-width:1.5;stroke-linecap:square;stroke-linejoin:round;stroke:rgb(12.156863%,46.666667%,70.588237%);stroke-opacity:1;stroke-miterlimit:4;" d="M 40.142578 13.5 L 49.907227 19.186523 L 59.671875 24.47168 L 69.436523 48.079102 L 79.201172 42.990234 L 88.96582 53.337891 L 98.730469 80.194336 L 108.495117 54.316406 L 118.262695 84.052734 L 128.027344 72.011719 L 137.791992 93.662109 L 147.556641 86.601562 L 157.321289 103.004883 L 167.085938 100.429687 " transform="matrix(1.333333,0,0,1.333333,0,0.000000000000014211)"/>
<path style="fill:none;stroke-width:1.5;stroke-linecap:butt;stroke-linejoin:round;stroke:rgb(100%,49.803922%,5.490196%);stroke-opacity:1;stroke-dasharray:5.55,2.4;stroke-miterlimit:4;" d="M 57.231445 17.818359 L 76.760742 18.301758 L 96.290039 18.477539 L 115.819336 18.512695 L 135.348633 18.518555 L 154.880859 18.509766 L 174.410156 18.495117 " transform="matrix(1.333333,0,0,1.333333,0,0.000000000000014211)"/>
<path style="fill:none;stroke-width:1.5;stroke-linecap:square;stroke-linejoin:round;stroke:rgb(12.156863%,46.666667%,70.588237%);stroke-opacity:1;stroke-miterlimit:4;" d="M 40.142578 13.5 L 49.907227 19.186523 L 59.671875 24.47168 L 69.436523 48.079102 L 79.201172 42.990234 L 88.96582 53.337891 L 98.730469 80.194336 L 108.495117 54.316406 L 118.262695 84.052734 L 128.027344 72.011719 L 137.791992 93.662109 L 147.556641 86.601562 L 157.321289 103.004883 L 167.085938 100.429687 L 176.850586 117.776367 " transform="matrix(1.333333,0,0,1.333333,0,0.000000000000014211)"/>
<path style="fill:none;stroke-width:1.5;stroke-linecap:butt;stroke-linejoin:round;stroke:rgb(100%,49.803922%,5.490196%);stroke-opacity:1;stroke-dasharray:5.55,2.4;stroke-miterlimit:4;" d="M 57.231445 17.818359 L 76.760742 18.301758 L 96.290039 18.477539 L 115.819336 18.512695 L 135.348633 18.518555 L 154.880859 18.509766 L 174.410156 18.495117 " transform="matrix(1.333333,0,0,1.333333,0,0.000000000000014211)"/>
<path style="fill:none;stroke-width:1.5;stroke-linecap:square;stroke-linejoin:round;stroke:rgb(12.156863%,46.666667%,70.588237%);stroke-opacity:1;stroke-miterlimit:4;" d="M 40.142578 13.5 L 49.907227 19.186523 L 59.671875 24.47168 L 69.436523 48.079102 L 79.201172 42.990234 L 88.96582 53.337891 L 98.730469 80.194336 L 108.495117 54.316406 L 118.262695 84.052734 L 128.027344 72.011719 L 137.791992 93.662109 L 147.556641 86.601562 L 157.321289 103.004883 L 167.085938 100.429687 L 176.850586 117.776367 L 186.615234 112.02832 " transform="matrix(1.333333,0,0,1.333333,0,0.000000000000014211)"/>
<path style="fill:none;stroke-width:1.5;stroke-linecap:butt;stroke-linejoin:round;stroke:rgb(100%,49.803922%,5.490196%);stroke-opacity:1;stroke-dasharray:5.55,2.4;stroke-miterlimit:4;" d="M 57.231445 17.818359 L 76.760742 18.301758 L 96.290039 18.477539 L 115.819336 18.512695 L 135.348633 18.518555 L 154.880859 18.509766 L 174.410156 18.495117 " transform="matrix(1.333333,0,0,1.333333,0,0.000000000000014211)"/>
<path style="fill:none;stroke-width:1.5;stroke-linecap:square;stroke-linejoin:round;stroke:rgb(12.156863%,46.666667%,70.588237%);stroke-opacity:1;stroke-miterlimit:4;" d="M 40.142578 13.5 L 49.907227 19.186523 L 59.671875 24.47168 L 69.436523 48.079102 L 79.201172 42.990234 L 88.96582 53.337891 L 98.730469 80.194336 L 108.495117 54.316406 L 118.262695 84.052734 L 128.027344 72.011719 L 137.791992 93.662109 L 147.556641 86.601562 L 157.321289 103.004883 L 167.085938 100.429687 L 176.850586 117.776367 L 186.615234 112.02832 " transform="matrix(1.333333,0,0,1.333333,0,0.000000000000014211)"/>
<path style="fill:none;stroke-width:1.5;stroke-linecap:butt;stroke-linejoin:round;stroke:rgb(100%,49.803922%,5.490196%);stroke-opacity:1;stroke-dasharray:5.55,2.4;stroke-miterlimit:4;" d="M 57.231445 17.818359 L 76.760742 18.301758 L 96.290039 18.477539 L 115.819336 18.512695 L 135.348633 18.518555 L 154.880859 18.509766 L 174.410156 18.495117 L 193.939453 18.477539 " transform="matrix(1.333333,0,0,1.333333,0,0.000000000000014211)"/>
<path style="fill:none;stroke-width:1.5;stroke-linecap:square;stroke-linejoin:round;stroke:rgb(12.156863%,46.666667%,70.588237%);stroke-opacity:1;stroke-miterlimit:4;" d="M 40.142578 13.5 L 49.907227 19.186523 L 59.671875 24.47168 L 69.436523 48.079102 L 79.201172 42.990234 L 88.96582 53.337891 L 98.730469 80.194336 L 108.495117 54.316406 L 118.262695 84.052734 L 128.027344 72.011719 L 137.791992 93.662109 L 147.556641 86.601562 L 157.321289 103.004883 L 167.085938 100.429687 L 176.850586 117.776367 L 186.615234 112.02832 L 196.379883 126.861328 " transform="matrix(1.333333,0,0,1.333333,0,0.000000000000014211)"/>
<path style="fill:none;stroke-width:1.5;stroke-linecap:butt;stroke-linejoin:round;stroke:rgb(100%,49.803922%,5.490196%);stroke-opacity:1;stroke-dasharray:5.55,2.4;stroke-miterlimit:4;" d="M 57.231445 17.818359 L 76.760742 18.301758 L 96.290039 18.477539 L 115.819336 18.512695 L 135.348633 18.518555 L 154.880859 18.509766 L 174.410156 18.495117 L 193.939453 18.477539 " transform="matrix(1.333333,0,0,1.333333,0,0.000000000000014211)"/>
<path style="fill:none;stroke-width:1.5;stroke-linecap:square;stroke-linejoin:round;stroke:rgb(12.156863%,46.666667%,70.588237%);stroke-opacity:1;stroke-miterlimit:4;" d="M 40.142578 13.5 L 49.907227 19.186523 L 59.671875 24.47168 L 69.436523 48.079102 L 79.201172 42.990234 L 88.96582 53.337891 L 98.730469 80.194336 L 108.495117 54.316406 L 118.262695 84.052734 L 128.027344 72.011719 L 137.791992 93.662109 L 147.556641 86.601562 L 157.321289 103.004883 L 167.085938 100.429687 L 176.850586 117.776367 L 186.615234 112.02832 L 196.379883 126.861328 L 206.147461 125.821289 " transform="matrix(1.333333,0,0,1.333333,0,0.000000000000014211)"/>
<path style="fill:none;stroke-width:1.5;stroke-linecap:butt;stroke-linejoin:round;stroke:rgb(100%,49.803922%,5.490196%);stroke-opacity:1;stroke-dasharray:5.55,2.4;stroke-miterlimit:4;" d="M 57.231445 17.818359 L 76.760742 18.301758 L 96.290039 18.477539 L 115.819336 18.512695 L 135.348633 18.518555 L 154.880859 18.509766 L 174.410156 18.495117 L 193.939453 18.477539 " transform="matrix(1.333333,0,0,1.333333,0,0.000000000000014211)"/>
<path style="fill:none;stroke-width:1.5;stroke-linecap:square;stroke-linejoin:round;stroke:rgb(12.156863%,46.666667%,70.588237%);stroke-opacity:1;stroke-miterlimit:4;" d="M 40.142578 13.5 L 49.907227 19.186523 L 59.671875 24.47168 L 69.436523 48.079102 L 79.201172 42.990234 L 88.96582 53.337891 L 98.730469 80.194336 L 108.495117 54.316406 L 118.262695 84.052734 L 128.027344 72.011719 L 137.791992 93.662109 L 147.556641 86.601562 L 157.321289 103.004883 L 167.085938 100.429687 L 176.850586 117.776367 L 186.615234 112.02832 L 196.379883 126.861328 L 206.147461 125.821289 " transform="matrix(1.333333,0,0,1.333333,0,0.000000000000014211)"/>
<path style="fill:none;stroke-width:1.5;stroke-linecap:butt;stroke-linejoin:round;stroke:rgb(100%,49.803922%,5.490196%);stroke-opacity:1;stroke-dasharray:5.55,2.4;stroke-miterlimit:4;" d="M 57.231445 17.818359 L 76.760742 18.301758 L 96.290039 18.477539 L 115.819336 18.512695 L 135.348633 18.518555 L 154.880859 18.509766 L 174.410156 18.495117 L 193.939453 18.477539 L 213.46875 18.46582 " transform="matrix(1.333333,0,0,1.333333,0,0.000000000000014211)"/>
<path style="fill:none;stroke-width:1.5;stroke-linecap:square;stroke-linejoin:round;stroke:rgb(12.156863%,46.666667%,70.588237%);stroke-opacity:1;stroke-miterlimit:4;" d="M 40.142578 13.5 L 49.907227 19.186523 L 59.671875 24.47168 L 69.436523 48.079102 L 79.201172 42.990234 L 88.96582 53.337891 L 98.730469 80.194336 L 108.495117 54.316406 L 118.262695 84.052734 L 128.027344 72.011719 L 137.791992 93.662109 L 147.556641 86.601562 L 157.321289 103.004883 L 167.085938 100.429687 L 176.850586 117.776367 L 186.615234 112.02832 L 196.379883 126.861328 L 206.147461 125.821289 L 215.912109 139.5 " transform="matrix(1.333333,0,0,1.333333,0,0.000000000000014211)"/>
<path style="fill:none;stroke-width:1.5;stroke-linecap:butt;stroke-linejoin:round;stroke:rgb(100%,49.803922%,5.490196%);stroke-opacity:1;stroke-dasharray:5.55,2.4;stroke-miterlimit:4;" d="M 57.231445 17.818359 L 76.760742 18.301758 L 96.290039 18.477539 L 115.819336 18.512695 L 135.348633 18.518555 L 154.880859 18.509766 L 174.410156 18.495117 L 193.939453 18.477539 L 213.46875 18.46582 " transform="matrix(1.333333,0,0,1.333333,0,0.000000000000014211)"/>
<path style="fill:none;stroke-width:1.5;stroke-linecap:square;stroke-linejoin:round;stroke:rgb(12.156863%,46.666667%,70.588237%);stroke-opacity:1;stroke-miterlimit:4;" d="M 40.142578 13.5 L 49.907227 19.186523 L 59.671875 24.47168 L 69.436523 48.079102 L 79.201172 42.990234 L 88.96582 53.337891 L 98.730469 80.194336 L 108.495117 54.316406 L 118.262695 84.052734 L 128.027344 72.011719 L 137.791992 93.662109 L 147.556641 86.601562 L 157.321289 103.004883 L 167.085938 100.429687 L 176.850586 117.776367 L 186.615234 112.02832 L 196.379883 126.861328 L 206.147461 125.821289 L 215.912109 139.5 L 225.676758 137.162109 " transform="matrix(1.333333,0,0,1.333333,0,0.000000000000014211)"/>
<path style="fill:none;stroke-width:1.5;stroke-linecap:butt;stroke-linejoin:round;stroke:rgb(100%,49.803922%,5.490196%);stroke-opacity:1;stroke-dasharray:5.55,2.4;stroke-miterlimit:4;" d="M 57.231445 17.818359 L 76.760742 18.301758 L 96.290039 18.477539 L 115.819336 18.512695 L 135.348633 18.518555 L 154.880859 18.509766 L 174.410156 18.495117 L 193.939453 18.477539 L 213.46875 18.46582 " transform="matrix(1.333333,0,0,1.333333,0,0.000000000000014211)"/>
<path style="fill:none;stroke-width:1.5;stroke-linecap:square;stroke-linejoin:round;stroke:rgb(12.156863%,46.666667%,70.588237%);stroke-opacity:1;stroke-miterlimit:4;" d="M 40.142578 13.5 L 49.907227 19.186523 L 59.671875 24.47168 L 69.436523 48.079102 L 79.201172 42.990234 L 88.96582 53.337891 L 98.730469 80.194336 L 108.495117 54.316406 L 118.262695 84.052734 L 128.027344 72.011719 L 137.791992 93.662109 L 147.556641 86.601562 L 157.321289 103.004883 L 167.085938 100.429687 L 176.850586 117.776367 L 186.615234 112.02832 L 196.379883 126.861328 L 206.147461 125.821289 L 215.912109 139.5 L 225.676758 137.162109 " transform="matrix(1.333333,0,0,1.333333,0,0.000000000000014211)"/>
<g clip-path="url(#clip1)" clip-rule="nonzero">
<path style="fill:none;stroke-width:1.5;stroke-linecap:butt;stroke-linejoin:round;stroke:rgb(100%,49.803922%,5.490196%);stroke-opacity:1;stroke-dasharray:5.55,2.4;stroke-miterlimit:4;" d="M 57.231445 17.818359 L 76.760742 18.301758 L 96.290039 18.477539 L 115.819336 18.512695 L 135.348633 18.518555 L 154.880859 18.509766 L 174.410156 18.495117 L 193.939453 18.477539 L 213.46875 18.46582 L 233.000977 18.454102 " transform="matrix(1.333333,0,0,1.333333,0,0.000000000000014211)"/>
</g>
<path style="fill:none;stroke-width:0.8;stroke-linecap:square;stroke-linejoin:miter;stroke:rgb(0%,0%,0%);stroke-opacity:1;stroke-miterlimit:4;" d="M 37.699219 145.798828 L 37.699219 7.201172 " transform="matrix(1.333333,0,0,1.333333,0,0.000000000000014211)"/>
<path style="fill:none;stroke-width:0.8;stroke-linecap:square;stroke-linejoin:miter;stroke:rgb(0%,0%,0%);stroke-opacity:1;stroke-miterlimit:4;" d="M 233.000977 145.798828 L 233.000977 7.201172 " transform="matrix(1.333333,0,0,1.333333,0,0.000000000000014211)"/>
<path style="fill:none;stroke-width:0.8;stroke-linecap:square;stroke-linejoin:miter;stroke:rgb(0%,0%,0%);stroke-opacity:1;stroke-miterlimit:4;" d="M 37.699219 145.798828 L 233.000977 145.798828 " transform="matrix(1.333333,0,0,1.333333,0,0.000000000000014211)"/>
<path style="fill:none;stroke-width:0.8;stroke-linecap:square;stroke-linejoin:miter;stroke:rgb(0%,0%,0%);stroke-opacity:1;stroke-miterlimit:4;" d="M 37.699219 7.201172 L 233.000977 7.201172 " transform="matrix(1.333333,0,0,1.333333,0,0.000000000000014211)"/>
<use xlink:href="#surface5" mask="url(#mask0)"/>
<path style="fill:none;stroke-width:1.5;stroke-linecap:square;stroke-linejoin:round;stroke:rgb(12.156863%,46.666667%,70.588237%);stroke-opacity:1;stroke-miterlimit:4;" d="M 46.699219 115.986328 L 66.700195 115.986328 " transform="matrix(1.333333,0,0,1.333333,0,0.000000000000014211)"/>
<path style=" stroke:none;fill-rule:nonzero;fill:rgb(0%,0%,0%);fill-opacity:1;" d="M 102.042969 149.953125 L 102.042969 152.023438 L 104.507812 152.023438 L 104.507812 152.953125 L 102.042969 152.953125 L 102.042969 156.914062 C 102.042969 157.507812 102.121094 157.890625 102.285156 158.058594 C 102.449219 158.226562 102.777344 158.3125 103.277344 158.3125 L 104.507812 158.3125 L 104.507812 159.316406 L 103.277344 159.316406 C 102.355469 159.316406 101.714844 159.140625 101.363281 158.796875 C 101.011719 158.453125 100.835938 157.824219 100.835938 156.914062 L 100.835938 152.953125 L 99.957031 152.953125 L 99.957031 152.023438 L 100.835938 152.023438 L 100.835938 149.953125 Z M 102.042969 149.953125 "/>
<path style=" stroke:none;fill-rule:nonzero;fill:rgb(0%,0%,0%);fill-opacity:1;" d="M 110.308594 153.140625 C 110.175781 153.0625 110.027344 153.007812 109.871094 152.972656 C 109.710938 152.933594 109.535156 152.914062 109.347656 152.914062 C 108.667969 152.914062 108.148438 153.132812 107.785156 153.574219 C 107.421875 154.015625 107.242188 154.648438 107.242188 155.472656 L 107.242188 159.316406 L 106.039062 159.316406 L 106.039062 152.023438 L 107.242188 152.023438 L 107.242188 153.15625 C 107.496094 152.714844 107.824219 152.382812 108.226562 152.171875 C 108.628906 151.957031 109.121094 151.847656 109.699219 151.847656 C 109.78125 151.847656 109.871094 151.851562 109.972656 151.863281 C 110.070312 151.875 110.183594 151.890625 110.304688 151.914062 Z M 110.308594 153.140625 "/>
<path style=" stroke:none;fill-rule:nonzero;fill:rgb(0%,0%,0%);fill-opacity:1;" d="M 114.878906 155.648438 C 113.914062 155.648438 113.242188 155.761719 112.867188 155.980469 C 112.496094 156.203125 112.308594 156.578125 112.308594 157.113281 C 112.308594 157.539062 112.449219 157.878906 112.726562 158.128906 C 113.007812 158.375 113.390625 158.5 113.871094 158.5 C 114.535156 158.5 115.070312 158.265625 115.46875 157.792969 C 115.871094 157.324219 116.070312 156.695312 116.070312 155.917969 L 116.070312 155.648438 Z M 117.269531 155.152344 L 117.269531 159.316406 L 116.070312 159.316406 L 116.070312 158.207031 C 115.796875 158.648438 115.457031 158.976562 115.050781 159.1875 C 114.640625 159.398438 114.140625 159.503906 113.550781 159.503906 C 112.804688 159.503906 112.210938 159.292969 111.769531 158.875 C 111.328125 158.457031 111.109375 157.894531 111.109375 157.191406 C 111.109375 156.371094 111.382812 155.753906 111.933594 155.335938 C 112.484375 154.921875 113.300781 154.710938 114.390625 154.710938 L 116.070312 154.710938 L 116.070312 154.59375 C 116.070312 154.042969 115.890625 153.617188 115.527344 153.316406 C 115.164062 153.011719 114.65625 152.863281 114 152.863281 C 113.585938 152.863281 113.179688 152.914062 112.78125 153.011719 C 112.386719 153.113281 112.007812 153.261719 111.644531 153.460938 L 111.644531 152.355469 C 112.082031 152.183594 112.507812 152.058594 112.921875 151.976562 C 113.332031 151.890625 113.734375 151.847656 114.125 151.847656 C 115.179688 151.847656 115.96875 152.121094 116.488281 152.667969 C 117.007812 153.214844 117.269531 154.042969 117.269531 155.152344 Z M 117.269531 155.152344 "/>
<path style=" stroke:none;fill-rule:nonzero;fill:rgb(0%,0%,0%);fill-opacity:1;" d="M 119.738281 152.023438 L 120.933594 152.023438 L 120.933594 159.316406 L 119.738281 159.316406 Z M 119.738281 149.183594 L 120.933594 149.183594 L 120.933594 150.703125 L 119.738281 150.703125 Z M 119.738281 149.183594 "/>
<path style=" stroke:none;fill-rule:nonzero;fill:rgb(0%,0%,0%);fill-opacity:1;" d="M 129.503906 154.914062 L 129.503906 159.316406 L 128.304688 159.316406 L 128.304688 154.953125 C 128.304688 154.261719 128.171875 153.746094 127.902344 153.402344 C 127.632812 153.0625 127.226562 152.890625 126.691406 152.890625 C 126.042969 152.890625 125.535156 153.097656 125.160156 153.507812 C 124.785156 153.917969 124.597656 154.480469 124.597656 155.195312 L 124.597656 159.316406 L 123.394531 159.316406 L 123.394531 152.023438 L 124.597656 152.023438 L 124.597656 153.15625 C 124.886719 152.71875 125.222656 152.390625 125.613281 152.171875 C 126 151.957031 126.449219 151.847656 126.957031 151.847656 C 127.796875 151.847656 128.429688 152.105469 128.859375 152.625 C 129.289062 153.144531 129.503906 153.90625 129.503906 154.914062 Z M 129.503906 154.914062 "/>
<path style=" stroke:none;fill-rule:nonzero;fill:rgb(0%,0%,0%);fill-opacity:1;" d="M 137.433594 161.527344 L 137.433594 162.457031 L 130.503906 162.457031 L 130.503906 161.527344 Z M 137.433594 161.527344 "/>
<path style=" stroke:none;fill-rule:nonzero;fill:rgb(0%,0%,0%);fill-opacity:1;" d="M 138.558594 149.183594 L 139.757812 149.183594 L 139.757812 159.316406 L 138.558594 159.316406 Z M 138.558594 149.183594 "/>
<path style=" stroke:none;fill-rule:nonzero;fill:rgb(0%,0%,0%);fill-opacity:1;" d="M 145.085938 152.863281 C 144.445312 152.863281 143.9375 153.113281 143.566406 153.613281 C 143.191406 154.117188 143.003906 154.804688 143.003906 155.675781 C 143.003906 156.546875 143.191406 157.234375 143.558594 157.734375 C 143.933594 158.238281 144.441406 158.488281 145.085938 158.488281 C 145.726562 158.488281 146.230469 158.234375 146.605469 157.734375 C 146.976562 157.230469 147.164062 156.542969 147.164062 155.675781 C 147.164062 154.8125 146.976562 154.125 146.605469 153.621094 C 146.230469 153.117188 145.726562 152.863281 145.085938 152.863281 Z M 145.085938 151.847656 C 146.128906 151.847656 146.945312 152.1875 147.542969 152.863281 C 148.136719 153.539062 148.433594 154.476562 148.433594 155.675781 C 148.433594 156.867188 148.136719 157.804688 147.542969 158.484375 C 146.945312 159.164062 146.128906 159.503906 145.085938 159.503906 C 144.042969 159.503906 143.222656 159.164062 142.628906 158.484375 C 142.039062 157.804688 141.742188 156.867188 141.742188 155.675781 C 141.742188 154.476562 142.039062 153.539062 142.628906 152.863281 C 143.222656 152.1875 144.042969 151.847656 145.085938 151.847656 Z M 145.085938 151.847656 "/>
<path style=" stroke:none;fill-rule:nonzero;fill:rgb(0%,0%,0%);fill-opacity:1;" d="M 155.066406 152.238281 L 155.066406 153.371094 C 154.730469 153.195312 154.378906 153.066406 154.015625 152.980469 C 153.648438 152.894531 153.273438 152.851562 152.878906 152.851562 C 152.285156 152.851562 151.839844 152.941406 151.542969 153.121094 C 151.246094 153.304688 151.097656 153.578125 151.097656 153.945312 C 151.097656 154.222656 151.203125 154.441406 151.414062 154.597656 C 151.628906 154.757812 152.054688 154.90625 152.699219 155.050781 L 153.109375 155.140625 C 153.960938 155.324219 154.5625 155.582031 154.921875 155.914062 C 155.28125 156.246094 155.460938 156.707031 155.460938 157.300781 C 155.460938 157.980469 155.191406 158.515625 154.65625 158.914062 C 154.121094 159.308594 153.382812 159.503906 152.445312 159.503906 C 152.054688 159.503906 151.648438 159.464844 151.222656 159.390625 C 150.800781 159.3125 150.355469 159.199219 149.886719 159.046875 L 149.886719 157.808594 C 150.328125 158.039062 150.765625 158.214844 151.195312 158.328125 C 151.625 158.441406 152.050781 158.5 152.472656 158.5 C 153.035156 158.5 153.46875 158.402344 153.773438 158.210938 C 154.078125 158.015625 154.226562 157.746094 154.226562 157.394531 C 154.226562 157.070312 154.117188 156.820312 153.898438 156.644531 C 153.679688 156.472656 153.199219 156.304688 152.457031 156.144531 L 152.039062 156.046875 C 151.300781 155.890625 150.761719 155.652344 150.433594 155.328125 C 150.101562 155.003906 149.9375 154.558594 149.9375 153.996094 C 149.9375 153.308594 150.183594 152.78125 150.667969 152.410156 C 151.152344 152.035156 151.84375 151.847656 152.738281 151.847656 C 153.179688 151.847656 153.597656 151.878906 153.988281 151.945312 C 154.378906 152.007812 154.738281 152.105469 155.066406 152.238281 Z M 155.066406 152.238281 "/>
<path style=" stroke:none;fill-rule:nonzero;fill:rgb(0%,0%,0%);fill-opacity:1;" d="M 162.015625 152.238281 L 162.015625 153.371094 C 161.675781 153.195312 161.324219 153.066406 160.960938 152.980469 C 160.597656 152.894531 160.21875 152.851562 159.828125 152.851562 C 159.234375 152.851562 158.785156 152.941406 158.488281 153.121094 C 158.191406 153.304688 158.042969 153.578125 158.042969 153.945312 C 158.042969 154.222656 158.148438 154.441406 158.363281 154.597656 C 158.574219 154.757812 159.003906 154.90625 159.644531 155.050781 L 160.054688 155.140625 C 160.90625 155.324219 161.511719 155.582031 161.867188 155.914062 C 162.226562 156.246094 162.40625 156.707031 162.40625 157.300781 C 162.40625 157.980469 162.136719 158.515625 161.601562 158.914062 C 161.066406 159.308594 160.328125 159.503906 159.390625 159.503906 C 159 159.503906 158.59375 159.464844 158.171875 159.390625 C 157.746094 159.3125 157.300781 159.199219 156.832031 159.046875 L 156.832031 157.808594 C 157.277344 158.039062 157.710938 158.214844 158.140625 158.328125 C 158.570312 158.441406 158.996094 158.5 159.417969 158.5 C 159.984375 158.5 160.414062 158.402344 160.71875 158.210938 C 161.023438 158.015625 161.175781 157.746094 161.175781 157.394531 C 161.175781 157.070312 161.066406 156.820312 160.847656 156.644531 C 160.628906 156.472656 160.148438 156.304688 159.402344 156.144531 L 158.988281 156.046875 C 158.246094 155.890625 157.710938 155.652344 157.378906 155.328125 C 157.050781 155.003906 156.886719 154.558594 156.886719 153.996094 C 156.886719 153.308594 157.128906 152.78125 157.613281 152.410156 C 158.101562 152.035156 158.789062 151.847656 159.683594 151.847656 C 160.128906 151.847656 160.542969 151.878906 160.933594 151.945312 C 161.324219 152.007812 161.683594 152.105469 162.015625 152.238281 Z M 162.015625 152.238281 "/>
<path style="fill:none;stroke-width:1.5;stroke-linecap:butt;stroke-linejoin:round;stroke:rgb(100%,49.803922%,5.490196%);stroke-opacity:1;stroke-dasharray:5.55,2.4;stroke-miterlimit:4;" d="M 46.699219 130.942383 L 66.700195 130.942383 " transform="matrix(1.333333,0,0,1.333333,0,0.000000000000014211)"/>
<path style=" stroke:none;fill-rule:nonzero;fill:rgb(0%,0%,0%);fill-opacity:1;" d="M 99.996094 171.964844 L 101.265625 171.964844 L 103.546875 178.082031 L 105.824219 171.964844 L 107.09375 171.964844 L 104.359375 179.257812 L 102.730469 179.257812 Z M 99.996094 171.964844 "/>
<path style=" stroke:none;fill-rule:nonzero;fill:rgb(0%,0%,0%);fill-opacity:1;" d="M 112.0625 175.589844 C 111.09375 175.589844 110.421875 175.703125 110.050781 175.921875 C 109.675781 176.144531 109.488281 176.523438 109.488281 177.054688 C 109.488281 177.480469 109.628906 177.820312 109.910156 178.070312 C 110.191406 178.316406 110.570312 178.441406 111.050781 178.441406 C 111.714844 178.441406 112.25 178.207031 112.652344 177.734375 C 113.050781 177.265625 113.253906 176.640625 113.253906 175.859375 L 113.253906 175.589844 Z M 114.449219 175.097656 L 114.449219 179.257812 L 113.253906 179.257812 L 113.253906 178.148438 C 112.980469 178.589844 112.636719 178.917969 112.230469 179.128906 C 111.820312 179.339844 111.324219 179.445312 110.730469 179.445312 C 109.988281 179.445312 109.394531 179.234375 108.949219 178.816406 C 108.511719 178.398438 108.289062 177.835938 108.289062 177.132812 C 108.289062 176.3125 108.566406 175.695312 109.113281 175.277344 C 109.664062 174.863281 110.484375 174.652344 111.570312 174.652344 L 113.253906 174.652344 L 113.253906 174.535156 C 113.253906 173.984375 113.070312 173.558594 112.710938 173.257812 C 112.347656 172.953125 111.835938 172.804688 111.183594 172.804688 C 110.765625 172.804688 110.359375 172.855469 109.964844 172.953125 C 109.570312 173.054688 109.191406 173.203125 108.824219 173.402344 L 108.824219 172.296875 C 109.261719 172.125 109.6875 172 110.101562 171.917969 C 110.511719 171.832031 110.914062 171.789062 111.304688 171.789062 C 112.359375 171.789062 113.148438 172.0625 113.667969 172.609375 C 114.191406 173.15625 114.449219 173.984375 114.449219 175.097656 Z M 114.449219 175.097656 "/>
<path style=" stroke:none;fill-rule:nonzero;fill:rgb(0%,0%,0%);fill-opacity:1;" d="M 116.917969 169.125 L 118.117188 169.125 L 118.117188 179.257812 L 116.917969 179.257812 Z M 116.917969 169.125 "/>
<path style=" stroke:none;fill-rule:nonzero;fill:rgb(0%,0%,0%);fill-opacity:1;" d="M 126.164062 181.472656 L 126.164062 182.398438 L 119.234375 182.398438 L 119.234375 181.472656 Z M 126.164062 181.472656 "/>
<path style=" stroke:none;fill-rule:nonzero;fill:rgb(0%,0%,0%);fill-opacity:1;" d="M 127.289062 169.125 L 128.488281 169.125 L 128.488281 179.257812 L 127.289062 179.257812 Z M 127.289062 169.125 "/>
<path style=" stroke:none;fill-rule:nonzero;fill:rgb(0%,0%,0%);fill-opacity:1;" d="M 133.816406 172.804688 C 133.175781 172.804688 132.667969 173.054688 132.296875 173.554688 C 131.921875 174.058594 131.734375 174.746094 131.734375 175.617188 C 131.734375 176.488281 131.921875 177.175781 132.289062 177.675781 C 132.664062 178.179688 133.171875 178.429688 133.816406 178.429688 C 134.457031 178.429688 134.960938 178.179688 135.335938 177.675781 C 135.707031 177.171875 135.894531 176.484375 135.894531 175.617188 C 135.894531 174.753906 135.707031 174.066406 135.335938 173.5625 C 134.960938 173.058594 134.457031 172.804688 133.816406 172.804688 Z M 133.816406 171.789062 C 134.859375 171.789062 135.675781 172.128906 136.273438 172.804688 C 136.867188 173.484375 137.164062 174.417969 137.164062 175.617188 C 137.164062 176.808594 136.867188 177.746094 136.273438 178.425781 C 135.675781 179.105469 134.859375 179.445312 133.816406 179.445312 C 132.773438 179.445312 131.953125 179.105469 131.359375 178.425781 C 130.769531 177.746094 130.472656 176.808594 130.472656 175.617188 C 130.472656 174.417969 130.769531 173.484375 131.359375 172.804688 C 131.953125 172.128906 132.773438 171.789062 133.816406 171.789062 Z M 133.816406 171.789062 "/>
<path style=" stroke:none;fill-rule:nonzero;fill:rgb(0%,0%,0%);fill-opacity:1;" d="M 143.796875 172.179688 L 143.796875 173.3125 C 143.460938 173.140625 143.109375 173.007812 142.746094 172.921875 C 142.378906 172.835938 142.003906 172.792969 141.609375 172.792969 C 141.015625 172.792969 140.570312 172.882812 140.273438 173.066406 C 139.976562 173.246094 139.828125 173.519531 139.828125 173.886719 C 139.828125 174.164062 139.933594 174.382812 140.144531 174.539062 C 140.359375 174.699219 140.785156 174.847656 141.429688 174.992188 L 141.839844 175.082031 C 142.691406 175.265625 143.292969 175.523438 143.652344 175.855469 C 144.011719 176.1875 144.191406 176.648438 144.191406 177.242188 C 144.191406 177.921875 143.921875 178.457031 143.386719 178.855469 C 142.851562 179.25 142.113281 179.445312 141.175781 179.445312 C 140.785156 179.445312 140.378906 179.40625 139.953125 179.332031 C 139.53125 179.253906 139.085938 179.140625 138.617188 178.988281 L 138.617188 177.753906 C 139.058594 177.984375 139.496094 178.15625 139.925781 178.269531 C 140.355469 178.382812 140.78125 178.441406 141.203125 178.441406 C 141.765625 178.441406 142.199219 178.34375 142.503906 178.152344 C 142.808594 177.960938 142.957031 177.6875 142.957031 177.335938 C 142.957031 177.011719 142.847656 176.761719 142.628906 176.585938 C 142.410156 176.414062 141.929688 176.246094 141.1875 176.085938 L 140.769531 175.988281 C 140.03125 175.832031 139.492188 175.59375 139.164062 175.269531 C 138.832031 174.945312 138.667969 174.5 138.667969 173.9375 C 138.667969 173.25 138.914062 172.722656 139.398438 172.351562 C 139.882812 171.976562 140.574219 171.789062 141.46875 171.789062 C 141.910156 171.789062 142.328125 171.820312 142.71875 171.886719 C 143.109375 171.953125 143.46875 172.046875 143.796875 172.179688 Z M 143.796875 172.179688 "/>
<path style=" stroke:none;fill-rule:nonzero;fill:rgb(0%,0%,0%);fill-opacity:1;" d="M 150.746094 172.179688 L 150.746094 173.3125 C 150.40625 173.140625 150.054688 173.007812 149.691406 172.921875 C 149.328125 172.835938 148.949219 172.792969 148.558594 172.792969 C 147.964844 172.792969 147.515625 172.882812 147.21875 173.066406 C 146.921875 173.246094 146.773438 173.519531 146.773438 173.886719 C 146.773438 174.164062 146.878906 174.382812 147.09375 174.539062 C 147.304688 174.699219 147.734375 174.847656 148.375 174.992188 L 148.785156 175.082031 C 149.636719 175.265625 150.242188 175.523438 150.597656 175.855469 C 150.957031 176.1875 151.136719 176.648438 151.136719 177.242188 C 151.136719 177.921875 150.867188 178.457031 150.332031 178.855469 C 149.796875 179.25 149.058594 179.445312 148.121094 179.445312 C 147.730469 179.445312 147.324219 179.40625 146.902344 179.332031 C 146.476562 179.253906 146.03125 179.140625 145.5625 178.988281 L 145.5625 177.753906 C 146.007812 177.984375 146.441406 178.15625 146.871094 178.269531 C 147.300781 178.382812 147.726562 178.441406 148.148438 178.441406 C 148.714844 178.441406 149.144531 178.34375 149.449219 178.152344 C 149.753906 177.960938 149.90625 177.6875 149.90625 177.335938 C 149.90625 177.011719 149.796875 176.761719 149.578125 176.585938 C 149.359375 176.414062 148.878906 176.246094 148.132812 176.085938 L 147.71875 175.988281 C 146.976562 175.832031 146.441406 175.59375 146.109375 175.269531 C 145.78125 174.945312 145.617188 174.5 145.617188 173.9375 C 145.617188 173.25 145.859375 172.722656 146.34375 172.351562 C 146.832031 171.976562 147.519531 171.789062 148.414062 171.789062 C 148.859375 171.789062 149.273438 171.820312 149.664062 171.886719 C 150.054688 171.953125 150.414062 172.046875 150.746094 172.179688 Z M 150.746094 172.179688 "/>
</g>
</svg>
