<?xml version="1.0" encoding="UTF-8"?>
<svg xmlns="http://www.w3.org/2000/svg" xmlns:xlink="http://www.w3.org/1999/xlink" width="328.75" height="244.474996" viewBox="0 0 328.75 244.474996" version="1.1">
<defs>
<clipPath id="clip1">
  <path d="M 75 37 L 310.667969 37 L 310.667969 116 L 75 116 Z M 75 37 "/>
</clipPath>
<filter id="alpha" filterUnits="objectBoundingBox" x="0%" y="0%" width="100%" height="100%">
  <feColorMatrix type="matrix" in="SourceGraphic" values="0 0 0 0 1 0 0 0 0 1 0 0 0 0 1 0 0 0 1 0"/>
</filter>
<mask id="mask0">
  <g filter="url(#alpha)">
<rect x="0" y="0" width="328.75" height="244.474996" style="fill:rgb(0%,0%,0%);fill-opacity:0.8;stroke:none;"/>
  </g>
</mask>
<clipPath id="clip2">
  <rect x="0" y="0" width="329" height="245"/>
</clipPath>
<g id="surface5" clip-path="url(#clip2)">
<path style="fill-rule:nonzero;fill:rgb(100%,100%,100%);fill-opacity:1;stroke-width:1;stroke-linecap:butt;stroke-linejoin:miter;stroke:rgb(80.000001%,80.000001%,80.000001%);stroke-opacity:1;stroke-miterlimit:4;" d="M 146.408203 45.111328 L 225.999023 45.111328 C 227.332031 45.111328 228 44.446289 228 43.113281 L 228 14.200195 C 228 12.867187 227.332031 12.199219 225.999023 12.199219 L 146.408203 12.199219 C 145.075195 12.199219 144.410156 12.867187 144.410156 14.200195 L 144.410156 43.113281 C 144.410156 44.446289 145.075195 45.111328 146.408203 45.111328 Z M 146.408203 45.111328 " transform="matrix(1.333333,0,0,1.333333,0,0.000000000000014211)"/>
</g>
</defs>
<g id="surface1">
<path style=" stroke:none;fill-rule:nonzero;fill:rgb(100%,100%,100%);fill-opacity:1;" d="M 0 244.476562 L 328.75 244.476562 L 328.75 0 L 0 0 Z M 0 244.476562 "/>
<path style=" stroke:none;fill-rule:nonzero;fill:rgb(100%,100%,100%);fill-opacity:1;" d="M 50.265625 194.398438 L 310.667969 194.398438 L 310.667969 9.601562 L 50.265625 9.601562 Z M 50.265625 194.398438 "/>
<path style="fill:none;stroke-width:0.8;stroke-linecap:butt;stroke-linejoin:round;stroke:rgb(0%,0%,0%);stroke-opacity:1;stroke-miterlimit:4;" d="M -0.000782013 -0.00117493 L -0.000782013 3.499802 " transform="matrix(1.333333,0,0,1.333333,50.266668,194.400004)"/>
<path style=" stroke:none;fill-rule:nonzero;fill:rgb(0%,0%,0%);fill-opacity:1;" d="M 50.261719 205.011719 C 49.585938 205.011719 49.078125 205.34375 48.734375 206.011719 C 48.394531 206.675781 48.226562 207.675781 48.226562 209.015625 C 48.226562 210.347656 48.394531 211.347656 48.734375 212.011719 C 49.078125 212.679688 49.585938 213.011719 50.261719 213.011719 C 50.945312 213.011719 51.457031 212.679688 51.796875 212.011719 C 52.136719 211.347656 52.308594 210.347656 52.308594 209.015625 C 52.308594 207.675781 52.136719 206.675781 51.796875 206.011719 C 51.457031 205.34375 50.945312 205.011719 50.261719 205.011719 Z M 50.261719 203.96875 C 51.351562 203.96875 52.183594 204.398438 52.761719 205.261719 C 53.335938 206.125 53.621094 207.375 53.621094 209.015625 C 53.621094 210.652344 53.335938 211.898438 52.761719 212.761719 C 52.183594 213.625 51.351562 214.054688 50.261719 214.054688 C 49.171875 214.054688 48.339844 213.625 47.765625 212.761719 C 47.191406 211.898438 46.902344 210.652344 46.902344 209.015625 C 46.902344 207.375 47.191406 206.125 47.765625 205.261719 C 48.339844 204.398438 49.171875 203.96875 50.261719 203.96875 Z M 50.261719 203.96875 "/>
<path style="fill:none;stroke-width:0.8;stroke-linecap:butt;stroke-linejoin:round;stroke:rgb(0%,0%,0%);stroke-opacity:1;stroke-miterlimit:4;" d="M 0.000740051 -0.00117493 L 0.000740051 3.499802 " transform="matrix(1.333333,0,0,1.333333,102.34667,194.400004)"/>
<path style=" stroke:none;fill-rule:nonzero;fill:rgb(0%,0%,0%);fill-opacity:1;" d="M 100.664062 212.757812 L 105.253906 212.757812 L 105.253906 213.863281 L 99.082031 213.863281 L 99.082031 212.757812 C 99.582031 212.242188 100.261719 211.546875 101.121094 210.679688 C 101.984375 209.808594 102.527344 209.246094 102.746094 208.992188 C 103.167969 208.523438 103.460938 208.121094 103.628906 207.792969 C 103.796875 207.464844 103.878906 207.144531 103.878906 206.828125 C 103.878906 206.308594 103.699219 205.890625 103.335938 205.566406 C 102.972656 205.238281 102.5 205.074219 101.917969 205.074219 C 101.507812 205.074219 101.070312 205.148438 100.613281 205.289062 C 100.15625 205.433594 99.667969 205.648438 99.148438 205.941406 L 99.148438 204.613281 C 99.675781 204.398438 100.171875 204.238281 100.628906 204.132812 C 101.089844 204.023438 101.511719 203.96875 101.894531 203.96875 C 102.902344 203.96875 103.703125 204.222656 104.304688 204.726562 C 104.902344 205.226562 105.199219 205.898438 105.199219 206.742188 C 105.199219 207.140625 105.125 207.519531 104.976562 207.878906 C 104.828125 208.234375 104.554688 208.65625 104.160156 209.144531 C 104.050781 209.269531 103.707031 209.632812 103.125 210.234375 C 102.542969 210.835938 101.722656 211.679688 100.664062 212.757812 Z M 100.664062 212.757812 "/>
<path style="fill:none;stroke-width:0.8;stroke-linecap:butt;stroke-linejoin:round;stroke:rgb(0%,0%,0%);stroke-opacity:1;stroke-miterlimit:4;" d="M -0.000663757 -0.00117493 L -0.000663757 3.499802 " transform="matrix(1.333333,0,0,1.333333,154.426666,194.400004)"/>
<path style=" stroke:none;fill-rule:nonzero;fill:rgb(0%,0%,0%);fill-opacity:1;" d="M 155.222656 205.289062 L 151.902344 210.480469 L 155.222656 210.480469 Z M 154.878906 204.144531 L 156.53125 204.144531 L 156.53125 210.480469 L 157.921875 210.480469 L 157.921875 211.574219 L 156.53125 211.574219 L 156.53125 213.863281 L 155.222656 213.863281 L 155.222656 211.574219 L 150.835938 211.574219 L 150.835938 210.304688 Z M 154.878906 204.144531 "/>
<path style="fill:none;stroke-width:0.8;stroke-linecap:butt;stroke-linejoin:round;stroke:rgb(0%,0%,0%);stroke-opacity:1;stroke-miterlimit:4;" d="M 0.000854492 -0.00117493 L 0.000854492 3.499802 " transform="matrix(1.333333,0,0,1.333333,206.506673,194.400004)"/>
<path style=" stroke:none;fill-rule:nonzero;fill:rgb(0%,0%,0%);fill-opacity:1;" d="M 206.667969 208.480469 C 206.078125 208.480469 205.609375 208.683594 205.261719 209.085938 C 204.917969 209.492188 204.746094 210.042969 204.746094 210.746094 C 204.746094 211.445312 204.917969 211.996094 205.261719 212.402344 C 205.609375 212.808594 206.078125 213.011719 206.667969 213.011719 C 207.257812 213.011719 207.726562 212.808594 208.070312 212.402344 C 208.414062 211.996094 208.585938 211.445312 208.585938 210.746094 C 208.585938 210.042969 208.414062 209.492188 208.070312 209.085938 C 207.726562 208.683594 207.257812 208.480469 206.667969 208.480469 Z M 209.277344 204.359375 L 209.277344 205.554688 C 208.945312 205.402344 208.613281 205.28125 208.277344 205.199219 C 207.941406 205.117188 207.609375 205.074219 207.277344 205.074219 C 206.410156 205.074219 205.746094 205.367188 205.289062 205.953125 C 204.832031 206.539062 204.570312 207.425781 204.503906 208.609375 C 204.761719 208.234375 205.082031 207.941406 205.46875 207.742188 C 205.855469 207.539062 206.28125 207.441406 206.746094 207.441406 C 207.71875 207.441406 208.492188 207.734375 209.058594 208.328125 C 209.625 208.921875 209.910156 209.726562 209.910156 210.746094 C 209.910156 211.746094 209.613281 212.546875 209.023438 213.148438 C 208.433594 213.753906 207.648438 214.054688 206.667969 214.054688 C 205.542969 214.054688 204.683594 213.625 204.089844 212.761719 C 203.492188 211.898438 203.195312 210.652344 203.195312 209.015625 C 203.195312 207.476562 203.5625 206.253906 204.289062 205.339844 C 205.019531 204.425781 205.996094 203.96875 207.226562 203.96875 C 207.554688 203.96875 207.890625 204 208.226562 204.066406 C 208.5625 204.132812 208.914062 204.230469 209.277344 204.359375 Z M 209.277344 204.359375 "/>
<path style="fill:none;stroke-width:0.8;stroke-linecap:butt;stroke-linejoin:round;stroke:rgb(0%,0%,0%);stroke-opacity:1;stroke-miterlimit:4;" d="M -0.000549316 -0.00117493 L -0.000549316 3.499802 " transform="matrix(1.333333,0,0,1.333333,258.58667,194.400004)"/>
<path style=" stroke:none;fill-rule:nonzero;fill:rgb(0%,0%,0%);fill-opacity:1;" d="M 258.582031 209.246094 C 257.957031 209.246094 257.464844 209.414062 257.109375 209.75 C 256.75 210.085938 256.570312 210.542969 256.570312 211.128906 C 256.570312 211.714844 256.75 212.175781 257.109375 212.511719 C 257.464844 212.84375 257.957031 213.011719 258.582031 213.011719 C 259.207031 213.011719 259.699219 212.84375 260.058594 212.507812 C 260.421875 212.171875 260.601562 211.710938 260.601562 211.128906 C 260.601562 210.542969 260.421875 210.085938 260.0625 209.75 C 259.707031 209.414062 259.214844 209.246094 258.582031 209.246094 Z M 257.269531 208.691406 C 256.703125 208.550781 256.265625 208.289062 255.949219 207.902344 C 255.636719 207.515625 255.476562 207.042969 255.476562 206.488281 C 255.476562 205.710938 255.753906 205.097656 256.308594 204.644531 C 256.863281 204.195312 257.621094 203.96875 258.582031 203.96875 C 259.550781 203.96875 260.308594 204.195312 260.863281 204.644531 C 261.414062 205.097656 261.6875 205.710938 261.6875 206.488281 C 261.6875 207.042969 261.53125 207.515625 261.214844 207.902344 C 260.902344 208.289062 260.464844 208.550781 259.90625 208.691406 C 260.539062 208.835938 261.03125 209.125 261.382812 209.554688 C 261.738281 209.984375 261.914062 210.507812 261.914062 211.128906 C 261.914062 212.070312 261.628906 212.796875 261.054688 213.300781 C 260.476562 213.804688 259.65625 214.054688 258.582031 214.054688 C 257.511719 214.054688 256.6875 213.804688 256.113281 213.300781 C 255.535156 212.796875 255.25 212.070312 255.25 211.128906 C 255.25 210.507812 255.425781 209.984375 255.78125 209.554688 C 256.140625 209.125 256.632812 208.835938 257.269531 208.691406 Z M 256.785156 206.613281 C 256.785156 207.117188 256.945312 207.507812 257.257812 207.789062 C 257.574219 208.070312 258.015625 208.210938 258.582031 208.210938 C 259.148438 208.210938 259.589844 208.070312 259.90625 207.789062 C 260.226562 207.507812 260.386719 207.117188 260.386719 206.613281 C 260.386719 206.109375 260.226562 205.714844 259.90625 205.433594 C 259.589844 205.152344 259.148438 205.011719 258.582031 205.011719 C 258.015625 205.011719 257.574219 205.152344 257.257812 205.433594 C 256.945312 205.714844 256.785156 206.109375 256.785156 206.613281 Z M 256.785156 206.613281 "/>
<path style="fill:none;stroke-width:0.8;stroke-linecap:butt;stroke-linejoin:round;stroke:rgb(0%,0%,0%);stroke-opacity:1;stroke-miterlimit:4;" d="M 0.000976562 -0.00117493 L 0.000976562 3.499802 " transform="matrix(1.333333,0,0,1.333333,310.666667,194.400004)"/>
<path style=" stroke:none;fill-rule:nonzero;fill:rgb(0%,0%,0%);fill-opacity:1;" d="M 303.835938 212.757812 L 305.984375 212.757812 L 305.984375 205.339844 L 303.648438 205.808594 L 303.648438 204.613281 L 305.972656 204.144531 L 307.289062 204.144531 L 307.289062 212.757812 L 309.433594 212.757812 L 309.433594 213.863281 L 303.835938 213.863281 Z M 303.835938 212.757812 "/>
<path style=" stroke:none;fill-rule:nonzero;fill:rgb(0%,0%,0%);fill-opacity:1;" d="M 314.902344 205.011719 C 314.226562 205.011719 313.71875 205.34375 313.375 206.011719 C 313.035156 206.675781 312.867188 207.675781 312.867188 209.015625 C 312.867188 210.347656 313.035156 211.347656 313.375 212.011719 C 313.71875 212.679688 314.226562 213.011719 314.902344 213.011719 C 315.585938 213.011719 316.097656 212.679688 316.4375 212.011719 C 316.777344 211.347656 316.949219 210.347656 316.949219 209.015625 C 316.949219 207.675781 316.777344 206.675781 316.4375 206.011719 C 316.097656 205.34375 315.585938 205.011719 314.902344 205.011719 Z M 314.902344 203.96875 C 315.996094 203.96875 316.828125 204.398438 317.402344 205.261719 C 317.976562 206.125 318.265625 207.375 318.265625 209.015625 C 318.265625 210.652344 317.976562 211.898438 317.402344 212.761719 C 316.828125 213.625 315.996094 214.054688 314.902344 214.054688 C 313.816406 214.054688 312.984375 213.625 312.40625 212.761719 C 311.832031 211.898438 311.546875 210.652344 311.546875 209.015625 C 311.546875 207.375 311.832031 206.125 312.40625 205.261719 C 312.984375 204.398438 313.816406 203.96875 314.902344 203.96875 Z M 314.902344 203.96875 "/>
<path style=" stroke:none;fill-rule:nonzero;fill:rgb(0%,0%,0%);fill-opacity:1;" d="M 167.65625 228.15625 L 167.65625 228.742188 L 162.148438 228.742188 C 162.199219 229.566406 162.449219 230.195312 162.894531 230.628906 C 163.339844 231.058594 163.957031 231.273438 164.753906 231.273438 C 165.210938 231.273438 165.65625 231.21875 166.089844 231.105469 C 166.523438 230.992188 166.949219 230.824219 167.378906 230.597656 L 167.378906 231.730469 C 166.945312 231.914062 166.503906 232.050781 166.054688 232.148438 C 165.601562 232.242188 165.144531 232.292969 164.679688 232.292969 C 163.515625 232.292969 162.597656 231.953125 161.917969 231.277344 C 161.238281 230.597656 160.898438 229.683594 160.898438 228.527344 C 160.898438 227.335938 161.21875 226.386719 161.863281 225.6875 C 162.507812 224.984375 163.378906 224.636719 164.472656 224.636719 C 165.453125 224.636719 166.230469 224.953125 166.800781 225.582031 C 167.371094 226.214844 167.65625 227.070312 167.65625 228.15625 Z M 166.457031 227.804688 C 166.449219 227.148438 166.265625 226.628906 165.910156 226.238281 C 165.550781 225.847656 165.074219 225.648438 164.484375 225.648438 C 163.816406 225.648438 163.28125 225.839844 162.882812 226.214844 C 162.480469 226.59375 162.25 227.125 162.1875 227.8125 Z M 166.457031 227.804688 "/>
<path style=" stroke:none;fill-rule:nonzero;fill:rgb(0%,0%,0%);fill-opacity:1;" d="M 170.78125 231.007812 L 170.78125 234.875 L 169.574219 234.875 L 169.574219 224.808594 L 170.78125 224.808594 L 170.78125 225.917969 C 171.03125 225.484375 171.351562 225.160156 171.734375 224.953125 C 172.117188 224.742188 172.578125 224.636719 173.113281 224.636719 C 173.996094 224.636719 174.71875 224.988281 175.269531 225.691406 C 175.824219 226.390625 176.101562 227.316406 176.101562 228.460938 C 176.101562 229.609375 175.824219 230.535156 175.269531 231.238281 C 174.71875 231.941406 173.996094 232.292969 173.113281 232.292969 C 172.578125 232.292969 172.117188 232.1875 171.734375 231.976562 C 171.351562 231.765625 171.03125 231.441406 170.78125 231.007812 Z M 174.855469 228.460938 C 174.855469 227.582031 174.675781 226.890625 174.3125 226.390625 C 173.949219 225.886719 173.453125 225.636719 172.820312 225.636719 C 172.183594 225.636719 171.6875 225.886719 171.324219 226.390625 C 170.960938 226.890625 170.78125 227.582031 170.78125 228.460938 C 170.78125 229.34375 170.960938 230.035156 171.324219 230.535156 C 171.6875 231.035156 172.183594 231.289062 172.820312 231.289062 C 173.453125 231.289062 173.949219 231.035156 174.3125 230.535156 C 174.675781 230.035156 174.855469 229.34375 174.855469 228.460938 Z M 174.855469 228.460938 "/>
<path style=" stroke:none;fill-rule:nonzero;fill:rgb(0%,0%,0%);fill-opacity:1;" d="M 180.910156 225.648438 C 180.269531 225.648438 179.761719 225.902344 179.386719 226.402344 C 179.015625 226.902344 178.828125 227.589844 178.828125 228.460938 C 178.828125 229.335938 179.011719 230.023438 179.382812 230.523438 C 179.753906 231.023438 180.265625 231.273438 180.910156 231.273438 C 181.550781 231.273438 182.054688 231.023438 182.425781 230.519531 C 182.800781 230.015625 182.988281 229.332031 182.988281 228.460938 C 182.988281 227.597656 182.800781 226.914062 182.425781 226.410156 C 182.054688 225.902344 181.550781 225.648438 180.910156 225.648438 Z M 180.910156 224.636719 C 181.953125 224.636719 182.769531 224.972656 183.363281 225.652344 C 183.960938 226.328125 184.257812 227.265625 184.257812 228.460938 C 184.257812 229.65625 183.960938 230.59375 183.363281 231.273438 C 182.769531 231.953125 181.953125 232.292969 180.910156 232.292969 C 179.863281 232.292969 179.046875 231.953125 178.453125 231.273438 C 177.859375 230.59375 177.566406 229.65625 177.566406 228.460938 C 177.566406 227.265625 177.859375 226.328125 178.453125 225.652344 C 179.046875 224.972656 179.863281 224.636719 180.910156 224.636719 Z M 180.910156 224.636719 "/>
<path style=" stroke:none;fill-rule:nonzero;fill:rgb(0%,0%,0%);fill-opacity:1;" d="M 191.492188 225.089844 L 191.492188 226.210938 C 191.152344 226.023438 190.8125 225.882812 190.472656 225.789062 C 190.132812 225.695312 189.789062 225.648438 189.441406 225.648438 C 188.664062 225.648438 188.058594 225.898438 187.628906 226.390625 C 187.199219 226.882812 186.984375 227.570312 186.984375 228.460938 C 186.984375 229.351562 187.199219 230.042969 187.628906 230.539062 C 188.058594 231.027344 188.664062 231.273438 189.441406 231.273438 C 189.789062 231.273438 190.132812 231.226562 190.472656 231.136719 C 190.8125 231.042969 191.152344 230.902344 191.492188 230.714844 L 191.492188 231.824219 C 191.15625 231.976562 190.808594 232.09375 190.453125 232.171875 C 190.09375 232.253906 189.714844 232.292969 189.308594 232.292969 C 188.210938 232.292969 187.339844 231.945312 186.691406 231.257812 C 186.046875 230.566406 185.722656 229.632812 185.722656 228.460938 C 185.722656 227.273438 186.046875 226.339844 186.703125 225.660156 C 187.355469 224.976562 188.25 224.636719 189.390625 224.636719 C 189.757812 224.636719 190.117188 224.671875 190.46875 224.75 C 190.820312 224.824219 191.160156 224.9375 191.492188 225.089844 Z M 191.492188 225.089844 "/>
<path style=" stroke:none;fill-rule:nonzero;fill:rgb(0%,0%,0%);fill-opacity:1;" d="M 199.636719 227.699219 L 199.636719 232.101562 L 198.4375 232.101562 L 198.4375 227.738281 C 198.4375 227.050781 198.304688 226.535156 198.035156 226.191406 C 197.765625 225.847656 197.359375 225.675781 196.824219 225.675781 C 196.175781 225.675781 195.667969 225.882812 195.292969 226.296875 C 194.917969 226.707031 194.730469 227.269531 194.730469 227.980469 L 194.730469 232.101562 L 193.527344 232.101562 L 193.527344 221.972656 L 194.730469 221.972656 L 194.730469 225.945312 C 195.019531 225.503906 195.355469 225.175781 195.746094 224.960938 C 196.132812 224.742188 196.582031 224.636719 197.089844 224.636719 C 197.929688 224.636719 198.5625 224.894531 198.992188 225.414062 C 199.421875 225.929688 199.636719 226.691406 199.636719 227.699219 Z M 199.636719 227.699219 "/>
<path style="fill:none;stroke-width:0.8;stroke-linecap:butt;stroke-linejoin:round;stroke:rgb(0%,0%,0%);stroke-opacity:1;stroke-miterlimit:4;" d="M -0.000782013 -0.00115204 L -3.498829 -0.00115204 " transform="matrix(1.333333,0,0,1.333333,50.266668,152.064036)"/>
<path style=" stroke:none;fill-rule:nonzero;fill:rgb(0%,0%,0%);fill-opacity:1;" d="M 11.253906 155.921875 L 13.402344 155.921875 L 13.402344 148.503906 L 11.066406 148.972656 L 11.066406 147.777344 L 13.390625 147.308594 L 14.703125 147.308594 L 14.703125 155.921875 L 16.851562 155.921875 L 16.851562 157.027344 L 11.253906 157.027344 Z M 11.253906 155.921875 "/>
<path style=" stroke:none;fill-rule:nonzero;fill:rgb(0%,0%,0%);fill-opacity:1;" d="M 22.320312 148.171875 C 21.644531 148.171875 21.136719 148.507812 20.792969 149.171875 C 20.453125 149.839844 20.28125 150.839844 20.28125 152.175781 C 20.28125 153.507812 20.453125 154.507812 20.792969 155.175781 C 21.136719 155.84375 21.644531 156.175781 22.320312 156.175781 C 23.003906 156.175781 23.511719 155.84375 23.855469 155.175781 C 24.195312 154.507812 24.367188 153.507812 24.367188 152.175781 C 24.367188 150.839844 24.195312 149.839844 23.855469 149.171875 C 23.511719 148.507812 23.003906 148.171875 22.320312 148.171875 Z M 22.320312 147.132812 C 23.410156 147.132812 24.242188 147.5625 24.820312 148.425781 C 25.394531 149.285156 25.679688 150.539062 25.679688 152.175781 C 25.679688 153.8125 25.394531 155.0625 24.820312 155.925781 C 24.242188 156.785156 23.410156 157.21875 22.320312 157.21875 C 21.230469 157.21875 20.398438 156.785156 19.824219 155.925781 C 19.25 155.0625 18.960938 153.8125 18.960938 152.175781 C 18.960938 150.539062 19.25 149.285156 19.824219 148.425781 C 20.398438 147.5625 21.230469 147.132812 22.320312 147.132812 Z M 22.320312 147.132812 "/>
<path style=" stroke:none;fill-rule:nonzero;fill:rgb(0%,0%,0%);fill-opacity:1;" d="M 27.683594 148.609375 L 33.523438 148.609375 L 33.523438 149.382812 L 27.683594 149.382812 Z M 27.683594 148.609375 "/>
<path style=" stroke:none;fill-rule:nonzero;fill:rgb(0%,0%,0%);fill-opacity:1;" d="M 36.304688 151.148438 L 39.519531 151.148438 L 39.519531 151.921875 L 35.199219 151.921875 L 35.199219 151.148438 C 35.546875 150.789062 36.023438 150.300781 36.625 149.695312 C 37.230469 149.085938 37.609375 148.691406 37.761719 148.515625 C 38.058594 148.183594 38.261719 147.902344 38.378906 147.675781 C 38.496094 147.445312 38.554688 147.21875 38.554688 146.996094 C 38.554688 146.636719 38.429688 146.339844 38.175781 146.113281 C 37.921875 145.886719 37.589844 145.769531 37.183594 145.769531 C 36.894531 145.769531 36.589844 145.820312 36.269531 145.921875 C 35.949219 146.019531 35.609375 146.171875 35.242188 146.378906 L 35.242188 145.445312 C 35.613281 145.296875 35.960938 145.1875 36.28125 145.109375 C 36.605469 145.035156 36.898438 144.996094 37.167969 144.996094 C 37.871094 144.996094 38.433594 145.171875 38.851562 145.527344 C 39.273438 145.878906 39.480469 146.347656 39.480469 146.9375 C 39.480469 147.21875 39.429688 147.484375 39.324219 147.734375 C 39.21875 147.984375 39.027344 148.277344 38.753906 148.617188 C 38.675781 148.707031 38.433594 148.960938 38.027344 149.382812 C 37.621094 149.804688 37.046875 150.394531 36.304688 151.148438 Z M 36.304688 151.148438 "/>
<path style="fill:none;stroke-width:0.6;stroke-linecap:butt;stroke-linejoin:round;stroke:rgb(0%,0%,0%);stroke-opacity:1;stroke-miterlimit:4;" d="M -0.000782013 -0.000152588 L -1.998829 -0.000152588 " transform="matrix(1.333333,0,0,1.333333,50.266668,189.199422)"/>
<path style="fill:none;stroke-width:0.6;stroke-linecap:butt;stroke-linejoin:round;stroke:rgb(0%,0%,0%);stroke-opacity:1;stroke-miterlimit:4;" d="M -0.000782013 -0.000732422 L -1.998829 -0.000732422 " transform="matrix(1.333333,0,0,1.333333,50.266668,177.993164)"/>
<path style="fill:none;stroke-width:0.6;stroke-linecap:butt;stroke-linejoin:round;stroke:rgb(0%,0%,0%);stroke-opacity:1;stroke-miterlimit:4;" d="M -0.000782013 -0.000534058 L -1.998829 -0.000534058 " transform="matrix(1.333333,0,0,1.333333,50.266668,168.285868)"/>
<path style="fill:none;stroke-width:0.6;stroke-linecap:butt;stroke-linejoin:round;stroke:rgb(0%,0%,0%);stroke-opacity:1;stroke-miterlimit:4;" d="M -0.000782013 -0.000564575 L -1.998829 -0.000564575 " transform="matrix(1.333333,0,0,1.333333,50.266668,159.723409)"/>
<path style="fill:none;stroke-width:0.6;stroke-linecap:butt;stroke-linejoin:round;stroke:rgb(0%,0%,0%);stroke-opacity:1;stroke-miterlimit:4;" d="M -0.000782013 0.000991821 L -1.998829 0.000991821 " transform="matrix(1.333333,0,0,1.333333,50.266668,101.674459)"/>
<path style="fill:none;stroke-width:0.6;stroke-linecap:butt;stroke-linejoin:round;stroke:rgb(0%,0%,0%);stroke-opacity:1;stroke-miterlimit:4;" d="M -0.000782013 0.000583649 L -1.998829 0.000583649 " transform="matrix(1.333333,0,0,1.333333,50.266668,72.198441)"/>
<path style="fill:none;stroke-width:0.6;stroke-linecap:butt;stroke-linejoin:round;stroke:rgb(0%,0%,0%);stroke-opacity:1;stroke-miterlimit:4;" d="M -0.000782013 0.000213623 L -1.998829 0.000213623 " transform="matrix(1.333333,0,0,1.333333,50.266668,51.284871)"/>
<path style="fill:none;stroke-width:0.6;stroke-linecap:butt;stroke-linejoin:round;stroke:rgb(0%,0%,0%);stroke-opacity:1;stroke-miterlimit:4;" d="M -0.000782013 -0.00041008 L -1.998829 -0.00041008 " transform="matrix(1.333333,0,0,1.333333,50.266668,35.063047)"/>
<path style="fill:none;stroke-width:0.6;stroke-linecap:butt;stroke-linejoin:round;stroke:rgb(0%,0%,0%);stroke-opacity:1;stroke-miterlimit:4;" d="M -0.000782013 -0.000196457 L -1.998829 -0.000196457 " transform="matrix(1.333333,0,0,1.333333,50.266668,21.808856)"/>
<path style="fill:none;stroke-width:0.6;stroke-linecap:butt;stroke-linejoin:round;stroke:rgb(0%,0%,0%);stroke-opacity:1;stroke-miterlimit:4;" d="M -0.000782013 -0.000771999 L -1.998829 -0.000771999 " transform="matrix(1.333333,0,0,1.333333,50.266668,10.602592)"/>
<path style="fill:none;stroke-width:1.5;stroke-linecap:square;stroke-linejoin:round;stroke:rgb(12.156863%,46.666667%,70.588237%);stroke-opacity:1;stroke-miterlimit:4;" d="M 40.139648 13.5 L 40.142578 13.5 M 40.142578 13.5 " transform="matrix(1.333333,0,0,1.333333,0,0.000000000000014211)"/>
<path style="fill:none;stroke-width:1.5;stroke-linecap:square;stroke-linejoin:round;stroke:rgb(12.156863%,46.666667%,70.588237%);stroke-opacity:1;stroke-miterlimit:4;" d="M 40.142578 13.5 L 49.907227 40.379883 " transform="matrix(1.333333,0,0,1.333333,0,0.000000000000014211)"/>
<path style="fill:none;stroke-width:1.5;stroke-linecap:square;stroke-linejoin:round;stroke:rgb(12.156863%,46.666667%,70.588237%);stroke-opacity:1;stroke-miterlimit:4;" d="M 40.142578 13.5 L 49.907227 40.379883 " transform="matrix(1.333333,0,0,1.333333,0,0.000000000000014211)"/>
<path style="fill:none;stroke-width:1.5;stroke-linecap:square;stroke-linejoin:round;stroke:rgb(12.156863%,46.666667%,70.588237%);stroke-opacity:1;stroke-miterlimit:4;" d="M 40.142578 13.5 L 49.907227 40.379883 L 59.671875 47.604492 " transform="matrix(1.333333,0,0,1.333333,0,0.000000000000014211)"/>
<path style="fill:none;stroke-width:1.5;stroke-linecap:square;stroke-linejoin:round;stroke:rgb(12.156863%,46.666667%,70.588237%);stroke-opacity:1;stroke-miterlimit:4;" d="M 40.142578 13.5 L 49.907227 40.379883 L 59.671875 47.604492 L 69.436523 60.445312 " transform="matrix(1.333333,0,0,1.333333,0,0.000000000000014211)"/>
<path style="fill:none;stroke-width:1.5;stroke-linecap:square;stroke-linejoin:round;stroke:rgb(12.156863%,46.666667%,70.588237%);stroke-opacity:1;stroke-miterlimit:4;" d="M 40.142578 13.5 L 49.907227 40.379883 L 59.671875 47.604492 L 69.436523 60.445312 " transform="matrix(1.333333,0,0,1.333333,0,0.000000000000014211)"/>
<path style="fill:none;stroke-width:1.5;stroke-linecap:butt;stroke-linejoin:round;stroke:rgb(100%,49.803922%,5.490196%);stroke-opacity:1;stroke-dasharray:5.55,2.4;stroke-miterlimit:4;" d="M 57.231445 29.188477 L 76.760742 39.049805 " transform="matrix(1.333333,0,0,1.333333,0,0.000000000000014211)"/>
<path style="fill:none;stroke-width:1.5;stroke-linecap:square;stroke-linejoin:round;stroke:rgb(12.156863%,46.666667%,70.588237%);stroke-opacity:1;stroke-miterlimit:4;" d="M 40.142578 13.5 L 49.907227 40.379883 L 59.671875 47.604492 L 69.436523 60.445312 L 79.201172 68.422852 " transform="matrix(1.333333,0,0,1.333333,0,0.000000000000014211)"/>
<path style="fill:none;stroke-width:1.5;stroke-linecap:butt;stroke-linejoin:round;stroke:rgb(100%,49.803922%,5.490196%);stroke-opacity:1;stroke-dasharray:5.55,2.4;stroke-miterlimit:4;" d="M 57.231445 29.188477 L 76.760742 39.049805 " transform="matrix(1.333333,0,0,1.333333,0,0.000000000000014211)"/>
<path style="fill:none;stroke-width:1.5;stroke-linecap:square;stroke-linejoin:round;stroke:rgb(12.156863%,46.666667%,70.588237%);stroke-opacity:1;stroke-miterlimit:4;" d="M 40.142578 13.5 L 49.907227 40.379883 L 59.671875 47.604492 L 69.436523 60.445312 L 79.201172 68.422852 L 88.96582 73.423828 " transform="matrix(1.333333,0,0,1.333333,0,0.000000000000014211)"/>
<path style="fill:none;stroke-width:1.5;stroke-linecap:butt;stroke-linejoin:round;stroke:rgb(100%,49.803922%,5.490196%);stroke-opacity:1;stroke-dasharray:5.55,2.4;stroke-miterlimit:4;" d="M 57.231445 29.188477 L 76.760742 39.049805 " transform="matrix(1.333333,0,0,1.333333,0,0.000000000000014211)"/>
<path style="fill:none;stroke-width:1.5;stroke-linecap:square;stroke-linejoin:round;stroke:rgb(12.156863%,46.666667%,70.588237%);stroke-opacity:1;stroke-miterlimit:4;" d="M 40.142578 13.5 L 49.907227 40.379883 L 59.671875 47.604492 L 69.436523 60.445312 L 79.201172 68.422852 L 88.96582 73.423828 " transform="matrix(1.333333,0,0,1.333333,0,0.000000000000014211)"/>
<path style="fill:none;stroke-width:1.5;stroke-linecap:butt;stroke-linejoin:round;stroke:rgb(100%,49.803922%,5.490196%);stroke-opacity:1;stroke-dasharray:5.55,2.4;stroke-miterlimit:4;" d="M 57.231445 29.188477 L 76.760742 39.049805 L 96.290039 47.569336 " transform="matrix(1.333333,0,0,1.333333,0,0.000000000000014211)"/>
<path style="fill:none;stroke-width:1.5;stroke-linecap:square;stroke-linejoin:round;stroke:rgb(12.156863%,46.666667%,70.588237%);stroke-opacity:1;stroke-miterlimit:4;" d="M 40.142578 13.5 L 49.907227 40.379883 L 59.671875 47.604492 L 69.436523 60.445312 L 79.201172 68.422852 L 88.96582 73.423828 L 98.730469 83.241211 " transform="matrix(1.333333,0,0,1.333333,0,0.000000000000014211)"/>
<path style="fill:none;stroke-width:1.5;stroke-linecap:butt;stroke-linejoin:round;stroke:rgb(100%,49.803922%,5.490196%);stroke-opacity:1;stroke-dasharray:5.55,2.4;stroke-miterlimit:4;" d="M 57.231445 29.188477 L 76.760742 39.049805 L 96.290039 47.569336 " transform="matrix(1.333333,0,0,1.333333,0,0.000000000000014211)"/>
<path style="fill:none;stroke-width:1.5;stroke-linecap:square;stroke-linejoin:round;stroke:rgb(12.156863%,46.666667%,70.588237%);stroke-opacity:1;stroke-miterlimit:4;" d="M 40.142578 13.5 L 49.907227 40.379883 L 59.671875 47.604492 L 69.436523 60.445312 L 79.201172 68.422852 L 88.96582 73.423828 L 98.730469 83.241211 L 108.495117 85.303711 " transform="matrix(1.333333,0,0,1.333333,0,0.000000000000014211)"/>
<path style="fill:none;stroke-width:1.5;stroke-linecap:butt;stroke-linejoin:round;stroke:rgb(100%,49.803922%,5.490196%);stroke-opacity:1;stroke-dasharray:5.55,2.4;stroke-miterlimit:4;" d="M 57.231445 29.188477 L 76.760742 39.049805 L 96.290039 47.569336 " transform="matrix(1.333333,0,0,1.333333,0,0.000000000000014211)"/>
<path style="fill:none;stroke-width:1.5;stroke-linecap:square;stroke-linejoin:round;stroke:rgb(12.156863%,46.666667%,70.588237%);stroke-opacity:1;stroke-miterlimit:4;" d="M 40.142578 13.5 L 49.907227 40.379883 L 59.671875 47.604492 L 69.436523 60.445312 L 79.201172 68.422852 L 88.96582 73.423828 L 98.730469 83.241211 L 108.495117 85.303711 " transform="matrix(1.333333,0,0,1.333333,0,0.000000000000014211)"/>
<path style="fill:none;stroke-width:1.5;stroke-linecap:butt;stroke-linejoin:round;stroke:rgb(100%,49.803922%,5.490196%);stroke-opacity:1;stroke-dasharray:5.55,2.4;stroke-miterlimit:4;" d="M 57.231445 29.188477 L 76.760742 39.049805 L 96.290039 47.569336 L 115.819336 55.303711 " transform="matrix(1.333333,0,0,1.333333,0,0.000000000000014211)"/>
<path style="fill:none;stroke-width:1.5;stroke-linecap:square;stroke-linejoin:round;stroke:rgb(12.156863%,46.666667%,70.588237%);stroke-opacity:1;stroke-miterlimit:4;" d="M 40.142578 13.5 L 49.907227 40.379883 L 59.671875 47.604492 L 69.436523 60.445312 L 79.201172 68.422852 L 88.96582 73.423828 L 98.730469 83.241211 L 108.495117 85.303711 L 118.262695 93.020508 " transform="matrix(1.333333,0,0,1.333333,0,0.000000000000014211)"/>
<path style="fill:none;stroke-width:1.5;stroke-linecap:butt;stroke-linejoin:round;stroke:rgb(100%,49.803922%,5.490196%);stroke-opacity:1;stroke-dasharray:5.55,2.4;stroke-miterlimit:4;" d="M 57.231445 29.188477 L 76.760742 39.049805 L 96.290039 47.569336 L 115.819336 55.303711 " transform="matrix(1.333333,0,0,1.333333,0,0.000000000000014211)"/>
<path style="fill:none;stroke-width:1.5;stroke-linecap:square;stroke-linejoin:round;stroke:rgb(12.156863%,46.666667%,70.588237%);stroke-opacity:1;stroke-miterlimit:4;" d="M 40.142578 13.5 L 49.907227 40.379883 L 59.671875 47.604492 L 69.436523 60.445312 L 79.201172 68.422852 L 88.96582 73.423828 L 98.730469 83.241211 L 108.495117 85.303711 L 118.262695 93.020508 L 128.027344 97.995117 " transform="matrix(1.333333,0,0,1.333333,0,0.000000000000014211)"/>
<path style="fill:none;stroke-width:1.5;stroke-linecap:butt;stroke-linejoin:round;stroke:rgb(100%,49.803922%,5.490196%);stroke-opacity:1;stroke-dasharray:5.55,2.4;stroke-miterlimit:4;" d="M 57.231445 29.188477 L 76.760742 39.049805 L 96.290039 47.569336 L 115.819336 55.303711 " transform="matrix(1.333333,0,0,1.333333,0,0.000000000000014211)"/>
<path style="fill:none;stroke-width:1.5;stroke-linecap:square;stroke-linejoin:round;stroke:rgb(12.156863%,46.666667%,70.588237%);stroke-opacity:1;stroke-miterlimit:4;" d="M 40.142578 13.5 L 49.907227 40.379883 L 59.671875 47.604492 L 69.436523 60.445312 L 79.201172 68.422852 L 88.96582 73.423828 L 98.730469 83.241211 L 108.495117 85.303711 L 118.262695 93.020508 L 128.027344 97.995117 " transform="matrix(1.333333,0,0,1.333333,0,0.000000000000014211)"/>
<path style="fill:none;stroke-width:1.5;stroke-linecap:butt;stroke-linejoin:round;stroke:rgb(100%,49.803922%,5.490196%);stroke-opacity:1;stroke-dasharray:5.55,2.4;stroke-miterlimit:4;" d="M 57.231445 29.188477 L 76.760742 39.049805 L 96.290039 47.569336 L 115.819336 55.303711 L 135.348633 62.173828 " transform="matrix(1.333333,0,0,1.333333,0,0.000000000000014211)"/>
<path style="fill:none;stroke-width:1.5;stroke-linecap:square;stroke-linejoin:round;stroke:rgb(12.156863%,46.666667%,70.588237%);stroke-opacity:1;stroke-miterlimit:4;" d="M 40.142578 13.5 L 49.907227 40.379883 L 59.671875 47.604492 L 69.436523 60.445312 L 79.201172 68.422852 L 88.96582 73.423828 L 98.730469 83.241211 L 108.495117 85.303711 L 118.262695 93.020508 L 128.027344 97.995117 L 137.791992 103.766602 " transform="matrix(1.333333,0,0,1.333333,0,0.000000000000014211)"/>
<path style="fill:none;stroke-width:1.5;stroke-linecap:butt;stroke-linejoin:round;stroke:rgb(100%,49.803922%,5.490196%);stroke-opacity:1;stroke-dasharray:5.55,2.4;stroke-miterlimit:4;" d="M 57.231445 29.188477 L 76.760742 39.049805 L 96.290039 47.569336 L 115.819336 55.303711 L 135.348633 62.173828 " transform="matrix(1.333333,0,0,1.333333,0,0.000000000000014211)"/>
<path style="fill:none;stroke-width:1.5;stroke-linecap:square;stroke-linejoin:round;stroke:rgb(12.156863%,46.666667%,70.588237%);stroke-opacity:1;stroke-miterlimit:4;" d="M 40.142578 13.5 L 49.907227 40.379883 L 59.671875 47.604492 L 69.436523 60.445312 L 79.201172 68.422852 L 88.96582 73.423828 L 98.730469 83.241211 L 108.495117 85.303711 L 118.262695 93.020508 L 128.027344 97.995117 L 137.791992 103.766602 L 147.556641 107.589844 " transform="matrix(1.333333,0,0,1.333333,0,0.000000000000014211)"/>
<path style="fill:none;stroke-width:1.5;stroke-linecap:butt;stroke-linejoin:round;stroke:rgb(100%,49.803922%,5.490196%);stroke-opacity:1;stroke-dasharray:5.55,2.4;stroke-miterlimit:4;" d="M 57.231445 29.188477 L 76.760742 39.049805 L 96.290039 47.569336 L 115.819336 55.303711 L 135.348633 62.173828 " transform="matrix(1.333333,0,0,1.333333,0,0.000000000000014211)"/>
<path style="fill:none;stroke-width:1.5;stroke-linecap:square;stroke-linejoin:round;stroke:rgb(12.156863%,46.666667%,70.588237%);stroke-opacity:1;stroke-miterlimit:4;" d="M 40.142578 13.5 L 49.907227 40.379883 L 59.671875 47.604492 L 69.436523 60.445312 L 79.201172 68.422852 L 88.96582 73.423828 L 98.730469 83.241211 L 108.495117 85.303711 L 118.262695 93.020508 L 128.027344 97.995117 L 137.791992 103.766602 L 147.556641 107.589844 " transform="matrix(1.333333,0,0,1.333333,0,0.000000000000014211)"/>
<path style="fill:none;stroke-width:1.5;stroke-linecap:butt;stroke-linejoin:round;stroke:rgb(100%,49.803922%,5.490196%);stroke-opacity:1;stroke-dasharray:5.55,2.4;stroke-miterlimit:4;" d="M 57.231445 29.188477 L 76.760742 39.049805 L 96.290039 47.569336 L 115.819336 55.303711 L 135.348633 62.173828 L 154.880859 68.279297 " transform="matrix(1.333333,0,0,1.333333,0,0.000000000000014211)"/>
<path style="fill:none;stroke-width:1.5;stroke-linecap:square;stroke-linejoin:round;stroke:rgb(12.156863%,46.666667%,70.588237%);stroke-opacity:1;stroke-miterlimit:4;" d="M 40.142578 13.5 L 49.907227 40.379883 L 59.671875 47.604492 L 69.436523 60.445312 L 79.201172 68.422852 L 88.96582 73.423828 L 98.730469 83.241211 L 108.495117 85.303711 L 118.262695 93.020508 L 128.027344 97.995117 L 137.791992 103.766602 L 147.556641 107.589844 L 157.321289 113.472656 " transform="matrix(1.333333,0,0,1.333333,0,0.000000000000014211)"/>
<path style="fill:none;stroke-width:1.5;stroke-linecap:butt;stroke-linejoin:round;stroke:rgb(100%,49.803922%,5.490196%);stroke-opacity:1;stroke-dasharray:5.55,2.4;stroke-miterlimit:4;" d="M 57.231445 29.188477 L 76.760742 39.049805 L 96.290039 47.569336 L 115.819336 55.303711 L 135.348633 62.173828 L 154.880859 68.279297 " transform="matrix(1.333333,0,0,1.333333,0,0.000000000000014211)"/>
<path style="fill:none;stroke-width:1.5;stroke-linecap:square;stroke-linejoin:round;stroke:rgb(12.156863%,46.666667%,70.588237%);stroke-opacity:1;stroke-miterlimit:4;" d="M 40.142578 13.5 L 49.907227 40.379883 L 59.671875 47.604492 L 69.436523 60.445312 L 79.201172 68.422852 L 88.96582 73.423828 L 98.730469 83.241211 L 108.495117 85.303711 L 118.262695 93.020508 L 128.027344 97.995117 L 137.791992 103.766602 L 147.556641 107.589844 L 157.321289 113.472656 L 167.085938 116.091797 " transform="matrix(1.333333,0,0,1.333333,0,0.000000000000014211)"/>
<path style="fill:none;stroke-width:1.5;stroke-linecap:butt;stroke-linejoin:round;stroke:rgb(100%,49.803922%,5.490196%);stroke-opacity:1;stroke-dasharray:5.55,2.4;stroke-miterlimit:4;" d="M 57.231445 29.188477 L 76.760742 39.049805 L 96.290039 47.569336 L 115.819336 55.303711 L 135.348633 62.173828 L 154.880859 68.279297 " transform="matrix(1.333333,0,0,1.333333,0,0.000000000000014211)"/>
<path style="fill:none;stroke-width:1.5;stroke-linecap:square;stroke-linejoin:round;stroke:rgb(12.156863%,46.666667%,70.588237%);stroke-opacity:1;stroke-miterlimit:4;" d="M 40.142578 13.5 L 49.907227 40.379883 L 59.671875 47.604492 L 69.436523 60.445312 L 79.201172 68.422852 L 88.96582 73.423828 L 98.730469 83.241211 L 108.495117 85.303711 L 118.262695 93.020508 L 128.027344 97.995117 L 137.791992 103.766602 L 147.556641 107.589844 L 157.321289 113.472656 L 167.085938 116.091797 " transform="matrix(1.333333,0,0,1.333333,0,0.000000000000014211)"/>
<path style="fill:none;stroke-width:1.5;stroke-linecap:butt;stroke-linejoin:round;stroke:rgb(100%,49.803922%,5.490196%);stroke-opacity:1;stroke-dasharray:5.55,2.4;stroke-miterlimit:4;" d="M 57.231445 29.188477 L 76.760742 39.049805 L 96.290039 47.569336 L 115.819336 55.303711 L 135.348633 62.173828 L 154.880859 68.279297 L 174.410156 73.728516 " transform="matrix(1.333333,0,0,1.333333,0,0.000000000000014211)"/>
<path style="fill:none;stroke-width:1.5;stroke-linecap:square;stroke-linejoin:round;stroke:rgb(12.156863%,46.666667%,70.588237%);stroke-opacity:1;stroke-miterlimit:4;" d="M 40.142578 13.5 L 49.907227 40.379883 L 59.671875 47.604492 L 69.436523 60.445312 L 79.201172 68.422852 L 88.96582 73.423828 L 98.730469 83.241211 L 108.495117 85.303711 L 118.262695 93.020508 L 128.027344 97.995117 L 137.791992 103.766602 L 147.556641 107.589844 L 157.321289 113.472656 L 167.085938 116.091797 L 176.850586 123.357422 " transform="matrix(1.333333,0,0,1.333333,0,0.000000000000014211)"/>
<path style="fill:none;stroke-width:1.5;stroke-linecap:butt;stroke-linejoin:round;stroke:rgb(100%,49.803922%,5.490196%);stroke-opacity:1;stroke-dasharray:5.55,2.4;stroke-miterlimit:4;" d="M 57.231445 29.188477 L 76.760742 39.049805 L 96.290039 47.569336 L 115.819336 55.303711 L 135.348633 62.173828 L 154.880859 68.279297 L 174.410156 73.728516 " transform="matrix(1.333333,0,0,1.333333,0,0.000000000000014211)"/>
<path style="fill:none;stroke-width:1.5;stroke-linecap:square;stroke-linejoin:round;stroke:rgb(12.156863%,46.666667%,70.588237%);stroke-opacity:1;stroke-miterlimit:4;" d="M 40.142578 13.5 L 49.907227 40.379883 L 59.671875 47.604492 L 69.436523 60.445312 L 79.201172 68.422852 L 88.96582 73.423828 L 98.730469 83.241211 L 108.495117 85.303711 L 118.262695 93.020508 L 128.027344 97.995117 L 137.791992 103.766602 L 147.556641 107.589844 L 157.321289 113.472656 L 167.085938 116.091797 L 176.850586 123.357422 L 186.615234 123.032227 " transform="matrix(1.333333,0,0,1.333333,0,0.000000000000014211)"/>
<path style="fill:none;stroke-width:1.5;stroke-linecap:butt;stroke-linejoin:round;stroke:rgb(100%,49.803922%,5.490196%);stroke-opacity:1;stroke-dasharray:5.55,2.4;stroke-miterlimit:4;" d="M 57.231445 29.188477 L 76.760742 39.049805 L 96.290039 47.569336 L 115.819336 55.303711 L 135.348633 62.173828 L 154.880859 68.279297 L 174.410156 73.728516 " transform="matrix(1.333333,0,0,1.333333,0,0.000000000000014211)"/>
<path style="fill:none;stroke-width:1.5;stroke-linecap:square;stroke-linejoin:round;stroke:rgb(12.156863%,46.666667%,70.588237%);stroke-opacity:1;stroke-miterlimit:4;" d="M 40.142578 13.5 L 49.907227 40.379883 L 59.671875 47.604492 L 69.436523 60.445312 L 79.201172 68.422852 L 88.96582 73.423828 L 98.730469 83.241211 L 108.495117 85.303711 L 118.262695 93.020508 L 128.027344 97.995117 L 137.791992 103.766602 L 147.556641 107.589844 L 157.321289 113.472656 L 167.085938 116.091797 L 176.850586 123.357422 L 186.615234 123.032227 " transform="matrix(1.333333,0,0,1.333333,0,0.000000000000014211)"/>
<path style="fill:none;stroke-width:1.5;stroke-linecap:butt;stroke-linejoin:round;stroke:rgb(100%,49.803922%,5.490196%);stroke-opacity:1;stroke-dasharray:5.55,2.4;stroke-miterlimit:4;" d="M 57.231445 29.188477 L 76.760742 39.049805 L 96.290039 47.569336 L 115.819336 55.303711 L 135.348633 62.173828 L 154.880859 68.279297 L 174.410156 73.728516 L 193.939453 78.541992 " transform="matrix(1.333333,0,0,1.333333,0,0.000000000000014211)"/>
<path style="fill:none;stroke-width:1.5;stroke-linecap:square;stroke-linejoin:round;stroke:rgb(12.156863%,46.666667%,70.588237%);stroke-opacity:1;stroke-miterlimit:4;" d="M 40.142578 13.5 L 49.907227 40.379883 L 59.671875 47.604492 L 69.436523 60.445312 L 79.201172 68.422852 L 88.96582 73.423828 L 98.730469 83.241211 L 108.495117 85.303711 L 118.262695 93.020508 L 128.027344 97.995117 L 137.791992 103.766602 L 147.556641 107.589844 L 157.321289 113.472656 L 167.085938 116.091797 L 176.850586 123.357422 L 186.615234 123.032227 L 196.379883 128.8125 " transform="matrix(1.333333,0,0,1.333333,0,0.000000000000014211)"/>
<path style="fill:none;stroke-width:1.5;stroke-linecap:butt;stroke-linejoin:round;stroke:rgb(100%,49.803922%,5.490196%);stroke-opacity:1;stroke-dasharray:5.55,2.4;stroke-miterlimit:4;" d="M 57.231445 29.188477 L 76.760742 39.049805 L 96.290039 47.569336 L 115.819336 55.303711 L 135.348633 62.173828 L 154.880859 68.279297 L 174.410156 73.728516 L 193.939453 78.541992 " transform="matrix(1.333333,0,0,1.333333,0,0.000000000000014211)"/>
<path style="fill:none;stroke-width:1.5;stroke-linecap:square;stroke-linejoin:round;stroke:rgb(12.156863%,46.666667%,70.588237%);stroke-opacity:1;stroke-miterlimit:4;" d="M 40.142578 13.5 L 49.907227 40.379883 L 59.671875 47.604492 L 69.436523 60.445312 L 79.201172 68.422852 L 88.96582 73.423828 L 98.730469 83.241211 L 108.495117 85.303711 L 118.262695 93.020508 L 128.027344 97.995117 L 137.791992 103.766602 L 147.556641 107.589844 L 157.321289 113.472656 L 167.085938 116.091797 L 176.850586 123.357422 L 186.615234 123.032227 L 196.379883 128.8125 L 206.147461 133.353516 " transform="matrix(1.333333,0,0,1.333333,0,0.000000000000014211)"/>
<path style="fill:none;stroke-width:1.5;stroke-linecap:butt;stroke-linejoin:round;stroke:rgb(100%,49.803922%,5.490196%);stroke-opacity:1;stroke-dasharray:5.55,2.4;stroke-miterlimit:4;" d="M 57.231445 29.188477 L 76.760742 39.049805 L 96.290039 47.569336 L 115.819336 55.303711 L 135.348633 62.173828 L 154.880859 68.279297 L 174.410156 73.728516 L 193.939453 78.541992 " transform="matrix(1.333333,0,0,1.333333,0,0.000000000000014211)"/>
<path style="fill:none;stroke-width:1.5;stroke-linecap:square;stroke-linejoin:round;stroke:rgb(12.156863%,46.666667%,70.588237%);stroke-opacity:1;stroke-miterlimit:4;" d="M 40.142578 13.5 L 49.907227 40.379883 L 59.671875 47.604492 L 69.436523 60.445312 L 79.201172 68.422852 L 88.96582 73.423828 L 98.730469 83.241211 L 108.495117 85.303711 L 118.262695 93.020508 L 128.027344 97.995117 L 137.791992 103.766602 L 147.556641 107.589844 L 157.321289 113.472656 L 167.085938 116.091797 L 176.850586 123.357422 L 186.615234 123.032227 L 196.379883 128.8125 L 206.147461 133.353516 " transform="matrix(1.333333,0,0,1.333333,0,0.000000000000014211)"/>
<path style="fill:none;stroke-width:1.5;stroke-linecap:butt;stroke-linejoin:round;stroke:rgb(100%,49.803922%,5.490196%);stroke-opacity:1;stroke-dasharray:5.55,2.4;stroke-miterlimit:4;" d="M 57.231445 29.188477 L 76.760742 39.049805 L 96.290039 47.569336 L 115.819336 55.303711 L 135.348633 62.173828 L 154.880859 68.279297 L 174.410156 73.728516 L 193.939453 78.541992 L 213.46875 82.763672 " transform="matrix(1.333333,0,0,1.333333,0,0.000000000000014211)"/>
<path style="fill:none;stroke-width:1.5;stroke-linecap:square;stroke-linejoin:round;stroke:rgb(12.156863%,46.666667%,70.588237%);stroke-opacity:1;stroke-miterlimit:4;" d="M 40.142578 13.5 L 49.907227 40.379883 L 59.671875 47.604492 L 69.436523 60.445312 L 79.201172 68.422852 L 88.96582 73.423828 L 98.730469 83.241211 L 108.495117 85.303711 L 118.262695 93.020508 L 128.027344 97.995117 L 137.791992 103.766602 L 147.556641 107.589844 L 157.321289 113.472656 L 167.085938 116.091797 L 176.850586 123.357422 L 186.615234 123.032227 L 196.379883 128.8125 L 206.147461 133.353516 L 215.912109 139.5 " transform="matrix(1.333333,0,0,1.333333,0,0.000000000000014211)"/>
<path style="fill:none;stroke-width:1.5;stroke-linecap:butt;stroke-linejoin:round;stroke:rgb(100%,49.803922%,5.490196%);stroke-opacity:1;stroke-dasharray:5.55,2.4;stroke-miterlimit:4;" d="M 57.231445 29.188477 L 76.760742 39.049805 L 96.290039 47.569336 L 115.819336 55.303711 L 135.348633 62.173828 L 154.880859 68.279297 L 174.410156 73.728516 L 193.939453 78.541992 L 213.46875 82.763672 " transform="matrix(1.333333,0,0,1.333333,0,0.000000000000014211)"/>
<path style="fill:none;stroke-width:1.5;stroke-linecap:square;stroke-linejoin:round;stroke:rgb(12.156863%,46.666667%,70.588237%);stroke-opacity:1;stroke-miterlimit:4;" d="M 40.142578 13.5 L 49.907227 40.379883 L 59.671875 47.604492 L 69.436523 60.445312 L 79.201172 68.422852 L 88.96582 73.423828 L 98.730469 83.241211 L 108.495117 85.303711 L 118.262695 93.020508 L 128.027344 97.995117 L 137.791992 103.766602 L 147.556641 107.589844 L 157.321289 113.472656 L 167.085938 116.091797 L 176.850586 123.357422 L 186.615234 123.032227 L 196.379883 128.8125 L 206.147461 133.353516 L 215.912109 139.5 L 225.676758 135.708984 " transform="matrix(1.333333,0,0,1.333333,0,0.000000000000014211)"/>
<path style="fill:none;stroke-width:1.5;stroke-linecap:butt;stroke-linejoin:round;stroke:rgb(100%,49.803922%,5.490196%);stroke-opacity:1;stroke-dasharray:5.55,2.4;stroke-miterlimit:4;" d="M 57.231445 29.188477 L 76.760742 39.049805 L 96.290039 47.569336 L 115.819336 55.303711 L 135.348633 62.173828 L 154.880859 68.279297 L 174.410156 73.728516 L 193.939453 78.541992 L 213.46875 82.763672 " transform="matrix(1.333333,0,0,1.333333,0,0.000000000000014211)"/>
<path style="fill:none;stroke-width:1.5;stroke-linecap:square;stroke-linejoin:round;stroke:rgb(12.156863%,46.666667%,70.588237%);stroke-opacity:1;stroke-miterlimit:4;" d="M 40.142578 13.5 L 49.907227 40.379883 L 59.671875 47.604492 L 69.436523 60.445312 L 79.201172 68.422852 L 88.96582 73.423828 L 98.730469 83.241211 L 108.495117 85.303711 L 118.262695 93.020508 L 128.027344 97.995117 L 137.791992 103.766602 L 147.556641 107.589844 L 157.321289 113.472656 L 167.085938 116.091797 L 176.850586 123.357422 L 186.615234 123.032227 L 196.379883 128.8125 L 206.147461 133.353516 L 215.912109 139.5 L 225.676758 135.708984 " transform="matrix(1.333333,0,0,1.333333,0,0.000000000000014211)"/>
<g clip-path="url(#clip1)" clip-rule="nonzero">
<path style="fill:none;stroke-width:1.5;stroke-linecap:butt;stroke-linejoin:round;stroke:rgb(100%,49.803922%,5.490196%);stroke-opacity:1;stroke-dasharray:5.55,2.4;stroke-miterlimit:4;" d="M 57.231445 29.188477 L 76.760742 39.049805 L 96.290039 47.569336 L 115.819336 55.303711 L 135.348633 62.173828 L 154.880859 68.279297 L 174.410156 73.728516 L 193.939453 78.541992 L 213.46875 82.763672 L 233.000977 86.176758 " transform="matrix(1.333333,0,0,1.333333,0,0.000000000000014211)"/>
</g>
<path style="fill:none;stroke-width:0.8;stroke-linecap:square;stroke-linejoin:miter;stroke:rgb(0%,0%,0%);stroke-opacity:1;stroke-miterlimit:4;" d="M 37.699219 145.798828 L 37.699219 7.201172 " transform="matrix(1.333333,0,0,1.333333,0,0.000000000000014211)"/>
<path style="fill:none;stroke-width:0.8;stroke-linecap:square;stroke-linejoin:miter;stroke:rgb(0%,0%,0%);stroke-opacity:1;stroke-miterlimit:4;" d="M 233.000977 145.798828 L 233.000977 7.201172 " transform="matrix(1.333333,0,0,1.333333,0,0.000000000000014211)"/>
<path style="fill:none;stroke-width:0.8;stroke-linecap:square;stroke-linejoin:miter;stroke:rgb(0%,0%,0%);stroke-opacity:1;stroke-miterlimit:4;" d="M 37.699219 145.798828 L 233.000977 145.798828 " transform="matrix(1.333333,0,0,1.333333,0,0.000000000000014211)"/>
<path style="fill:none;stroke-width:0.8;stroke-linecap:square;stroke-linejoin:miter;stroke:rgb(0%,0%,0%);stroke-opacity:1;stroke-miterlimit:4;" d="M 37.699219 7.201172 L 233.000977 7.201172 " transform="matrix(1.333333,0,0,1.333333,0,0.000000000000014211)"/>
<use xlink:href="#surface5" mask="url(#mask0)"/>
<path style="fill:none;stroke-width:1.5;stroke-linecap:square;stroke-linejoin:round;stroke:rgb(12.156863%,46.666667%,70.588237%);stroke-opacity:1;stroke-miterlimit:4;" d="M 148.40918 20.299805 L 168.410156 20.299805 " transform="matrix(1.333333,0,0,1.333333,0,0.000000000000014211)"/>
<path style=" stroke:none;fill-rule:nonzero;fill:rgb(0%,0%,0%);fill-opacity:1;" d="M 237.652344 22.367188 L 237.652344 24.441406 L 240.121094 24.441406 L 240.121094 25.371094 L 237.652344 25.371094 L 237.652344 29.328125 C 237.652344 29.921875 237.734375 30.304688 237.898438 30.476562 C 238.058594 30.644531 238.390625 30.730469 238.890625 30.730469 L 240.121094 30.730469 L 240.121094 31.730469 L 238.890625 31.730469 C 237.964844 31.730469 237.328125 31.558594 236.976562 31.214844 C 236.625 30.867188 236.449219 30.242188 236.449219 29.328125 L 236.449219 25.371094 L 235.570312 25.371094 L 235.570312 24.441406 L 236.449219 24.441406 L 236.449219 22.367188 Z M 237.652344 22.367188 "/>
<path style=" stroke:none;fill-rule:nonzero;fill:rgb(0%,0%,0%);fill-opacity:1;" d="M 245.921875 25.558594 C 245.785156 25.480469 245.640625 25.421875 245.480469 25.386719 C 245.324219 25.351562 245.148438 25.332031 244.960938 25.332031 C 244.28125 25.332031 243.761719 25.550781 243.398438 25.992188 C 243.035156 26.433594 242.855469 27.066406 242.855469 27.890625 L 242.855469 31.730469 L 241.652344 31.730469 L 241.652344 24.441406 L 242.855469 24.441406 L 242.855469 25.574219 C 243.109375 25.128906 243.433594 24.800781 243.839844 24.585938 C 244.242188 24.371094 244.734375 24.265625 245.3125 24.265625 C 245.394531 24.265625 245.484375 24.269531 245.585938 24.28125 C 245.683594 24.289062 245.792969 24.308594 245.914062 24.328125 Z M 245.921875 25.558594 "/>
<path style=" stroke:none;fill-rule:nonzero;fill:rgb(0%,0%,0%);fill-opacity:1;" d="M 250.492188 28.066406 C 249.523438 28.066406 248.855469 28.175781 248.480469 28.398438 C 248.105469 28.617188 247.921875 28.996094 247.921875 29.53125 C 247.921875 29.957031 248.058594 30.292969 248.339844 30.542969 C 248.621094 30.792969 249.003906 30.917969 249.484375 30.917969 C 250.148438 30.917969 250.679688 30.679688 251.082031 30.210938 C 251.484375 29.738281 251.683594 29.113281 251.683594 28.332031 L 251.683594 28.066406 Z M 252.882812 27.570312 L 252.882812 31.730469 L 251.683594 31.730469 L 251.683594 30.625 C 251.410156 31.066406 251.070312 31.394531 250.660156 31.605469 C 250.253906 31.816406 249.753906 31.921875 249.164062 31.921875 C 248.417969 31.921875 247.824219 31.710938 247.382812 31.292969 C 246.941406 30.871094 246.722656 30.3125 246.722656 29.609375 C 246.722656 28.789062 246.996094 28.171875 247.546875 27.753906 C 248.09375 27.335938 248.914062 27.128906 250.003906 27.128906 L 251.683594 27.128906 L 251.683594 27.011719 C 251.683594 26.460938 251.503906 26.03125 251.140625 25.730469 C 250.777344 25.429688 250.269531 25.277344 249.613281 25.277344 C 249.195312 25.277344 248.789062 25.328125 248.394531 25.429688 C 248 25.527344 247.621094 25.679688 247.257812 25.878906 L 247.257812 24.769531 C 247.695312 24.601562 248.121094 24.476562 248.53125 24.390625 C 248.945312 24.308594 249.347656 24.265625 249.738281 24.265625 C 250.792969 24.265625 251.582031 24.539062 252.101562 25.085938 C 252.621094 25.632812 252.882812 26.460938 252.882812 27.570312 Z M 252.882812 27.570312 "/>
<path style=" stroke:none;fill-rule:nonzero;fill:rgb(0%,0%,0%);fill-opacity:1;" d="M 255.347656 24.441406 L 256.546875 24.441406 L 256.546875 31.730469 L 255.347656 31.730469 Z M 255.347656 21.601562 L 256.546875 21.601562 L 256.546875 23.117188 L 255.347656 23.117188 Z M 255.347656 21.601562 "/>
<path style=" stroke:none;fill-rule:nonzero;fill:rgb(0%,0%,0%);fill-opacity:1;" d="M 265.117188 27.328125 L 265.117188 31.730469 L 263.917969 31.730469 L 263.917969 27.367188 C 263.917969 26.679688 263.785156 26.164062 263.515625 25.820312 C 263.246094 25.476562 262.839844 25.304688 262.304688 25.304688 C 261.65625 25.304688 261.144531 25.511719 260.773438 25.925781 C 260.398438 26.335938 260.210938 26.898438 260.210938 27.609375 L 260.210938 31.730469 L 259.007812 31.730469 L 259.007812 24.441406 L 260.210938 24.441406 L 260.210938 25.574219 C 260.5 25.132812 260.835938 24.804688 261.222656 24.589844 C 261.613281 24.371094 262.0625 24.265625 262.570312 24.265625 C 263.40625 24.265625 264.039062 24.523438 264.46875 25.042969 C 264.902344 25.558594 265.117188 26.320312 265.117188 27.328125 Z M 265.117188 27.328125 "/>
<path style=" stroke:none;fill-rule:nonzero;fill:rgb(0%,0%,0%);fill-opacity:1;" d="M 273.046875 33.945312 L 273.046875 34.875 L 266.117188 34.875 L 266.117188 33.945312 Z M 273.046875 33.945312 "/>
<path style=" stroke:none;fill-rule:nonzero;fill:rgb(0%,0%,0%);fill-opacity:1;" d="M 274.171875 21.601562 L 275.367188 21.601562 L 275.367188 31.730469 L 274.171875 31.730469 Z M 274.171875 21.601562 "/>
<path style=" stroke:none;fill-rule:nonzero;fill:rgb(0%,0%,0%);fill-opacity:1;" d="M 280.699219 25.277344 C 280.058594 25.277344 279.550781 25.53125 279.175781 26.03125 C 278.804688 26.53125 278.617188 27.21875 278.617188 28.089844 C 278.617188 28.964844 278.800781 29.652344 279.171875 30.152344 C 279.546875 30.652344 280.054688 30.902344 280.699219 30.902344 C 281.339844 30.902344 281.84375 30.652344 282.214844 30.148438 C 282.589844 29.644531 282.777344 28.960938 282.777344 28.089844 C 282.777344 27.226562 282.589844 26.542969 282.214844 26.039062 C 281.84375 25.53125 281.339844 25.277344 280.699219 25.277344 Z M 280.699219 24.265625 C 281.742188 24.265625 282.558594 24.601562 283.152344 25.28125 C 283.75 25.957031 284.046875 26.894531 284.046875 28.089844 C 284.046875 29.285156 283.75 30.222656 283.152344 30.902344 C 282.558594 31.582031 281.742188 31.921875 280.699219 31.921875 C 279.652344 31.921875 278.835938 31.582031 278.242188 30.902344 C 277.648438 30.222656 277.355469 29.285156 277.355469 28.089844 C 277.355469 26.894531 277.648438 25.957031 278.242188 25.28125 C 278.835938 24.601562 279.652344 24.265625 280.699219 24.265625 Z M 280.699219 24.265625 "/>
<path style=" stroke:none;fill-rule:nonzero;fill:rgb(0%,0%,0%);fill-opacity:1;" d="M 290.679688 24.652344 L 290.679688 25.789062 C 290.34375 25.613281 289.992188 25.484375 289.625 25.398438 C 289.261719 25.308594 288.882812 25.265625 288.492188 25.265625 C 287.898438 25.265625 287.453125 25.359375 287.15625 25.539062 C 286.859375 25.722656 286.710938 25.996094 286.710938 26.359375 C 286.710938 26.636719 286.816406 26.855469 287.027344 27.015625 C 287.242188 27.171875 287.667969 27.324219 288.3125 27.464844 L 288.722656 27.558594 C 289.570312 27.742188 290.175781 27.996094 290.535156 28.328125 C 290.894531 28.660156 291.070312 29.125 291.070312 29.71875 C 291.070312 30.398438 290.804688 30.933594 290.269531 31.328125 C 289.730469 31.722656 288.996094 31.921875 288.058594 31.921875 C 287.667969 31.921875 287.261719 31.882812 286.835938 31.804688 C 286.414062 31.730469 285.96875 31.617188 285.5 31.464844 L 285.5 30.226562 C 285.941406 30.457031 286.378906 30.628906 286.808594 30.746094 C 287.238281 30.859375 287.664062 30.917969 288.085938 30.917969 C 288.648438 30.917969 289.082031 30.820312 289.382812 30.628906 C 289.6875 30.433594 289.839844 30.160156 289.839844 29.808594 C 289.839844 29.484375 289.730469 29.234375 289.511719 29.0625 C 289.292969 28.890625 288.8125 28.722656 288.070312 28.558594 L 287.652344 28.460938 C 286.910156 28.308594 286.375 28.066406 286.046875 27.742188 C 285.714844 27.421875 285.550781 26.976562 285.550781 26.414062 C 285.550781 25.726562 285.792969 25.195312 286.28125 24.824219 C 286.765625 24.453125 287.457031 24.265625 288.351562 24.265625 C 288.792969 24.265625 289.207031 24.296875 289.597656 24.363281 C 289.992188 24.425781 290.351562 24.523438 290.679688 24.652344 Z M 290.679688 24.652344 "/>
<path style=" stroke:none;fill-rule:nonzero;fill:rgb(0%,0%,0%);fill-opacity:1;" d="M 297.628906 24.652344 L 297.628906 25.789062 C 297.289062 25.613281 296.9375 25.484375 296.574219 25.398438 C 296.210938 25.308594 295.832031 25.265625 295.441406 25.265625 C 294.84375 25.265625 294.398438 25.359375 294.101562 25.539062 C 293.804688 25.722656 293.65625 25.996094 293.65625 26.359375 C 293.65625 26.636719 293.761719 26.855469 293.976562 27.015625 C 294.1875 27.171875 294.617188 27.324219 295.257812 27.464844 L 295.667969 27.558594 C 296.519531 27.742188 297.121094 27.996094 297.480469 28.328125 C 297.839844 28.660156 298.019531 29.125 298.019531 29.71875 C 298.019531 30.398438 297.75 30.933594 297.214844 31.328125 C 296.679688 31.722656 295.941406 31.921875 295.003906 31.921875 C 294.613281 31.921875 294.207031 31.882812 293.785156 31.804688 C 293.359375 31.730469 292.914062 31.617188 292.445312 31.464844 L 292.445312 30.226562 C 292.890625 30.457031 293.324219 30.628906 293.753906 30.746094 C 294.183594 30.859375 294.609375 30.917969 295.03125 30.917969 C 295.59375 30.917969 296.027344 30.820312 296.332031 30.628906 C 296.636719 30.433594 296.789062 30.160156 296.789062 29.808594 C 296.789062 29.484375 296.679688 29.234375 296.457031 29.0625 C 296.242188 28.890625 295.757812 28.722656 295.015625 28.558594 L 294.601562 28.460938 C 293.859375 28.308594 293.320312 28.066406 292.992188 27.742188 C 292.664062 27.421875 292.496094 26.976562 292.496094 26.414062 C 292.496094 25.726562 292.742188 25.195312 293.226562 24.824219 C 293.714844 24.453125 294.402344 24.265625 295.296875 24.265625 C 295.738281 24.265625 296.15625 24.296875 296.546875 24.363281 C 296.9375 24.425781 297.296875 24.523438 297.628906 24.652344 Z M 297.628906 24.652344 "/>
<path style="fill:none;stroke-width:1.5;stroke-linecap:butt;stroke-linejoin:round;stroke:rgb(100%,49.803922%,5.490196%);stroke-opacity:1;stroke-dasharray:5.55,2.4;stroke-miterlimit:4;" d="M 148.40918 35.255859 L 168.410156 35.255859 " transform="matrix(1.333333,0,0,1.333333,0,0.000000000000014211)"/>
<path style=" stroke:none;fill-rule:nonzero;fill:rgb(0%,0%,0%);fill-opacity:1;" d="M 235.609375 44.382812 L 236.878906 44.382812 L 239.160156 50.5 L 241.4375 44.382812 L 242.707031 44.382812 L 239.972656 51.671875 L 238.34375 51.671875 Z M 235.609375 44.382812 "/>
<path style=" stroke:none;fill-rule:nonzero;fill:rgb(0%,0%,0%);fill-opacity:1;" d="M 247.675781 48.007812 C 246.707031 48.007812 246.035156 48.117188 245.660156 48.339844 C 245.289062 48.558594 245.101562 48.9375 245.101562 49.472656 C 245.101562 49.898438 245.242188 50.234375 245.523438 50.484375 C 245.800781 50.734375 246.183594 50.859375 246.664062 50.859375 C 247.328125 50.859375 247.863281 50.621094 248.261719 50.152344 C 248.664062 49.679688 248.867188 49.054688 248.867188 48.273438 L 248.867188 48.007812 Z M 250.0625 47.511719 L 250.0625 51.671875 L 248.867188 51.671875 L 248.867188 50.566406 C 248.59375 51.007812 248.25 51.335938 247.84375 51.546875 C 247.433594 51.757812 246.933594 51.863281 246.34375 51.863281 C 245.597656 51.863281 245.003906 51.652344 244.5625 51.234375 C 244.125 50.8125 243.902344 50.253906 243.902344 49.550781 C 243.902344 48.730469 244.175781 48.113281 244.726562 47.695312 C 245.277344 47.277344 246.09375 47.070312 247.183594 47.070312 L 248.867188 47.070312 L 248.867188 46.953125 C 248.867188 46.402344 248.683594 45.972656 248.320312 45.671875 C 247.960938 45.371094 247.449219 45.222656 246.792969 45.222656 C 246.378906 45.222656 245.972656 45.269531 245.574219 45.371094 C 245.179688 45.472656 244.800781 45.621094 244.4375 45.820312 L 244.4375 44.710938 C 244.875 44.542969 245.300781 44.417969 245.714844 44.332031 C 246.125 44.25 246.527344 44.207031 246.917969 44.207031 C 247.972656 44.207031 248.761719 44.480469 249.28125 45.027344 C 249.804688 45.574219 250.0625 46.402344 250.0625 47.511719 Z M 250.0625 47.511719 "/>
<path style=" stroke:none;fill-rule:nonzero;fill:rgb(0%,0%,0%);fill-opacity:1;" d="M 252.53125 41.542969 L 253.726562 41.542969 L 253.726562 51.671875 L 252.53125 51.671875 Z M 252.53125 41.542969 "/>
<path style=" stroke:none;fill-rule:nonzero;fill:rgb(0%,0%,0%);fill-opacity:1;" d="M 261.777344 53.886719 L 261.777344 54.816406 L 254.847656 54.816406 L 254.847656 53.886719 Z M 261.777344 53.886719 "/>
<path style=" stroke:none;fill-rule:nonzero;fill:rgb(0%,0%,0%);fill-opacity:1;" d="M 262.902344 41.542969 L 264.097656 41.542969 L 264.097656 51.671875 L 262.902344 51.671875 Z M 262.902344 41.542969 "/>
<path style=" stroke:none;fill-rule:nonzero;fill:rgb(0%,0%,0%);fill-opacity:1;" d="M 269.429688 45.222656 C 268.789062 45.222656 268.28125 45.472656 267.90625 45.972656 C 267.535156 46.472656 267.347656 47.160156 267.347656 48.035156 C 267.347656 48.90625 267.53125 49.59375 267.902344 50.09375 C 268.277344 50.59375 268.785156 50.847656 269.429688 50.847656 C 270.070312 50.847656 270.574219 50.59375 270.945312 50.089844 C 271.320312 49.585938 271.507812 48.902344 271.507812 48.035156 C 271.507812 47.167969 271.320312 46.484375 270.945312 45.980469 C 270.574219 45.472656 270.070312 45.222656 269.429688 45.222656 Z M 269.429688 44.207031 C 270.472656 44.207031 271.289062 44.546875 271.882812 45.222656 C 272.480469 45.898438 272.777344 46.835938 272.777344 48.035156 C 272.777344 49.226562 272.480469 50.164062 271.882812 50.84375 C 271.289062 51.523438 270.472656 51.863281 269.429688 51.863281 C 268.382812 51.863281 267.566406 51.523438 266.972656 50.84375 C 266.378906 50.164062 266.085938 49.226562 266.085938 48.035156 C 266.085938 46.835938 266.378906 45.898438 266.972656 45.222656 C 267.566406 44.546875 268.382812 44.207031 269.429688 44.207031 Z M 269.429688 44.207031 "/>
<path style=" stroke:none;fill-rule:nonzero;fill:rgb(0%,0%,0%);fill-opacity:1;" d="M 279.410156 44.597656 L 279.410156 45.730469 C 279.074219 45.554688 278.722656 45.425781 278.355469 45.339844 C 277.992188 45.253906 277.613281 45.207031 277.222656 45.207031 C 276.628906 45.207031 276.183594 45.300781 275.886719 45.480469 C 275.589844 45.664062 275.441406 45.9375 275.441406 46.300781 C 275.441406 46.578125 275.546875 46.796875 275.757812 46.957031 C 275.972656 47.113281 276.398438 47.265625 277.042969 47.410156 L 277.453125 47.5 C 278.300781 47.683594 278.90625 47.9375 279.265625 48.269531 C 279.625 48.601562 279.800781 49.066406 279.800781 49.660156 C 279.800781 50.339844 279.535156 50.875 279 51.269531 C 278.460938 51.664062 277.726562 51.863281 276.789062 51.863281 C 276.398438 51.863281 275.992188 51.824219 275.566406 51.746094 C 275.144531 51.671875 274.699219 51.558594 274.230469 51.40625 L 274.230469 50.167969 C 274.671875 50.398438 275.109375 50.570312 275.539062 50.6875 C 275.96875 50.800781 276.394531 50.859375 276.816406 50.859375 C 277.378906 50.859375 277.8125 50.761719 278.113281 50.570312 C 278.417969 50.375 278.570312 50.101562 278.570312 49.753906 C 278.570312 49.425781 278.460938 49.179688 278.242188 49.003906 C 278.023438 48.832031 277.542969 48.664062 276.800781 48.503906 L 276.382812 48.402344 C 275.640625 48.25 275.105469 48.007812 274.777344 47.683594 C 274.445312 47.363281 274.28125 46.917969 274.28125 46.355469 C 274.28125 45.667969 274.523438 45.140625 275.011719 44.765625 C 275.496094 44.394531 276.1875 44.207031 277.082031 44.207031 C 277.523438 44.207031 277.9375 44.238281 278.328125 44.304688 C 278.722656 44.367188 279.082031 44.464844 279.410156 44.597656 Z M 279.410156 44.597656 "/>
<path style=" stroke:none;fill-rule:nonzero;fill:rgb(0%,0%,0%);fill-opacity:1;" d="M 286.359375 44.597656 L 286.359375 45.730469 C 286.019531 45.554688 285.667969 45.425781 285.304688 45.339844 C 284.941406 45.253906 284.5625 45.207031 284.171875 45.207031 C 283.574219 45.207031 283.128906 45.300781 282.832031 45.480469 C 282.535156 45.664062 282.386719 45.9375 282.386719 46.300781 C 282.386719 46.578125 282.492188 46.796875 282.707031 46.957031 C 282.917969 47.113281 283.347656 47.265625 283.988281 47.410156 L 284.398438 47.5 C 285.25 47.683594 285.851562 47.9375 286.210938 48.269531 C 286.570312 48.601562 286.75 49.066406 286.75 49.660156 C 286.75 50.339844 286.480469 50.875 285.945312 51.269531 C 285.410156 51.664062 284.671875 51.863281 283.734375 51.863281 C 283.34375 51.863281 282.9375 51.824219 282.515625 51.746094 C 282.089844 51.671875 281.644531 51.558594 281.175781 51.40625 L 281.175781 50.167969 C 281.621094 50.398438 282.054688 50.570312 282.484375 50.6875 C 282.914062 50.800781 283.339844 50.859375 283.761719 50.859375 C 284.324219 50.859375 284.757812 50.761719 285.0625 50.570312 C 285.367188 50.375 285.519531 50.101562 285.519531 49.753906 C 285.519531 49.425781 285.410156 49.179688 285.1875 49.003906 C 284.972656 48.832031 284.488281 48.664062 283.746094 48.503906 L 283.332031 48.402344 C 282.589844 48.25 282.050781 48.007812 281.722656 47.683594 C 281.394531 47.363281 281.226562 46.917969 281.226562 46.355469 C 281.226562 45.667969 281.472656 45.140625 281.957031 44.765625 C 282.445312 44.394531 283.132812 44.207031 284.027344 44.207031 C 284.46875 44.207031 284.886719 44.238281 285.277344 44.304688 C 285.667969 44.367188 286.027344 44.464844 286.359375 44.597656 Z M 286.359375 44.597656 "/>
</g>
</svg>
